<svg id="Capa_1" data-name="Capa 1" xmlns="http://www.w3.org/2000/svg" viewBox="0 0 167.97 26.69"><defs><style>.cls-1{fill:#ffffff;}</style></defs><path class="cls-1" d="M23.54,28.26A4.86,4.86,0,0,0,23,25.8a1.93,1.93,0,0,0-1.8-.88h-.4l-.41,0v-.55h1.32c.5,0,1.19,0,2.07.14a9.62,9.62,0,0,0,1.21.11c.34,0,1,0,2.08-.11,1.48-.09,2.69-.14,3.64-.14a10,10,0,0,1,3.63.55,5,5,0,0,1,2.13,1.42,4.93,4.93,0,0,1,1,1.71,5.76,5.76,0,0,1,.25,1.62,4.76,4.76,0,0,1-.61,2.4A6.14,6.14,0,0,1,35.54,34a8.85,8.85,0,0,1-1.89,1.19,6.84,6.84,0,0,1-1.67.53v.1a9.74,9.74,0,0,1,5.31,2.37,6.54,6.54,0,0,1,2.32,5.16,7,7,0,0,1-.4,2.1,8.29,8.29,0,0,1-1.39,2.48A7.91,7.91,0,0,1,35.09,50a9.4,9.4,0,0,1-4.22.86c-1.72,0-3.39-.07-5-.2l-.91,0a12.86,12.86,0,0,0-1.41.1,23.76,23.76,0,0,1-2.43.15,7.93,7.93,0,0,1-1-.05v-.6a.48.48,0,0,1,.2,0,5.9,5.9,0,0,0,.71.06,6.61,6.61,0,0,0,1.16-.16,4.6,4.6,0,0,0,1.21-2,3,3,0,0,0,.08-.86c0-.5,0-1.06,0-1.67Zm2.57,7.07h2.43A8.16,8.16,0,0,0,33,34.27c1.11-.7,1.67-2,1.67-3.79a5,5,0,0,0-1.37-3.69c-.91-.91-2.41-1.36-4.5-1.36a7.21,7.21,0,0,0-2.07.2c-.4.13-.61.49-.61,1.06Zm0,14.31a14.35,14.35,0,0,0,1.72.43,13.39,13.39,0,0,0,2,.13,6.37,6.37,0,0,0,4.8-1.83,7,7,0,0,0,1.77-5.1,7.39,7.39,0,0,0-1-3.71,5.64,5.64,0,0,0-2.85-2.51,8.82,8.82,0,0,0-2.73-.63c-1-.08-2.26-.13-3.75-.13Z" transform="translate(-20.15 -24.42)"/><path class="cls-1" d="M23.54,28.26A4.86,4.86,0,0,0,23,25.8a1.93,1.93,0,0,0-1.8-.88h-.4l-.41,0v-.55h1.32c.5,0,1.19,0,2.07.14a9.62,9.62,0,0,0,1.21.11c.34,0,1,0,2.08-.11,1.48-.09,2.69-.14,3.64-.14a10,10,0,0,1,3.63.55,5,5,0,0,1,2.13,1.42,4.93,4.93,0,0,1,1,1.71,5.76,5.76,0,0,1,.25,1.62,4.76,4.76,0,0,1-.61,2.4A6.14,6.14,0,0,1,35.54,34a8.85,8.85,0,0,1-1.89,1.19,6.84,6.84,0,0,1-1.67.53v.1a9.74,9.74,0,0,1,5.31,2.37,6.54,6.54,0,0,1,2.32,5.16,7,7,0,0,1-.4,2.1,8.29,8.29,0,0,1-1.39,2.48A7.91,7.91,0,0,1,35.09,50a9.4,9.4,0,0,1-4.22.86c-1.72,0-3.39-.07-5-.2l-.91,0a12.86,12.86,0,0,0-1.41.1,23.76,23.76,0,0,1-2.43.15,7.93,7.93,0,0,1-1-.05v-.6a.48.48,0,0,1,.2,0,5.9,5.9,0,0,0,.71.06,6.61,6.61,0,0,0,1.16-.16,4.6,4.6,0,0,0,1.21-2,3,3,0,0,0,.08-.86c0-.5,0-1.06,0-1.67Zm2.57,7.07h2.43A8.16,8.16,0,0,0,33,34.27c1.11-.7,1.67-2,1.67-3.79a5,5,0,0,0-1.37-3.69c-.91-.91-2.41-1.36-4.5-1.36a7.21,7.21,0,0,0-2.07.2c-.4.13-.61.49-.61,1.06Zm0,14.31a14.35,14.35,0,0,0,1.72.43,13.39,13.39,0,0,0,2,.13,6.37,6.37,0,0,0,4.8-1.83,7,7,0,0,0,1.77-5.1,7.39,7.39,0,0,0-1-3.71,5.64,5.64,0,0,0-2.85-2.51,8.82,8.82,0,0,0-2.73-.63c-1-.08-2.26-.13-3.75-.13Z" transform="translate(-20.15 -24.42)"/><path class="cls-1" d="M48.91,32.25a2.44,2.44,0,0,0-.81-2.13,2.65,2.65,0,0,0-.73-.2,8,8,0,0,0-.83-.05,3.86,3.86,0,0,0-.66.05v-.45a2.71,2.71,0,0,1,.66-.1c.13,0,.54,0,1.21.1.94.1,1.64.15,2.07.15l2.58-.15,1.06,0c1.11-.07,1.79-.1,2-.1a14.6,14.6,0,0,1,1.85.12,7.88,7.88,0,0,1,2,.61,4.33,4.33,0,0,1,1.82,1.57,5,5,0,0,1,.73,2.85,4.49,4.49,0,0,1-1.66,3.62,8.22,8.22,0,0,1-4.66,1.64v.1a2.2,2.2,0,0,1,.53.3,2.77,2.77,0,0,1,.44.56l4.65,7.08a6.6,6.6,0,0,0,2,2.12,4.15,4.15,0,0,0,2.15.61,1.67,1.67,0,0,0,1.06-.31,1,1,0,0,0,0,.21.62.62,0,0,0,0,.25,4.59,4.59,0,0,1-1.06.25,12.93,12.93,0,0,1-1.82.1,6.25,6.25,0,0,1-2.62-.53,6.61,6.61,0,0,1-2.48-2.55L54.32,41.2a6.2,6.2,0,0,0-.66-.81,2.46,2.46,0,0,0-.7-.61,5.86,5.86,0,0,0-.81-.15,6.6,6.6,0,0,1-.81-.2v7.18a10.24,10.24,0,0,0,.3,2.9,1.41,1.41,0,0,0,1.52.94l.5-.05h.51v.5a5.21,5.21,0,0,1-.68.1h-.33l-.61,0a1.64,1.64,0,0,1-.3-.05,16.54,16.54,0,0,0-1.87-.15c-.47,0-1.08,0-1.82.1l-.36,0a7.68,7.68,0,0,1-.8.05A11.81,11.81,0,0,1,46,50.9v-.5a8.38,8.38,0,0,0,1,.05,3.63,3.63,0,0,0,1.21-.21,2.45,2.45,0,0,0,.61-1,6.45,6.45,0,0,0,.1-1.41Zm2.43,6.32h.1a10.05,10.05,0,0,0,1.24.35A6.35,6.35,0,0,0,54,39a6.11,6.11,0,0,0,3.79-1.11,3.8,3.8,0,0,0,1.46-3.23,4,4,0,0,0-.68-2.48,3.78,3.78,0,0,0-1.69-1.31,7.59,7.59,0,0,0-2-.51,21.9,21.9,0,0,0-2.23-.1,1.6,1.6,0,0,0-.91.23.92.92,0,0,0-.35.83Z" transform="translate(-20.15 -24.42)"/><path class="cls-1" d="M48.91,32.25a2.44,2.44,0,0,0-.81-2.13,2.65,2.65,0,0,0-.73-.2,8,8,0,0,0-.83-.05,3.86,3.86,0,0,0-.66.05v-.45a2.71,2.71,0,0,1,.66-.1c.13,0,.54,0,1.21.1.94.1,1.64.15,2.07.15l2.58-.15,1.06,0c1.11-.07,1.79-.1,2-.1a14.6,14.6,0,0,1,1.85.12,7.88,7.88,0,0,1,2,.61,4.33,4.33,0,0,1,1.82,1.57,5,5,0,0,1,.73,2.85,4.49,4.49,0,0,1-1.66,3.62,8.22,8.22,0,0,1-4.66,1.64v.1a2.2,2.2,0,0,1,.53.3,2.77,2.77,0,0,1,.44.56l4.65,7.08a6.6,6.6,0,0,0,2,2.12,4.15,4.15,0,0,0,2.15.61,1.67,1.67,0,0,0,1.06-.31,1,1,0,0,0,0,.21.62.62,0,0,0,0,.25,4.59,4.59,0,0,1-1.06.25,12.93,12.93,0,0,1-1.82.1,6.25,6.25,0,0,1-2.62-.53,6.61,6.61,0,0,1-2.48-2.55L54.32,41.2a6.2,6.2,0,0,0-.66-.81,2.46,2.46,0,0,0-.7-.61,5.86,5.86,0,0,0-.81-.15,6.6,6.6,0,0,1-.81-.2v7.18a10.24,10.24,0,0,0,.3,2.9,1.41,1.41,0,0,0,1.52.94l.5-.05h.51v.5a5.21,5.21,0,0,1-.68.1h-.33l-.61,0a1.64,1.64,0,0,1-.3-.05,16.54,16.54,0,0,0-1.87-.15c-.47,0-1.08,0-1.82.1l-.36,0a7.68,7.68,0,0,1-.8.05A11.81,11.81,0,0,1,46,50.9v-.5a8.38,8.38,0,0,0,1,.05,3.63,3.63,0,0,0,1.21-.21,2.45,2.45,0,0,0,.61-1,6.45,6.45,0,0,0,.1-1.41Zm2.43,6.32h.1a10.05,10.05,0,0,0,1.24.35A6.35,6.35,0,0,0,54,39a6.11,6.11,0,0,0,3.79-1.11,3.8,3.8,0,0,0,1.46-3.23,4,4,0,0,0-.68-2.48,3.78,3.78,0,0,0-1.69-1.31,7.59,7.59,0,0,0-2-.51,21.9,21.9,0,0,0-2.23-.1,1.6,1.6,0,0,0-.91.23.92.92,0,0,0-.35.83Z" transform="translate(-20.15 -24.42)"/><path class="cls-1" d="M68.27,50.35h.4l.36,0a4.07,4.07,0,0,0,.5,0,.81.81,0,0,0,.31-.07l.2-.16a3.93,3.93,0,0,0,.38-.28c.15-.11.23-.19.23-.22l.1-.15c.27-.37.49-.72.68-1a4.46,4.46,0,0,0,.38-.78l7-18.61h.55l7,17.75c.4,1,.71,1.68.93,2.12a12.36,12.36,0,0,0,.74,1.27,1.19,1.19,0,0,0,.4.1,5.13,5.13,0,0,0,.61.05,3.54,3.54,0,0,0,.6-.11l.36,0v.55a6.19,6.19,0,0,1-1,.1l-.9-.05A20.79,20.79,0,0,0,86,50.65c-.4,0-1,0-1.77.1a8.65,8.65,0,0,1-1.11.1,7.39,7.39,0,0,1-.91-.05v-.56a6.13,6.13,0,0,0,.91.11,3,3,0,0,0,.76-.11c.4-.06.61-.43.61-1.11A3,3,0,0,0,84.24,48L81.51,41.2H75.2l-2.23,6a5.41,5.41,0,0,0-.35,1.67,2,2,0,0,0,.3,1.09,1,1,0,0,0,1,.48l.56,0h.5v.45a5.31,5.31,0,0,1-.86.05l-1.41-.05-1.32,0c-.43,0-.92,0-1.46,0l-.76.05a5.5,5.5,0,0,1-.86-.05Zm12.94-10-2.93-7.28L75.6,40.39Z" transform="translate(-20.15 -24.42)"/><path class="cls-1" d="M68.27,50.35h.4l.36,0a4.07,4.07,0,0,0,.5,0,.81.81,0,0,0,.31-.07l.2-.16a3.93,3.93,0,0,0,.38-.28c.15-.11.23-.19.23-.22l.1-.15c.27-.37.49-.72.68-1a4.46,4.46,0,0,0,.38-.78l7-18.61h.55l7,17.75c.4,1,.71,1.68.93,2.12a12.36,12.36,0,0,0,.74,1.27,1.19,1.19,0,0,0,.4.1,5.13,5.13,0,0,0,.61.05,3.54,3.54,0,0,0,.6-.11l.36,0v.55a6.19,6.19,0,0,1-1,.1l-.9-.05A20.79,20.79,0,0,0,86,50.65c-.4,0-1,0-1.77.1a8.65,8.65,0,0,1-1.11.1,7.39,7.39,0,0,1-.91-.05v-.56a6.13,6.13,0,0,0,.91.11,3,3,0,0,0,.76-.11c.4-.06.61-.43.61-1.11A3,3,0,0,0,84.24,48L81.51,41.2H75.2l-2.23,6a5.41,5.41,0,0,0-.35,1.67,2,2,0,0,0,.3,1.09,1,1,0,0,0,1,.48l.56,0h.5v.45a5.31,5.31,0,0,1-.86.05l-1.41-.05-1.32,0c-.43,0-.92,0-1.46,0l-.76.05a5.5,5.5,0,0,1-.86-.05Zm12.94-10-2.93-7.28L75.6,40.39Z" transform="translate(-20.15 -24.42)"/><path class="cls-1" d="M92.43,50.19a6.13,6.13,0,0,0,.91.11,4.2,4.2,0,0,0,1-.08,1.06,1.06,0,0,0,.46-.28,4.14,4.14,0,0,0,1.06-2,8.66,8.66,0,0,0,.3-1.84l.76-12.64v-.15c.07-.94.1-1.64.1-2.07a1.57,1.57,0,0,0-.51-1.16A8.3,8.3,0,0,0,95.36,30a7.59,7.59,0,0,0-1.06.06v-.51l1.47-.1.6,0a12.54,12.54,0,0,1,2,.15,1.36,1.36,0,0,1,1.16.76L106,46l6.16-14.91V31a3.27,3.27,0,0,1,1-1.32,3.93,3.93,0,0,1,2.13-.4,11.38,11.38,0,0,1,2.43.25v.51a3.15,3.15,0,0,1-.51-.11c-.3,0-.52,0-.66,0-.74,0-1.21.2-1.41.59a2.61,2.61,0,0,0-.31,1.28,12.76,12.76,0,0,0,.1,1.37l1.27,13.44a8.13,8.13,0,0,0,.48,2.41,3.3,3.3,0,0,0,1.09,1.29,2.41,2.41,0,0,0,.85.15l.46-.05a2.56,2.56,0,0,1,.51,0v.45a6.19,6.19,0,0,1-.86.05c-.54,0-1.37-.05-2.48-.15l-.91-.05c-.3,0-.79,0-1.46.1s-1.1.1-1.37.1c-.61,0-1.1,0-1.47-.05v-.45l1.27,0a1.83,1.83,0,0,0,1.16-.36c.3-.23.45-.77.45-1.61a16,16,0,0,0-.1-1.83l-1.26-13.84h-.1l-7.08,17H105L97.94,32.5h-.1L97,47.62a5.18,5.18,0,0,0,.28,2,1.25,1.25,0,0,0,1.19.69l1.36-.06v.56c-.37,0-.82.05-1.36.05a9.93,9.93,0,0,1-1.12-.1,14,14,0,0,0-1.46-.1q-.25,0-1.47.15l-.71.05h-.75a2.06,2.06,0,0,1-.51-.1Z" transform="translate(-20.15 -24.42)"/><path class="cls-1" d="M92.43,50.19a6.13,6.13,0,0,0,.91.11,4.2,4.2,0,0,0,1-.08,1.06,1.06,0,0,0,.46-.28,4.14,4.14,0,0,0,1.06-2,8.66,8.66,0,0,0,.3-1.84l.76-12.64v-.15c.07-.94.1-1.64.1-2.07a1.57,1.57,0,0,0-.51-1.16A8.3,8.3,0,0,0,95.36,30a7.59,7.59,0,0,0-1.06.06v-.51l1.47-.1.6,0a12.54,12.54,0,0,1,2,.15,1.36,1.36,0,0,1,1.16.76L106,46l6.16-14.91V31a3.27,3.27,0,0,1,1-1.32,3.93,3.93,0,0,1,2.13-.4,11.38,11.38,0,0,1,2.43.25v.51a3.15,3.15,0,0,1-.51-.11c-.3,0-.52,0-.66,0-.74,0-1.21.2-1.41.59a2.61,2.61,0,0,0-.31,1.28,12.76,12.76,0,0,0,.1,1.37l1.27,13.44a8.13,8.13,0,0,0,.48,2.41,3.3,3.3,0,0,0,1.09,1.29,2.41,2.41,0,0,0,.85.15l.46-.05a2.56,2.56,0,0,1,.51,0v.45a6.19,6.19,0,0,1-.86.05c-.54,0-1.37-.05-2.48-.15l-.91-.05c-.3,0-.79,0-1.46.1s-1.1.1-1.37.1c-.61,0-1.1,0-1.47-.05v-.45l1.27,0a1.83,1.83,0,0,0,1.16-.36c.3-.23.45-.77.45-1.61a16,16,0,0,0-.1-1.83l-1.26-13.84h-.1l-7.08,17H105L97.94,32.5h-.1L97,47.62a5.18,5.18,0,0,0,.28,2,1.25,1.25,0,0,0,1.19.69l1.36-.06v.56c-.37,0-.82.05-1.36.05a9.93,9.93,0,0,1-1.12-.1,14,14,0,0,0-1.46-.1q-.25,0-1.47.15l-.71.05h-.75a2.06,2.06,0,0,1-.51-.1Z" transform="translate(-20.15 -24.42)"/><path class="cls-1" d="M121.75,50.35h.4l.36,0a4.19,4.19,0,0,0,.5,0,.81.81,0,0,0,.31-.07l.2-.16a3.93,3.93,0,0,0,.38-.28c.15-.11.22-.19.22-.22l.1-.15c.27-.37.5-.72.69-1a5.33,5.33,0,0,0,.38-.78l7-18.61h.56l7,17.75c.41,1,.72,1.68.94,2.12a12.28,12.28,0,0,0,.73,1.27,1.39,1.39,0,0,0,.41.1,5,5,0,0,0,.6.05,3.44,3.44,0,0,0,.61-.11l.35,0v.55a6,6,0,0,1-1,.1l-.92-.05a20.63,20.63,0,0,0-2.12-.15c-.4,0-1,0-1.77.1a9,9,0,0,1-1.11.1,7.27,7.27,0,0,1-.91-.05v-.56a6,6,0,0,0,.91.11,3.1,3.1,0,0,0,.76-.11q.6-.09.6-1.11a3,3,0,0,0-.25-1.16L135,41.2h-6.32l-2.22,6a5.13,5.13,0,0,0-.35,1.67,2,2,0,0,0,.3,1.09,1,1,0,0,0,1,.48l.56,0h.5v.45a5.4,5.4,0,0,1-.86.05l-1.41-.05-1.32,0c-.43,0-.93,0-1.46,0l-.76.05a5.4,5.4,0,0,1-.86-.05Zm12.94-10-2.93-7.28-2.68,7.28Z" transform="translate(-20.15 -24.42)"/><path class="cls-1" d="M121.75,50.35h.4l.36,0a4.19,4.19,0,0,0,.5,0,.81.81,0,0,0,.31-.07l.2-.16a3.93,3.93,0,0,0,.38-.28c.15-.11.22-.19.22-.22l.1-.15c.27-.37.5-.72.69-1a5.33,5.33,0,0,0,.38-.78l7-18.61h.56l7,17.75c.41,1,.72,1.68.94,2.12a12.28,12.28,0,0,0,.73,1.27,1.39,1.39,0,0,0,.41.1,5,5,0,0,0,.6.05,3.44,3.44,0,0,0,.61-.11l.35,0v.55a6,6,0,0,1-1,.1l-.92-.05a20.63,20.63,0,0,0-2.12-.15c-.4,0-1,0-1.77.1a9,9,0,0,1-1.11.1,7.27,7.27,0,0,1-.91-.05v-.56a6,6,0,0,0,.91.11,3.1,3.1,0,0,0,.76-.11q.6-.09.6-1.11a3,3,0,0,0-.25-1.16L135,41.2h-6.32l-2.22,6a5.13,5.13,0,0,0-.35,1.67,2,2,0,0,0,.3,1.09,1,1,0,0,0,1,.48l.56,0h.5v.45a5.4,5.4,0,0,1-.86.05l-1.41-.05-1.32,0c-.43,0-.93,0-1.46,0l-.76.05a5.4,5.4,0,0,1-.86-.05Zm12.94-10-2.93-7.28-2.68,7.28Z" transform="translate(-20.15 -24.42)"/><path class="cls-1" d="M150.26,32.25a2.44,2.44,0,0,0-.81-2.13,2.76,2.76,0,0,0-.73-.2,8.21,8.21,0,0,0-.84-.05,3.86,3.86,0,0,0-.66.05v-.45a2.78,2.78,0,0,1,.66-.1c.14,0,.54,0,1.21.1.95.1,1.64.15,2.08.15l2.58-.15,1.06,0c1.11-.07,1.78-.1,2-.1a14.45,14.45,0,0,1,1.84.12,7.66,7.66,0,0,1,2,.61,4.3,4.3,0,0,1,1.83,1.57,5.06,5.06,0,0,1,.73,2.85,4.5,4.5,0,0,1-1.67,3.62,8.16,8.16,0,0,1-4.65,1.64v.1a2.69,2.69,0,0,1,.53.3,2.81,2.81,0,0,1,.43.56l4.65,7.08a6.52,6.52,0,0,0,2.05,2.12,4.12,4.12,0,0,0,2.14.61,1.7,1.7,0,0,0,1.07-.31.59.59,0,0,0,0,.21.49.49,0,0,0,.05.25,4.73,4.73,0,0,1-1.06.25A12.93,12.93,0,0,1,165,51a6.3,6.3,0,0,1-2.63-.53,6.68,6.68,0,0,1-2.48-2.55l-4.24-6.72a8.51,8.51,0,0,0-.66-.81,2.34,2.34,0,0,0-.71-.61,5.86,5.86,0,0,0-.81-.15,7.21,7.21,0,0,1-.81-.2v7.18a10.17,10.17,0,0,0,.31,2.9,1.4,1.4,0,0,0,1.51.94l.51-.05h.5v.5a5.21,5.21,0,0,1-.68.1h-.33l-.6,0a1.57,1.57,0,0,1-.31-.05,16.54,16.54,0,0,0-1.86-.15c-.48,0-1.08,0-1.83.1l-.35,0a7.68,7.68,0,0,1-.81.05,11.61,11.61,0,0,1-1.41-.05v-.5a8.25,8.25,0,0,0,1,.05,3.67,3.67,0,0,0,1.21-.21,2.45,2.45,0,0,0,.61-1,7.17,7.17,0,0,0,.1-1.41Zm2.42,6.32h.11a9.52,9.52,0,0,0,1.23.35,6.35,6.35,0,0,0,1.29.1,6.09,6.09,0,0,0,3.79-1.11,3.8,3.8,0,0,0,1.47-3.23,4.08,4.08,0,0,0-.68-2.48,3.84,3.84,0,0,0-1.69-1.31,7.66,7.66,0,0,0-2-.51,21.56,21.56,0,0,0-2.22-.1,1.58,1.58,0,0,0-.91.23.9.9,0,0,0-.36.83Z" transform="translate(-20.15 -24.42)"/><path class="cls-1" d="M150.26,32.25a2.44,2.44,0,0,0-.81-2.13,2.76,2.76,0,0,0-.73-.2,8.21,8.21,0,0,0-.84-.05,3.86,3.86,0,0,0-.66.05v-.45a2.78,2.78,0,0,1,.66-.1c.14,0,.54,0,1.21.1.95.1,1.64.15,2.08.15l2.58-.15,1.06,0c1.11-.07,1.78-.1,2-.1a14.45,14.45,0,0,1,1.84.12,7.66,7.66,0,0,1,2,.61,4.3,4.3,0,0,1,1.83,1.57,5.06,5.06,0,0,1,.73,2.85,4.5,4.5,0,0,1-1.67,3.62,8.16,8.16,0,0,1-4.65,1.64v.1a2.69,2.69,0,0,1,.53.3,2.81,2.81,0,0,1,.43.56l4.65,7.08a6.52,6.52,0,0,0,2.05,2.12,4.12,4.12,0,0,0,2.14.61,1.7,1.7,0,0,0,1.07-.31.59.59,0,0,0,0,.21.49.49,0,0,0,.05.25,4.73,4.73,0,0,1-1.06.25A12.93,12.93,0,0,1,165,51a6.3,6.3,0,0,1-2.63-.53,6.68,6.68,0,0,1-2.48-2.55l-4.24-6.72a8.51,8.51,0,0,0-.66-.81,2.34,2.34,0,0,0-.71-.61,5.86,5.86,0,0,0-.81-.15,7.21,7.21,0,0,1-.81-.2v7.18a10.17,10.17,0,0,0,.31,2.9,1.4,1.4,0,0,0,1.51.94l.51-.05h.5v.5a5.21,5.21,0,0,1-.68.1h-.33l-.6,0a1.57,1.57,0,0,1-.31-.05,16.54,16.54,0,0,0-1.86-.15c-.48,0-1.08,0-1.83.1l-.35,0a7.68,7.68,0,0,1-.81.05,11.61,11.61,0,0,1-1.41-.05v-.5a8.25,8.25,0,0,0,1,.05,3.67,3.67,0,0,0,1.21-.21,2.45,2.45,0,0,0,.61-1,7.17,7.17,0,0,0,.1-1.41Zm2.42,6.32h.11a9.52,9.52,0,0,0,1.23.35,6.35,6.35,0,0,0,1.29.1,6.09,6.09,0,0,0,3.79-1.11,3.8,3.8,0,0,0,1.47-3.23,4.08,4.08,0,0,0-.68-2.48,3.84,3.84,0,0,0-1.69-1.31,7.66,7.66,0,0,0-2-.51,21.56,21.56,0,0,0-2.22-.1,1.58,1.58,0,0,0-.91.23.9.9,0,0,0-.36.83Z" transform="translate(-20.15 -24.42)"/><path class="cls-1" d="M186.09,33.72a2.79,2.79,0,0,0-1-2A5.74,5.74,0,0,0,183,30.63a13.86,13.86,0,0,0-2.23-.46c-.69-.06-1.29-.09-1.79-.09a3.9,3.9,0,0,0-1.77.4c0,.14-.07.2-.1.2a1.61,1.61,0,0,0-.15.56v7.48h3.08a7,7,0,0,0,2.15-.25,1.14,1.14,0,0,0,.73-1.22,4,4,0,0,0-.3-1.21.3.3,0,0,1,.2,0,.21.21,0,0,0,.15-.05l.05.05a2.1,2.1,0,0,1,.35.76,4.77,4.77,0,0,1,.11,1.21,5.26,5.26,0,0,0,0,1c0,.14.17.57.4,1.32.14.4.24.72.31,1a2.75,2.75,0,0,1,.1.45v.71H184a4.63,4.63,0,0,0-.63-1.44,2,2,0,0,0-1.14-.76,8.8,8.8,0,0,0-1.92-.3c-.77,0-1.88-.08-3.33-.08v8.95c0,.5.16.81.47.93a5.74,5.74,0,0,0,1.75.18c.94,0,1.8,0,2.58-.07a13.39,13.39,0,0,0,2.48-.44,6,6,0,0,0,2.27-1.13,3.5,3.5,0,0,0,1.22-2.05h.35a4.53,4.53,0,0,1-.23,1.34,10.67,10.67,0,0,1-1,1.59,0,0,0,0,0-.05.05c-.44.61-.71,1-.83,1.19a4.37,4.37,0,0,0-.38.78c-.37-.06-.89-.13-1.57-.2-.44,0-1.61,0-3.54,0-.54,0-1.38,0-2.52-.05s-2,0-2.53,0c-.3,0-.76,0-1.37,0s-1.06.05-1.36.05c-.81,0-1.35,0-1.62-.05v-.56a.25.25,0,0,1,.2.06c.31,0,.56.05.76.05a2.09,2.09,0,0,0,1.87-.69,3.74,3.74,0,0,0,.46-2.09V32a3.49,3.49,0,0,0-.31-1.7,1.39,1.39,0,0,0-1.31-.53l-1.42.1v-.6l.76-.05c1.28,0,3,0,5.06.05h1.52c1.95,0,3.24,0,3.86-.05s1.41-.12,2.35-.25h.1a6.84,6.84,0,0,0,.26.78l.65,1.74.36.91a6.6,6.6,0,0,1,.1,1.32Z" transform="translate(-20.15 -24.42)"/><path class="cls-1" d="M186.09,33.72a2.79,2.79,0,0,0-1-2A5.74,5.74,0,0,0,183,30.63a13.86,13.86,0,0,0-2.23-.46c-.69-.06-1.29-.09-1.79-.09a3.9,3.9,0,0,0-1.77.4c0,.14-.07.2-.1.2a1.61,1.61,0,0,0-.15.56v7.48h3.08a7,7,0,0,0,2.15-.25,1.14,1.14,0,0,0,.73-1.22,4,4,0,0,0-.3-1.21.3.3,0,0,1,.2,0,.21.21,0,0,0,.15-.05l.05.05a2.1,2.1,0,0,1,.35.76,4.77,4.77,0,0,1,.11,1.21,5.26,5.26,0,0,0,0,1c0,.14.17.57.4,1.32.14.4.24.72.31,1a2.75,2.75,0,0,1,.1.45v.71H184a4.63,4.63,0,0,0-.63-1.44,2,2,0,0,0-1.14-.76,8.8,8.8,0,0,0-1.92-.3c-.77,0-1.88-.08-3.33-.08v8.95c0,.5.16.81.47.93a5.74,5.74,0,0,0,1.75.18c.94,0,1.8,0,2.58-.07a13.39,13.39,0,0,0,2.48-.44,6,6,0,0,0,2.27-1.13,3.5,3.5,0,0,0,1.22-2.05h.35a4.53,4.53,0,0,1-.23,1.34,10.67,10.67,0,0,1-1,1.59,0,0,0,0,0-.05.05c-.44.61-.71,1-.83,1.19a4.37,4.37,0,0,0-.38.78c-.37-.06-.89-.13-1.57-.2-.44,0-1.61,0-3.54,0-.54,0-1.38,0-2.52-.05s-2,0-2.53,0c-.3,0-.76,0-1.37,0s-1.06.05-1.36.05c-.81,0-1.35,0-1.62-.05v-.56a.25.25,0,0,1,.2.06c.31,0,.56.05.76.05a2.09,2.09,0,0,0,1.87-.69,3.74,3.74,0,0,0,.46-2.09V32a3.49,3.49,0,0,0-.31-1.7,1.39,1.39,0,0,0-1.31-.53l-1.42.1v-.6l.76-.05c1.28,0,3,0,5.06.05h1.52c1.95,0,3.24,0,3.86-.05s1.41-.12,2.35-.25h.1a6.84,6.84,0,0,0,.26.78l.65,1.74.36.91a6.6,6.6,0,0,1,.1,1.32Z" transform="translate(-20.15 -24.42)"/></svg>