<svg width="113" height="612" viewBox="0 0 113 612" fill="none" xmlns="http://www.w3.org/2000/svg">
<path d="M111 573.8H108.36C108.24 575.96 107.16 581.12 106.56 582.56C105.36 585.32 103.44 586.28 100.8 586.28H39C36.36 586.28 34.2 585.56 33.24 582.56C32.52 580.4 31.8 575.96 31.68 573.8H29.04L29.04 611.48H31.68C31.8 609.32 33 604.88 33.84 602.72C35.04 599.72 36.96 599 39.6 599H101.4C104.04 599 106.08 599.84 107.16 602.72C107.76 604.28 108.24 609.32 108.36 611.48H111V573.8ZM90.24 476.93L88.56 480.05C99 484.73 106.56 491.57 106.56 506.21C106.56 521.93 91.8 535.01 70.08 535.01C42.84 535.01 30.96 523.13 30.96 510.89C30.96 495.41 43.56 487.25 57.48 482.93V480.05L27.84 480.53V485.45L33.96 489.05C30.6 492.65 27.48 500.57 27.48 507.17C27.48 531.29 46.32 549.41 71.04 549.41C96.48 549.41 112.8 533.33 112.8 509.69C112.8 491.45 101.4 481.85 90.24 476.93ZM69.48 372.612C57.72 372.612 46.68 376.932 39.6 384.012C30.84 393.012 27.12 403.212 27.12 414.492C27.12 426.132 31.32 436.692 39.6 444.852C47.4 452.652 57.84 456.492 70.92 456.492C84 456.492 94.2 451.572 101.64 443.652C108.96 435.852 112.92 425.892 112.92 414.972C112.92 402.612 108.6 392.892 101.4 385.092C92.88 376.332 81.96 372.612 69.48 372.612ZM69.84 387.132C92.16 387.132 109.2 395.892 109.2 414.492C109.2 433.212 91.68 441.972 70.32 441.972C45.48 441.972 30.84 431.532 30.84 414.492C30.84 394.572 50.28 387.132 69.84 387.132ZM4.91999 399.252C2.63999 399.252 0.359994 401.292 0.359994 404.052C0.359994 407.052 1.55999 409.092 5.51999 411.372C9.95999 414.012 14.88 416.892 23.76 423.012L25.2 421.332C17.52 411.732 14.4 407.172 11.52 403.572C9.23999 400.692 7.92 399.252 4.91999 399.252ZM31.68 258.685H29.04V294.445H31.68C31.8 291.685 33.84 284.485 35.28 282.205C36.96 279.565 42.84 278.125 51.48 278.125H92.16L29.04 328.285V353.005H31.68C31.8 349.765 34.68 343.045 36.96 340.165C38.88 337.765 42.96 336.325 46.44 336.325H88.68C98.04 336.325 103.08 337.405 105.12 340.285C106.08 341.605 108.24 349.285 108.36 351.445H111V315.445H108.36C108.24 317.605 106.2 325.765 104.52 327.805C102.36 330.445 97.2 331.885 88.08 331.885H44.16L111.84 278.125V273.685H50.76C42.84 273.685 36.72 272.965 34.68 269.725C33.48 267.805 31.8 260.845 31.68 258.685ZM111 201.669H108.36C108.24 203.829 107.16 208.989 106.56 210.429C105.36 213.189 103.44 214.149 100.8 214.149H39C36.36 214.149 34.2 213.429 33.24 210.429C32.52 208.269 31.8 203.829 31.68 201.669H29.04V239.349H31.68C31.8 237.189 33 232.749 33.84 230.589C35.04 227.589 36.96 226.869 39.6 226.869H101.4C104.04 226.869 106.08 227.709 107.16 230.589C107.76 232.149 108.24 237.189 108.36 239.349H111V201.669ZM90.24 104.799L88.56 107.919C99 112.599 106.56 119.439 106.56 134.079C106.56 149.799 91.8 162.879 70.08 162.879C42.84 162.879 30.96 150.999 30.96 138.759C30.96 123.279 43.56 115.119 57.48 110.799V107.919L27.84 108.399V113.319L33.96 116.919C30.6 120.519 27.48 128.439 27.48 135.039C27.48 159.159 46.32 177.279 71.04 177.279C96.48 177.279 112.8 161.199 112.8 137.559C112.8 119.319 101.4 109.719 90.24 104.799ZM69.48 0.480282C57.72 0.480282 46.68 4.80028 39.6 11.8803C30.84 20.8803 27.12 31.0803 27.12 42.3603C27.12 54.0003 31.32 64.5603 39.6 72.7203C47.4 80.5203 57.84 84.3603 70.92 84.3603C84 84.3603 94.2 79.4403 101.64 71.5203C108.96 63.7203 112.92 53.7603 112.92 42.8403C112.92 30.4803 108.6 20.7603 101.4 12.9603C92.88 4.20028 81.96 0.480282 69.48 0.480282ZM69.84 15.0003C92.16 15.0003 109.2 23.7603 109.2 42.3603C109.2 61.0803 91.68 69.8403 70.32 69.8403C45.48 69.8403 30.84 59.4003 30.84 42.3603C30.84 22.4403 50.28 15.0003 69.84 15.0003Z" fill="#1C1C1C"/>
</svg>
