<?xml version="1.0" encoding="UTF-8"?>
<!DOCTYPE svg PUBLIC "-//W3C//DTD SVG 1.1//EN" "http://www.w3.org/Graphics/SVG/1.1/DTD/svg11.dtd">
<!-- Creator: CorelDRAW 2019 (64-Bit) -->
<svg xmlns="http://www.w3.org/2000/svg" xml:space="preserve" width="255.261mm" height="80.4221mm" version="1.1" style="shape-rendering:geometricPrecision; text-rendering:geometricPrecision; image-rendering:optimizeQuality; fill-rule:evenodd; clip-rule:evenodd"
viewBox="0 0 8993.27 2833.4"
 xmlns:xlink="http://www.w3.org/1999/xlink"
 xmlns:xodm="http://www.corel.com/coreldraw/odm/2003">
 <defs>
  <style type="text/css">
   <![CDATA[
    .str0 {stroke:#BF957C;stroke-width:24.86;stroke-miterlimit:22.9256}
    .fil0 {fill:none;fill-rule:nonzero}
   ]]>
  </style>
 </defs>
 <g id="Layer_x0020_1">
  <metadata id="CorelCorpID_0Corel-Layer"/>
  <path class="fil0 str0" d="M2349.12 194.99l-152.07 0 -152.07 189.16c-159.49,-133.53 -289.3,-200.28 -552.65,-200.28 -738.1,0 -1479.9,730.67 -1479.9,1669.06 0,586.03 348.65,968.06 956.93,968.06 563.78,0 856.79,-352.35 1083.03,-697.3l-85.3 -51.92c-237.38,352.36 -467.34,593.44 -849.37,593.44 -474.76,0 -693.58,-370.9 -693.58,-879.04 0,-841.94 515.55,-1494.73 1005.14,-1494.73 478.46,0 604.57,344.93 652.79,819.69l89.01 0 178.04 -916.12zm1502.16 1513.28c0,-463.62 -296.73,-652.79 -548.94,-652.79 -689.88,0 -1038.52,715.85 -1038.52,1112.71 0,463.63 296.72,649.08 548.93,649.08 697.29,0 1038.53,-712.13 1038.53,-1109zm-348.65 -81.6c0,441.37 -218.83,1120.12 -634.25,1120.12 -144.65,0 -255.92,-166.9 -255.92,-508.13 0,-437.67 244.8,-1120.13 634.25,-1120.13 133.52,0 255.92,166.9 255.92,508.13zm2258.79 11.13c0,-463.62 -289.3,-582.32 -537.81,-582.32 -211.41,0 -389.44,166.91 -497,293.02l-11.13 -3.72 437.66 -1331.54 -808.57 37.09 0 74.19c89.02,3.71 129.81,3.71 222.54,14.83 81.6,11.13 148.36,37.09 148.36,118.69 0,48.21 -14.83,126.11 -55.64,248.5l-485.88 1520.71c-29.67,96.43 -55.63,170.61 -55.63,322.68 0,341.24 296.72,471.05 578.6,471.05 667.62,0 1064.5,-797.45 1064.5,-1183.18zm-348.65 -74.18c0,437.66 -318.98,1175.76 -704.72,1175.76 -126.11,0 -307.85,-51.93 -307.85,-393.16l263.34 -823.41c118.7,-174.32 281.9,-341.23 504.44,-341.23 96.43,0 244.79,40.8 244.79,382.03zm2114.14 144.65c0,-463.62 -296.72,-652.79 -548.93,-652.79 -689.88,0 -1038.53,715.85 -1038.53,1112.71 0,463.63 296.72,649.08 548.93,649.08 697.29,0 1038.53,-712.13 1038.53,-1109zm-348.65 -81.6c0,441.37 -218.83,1120.12 -634.25,1120.12 -144.65,0 -255.92,-166.9 -255.92,-508.13 0,-437.67 244.79,-1120.13 634.25,-1120.13 133.52,0 255.92,166.9 255.92,508.13zm1802.58 -181.74c0,-92.73 -55.63,-389.45 -459.91,-389.45 -300.43,0 -574.9,267.05 -574.9,504.43 0,463.62 619.4,463.62 619.4,886.46 0,200.29 -196.58,293.01 -411.71,293.01 -189.16,0 -374.61,-114.98 -374.61,-229.96 0,-55.64 33.38,-51.92 100.15,-51.92 126.11,0 163.2,-96.44 163.2,-163.2 0,-59.34 -33.38,-163.2 -196.58,-163.2 -103.85,0 -203.99,118.69 -203.99,255.92 0,178.03 144.65,430.24 552.64,430.24 330.1,0 637.96,-255.92 637.96,-522.97 0,-474.76 -611.99,-497.01 -611.99,-856.79 0,-215.12 181.75,-307.85 296.73,-307.85 248.5,0 307.84,114.98 315.27,163.2 -14.84,40.79 -207.71,85.3 -207.71,233.67 0,107.56 89.01,152.07 181.74,152.07 107.57,0 174.33,-96.43 174.33,-233.67z"/>
 </g>
</svg>
