<svg width="20" height="21" viewBox="0 0 20 21" fill="none" xmlns="http://www.w3.org/2000/svg">
<path d="M8.9028 20.5542V13.3502H6.49618V10.3723H8.90564V8.10461C8.85244 7.57385 8.90744 7.03688 9.06674 6.53182C9.22603 6.02677 9.48572 5.56602 9.82735 5.1823C10.169 4.79859 10.5842 4.50132 11.0434 4.3116C11.5027 4.12189 11.9948 4.04439 12.4847 4.08461C13.1967 4.0971 13.9069 4.166 14.6096 4.29076V6.82439H13.4106C13.2068 6.79539 12.9996 6.81652 12.8043 6.88622C12.6091 6.95592 12.4307 7.07241 12.2825 7.22708C12.1342 7.38175 12.0198 7.57064 11.9478 7.77981C11.8757 7.98897 11.8479 8.21305 11.8662 8.43548V10.3723H14.4948L14.0746 13.3523H11.8662V20.5553C14.2242 20.1501 16.3548 18.7938 17.833 16.757C19.3113 14.7202 20.0285 12.1526 19.8414 9.56659C19.6544 6.98057 18.577 4.56625 16.8241 2.80534C15.0712 1.04443 12.7717 0.0664062 10.3845 0.0664062C7.9973 0.0664062 5.69785 1.04443 3.94496 2.80534C2.19207 4.56625 1.11463 6.98057 0.927609 9.56659C0.740593 12.1526 1.45775 14.7202 2.936 16.757C4.41424 18.7938 6.54488 20.1501 8.9028 20.5553V20.5542Z" fill="#F1EEE9"/>
</svg>
