<?xml version="1.0" encoding="UTF-8"?>
<!DOCTYPE svg PUBLIC "-//W3C//DTD SVG 1.1//EN" "http://www.w3.org/Graphics/SVG/1.1/DTD/svg11.dtd">
<!-- Creator: CorelDRAW 2019 (64-Bit) -->
<svg xmlns="http://www.w3.org/2000/svg" xml:space="preserve" width="229.22mm" height="70.7056mm" version="1.1" style="shape-rendering:geometricPrecision; text-rendering:geometricPrecision; image-rendering:optimizeQuality; fill-rule:evenodd; clip-rule:evenodd"
viewBox="0 0 4314.26 1330.78"
 xmlns:xlink="http://www.w3.org/1999/xlink"
 xmlns:xodm="http://www.corel.com/coreldraw/odm/2003">
 <defs>
  <style type="text/css">
   <![CDATA[
    .str0 {stroke:#BF957C;stroke-width:13.28;stroke-miterlimit:22.9256}
    .fil0 {fill:none;fill-rule:nonzero}
   ]]>
  </style>
 </defs>
 <g id="Layer_x0020_1">
  <metadata id="CorelCorpID_0Corel-Layer"/>
  <path class="fil0 str0" d="M1687.22 52.26l-556.56 0 -14.6 40.14c32.85,1.83 102.19,20.07 129.56,31.02 23.72,12.77 36.49,23.72 36.49,47.44 0,10.95 -3.65,27.37 -7.3,43.8l-113.14 405.1 -598.53 0 114.96 -414.22c10.95,-38.32 32.85,-76.64 80.29,-91.24 34.67,-9.12 107.66,-20.07 142.34,-21.9l10.94 -40.14 -558.38 0 -10.95 40.14c27.37,1.83 96.71,20.07 122.26,31.02 25.54,12.77 36.49,25.54 36.49,49.27 0,10.95 -3.65,25.55 -7.3,41.97l-260.94 937.94c-10.95,38.32 -31.02,72.99 -78.47,89.42 -27.37,9.12 -105.84,16.42 -136.86,18.25l-9.12 38.32 556.56 0 9.12 -38.32c-34.67,-1.83 -107.66,-18.25 -125.91,-27.37 -27.37,-12.78 -38.32,-25.55 -38.32,-51.1 0,-9.12 1.83,-20.07 5.48,-36.49l131.38 -467.15 600.36 0 -133.21 474.45c-10.95,40.15 -31.02,72.99 -78.47,89.42 -25.54,9.12 -109.49,16.42 -142.33,18.25l-10.95 38.32 558.39 0 10.95 -38.32c-32.85,-1.83 -105.84,-16.43 -124.09,-27.37 -23.72,-14.6 -38.32,-23.72 -38.32,-49.27 0,-9.12 3.65,-21.9 7.3,-38.32l262.77 -939.77c10.95,-40.15 29.2,-76.64 78.47,-91.24 32.85,-9.12 104.01,-20.07 136.86,-21.9l12.77 -40.14zm454.38 54.74c0,-51.09 -32.85,-100.36 -83.94,-100.36 -76.64,0 -124.08,58.39 -124.08,127.73 0,56.57 31.02,102.19 91.24,102.19 74.82,0 116.79,-60.22 116.79,-129.56zm-21.9 936.12l-32.85 -10.95c-60.22,155.11 -114.96,240.87 -202.55,240.87 -32.85,0 -65.69,-5.48 -65.69,-63.87 0,-27.38 16.42,-80.29 41.97,-144.16l104.02 -268.24c21.9,-52.92 56.57,-142.34 56.57,-184.31 0,-107.66 -104.01,-155.11 -182.48,-155.11 -131.39,0 -193.43,116.79 -259.12,277.37l34.67 12.78c60.22,-155.11 111.31,-246.35 197.08,-246.35 34.67,0 60.22,16.43 60.22,69.34 0,21.9 -21.9,93.06 -41.97,144.16l-122.26 310.21c-23.72,63.87 -36.49,107.66 -36.49,151.45 0,111.31 111.31,142.34 189.78,142.34 127.74,0 193.43,-113.14 259.12,-275.54zm700.72 -556.56l-233.57 0 83.94 -282.84 -158.75 0 -80.29 282.84 -177 0 -20.07 60.22 175.18 0c-12.78,41.97 -135.04,443.42 -156.94,525.54 -5.47,20.07 -18.25,63.87 -18.25,105.84 0,111.31 111.31,140.51 189.78,140.51 127.73,0 206.2,-116.79 271.89,-279.19l-34.67 -10.95c-60.22,155.11 -125.91,244.52 -213.5,244.52 -32.85,0 -67.52,-7.3 -67.52,-65.69 0,-27.37 20.07,-83.94 34.67,-138.68 16.42,-63.87 104.01,-355.84 153.28,-521.89l231.75 0 20.07 -60.22zm771.89 291.97c0,-228.1 -145.98,-321.16 -270.07,-321.16 -339.41,0 -510.94,352.19 -510.94,547.44 0,228.1 145.98,319.34 270.07,319.34 343.06,0 510.94,-350.36 510.94,-545.62zm-171.53 -40.14c0,217.15 -107.66,551.09 -312.04,551.09 -71.17,0 -125.91,-82.12 -125.91,-250 0,-215.33 120.44,-551.09 312.04,-551.09 65.69,0 125.91,82.12 125.91,250zm886.85 -89.42c0,-45.62 -27.37,-191.6 -226.28,-191.6 -147.81,0 -282.84,131.39 -282.84,248.17 0,228.1 304.74,228.1 304.74,436.13 0,98.54 -96.71,144.16 -202.55,144.16 -93.07,0 -184.31,-56.57 -184.31,-113.14 0,-27.37 16.42,-25.54 49.27,-25.54 62.04,0 80.29,-47.45 80.29,-80.29 0,-29.2 -16.43,-80.29 -96.71,-80.29 -51.09,0 -100.36,58.39 -100.36,125.91 0,87.59 71.17,211.68 271.89,211.68 162.41,0 313.86,-125.91 313.86,-257.3 0,-233.57 -301.09,-244.52 -301.09,-421.53 0,-105.84 89.41,-151.46 145.98,-151.46 122.26,0 151.46,56.57 155.11,80.29 -7.3,20.07 -102.19,41.97 -102.19,114.96 0,52.92 43.8,74.81 89.42,74.81 52.92,0 85.77,-47.44 85.77,-114.96z"/>
 </g>
</svg>
