<svg width="18" height="19" viewBox="0 0 18 19" fill="none" xmlns="http://www.w3.org/2000/svg">
<path d="M8.91645 18.6837C6.57811 18.6837 6.30491 18.6703 5.39708 18.627C4.6869 18.6019 3.98589 18.445 3.32436 18.1631C2.7585 17.9232 2.24461 17.5583 1.81518 17.0915C1.38575 16.6247 1.05011 16.0662 0.829499 15.4512C0.57991 14.7298 0.445489 13.9674 0.432029 13.1969C0.378906 12.2094 0.378906 11.8858 0.378906 9.36968C0.378906 6.8175 0.391238 6.5227 0.432029 5.54553C0.445941 4.77605 0.580353 4.01477 0.829499 3.29434C1.04961 2.67844 1.38538 2.11913 1.81542 1.65203C2.24545 1.18493 2.76031 0.820298 3.3272 0.581357C3.98994 0.309423 4.69069 0.162994 5.39898 0.148435C6.30491 0.0927734 6.60182 0.0927734 8.91645 0.0927734C11.2662 0.0927734 11.5365 0.105143 12.432 0.148435C13.1434 0.162753 13.8473 0.309171 14.5133 0.581357C15.0798 0.820803 15.5943 1.18563 16.0241 1.65267C16.4539 2.11971 16.7897 2.67877 17.01 3.29434C17.2637 4.02526 17.3989 4.79845 17.4094 5.57955C17.4625 6.56805 17.4625 6.89068 17.4625 9.40575C17.4625 11.9383 17.4492 12.263 17.4094 13.2268C17.3956 13.9981 17.2609 14.7611 17.011 15.4832C16.79 16.0984 16.4539 16.6571 16.024 17.1239C15.594 17.5907 15.0796 17.9555 14.5133 18.1951C13.8496 18.4658 13.1484 18.6119 12.4396 18.627C11.5337 18.6837 11.2358 18.6837 8.91645 18.6837ZM8.88419 1.72448C6.56862 1.72448 6.32293 1.73685 5.4227 1.78117H5.417C4.87621 1.7882 4.34059 1.89665 3.83376 2.10174C3.46359 2.25579 3.12724 2.49241 2.84637 2.79636C2.56551 3.1003 2.34638 3.46482 2.20309 3.86641C2.0133 4.42325 1.91349 5.01154 1.90807 5.60532C1.8578 6.60413 1.8578 6.86594 1.8578 9.36968C1.8578 11.8538 1.86634 12.1527 1.90807 13.1361C1.91635 13.7239 2.0161 14.3059 2.20309 14.8575C2.34695 15.2586 2.5663 15.6226 2.84709 15.9263C3.12789 16.23 3.46395 16.4667 3.83376 16.6211C4.34049 16.8265 4.87621 16.9346 5.417 16.9407C6.33526 16.9984 6.57716 16.9984 8.88419 16.9984C11.214 16.9984 11.4549 16.986 12.3504 16.9407C12.8915 16.9345 13.4275 16.8264 13.9346 16.6211C14.3024 16.4652 14.6363 16.2282 14.9155 15.925C15.1947 15.6218 15.4131 15.259 15.5568 14.8595C15.7459 14.3022 15.8457 13.7136 15.8518 13.1196H15.8632C15.903 12.1342 15.903 11.8713 15.903 9.35318C15.903 6.81647 15.8926 6.55568 15.8518 5.58573C15.8436 4.99862 15.7438 4.41728 15.5568 3.86641C15.4137 3.46617 15.1956 3.10261 14.9164 2.79882C14.6371 2.49503 14.3028 2.25765 13.9346 2.10174C13.4277 1.89574 12.8916 1.78727 12.3504 1.78117C11.4331 1.72448 11.1931 1.72448 8.88419 1.72448ZM8.91645 14.1308C8.04901 14.1314 7.20088 13.8525 6.47934 13.3293C5.75781 12.8061 5.19527 12.0621 4.86288 11.1915C4.53049 10.3209 4.44318 9.36272 4.612 8.43818C4.78082 7.51364 5.19817 6.66426 5.81128 5.99748C6.42439 5.3307 7.2057 4.87647 8.05641 4.69223C8.90712 4.508 9.78901 4.60204 10.5905 4.96246C11.392 5.32288 12.0772 5.93349 12.5593 6.71706C13.0414 7.50063 13.2989 8.42196 13.2991 9.36452C13.3011 9.9907 13.1891 10.6111 12.9696 11.1901C12.7501 11.7691 12.4274 12.2952 12.0201 12.7382C11.6128 13.1811 11.1289 13.5322 10.5963 13.7712C10.0636 14.0102 9.49272 14.1324 8.91645 14.1308ZM8.91645 6.27016C8.35359 6.27016 7.80338 6.45152 7.33538 6.79131C6.86738 7.13109 6.50262 7.61404 6.28723 8.17909C6.07183 8.74413 6.01547 9.36589 6.12528 9.96574C6.23509 10.5656 6.50613 11.1166 6.90413 11.549C7.30213 11.9815 7.80921 12.276 8.36125 12.3953C8.91329 12.5147 9.48549 12.4534 10.0055 12.2194C10.5255 11.9853 10.97 11.589 11.2827 11.0805C11.5954 10.5719 11.7623 9.97406 11.7623 9.36246C11.7623 8.54233 11.4625 7.75579 10.9288 7.17587C10.3951 6.59595 9.67121 6.27016 8.91645 6.27016ZM13.4698 5.53522C13.2329 5.53459 13.0035 5.44475 12.8206 5.28098C12.6378 5.11722 12.5129 4.88966 12.4671 4.63706C12.4213 4.38445 12.4576 4.12242 12.5696 3.89557C12.6816 3.66872 12.8626 3.49108 13.0816 3.3929C13.3006 3.29472 13.5442 3.28206 13.7709 3.35709C13.9975 3.43211 14.1932 3.59018 14.3247 3.80438C14.4561 4.01858 14.5152 4.27566 14.4918 4.53186C14.4684 4.78806 14.364 5.02753 14.1964 5.2095C14.101 5.3131 13.9877 5.3952 13.863 5.4511C13.7383 5.50699 13.6047 5.53558 13.4698 5.53522Z" fill="#F1EEE9"/>
</svg>
