<?xml version="1.0" encoding="UTF-8"?>
<!DOCTYPE svg PUBLIC "-//W3C//DTD SVG 1.1//EN" "http://www.w3.org/Graphics/SVG/1.1/DTD/svg11.dtd">
<!-- Creator: CorelDRAW 2019 (64-Bit) -->
<svg xmlns="http://www.w3.org/2000/svg" xml:space="preserve" width="121.053mm" height="119.979mm" version="1.1" style="shape-rendering:geometricPrecision; text-rendering:geometricPrecision; image-rendering:optimizeQuality; fill-rule:evenodd; clip-rule:evenodd"
viewBox="0 0 7651.31 7583.46"
 xmlns:xlink="http://www.w3.org/1999/xlink"
 xmlns:xodm="http://www.corel.com/coreldraw/odm/2003">
 <defs>
  <style type="text/css">
   <![CDATA[
    .fil0 {fill:#1D1D1B}
   ]]> 
  </style>
 </defs>
 <g id="Layer_x0020_1">
  <metadata id="CorelCorpID_0Corel-Layer"/>
  <path class="fil0" d="M3753.34 562.89l0 -366.02c0,0 -289.9,-208.38 -570.91,-179.84 -281.02,28.54 -1309.93,236.61 -1066.97,1751.43 74.53,461.49 57.09,321.93 57.09,321.93 0,0 -937.89,-287.68 -1543.05,66.29 -486.54,285.46 -669.56,687.95 -622.3,1019.4 47.26,331.45 166.83,451.65 166.83,451.65l388.22 0.01 -1.9 -129.72c0,0 -263.25,-57.09 -339.06,-253.74 -75.8,-196.65 -130.04,-394.25 193.47,-574.08 356.19,-197.92 864.61,-327.96 1477.08,-163.98 612.46,163.98 542.68,126.87 893.16,486.23 350.48,359.36 507.48,494.16 576.63,531.9 56.48,28.61 115.59,53.32 175.68,73.51 5.44,1.14 10.95,1.67 16.45,1.67 30.64,0 58.9,-16.49 73.98,-43.15 38.06,-56.77 -80.56,-266.74 -80.56,-266.74 0,0 -51.06,-92.62 -245.49,-319.71 -318.76,-371.73 -389.17,-346.99 -431.67,-423.75 -118.63,-216.31 -322.88,-729.5 -299.73,-1283.61 28.56,-676.21 296.89,-1324.51 845.59,-999.41 170.95,101.18 208.7,298.46 208.7,298.46l128.78 1.27z"/>
  <path class="fil0" d="M7080.18 3754.61l366.02 0c0,0 208.7,-290.53 180.16,-570.91 -28.54,-280.38 -236.61,-1309.61 -1752.07,-1066.97 -461.17,73.9 -321.62,55.5 -321.62,55.5 0,0 287.68,-937.89 -66.29,-1543.37 -283.87,-485.91 -688.27,-668.92 -1019.71,-621.66 -331.45,47.26 -451.34,166.83 -451.34,166.83l0 388.86 129.41 -2.53c0,0 57.41,-262.62 253.74,-338.43 196.33,-75.8 394.25,-130.04 574.08,193.47 198.23,356.5 328.27,864.62 164.3,1477.08 -163.98,612.46 -126.87,542.68 -486.54,893.16 -359.68,350.48 -494.16,507.48 -532.22,576.94 -28.55,56.68 -53.27,115.71 -73.28,175.73 -1.08,5.4 -1.62,10.92 -1.62,16.44 0,30.54 16.52,58.72 43.17,73.62 56.77,38.38 266.74,-80.56 266.74,-80.56 0,0 92.62,-50.75 319.71,-245.49 371.41,-317.18 346.67,-389.17 423.43,-431.36 216.63,-118.94 729.5,-323.2 1283.92,-300.05 678.44,28.23 1325.79,296.87 1000.37,845.9 -101.18,171.28 -298.14,208.38 -298.14,208.38l-2.21 129.41z"/>
  <path class="fil0" d="M3897.97 7021.83l0 366.34c0,0 290.53,208.38 570.91,179.84 280.38,-28.54 1309.93,-236.61 1066.97,-1751.74 -74.53,-461.17 -57.09,-321.93 -57.09,-321.93 0,0 937.89,287.68 1543.37,-66.29 486.23,-285.46 669.24,-687.95 621.98,-1019.4 -47.25,-331.45 -166.52,-451.65 -166.52,-451.65l-387.9 -0.01 2.53 129.72c0,0 262.94,57.41 338.11,253.74 75.17,196.33 130.36,393.93 -193.16,574.08 -356.5,198.23 -864.93,328.27 -1477.4,163.98 -612.46,-164.3 -542.37,-126.87 -893.16,-486.23 -350.8,-359.36 -507.48,-494.16 -576.63,-532.22 -56.74,-28.65 -115.86,-53.46 -176.11,-73.6 -5.14,-0.97 -10.46,-1.48 -15.78,-1.48 -30.66,0 -58.96,16.59 -73.92,43.36 -38.69,56.77 80.56,266.74 80.56,266.74 0,0 50.75,92.62 245.18,319.39 319.08,371.73 389.49,346.99 431.67,424.06 118.94,216.31 323.2,729.5 299.73,1283.61 -27.91,678.43 -296.24,1325.47 -845.9,1000.36 -170.64,-101.5 -207.75,-298.46 -207.75,-298.46l-129.72 -2.22z"/>
  <path class="fil0" d="M555.59 3830.42l-366.02 0c0,0 -208.07,290.21 -179.84,570.91 28.23,280.7 236.93,1309.93 1752.07,1066.66 461.17,-73.9 321.61,-56.77 321.61,-56.77 0,0 -287.99,937.89 66.61,1543.37 283.87,486.23 687.32,668.92 1019.08,621.66 331.76,-47.26 451.34,-166.2 451.34,-166.2l0.01 -387.9 -129.41 2.22c0,0 -57.41,262.62 -253.74,338.43 -196.33,75.8 -394.25,130.36 -573.77,-193.16 -197.92,-356.5 -327.96,-864.61 -164.3,-1477.08 163.66,-612.46 126.87,-543.01 486.23,-893.16 359.36,-350.16 494.16,-507.48 532.22,-576.94 28.65,-56.68 53.19,-115.96 73.56,-176.07 0.97,-5.07 1.46,-10.28 1.46,-15.47 0,-30.74 -16.54,-59.12 -43.29,-74.25 -56.46,-38.69 -266.74,80.25 -266.74,80.25 0,0 -92.62,50.75 -319.39,245.49 -371.73,318.76 -346.35,389.49 -424.06,431.67 -216,118.94 -729.5,323.2 -1282.97,299.73 -679.06,-28.23 -1325.78,-296.56 -1000.68,-845.59 100.86,-171.28 298.14,-208.38 298.14,-208.38l1.9 -129.41z"/>
 </g>
</svg>
