<svg id="Capa_1" data-name="Capa 1" xmlns="http://www.w3.org/2000/svg" viewBox="0 0 591.86 375.94"><defs><style>.cls-1{fill:#1d1d1b;fill-rule:evenodd;}</style></defs><path class="cls-1" d="M307.94,39.26V27.72s-9.14-6.57-18-5.67-41.3,7.46-33.64,55.22c2.35,14.55,1.8,10.15,1.8,10.15s-29.57-9.07-48.65,2.09c-15.34,9-21.11,21.69-19.62,32.14s5.26,14.24,5.26,14.24h12.24l-.06-4.09s-8.3-1.8-10.69-8-4.1-12.43,6.1-18.1c11.23-6.24,27.26-10.34,46.57-5.17s17.11,4,28.16,15.33,16,15.58,18.18,16.77a41.71,41.71,0,0,0,5.54,2.32,2.68,2.68,0,0,0,2.85-1.31c1.2-1.79-2.54-8.41-2.54-8.41s-1.61-2.92-7.74-10.08c-10.05-11.72-12.27-10.94-13.61-13.36-3.74-6.82-10.18-23-9.45-40.47C271.54,40,280,19.56,297.3,29.81c5.39,3.19,6.58,9.41,6.58,9.41Z" transform="translate(-14.29 -21.54)"/><path class="cls-1" d="M412.83,139.89h11.54s6.58-9.16,5.68-18-7.46-41.29-55.24-33.64C360.27,90.58,364.67,90,364.67,90s9.07-29.57-2.09-48.66c-8.95-15.32-21.7-21.09-32.15-19.6S316.2,27,316.2,27V39.26l4.08-.08s1.81-8.28,8-10.67,12.43-4.1,18.1,6.1c6.25,11.24,10.35,27.26,5.18,46.57s-4,17.11-15.34,28.16-15.58,16-16.78,18.19a42,42,0,0,0-2.31,5.54,2.66,2.66,0,0,0,1.31,2.84c1.79,1.21,8.41-2.54,8.41-2.54s2.92-1.6,10.08-7.74c11.71-10,10.93-12.27,13.35-13.6,6.83-3.75,23-10.19,40.48-9.46,21.39.89,41.8,9.36,31.54,26.67-3.19,5.4-9.4,6.57-9.4,6.57Z" transform="translate(-14.29 -21.54)"/><path class="cls-1" d="M312.5,242.9v11.55s9.16,6.57,18,5.67,41.3-7.46,33.64-55.23c-2.35-14.54-1.8-10.15-1.8-10.15s29.57,9.07,48.66-2.09c15.33-9,21.1-21.69,19.61-32.14s-5.25-14.24-5.25-14.24H413.13l.08,4.09s8.29,1.81,10.66,8,4.11,12.42-6.09,18.1c-11.24,6.25-27.27,10.35-46.58,5.17s-17.1-4-28.16-15.33-16-15.58-18.18-16.78a41.6,41.6,0,0,0-5.55-2.32,2.67,2.67,0,0,0-2.83,1.32c-1.22,1.79,2.54,8.41,2.54,8.41s1.6,2.92,7.73,10.07c10.06,11.72,12.28,10.94,13.61,13.37,3.75,6.82,10.19,23,9.45,40.47-.88,21.39-9.34,41.79-26.67,31.54-5.38-3.2-6.55-9.41-6.55-9.41Z" transform="translate(-14.29 -21.54)"/><path class="cls-1" d="M207.12,142.28H195.58s-6.56,9.15-5.67,18,7.47,41.3,55.24,33.63c14.54-2.33,10.14-1.79,10.14-1.79s-9.08,29.57,2.1,48.66c8.95,15.33,21.67,21.09,32.13,19.6s14.23-5.24,14.23-5.24V242.91l-4.08.07s-1.81,8.28-8,10.67-12.43,4.11-18.09-6.09c-6.24-11.24-10.34-27.26-5.18-46.57s4-17.12,15.33-28.16,15.58-16,16.78-18.19a43.12,43.12,0,0,0,2.32-5.55,2.69,2.69,0,0,0-1.32-2.83c-1.78-1.22-8.41,2.53-8.41,2.53s-2.92,1.6-10.07,7.74c-11.72,10.05-10.92,12.28-13.37,13.61-6.81,3.75-23,10.19-40.45,9.45-21.41-.89-41.8-9.35-31.55-26.66,3.18-5.4,9.4-6.57,9.4-6.57Z" transform="translate(-14.29 -21.54)"/><path class="cls-1" d="M76,322.81c-.71,0-1.06.25-1.06,1.08,0,2.27,6.08.23,6.08,4.77q0,5.55-16.11,40.43c-4.28,9.31-6.08,14-6.54,14-.72,0-2.64-5.85-8.12-17.78C39.94,343,34.34,330.68,34.34,327.94c0-3.69,6.79-1.07,6.79-3.93,0-.48-.23-.95-.47-.95-2.14,0-6.57.59-13,.59-4.65,0-8.46-.48-11.32-.48H15.6c-.94,0-1.31.12-1.31,1.08,0,1.66,1.43.59,4.55,1.91,2.26.95,4.28,4.29,6.91,9.42,8.46,16.69,17.88,36.73,26.12,56.53,1.55,3.81,1.43,5.37,3.33,5.37,2.16,0,2-1.07,3.12-4.29,2.48-7.64,9.76-23,20.51-47.12,4.89-11,8-17.65,11.56-19.68,3-1.66,4.67-.36,4.67-2.38,0-.84-.25-.95-1-.95-4,0-7.38.36-10.13.36C81,323.42,78.34,322.81,76,322.81Z" transform="translate(-14.29 -21.54)"/><path class="cls-1" d="M126.38,342.08c-2.9,0-6.94.71-11.85.71-3.08,0-6-.36-8.81-.36h-.43c-.69,0-1,.1-1,1,0,1.49,3.58.18,6,1.93,2.2,1.58,2.2,9.23,2.2,23.82v7.39c0,8.26-.1,13.35-1.24,15.64-.79,1.4-3.34,2.2-6.32,2.2-.88,0-1.14.35-1.14,1.05s.26.79.87.79c2.82,0,6-.43,9.67-.43,5,0,8.87.53,11.68.53h.45c.71,0,1-.1,1-.81,0-1.31-1.22-.52-4.3-1.22-2.9-.62-3.33-3.43-3.33-10.64,0-2.55.09-5.62.09-9.4,0-18.1.26-27.43,2.1-29,2.2-1.94,5.62-1,5.62-2.55C127.7,342.08,127.27,342.08,126.38,342.08Z" transform="translate(-14.29 -21.54)"/><path class="cls-1" d="M180.6,324.24c-.62,2.55-1.86,3.78-4.06,3.78a7.18,7.18,0,0,1-2.18-.35l-4.84-1.41a11.56,11.56,0,0,0-3.44-.52c-3.77,0-6.75,3.07-7.81,8.7h2.1c.79-2.9,1.94-3.87,4.32-3.87a9.91,9.91,0,0,1,2.45.43l4.83,1.42a11.29,11.29,0,0,0,2.84.44c3.93,0,6.66-3,7.8-8.62Zm-31.2,28.65c4.55,4.49,16.17,14.24,33.74,30.94,9.32,8.88,9.67,12.49,11.16,12.49.79,0,1.06-.1,1.06-.89v-1c0-3.51-.27-8.88-.27-16.17V367.74c0-14.23.17-21.7,2.12-23.28,1.57-1.24,3.94-.44,3.94-1.59,0-.88-.43-.88-1.22-.88s-2.9.18-6.16.18c-3.59,0-6.32-.7-8-.7-.43,0-.7.17-.7.87,0,1.24,2.1.27,4.3,1.68,3.08,2,3.25,9.31,3.25,24.17,0,2.63,0,6.94-.17,13l-.71.44c-19-16.35-32.79-28.92-41.13-39.38-2.28.17-4.4.35-6.16.35-2.54,0-4.3-.27-5.28-.27-.51,0-.77.19-.77.88,0,1.24,3.32.18,5.61,2.73s2.38,11.87,2.38,28.91c0,3.87-.26,7.74-.26,11.52,0,1.75.08,3.17.08,4.22,0,2.37-.35,3.25-2.1,3.78-2.65.79-3.77.44-3.77,1.49,0,.71.34.71.85.71,1.59,0,4.94-.62,9.69-.62,2.89,0,5.26.44,7.19.44.45,0,.62,0,.62-.61,0-2-5.61-.45-8.08-2.73-1.77-1.58-1.85-10.37-1.85-27.43V353.25Z" transform="translate(-14.29 -21.54)"/><path class="cls-1" d="M247.72,389.89a6.9,6.9,0,0,1,.45,2.2c0,2.9-4.22,1.76-4.22,3.42,0,.53.08.62.53.62.26,0,.51-.09.88-.09,1.48,0,4.13-.61,7.91-.61,4.75,0,7.38.26,7.91.26s.69-.08.69-.78-1.14-.45-2.63-1.06c-2.36-1-3.43-3.34-5.18-7.56-9.58-23.21-14.78-36.56-15.82-40-1.14-3.87-.71-4.48-2.47-4.48-1.22,0-1.22.61-1.75,2.45s-3.61,10.29-9.32,24.88c-6,15.12-8.87,23.56-12.13,25.23-1.57.79-2.71.44-2.71,1.41,0,.43.24.53.77.53a62.19,62.19,0,0,1,6.24-.45c3.87,0,6.87.71,9,.71.53,0,.88-.26.88-.71,0-1.67-6.85-.61-6.85-4.65a9.25,9.25,0,0,1,.53-2.73l3.59-9.84c.44-1.24.79-1.33,1.85-1.33h16c.77,0,1.4.09,1.75,1.06Zm-13.44-34.53,7.38,18a2.1,2.1,0,0,1,.27,1c0,.43-.18.62-.61.62H226.56c-.62,0-.9,0-.9-.53a2.3,2.3,0,0,1,.28-1l6.94-18.37c.16-.44.44-.7.71-.7S234,354.83,234.28,355.36Z" transform="translate(-14.29 -21.54)"/><path class="cls-1" d="M357,392.47c.84-7.87,3.11-12.05,3.11-14,0-.35-.49-.59-1.32-.59s-.95,1.31-2.5,4.29c-4.06,7.52-10.38,11.1-20,11.1-16.81,0-29.93-14.32-29.93-35.19,0-19.8,10.86-32.56,27.31-32.56a36.8,36.8,0,0,1,17.77,5.36c3.83,2.27,3.95,4.18,3.95,7.17v1.66c0,.72.12,1,1.07,1s1.18-.6,1.31-2.27a69,69,0,0,1,2.15-12.76c0-.48-.37-.72-.84-.72-.84,0-1.91.6-3.22.6-3.33,0-10.14-3.22-20.16-3.22-24.09,0-41,15.38-41,37,0,22.06,17,37.45,40.07,37.45C342.91,396.76,349.83,394.38,357,392.47Z" transform="translate(-14.29 -21.54)"/><path class="cls-1" d="M374.71,368.8c0,15.74,12.13,28.21,28.57,28.21s28.55-12.47,28.55-28.56c0-15.47-11.85-27.16-27.94-27.16C387.63,341.29,374.71,353.51,374.71,368.8Zm26.72-24.26c6.15,0,11.87,2.82,16.35,8.35a32.34,32.34,0,0,1,6.77,19.43c0,13-7.48,21.26-18.11,21.26-7.12,0-13.62-3.51-18.27-10A32.92,32.92,0,0,1,382.09,365C382.09,352.81,390,344.54,401.43,344.54Z" transform="translate(-14.29 -21.54)"/><path class="cls-1" d="M463.55,342.08c-3.78,0-8.16.88-13,.88a38.85,38.85,0,0,1-5.81-.43c-.35,0-.52.52-.52,1.14s2.46.35,3.95,1.58c2,1.57,2.12,6.59,2.12,15.9V386.2c0,4.49-.09,6.94-1.77,7.83-2.37,1.23-3.61.61-3.61,1.76a.71.71,0,0,0,.8.79,69.53,69.53,0,0,1,9.49-.62c4.3,0,8.18.26,11.35.26,12,0,19-5.88,19-14.15,0-6.33-4.13-11.69-11.95-14.24-2.55-.78-4.21-.87-4.21-1.23s.87-.35,2-.79c5.79-2.2,8.61-5.88,8.61-11.07C480,347.53,474.18,342.08,463.55,342.08Zm-5.88,26.54a39.54,39.54,0,0,1,4.47-.26c9.76,0,15.47,5.36,15.47,13.63,0,7.46-4.73,11.95-13.18,11.95-3.87,0-5.79-.62-6.23-2.2-.27-.79-.53-7.12-.53-18.72Zm0-2.37V349.56c0-4.75.26-5.1,4.05-5.1,6.23,0,10.54,4.57,10.54,11.42s-4.31,10.46-12.84,10.46C458.9,366.34,458.28,366.25,457.67,366.25Z" transform="translate(-14.29 -21.54)"/><path class="cls-1" d="M499,368.8C499,384.54,511.16,397,527.6,397s28.56-12.47,28.56-28.56c0-15.47-11.86-27.16-27.94-27.16C512,341.29,499,353.51,499,368.8Zm26.72-24.26c6.15,0,11.87,2.82,16.34,8.35a32.28,32.28,0,0,1,6.77,19.43c0,13-7.46,21.26-18.09,21.26-7.13,0-13.63-3.51-18.29-10A33,33,0,0,1,506.41,365C506.41,352.81,514.32,344.54,525.75,344.54Z" transform="translate(-14.29 -21.54)"/><path class="cls-1" d="M573.37,395.61a1,1,0,0,1,.79-.53c2.2,0,7.11,1.93,14.24,1.93,10.82,0,17.75-6,17.75-14.59,0-7.11-4.21-11.68-12.47-15.37-8.7-3.87-15.29-5.45-15.29-13.63,0-5.8,4.65-10,10.71-10,5.72,0,10.12,2.28,12.22,5.8,1.76,3,1.67,5.1,2,5.1,1,0,1.14,0,1.14-.44a42.86,42.86,0,0,1-.62-5.45,27.41,27.41,0,0,1,.7-6.15.59.59,0,0,0-.52-.62c-.61,0-1.84,1.23-3.52,1.23-2.28,0-5.71-1.58-10.28-1.58-11.16,0-18.1,6.86-18.1,15.29,0,6.5,3.69,10.47,11.25,13.9,9.22,4.21,16.34,5.62,16.34,14.32,0,6-3.87,9.66-10.9,9.66-6.41,0-13.53-2.72-15.55-6.23-1.76-2.9-1.93-6.34-2.21-6.34-.87,0-1.48.18-1.48.44,0,1.67,2,5.9,2,12.93v1.22H573Z" transform="translate(-14.29 -21.54)"/></svg>