<svg width="24" height="25" viewBox="0 0 24 25" fill="none" xmlns="http://www.w3.org/2000/svg">
<path d="M21.5243 4.44702C20.7252 4.9622 19.851 5.3251 18.9393 5.52005C18.3245 4.8133 17.5127 4.34592 16.6293 4.18994C15.7458 4.03397 14.8397 4.19807 14.0505 4.65694C13.2614 5.11581 12.633 5.84398 12.2624 6.7292C11.8917 7.61442 11.7992 8.60755 11.9993 9.5555C10.3808 9.46721 8.79753 9.0101 7.35219 8.21384C5.90686 7.41757 4.63177 6.29996 3.6097 4.93354C3.08992 5.90772 2.93087 7.06035 3.16484 8.15734C3.39882 9.25433 4.00829 10.2134 4.86946 10.8398C4.22318 10.8173 3.59123 10.6271 3.0263 10.2853V10.3409C3.02648 11.3624 3.3518 12.3524 3.94709 13.1429C4.54237 13.9335 5.37098 14.476 6.29238 14.6784C5.69292 14.8556 5.06412 14.8817 4.45397 14.7547C4.71458 15.6332 5.22112 16.4015 5.90289 16.9521C6.58466 17.5028 7.40764 17.8084 8.25697 17.8264C6.81491 19.0562 5.03402 19.7232 3.20085 19.7199C2.87592 19.7204 2.55124 19.7001 2.22852 19.6591C4.09007 20.9589 6.25669 21.6488 8.46946 21.6464C9.99351 21.6578 11.5044 21.34 12.9145 20.7114C14.3246 20.0829 15.6056 19.1562 16.6833 17.9851C17.7609 16.8141 18.6137 15.422 19.192 13.8898C19.7703 12.3576 20.0626 10.7157 20.0521 9.0597C20.0521 8.86798 20.0479 8.67729 20.0397 8.48763C20.8372 7.86062 21.5253 7.08395 22.0717 6.19417C21.3289 6.55191 20.541 6.78678 19.7343 6.89097C20.5841 6.33932 21.2203 5.4707 21.5243 4.44702Z" fill="#F1EEE9"/>
</svg>
