<svg width="72" height="513" viewBox="0 0 72 513" fill="none" xmlns="http://www.w3.org/2000/svg">
<path d="M50.8 451.7V454.2C53.8 455.2 61.7 459.3 64.8 462.3C67.3 464.7 67.1 471.7 67.1 478.7C67.1 488.8 66.2 490.6 58 490.6H36V481.9C36 476.5 37.7 474.8 39.1 473.5C40.4 472.3 45.9 470.6 48.8 470.4V467.7H20.9V470.4C23.5 470.7 28.6 472 30.1 473.5C31.3 474.7 33.2 476.3 33.2 481.9V490.6H4.4V478.8C4.4 475.6 4.5 472.9 4.8 470.5C5.4 466.2 12.8 460.9 17.2 459.8V457.1H1.7V512.2H3.9C4 510.4 4.9 506.2 5.7 504.3C6.7 501.8 8.39999 501.2 10.6 501.2H61.7C64 501.2 65.7 501.9 66.6 504.3C67.2 505.8 67.7 510.4 67.8 512.2H70V453L50.8 451.7ZM50.5 386.398C39.9 386.398 35.9 391.898 32 400.498C29.8 404.998 28.9 409.198 26.2 414.098C23.2 419.598 19.7 422.898 13.6 422.898C5.8 422.898 3.4 416.298 3.4 413.398C3.4 399.998 12.1 395.498 23.4 391.498V389.298L0.699998 389.798V393.198L5.4 396.598C2.7 400.098 0.399996 405.798 0.399996 410.998C0.399996 422.398 8.3 430.998 18.9 430.998C27.8 430.998 33.3 426.898 36.7 419.198C39.2 413.598 40.3 410.598 42.6 404.898C45 398.898 49.6 395.098 55.7 395.098C63.2 395.098 68.3 398.898 68.3 407.798C68.3 420.198 58.2 426.598 47.6 430.698V432.998L71 432.298V428.898L66.3 425.398C68.7 422.398 71.3 417.098 71.3 408.998C71.3 396.098 62.7 386.398 50.5 386.398ZM50.8 306.411V308.911C53.8 309.911 61.7 314.011 64.8 317.011C67.3 319.411 67.1 326.411 67.1 333.411C67.1 343.511 66.2 345.311 58 345.311H36V336.611C36 331.211 37.7 329.511 39.1 328.211C40.4 327.011 45.9 325.311 48.8 325.111V322.411H20.9V325.111C23.5 325.411 28.6 326.711 30.1 328.211C31.3 329.411 33.2 331.011 33.2 336.611V345.311H4.4V333.511C4.4 330.311 4.5 327.611 4.8 325.211C5.4 320.911 12.8 315.611 17.2 314.511V311.811H1.7V366.911H3.9C4 365.111 4.9 360.911 5.7 359.011C6.7 356.511 8.39999 355.911 10.6 355.911H61.7C64 355.911 65.7 356.611 66.6 359.011C67.2 360.511 67.7 365.111 67.8 366.911H70V307.711L50.8 306.411ZM3.9 213.009H1.7V242.809H3.9C4 240.509 5.7 234.509 6.9 232.609C8.3 230.409 13.2 229.209 20.4 229.209H54.3L1.7 271.009V291.609H3.9C4 288.909 6.4 283.309 8.3 280.909C9.9 278.909 13.3 277.709 16.2 277.709H51.4C59.2 277.709 63.4 278.609 65.1 281.009C65.9 282.109 67.7 288.509 67.8 290.309H70L70 260.309H67.8C67.7 262.109 66 268.909 64.6 270.609C62.8 272.809 58.5 274.009 50.9 274.009H14.3L70.7 229.209V225.509H19.8C13.2 225.509 8.1 224.909 6.4 222.209C5.4 220.609 4 214.809 3.9 213.009ZM52.7 137.396L51.3 139.996C60 143.896 66.3 149.596 66.3 161.796C66.3 174.896 54 185.796 35.9 185.796C13.2 185.796 3.29999 175.896 3.29999 165.696C3.29999 152.796 13.8 145.996 25.4 142.396V139.996L0.699998 140.396V144.496L5.8 147.496C3 150.496 0.399996 157.096 0.399996 162.596C0.399996 182.696 16.1 197.796 36.7 197.796C57.9 197.796 71.5 184.396 71.5 164.696C71.5 149.496 62 141.496 52.7 137.396ZM70 88.1641H67.8C67.7 89.9641 66.8 94.2641 66.3 95.4641C65.3 97.7641 63.7 98.5641 61.5 98.5641H10C7.8 98.5641 6 97.9641 5.2 95.4641C4.6 93.6641 4 89.9641 3.9 88.1641H1.7V119.564H3.9C4 117.764 5 114.064 5.7 112.264C6.7 109.764 8.3 109.164 10.5 109.164H62C64.2 109.164 65.9 109.864 66.8 112.264C67.3 113.564 67.7 117.764 67.8 119.564H70V88.1641ZM70 0.0390592H67.8C67.7 1.93906 67 4.83906 66 6.63906C64.6 9.03906 63.1 9.93906 61.1 10.7391C51.8 14.4391 26.4 24.2391 0.599999 34.4391V38.2391C19.7 45.8391 40.9 54.1391 58.1 61.2391C61.6 62.7391 64.5 64.5391 65.9 66.9391C66.9 68.7391 67.7 72.0391 67.8 73.9391H70V46.4391H67.8C67.6 49.9391 66 57.7391 62.4 57.7391C61 57.7391 59 57.3391 56.8 56.6391C53.8 55.7391 50.4 54.5391 45.8 52.6391V28.0391L61.6 21.8391C62.4 21.5391 63.2 21.4391 63.9 21.4391C66.4 21.4391 67.6 28.0391 67.8 31.5391H70V0.0390592ZM42.5 29.3391V51.3391L14.6 40.4391L42.5 29.3391Z" fill="#1C1C1C"/>
</svg>
