<?xml version="1.0" encoding="UTF-8"?>
<!DOCTYPE svg PUBLIC "-//W3C//DTD SVG 1.1//EN" "http://www.w3.org/Graphics/SVG/1.1/DTD/svg11.dtd">
<!-- Creator: CorelDRAW 2019 (64-Bit) -->
<svg xmlns="http://www.w3.org/2000/svg" xml:space="preserve" width="198.038mm" height="70.7056mm" version="1.1" style="shape-rendering:geometricPrecision; text-rendering:geometricPrecision; image-rendering:optimizeQuality; fill-rule:evenodd; clip-rule:evenodd"
viewBox="0 0 3350.25 1196.14"
 xmlns:xlink="http://www.w3.org/1999/xlink"
 xmlns:xodm="http://www.corel.com/coreldraw/odm/2003">
 <defs>
  <style type="text/css">
   <![CDATA[
    .str0 {stroke:#BF957C;stroke-width:11.94;stroke-miterlimit:22.9256}
    .fil0 {fill:none;fill-rule:nonzero}
   ]]>
  </style>
 </defs>
 <g id="Layer_x0020_1">
  <metadata id="CorelCorpID_0Corel-Layer"/>
  <path class="fil0 str0" d="M1198.56 46.97l-451.04 0 -9.84 34.44c50.84,3.28 162.37,27.88 162.37,77.09 0,18.04 -29.52,55.77 -59.04,100.05 -34.44,49.2 -96.77,137.78 -208.3,280.47l-328.03 419.88 0 -770.88c0,-32.81 9.84,-68.89 52.49,-85.29 27.88,-9.84 78.73,-18.04 129.57,-21.32l9.84 -34.44 -478.93 0 -9.84 34.44c31.16,1.64 75.45,8.2 100.05,21.32 32.8,16.4 37.72,44.28 37.72,90.21l0 992.3 45.93 0c242.74,-316.55 511.73,-660.99 738.07,-943.1 47.57,-57.4 95.13,-104.97 144.33,-127.93 36.08,-16.4 91.85,-31.16 114.81,-32.8l9.84 -34.44zm262.43 49.2c0,-45.92 -29.52,-90.21 -75.45,-90.21 -68.89,0 -111.53,52.49 -111.53,114.81 0,50.85 27.88,91.85 82.01,91.85 67.25,0 104.97,-54.12 104.97,-116.45zm-19.68 841.41l-29.52 -9.84c-54.12,139.41 -103.33,216.5 -182.06,216.5 -29.52,0 -59.04,-4.92 -59.04,-57.4 0,-24.61 14.76,-72.17 37.72,-129.57l93.49 -241.1c19.68,-47.57 50.84,-127.94 50.84,-165.66 0,-96.77 -93.49,-139.42 -164.02,-139.42 -118.09,0 -173.86,104.97 -232.9,249.31l31.16 11.48c54.12,-139.42 100.05,-221.42 177.14,-221.42 31.16,0 54.12,14.76 54.12,62.33 0,19.68 -19.68,83.65 -37.72,129.57l-109.89 278.83c-21.32,57.41 -32.8,96.77 -32.8,136.13 0,100.05 100.05,127.93 170.58,127.93 114.81,0 173.86,-101.69 232.9,-247.67zm993.94 0l-31.16 -9.84c-54.12,139.41 -103.33,216.5 -180.42,216.5 -31.16,0 -60.69,-6.56 -60.69,-59.04 0,-24.6 14.76,-70.53 36.08,-127.93l91.85 -241.1c14.76,-39.36 31.16,-98.41 31.16,-121.37 0,-98.41 -78.73,-183.7 -188.62,-183.7 -95.13,0 -175.5,72.17 -232.9,150.9l-6.56 -1.64c0,-123.01 -80.37,-149.26 -150.89,-149.26 -116.45,0 -173.85,104.97 -232.9,249.31l32.81 11.48c54.12,-139.42 100.05,-221.42 177.14,-221.42 31.16,0 45.92,13.12 45.92,59.04 0,19.68 -18.04,93.49 -31.16,132.86l-177.14 524.85 147.62 0 165.66 -500.25c55.76,-109.89 149.25,-203.38 237.82,-203.38 42.64,0 80.37,9.84 80.37,78.73 0,31.16 -16.4,83.65 -31.16,123.01l-96.77 255.87c-21.32,55.76 -36.08,96.77 -36.08,136.13 0,100.05 106.61,127.93 175.5,127.93 116.45,0 175.5,-101.69 234.55,-247.67zm-6.56 -902.09l-29.52 -14.76c-45.92,68.89 -86.93,119.73 -160.73,119.73 -77.09,0 -119.73,-95.13 -221.42,-95.13 -98.41,0 -188.62,129.57 -229.62,205.02l29.52 14.76c45.93,-68.89 86.93,-119.73 160.74,-119.73 77.09,0 119.73,95.13 221.42,95.13 98.41,0 188.62,-129.57 229.62,-205.02zm913.57 902.09l-32.8 -9.84c-54.12,139.41 -101.69,216.5 -178.78,216.5 -31.16,0 -55.76,-11.48 -55.76,-65.6 0,-19.68 9.84,-75.45 26.24,-121.37l185.34 -536.34 -147.61 0 -37.73 109.89 -4.92 0c-14.76,-82.01 -77.09,-119.73 -147.61,-119.73 -295.23,0 -455.97,351 -455.97,519.93 0,205.02 114.82,259.15 224.7,259.15 93.49,0 167.3,-68.89 229.62,-159.1l6.56 1.64c0,109.89 55.77,152.54 154.18,152.54 116.45,0 175.5,-101.69 234.54,-247.67zm-260.79 -346.08l-124.65 382.16c-50.85,85.29 -121.37,160.74 -214.87,160.74 -42.64,0 -95.13,-18.04 -95.13,-168.94 0,-195.18 127.93,-519.94 296.87,-519.94 78.73,0 118.09,45.93 137.77,145.97z"/>
 </g>
</svg>
