<?xml version="1.0" encoding="UTF-8"?>
<!DOCTYPE svg PUBLIC "-//W3C//DTD SVG 1.1//EN" "http://www.w3.org/Graphics/SVG/1.1/DTD/svg11.dtd">
<!-- Creator: CorelDRAW 2019 (64-Bit) -->
<svg xmlns="http://www.w3.org/2000/svg" xml:space="preserve" width="255.369mm" height="161.955mm" version="1.1" style="shape-rendering:geometricPrecision; text-rendering:geometricPrecision; image-rendering:optimizeQuality; fill-rule:evenodd; clip-rule:evenodd"
viewBox="0 0 8998.21 5706.65"
 xmlns:xlink="http://www.w3.org/1999/xlink"
 xmlns:xodm="http://www.corel.com/coreldraw/odm/2003">
 <defs>
  <style type="text/css">
   <![CDATA[
    .str0 {stroke:#BF957C;stroke-width:24.86;stroke-miterlimit:22.9256}
    .fil0 {fill:none;fill-rule:nonzero}
   ]]>
  </style>
 </defs>
 <g id="Layer_x0020_1">
  <metadata id="CorelCorpID_0Corel-Layer"/>
  <path class="fil0 str0" d="M2709.33 105.17l-1020.1 0 -22.26 77.89c115,7.42 367.24,63.07 367.24,174.35 0,40.81 -66.78,126.12 -133.54,226.28 -77.9,111.28 -218.86,311.6 -471.11,634.32l-741.89 949.63 0 -1743.46c0,-74.19 22.26,-155.8 118.7,-192.89 63.06,-22.26 178.05,-40.81 293.05,-48.23l22.26 -77.89 -1083.17 0 -22.26 77.89c70.48,3.71 170.64,18.55 226.28,48.23 74.19,37.09 85.32,100.15 85.32,204.02l0 2244.24 103.87 0c549,-715.93 1157.36,-1494.92 1669.27,-2132.95 107.57,-129.83 215.14,-237.41 326.43,-289.34 81.61,-37.09 207.73,-70.48 259.66,-74.2l22.26 -77.89zm593.52 111.28c0,-103.87 -66.77,-204.02 -170.64,-204.02 -155.79,0 -252.24,118.7 -252.24,259.66 0,115 63.05,207.73 185.48,207.73 152.09,0 237.4,-122.42 237.4,-263.38zm-44.52 1902.96l-66.77 -22.25c-122.41,315.31 -233.7,489.65 -411.75,489.65 -66.77,0 -133.54,-11.13 -133.54,-129.84 0,-55.63 33.39,-163.22 85.32,-293.05l211.44 -545.29c44.52,-107.58 115,-289.34 115,-374.66 0,-218.85 -211.44,-315.31 -370.95,-315.31 -267.08,0 -393.21,237.41 -526.74,563.85l70.48 25.97c122.42,-315.31 226.28,-500.78 400.62,-500.78 70.48,0 122.42,33.39 122.42,140.96 0,44.52 -44.52,189.18 -85.32,293.05l-248.54 630.61c-48.22,129.83 -74.19,218.86 -74.19,307.89 0,226.28 226.28,289.33 385.79,289.33 259.66,0 393.21,-229.98 526.74,-560.13zm2247.95 0l-70.48 -22.25c-122.42,315.31 -233.7,489.65 -408.04,489.65 -70.48,0 -137.25,-14.84 -137.25,-133.55 0,-55.64 33.39,-159.51 81.61,-289.34l207.73 -545.29c33.39,-89.03 70.48,-222.58 70.48,-274.51 0,-222.57 -178.06,-415.46 -426.6,-415.46 -215.15,0 -396.92,163.22 -526.75,341.28l-14.83 -3.72c0,-278.21 -181.77,-337.56 -341.28,-337.56 -263.37,0 -393.2,237.41 -526.75,563.85l74.2 25.97c122.41,-315.31 226.28,-500.78 400.62,-500.78 70.48,0 103.87,29.68 103.87,133.54 0,44.51 -40.81,211.45 -70.48,300.47l-400.62 1187.04 333.85 0 374.66 -1131.39c126.12,-248.53 337.56,-459.97 537.87,-459.97 96.46,0 181.77,22.25 181.77,178.05 0,70.48 -37.09,189.18 -70.48,278.21l-218.86 578.67c-48.22,126.12 -81.61,218.86 -81.61,307.89 0,226.28 241.12,289.33 396.92,289.33 263.38,0 396.91,-229.98 530.46,-560.13zm-14.84 -2040.21l-66.77 -33.39c-103.87,155.8 -196.6,270.79 -363.53,270.79 -174.35,0 -270.8,-215.16 -500.78,-215.16 -222.58,0 -426.6,293.06 -519.33,463.69l66.77 33.39c103.87,-155.79 196.61,-270.79 363.53,-270.79 174.34,0 270.79,215.14 500.78,215.14 222.57,0 426.58,-293.05 519.32,-463.68zm2066.18 2040.21l-74.19 -22.25c-122.42,315.31 -229.99,489.65 -404.34,489.65 -70.48,0 -126.12,-25.98 -126.12,-148.38 0,-44.52 22.26,-170.64 59.35,-274.51l419.17 -1213 -333.85 0 -85.32 248.54 -11.13 0c-33.39,-185.48 -174.35,-270.8 -333.85,-270.8 -667.71,0 -1031.24,793.83 -1031.24,1175.91 0,463.69 259.67,586.1 508.21,586.1 211.44,0 378.36,-155.8 519.32,-359.81l14.84 3.7c0,248.53 126.11,344.98 348.69,344.98 263.37,0 396.91,-229.98 530.45,-560.13zm-589.81 -782.7l-281.92 864.31c-115,192.9 -274.5,363.54 -485.94,363.54 -96.46,0 -215.15,-40.81 -215.15,-382.08 0,-441.43 289.34,-1175.91 671.42,-1175.91 178.05,0 267.09,103.87 311.59,330.14z"/>
  <path class="fil0 str0" d="M2353.22 3067.91l-152.09 0 -152.09 189.18c-159.51,-133.55 -289.34,-200.31 -552.72,-200.31 -738.19,0 -1480.09,730.76 -1480.09,1669.26 0,586.1 348.69,968.18 957.05,968.18 563.85,0 856.89,-352.4 1083.17,-697.38l-85.31 -51.93c-237.41,352.4 -467.4,593.51 -849.47,593.51 -474.82,0 -693.67,-370.94 -693.67,-879.15 0,-842.05 515.62,-1494.92 1005.27,-1494.92 478.52,0 604.65,344.97 652.87,819.79l89.02 0 178.06 -916.24zm1502.34 1513.46c0,-463.68 -296.76,-652.87 -549.01,-652.87 -689.97,0 -1038.65,715.94 -1038.65,1112.85 0,463.69 296.75,649.16 549,649.16 697.38,0 1038.66,-712.22 1038.66,-1109.13zm-348.69 -81.61c0,441.43 -218.86,1120.26 -634.33,1120.26 -144.67,0 -255.95,-166.92 -255.95,-508.19 0,-437.73 244.83,-1120.27 634.33,-1120.27 133.54,0 255.95,166.92 255.95,508.2zm2259.08 11.13c0,-463.68 -289.34,-582.39 -537.88,-582.39 -211.44,0 -389.49,166.93 -497.06,293.06l-11.13 -3.72 437.72 -1331.7 -808.67 37.09 0 74.2c89.03,3.71 129.83,3.71 222.57,14.83 81.61,11.13 148.38,37.09 148.38,118.7 0,48.22 -14.83,126.12 -55.64,248.53l-485.94 1520.9c-29.67,96.44 -55.64,170.63 -55.64,322.72 0,341.28 296.76,471.11 578.67,471.11 667.71,0 1064.63,-797.55 1064.63,-1183.33zm-348.69 -74.19c0,437.72 -319.02,1175.91 -704.81,1175.91 -126.12,0 -307.89,-51.93 -307.89,-393.21l263.37 -823.51c118.71,-174.34 281.93,-341.27 504.5,-341.27 96.44,0 244.82,40.81 244.82,382.08zm2114.4 144.67c0,-463.68 -296.76,-652.87 -549,-652.87 -689.97,0 -1038.66,715.94 -1038.66,1112.85 0,463.69 296.75,649.16 549,649.16 697.38,0 1038.66,-712.22 1038.66,-1109.13zm-348.69 -81.61c0,441.43 -218.86,1120.26 -634.33,1120.26 -144.67,0 -255.95,-166.92 -255.95,-508.19 0,-437.73 244.82,-1120.27 634.33,-1120.27 133.54,0 255.95,166.92 255.95,508.2zm1802.81 -181.76c0,-92.74 -55.63,-389.5 -459.97,-389.5 -300.47,0 -574.97,267.08 -574.97,504.5 0,463.68 619.48,463.68 619.48,886.57 0,200.31 -196.6,293.05 -411.76,293.05 -189.18,0 -374.66,-114.99 -374.66,-229.99 0,-55.64 33.39,-51.93 100.16,-51.93 126.12,0 163.22,-96.46 163.22,-163.22 0,-59.35 -33.39,-163.22 -196.6,-163.22 -103.87,0 -204.02,118.7 -204.02,255.95 0,178.05 144.67,430.3 552.71,430.3 330.14,0 638.04,-255.95 638.04,-523.03 0,-474.82 -612.07,-497.07 -612.07,-856.89 0,-215.15 181.77,-307.89 296.76,-307.89 248.53,0 307.88,115 315.31,163.22 -14.84,40.8 -207.73,85.31 -207.73,233.7 0,107.57 89.02,152.09 181.76,152.09 107.58,0 174.35,-96.44 174.35,-233.7z"/>
 </g>
</svg>
