<?xml version="1.0" encoding="UTF-8"?>
<!DOCTYPE svg PUBLIC "-//W3C//DTD SVG 1.1//EN" "http://www.w3.org/Graphics/SVG/1.1/DTD/svg11.dtd">
<!-- Creator: CorelDRAW 2019 (64-Bit) -->
<svg xmlns="http://www.w3.org/2000/svg" xml:space="preserve" width="438.753mm" height="70.7286mm" version="1.1" style="shape-rendering:geometricPrecision; text-rendering:geometricPrecision; image-rendering:optimizeQuality; fill-rule:evenodd; clip-rule:evenodd"
viewBox="0 0 12136.25 1956.41"
 xmlns:xlink="http://www.w3.org/1999/xlink"
 xmlns:xodm="http://www.corel.com/coreldraw/odm/2003">
 <defs>
  <style type="text/css">
   <![CDATA[
    .str0 {stroke:#BF957C;stroke-width:19.52;stroke-miterlimit:22.9256}
    .fil0 {fill:none;fill-rule:nonzero}
   ]]>
  </style>
 </defs>
 <g id="Layer_x0020_1">
  <metadata id="CorelCorpID_0Corel-Layer"/>
  <path class="fil0 str0" d="M1869.71 161.31l-703.39 0 -15.35 53.71c79.29,5.11 253.22,43.48 253.22,120.22 0,28.14 -46.04,86.97 -92.08,156.03 -53.71,76.73 -150.91,214.86 -324.84,437.38l-511.56 654.79 0 -1202.16c0,-51.16 15.35,-107.43 81.85,-133 43.49,-15.35 122.78,-28.14 202.06,-33.25l15.35 -53.71 -746.88 0 -15.35 53.71c48.6,2.56 117.66,12.79 156.03,33.25 51.16,25.58 58.83,69.06 58.83,140.68l0 1547.47 71.62 0c378.55,-493.66 798.03,-1030.8 1151.01,-1470.74 74.18,-89.52 148.35,-163.69 225.08,-199.51 56.28,-25.58 143.24,-48.6 179.05,-51.15l15.34 -53.71zm409.25 76.73c0,-71.62 -46.04,-140.68 -117.66,-140.68 -107.43,0 -173.93,81.85 -173.93,179.04 0,79.3 43.49,143.24 127.89,143.24 104.87,0 163.7,-84.4 163.7,-181.6zm-30.7 1312.15l-46.04 -15.35c-84.4,217.42 -161.14,337.63 -283.92,337.63 -46.04,0 -92.08,-7.68 -92.08,-89.52 0,-38.37 23.02,-112.55 58.83,-202.06l145.8 -376c30.69,-74.18 79.29,-199.51 79.29,-258.34 0,-150.91 -145.8,-217.42 -255.78,-217.42 -184.16,0 -271.13,163.7 -363.21,388.79l48.6 17.91c84.4,-217.41 156.02,-345.31 276.24,-345.31 48.59,0 84.4,23.02 84.4,97.2 0,30.69 -30.69,130.45 -58.83,202.07l-171.38 434.82c-33.25,89.53 -51.16,150.91 -51.16,212.3 0,156.03 156.03,199.51 266.01,199.51 179.05,0 271.13,-158.59 363.21,-386.23zm1550.03 0l-48.6 -15.35c-84.4,217.42 -161.14,337.63 -281.36,337.63 -48.6,0 -94.64,-10.23 -94.64,-92.08 0,-38.37 23.02,-109.99 56.28,-199.51l143.23 -376c23.02,-61.39 48.6,-153.47 48.6,-189.28 0,-153.47 -122.78,-286.48 -294.14,-286.48 -148.35,0 -273.68,112.54 -363.21,235.32l-10.23 -2.56c0,-191.84 -125.33,-232.76 -235.32,-232.76 -181.6,0 -271.12,163.7 -363.21,388.79l51.16 17.91c84.4,-217.41 156.02,-345.31 276.24,-345.31 48.59,0 71.62,20.46 71.62,92.08 0,30.7 -28.14,145.8 -48.6,207.19l-276.24 818.49 230.2 0 258.34 -780.13c86.97,-171.38 232.76,-317.17 370.88,-317.17 66.5,0 125.33,15.35 125.33,122.78 0,48.6 -25.58,130.45 -48.6,191.83l-150.91 399.02c-33.25,86.97 -56.28,150.91 -56.28,212.3 0,156.03 166.26,199.51 273.68,199.51 181.6,0 273.69,-158.59 365.77,-386.23zm-10.23 -1406.79l-46.04 -23.02c-71.62,107.43 -135.57,186.72 -250.66,186.72 -120.22,0 -186.72,-148.35 -345.31,-148.35 -153.47,0 -294.14,202.07 -358.09,319.72l46.04 23.02c71.62,-107.43 135.57,-186.72 250.67,-186.72 120.22,0 186.72,148.35 345.31,148.35 153.46,0 294.14,-202.07 358.09,-319.73zm1424.7 1406.79l-51.16 -15.35c-84.4,217.42 -158.58,337.63 -278.8,337.63 -48.59,0 -86.97,-17.9 -86.97,-102.31 0,-30.7 15.35,-117.66 40.93,-189.28l289.03 -836.4 -230.2 0 -58.83 171.37 -7.68 0c-23.02,-127.89 -120.22,-186.72 -230.2,-186.72 -460.41,0 -711.07,547.37 -711.07,810.83 0,319.72 179.05,404.13 350.42,404.13 145.8,0 260.89,-107.43 358.09,-248.11l10.23 2.55c0,171.38 86.97,237.88 240.44,237.88 181.6,0 273.68,-158.59 365.76,-386.23zm-406.69 -539.7l-194.39 595.97c-79.3,133 -189.28,250.67 -335.08,250.67 -66.5,0 -148.35,-28.14 -148.35,-263.46 0,-304.38 199.51,-810.83 462.96,-810.83 122.78,0 184.16,71.62 214.86,227.64zm2747.07 -874.77l-104.87 0 -104.87 130.45c-109.99,-92.08 -199.51,-138.12 -381.12,-138.12 -509,0 -1020.56,503.89 -1020.56,1151.01 0,404.13 240.43,667.59 659.91,667.59 388.79,0 590.85,-242.99 746.88,-480.86l-58.83 -35.81c-163.7,242.99 -322.28,409.25 -585.73,409.25 -327.4,0 -478.31,-255.78 -478.31,-606.2 0,-580.62 355.53,-1030.8 693.17,-1030.8 329.96,0 416.92,237.88 450.17,565.27l61.39 0 122.77 -631.77zm1035.91 1043.58c0,-319.72 -204.63,-450.17 -378.56,-450.17 -475.75,0 -716.18,493.66 -716.18,767.34 0,319.73 204.62,447.62 378.55,447.62 480.87,0 716.19,-491.1 716.19,-764.79zm-240.43 -56.27c0,304.37 -150.91,772.45 -437.38,772.45 -99.75,0 -176.49,-115.1 -176.49,-350.42 0,-301.82 168.81,-772.45 437.38,-772.45 92.08,0 176.49,115.1 176.49,350.42zm1557.7 7.67c0,-319.73 -199.51,-401.58 -370.88,-401.58 -145.79,0 -268.57,115.1 -342.74,202.07l-7.67 -2.56 301.82 -918.25 -557.6 25.58 0 51.16c61.39,2.55 89.53,2.55 153.47,10.23 56.27,7.67 102.31,25.58 102.31,81.85 0,33.25 -10.23,86.96 -38.37,171.37l-335.07 1048.7c-20.46,66.5 -38.37,117.66 -38.37,222.53 0,235.32 204.62,324.84 399.01,324.84 460.41,0 734.09,-549.93 734.09,-815.93zm-240.43 -51.16c0,301.82 -219.97,810.83 -485.98,810.83 -86.97,0 -212.3,-35.81 -212.3,-271.13l181.6 -567.83c81.85,-120.22 194.39,-235.32 347.86,-235.32 66.5,0 168.82,28.14 168.82,263.46zm1457.94 99.75c0,-319.72 -204.63,-450.17 -378.56,-450.17 -475.75,0 -716.18,493.66 -716.18,767.34 0,319.73 204.62,447.62 378.55,447.62 480.87,0 716.19,-491.1 716.19,-764.79zm-240.43 -56.27c0,304.37 -150.91,772.45 -437.39,772.45 -99.75,0 -176.49,-115.1 -176.49,-350.42 0,-301.82 168.82,-772.45 437.39,-772.45 92.08,0 176.49,115.1 176.49,350.42zm1243.09 -125.34c0,-63.94 -38.37,-268.57 -317.17,-268.57 -207.18,0 -396.46,184.17 -396.46,347.86 0,319.72 427.15,319.72 427.15,611.31 0,138.12 -135.56,202.07 -283.91,202.07 -130.45,0 -258.34,-79.3 -258.34,-158.59 0,-38.37 23.02,-35.8 69.06,-35.8 86.97,0 112.54,-66.51 112.54,-112.55 0,-40.92 -23.02,-112.54 -135.57,-112.54 -71.62,0 -140.68,81.85 -140.68,176.49 0,122.78 99.76,296.71 381.11,296.71 227.65,0 439.94,-176.49 439.94,-360.66 0,-327.4 -422.03,-342.74 -422.03,-590.85 0,-148.35 125.33,-212.29 204.62,-212.29 171.38,0 212.3,79.29 217.41,112.54 -10.23,28.14 -143.24,58.83 -143.24,161.14 0,74.18 61.39,104.87 125.34,104.87 74.18,0 120.22,-66.5 120.22,-161.14z"/>
 </g>
</svg>
