<svg id="Capa_1" data-name="Capa 1" xmlns="http://www.w3.org/2000/svg" viewBox="0 0 265.69 35.58"><path d="M56.16,50.67a12.11,12.11,0,0,1-2.89,3.23,17.8,17.8,0,0,1-3.35,2,15,15,0,0,1-3.79,1.06,36.79,36.79,0,0,1-4.72.26,19.77,19.77,0,0,1-7.88-1.49,16.7,16.7,0,0,1-5.78-3.95,17.37,17.37,0,0,1-3.46-5.36,15.22,15.22,0,0,1-1.16-5.68A20.52,20.52,0,0,1,25,31.43a16.44,16.44,0,0,1,4.79-5.91,18.41,18.41,0,0,1,5.92-3,20.3,20.3,0,0,1,5.48-.86,14,14,0,0,1,2.82.26A36.27,36.27,0,0,1,47.72,23c.89.27,1.51.45,1.86.53a6.61,6.61,0,0,0,1.53.14,6.43,6.43,0,0,0,1.16-.1,6.15,6.15,0,0,0,1.24-.43,11.34,11.34,0,0,0,.53,3,14.83,14.83,0,0,1,.53,3.59,11.11,11.11,0,0,1-.34,2.79.9.9,0,0,1-.26-.07.67.67,0,0,1-.33-.07l.06-.13a5.29,5.29,0,0,0,.2-1.33,4.59,4.59,0,0,0-1.13-2.79,11.68,11.68,0,0,0-3-2.66,18.51,18.51,0,0,0-4.12-1.93,12.81,12.81,0,0,0-9,.17,13.28,13.28,0,0,0-4.48,2.83,14,14,0,0,0-3.33,4.95,18.31,18.31,0,0,0-1.26,7.08,23.82,23.82,0,0,0,.83,6.24,17.26,17.26,0,0,0,2.66,5.59,13.16,13.16,0,0,0,4.76,4,15,15,0,0,0,6.91,1.5,25.11,25.11,0,0,0,2.79-.17,18.22,18.22,0,0,0,3.52-.84A13.9,13.9,0,0,0,52.87,53a8.46,8.46,0,0,0,2.57-2.62Z" transform="translate(-23.13 -21.63)"/><path d="M63.12,41a14.18,14.18,0,0,1,2.37-4.45,12,12,0,0,1,4.25-3.33,14.11,14.11,0,0,1,6.16-1.27,16.4,16.4,0,0,1,5.92,1,11.93,11.93,0,0,1,4.25,2.65,11.2,11.2,0,0,1,2.51,3.7,10.79,10.79,0,0,1,.84,4.17,15.63,15.63,0,0,1-.75,4.7,13.73,13.73,0,0,1-2.37,4.46,12,12,0,0,1-4.25,3.32A14.07,14.07,0,0,1,75.9,57.2a16.43,16.43,0,0,1-5.9-1,12.16,12.16,0,0,1-4.25-2.66,11.21,11.21,0,0,1-2.54-3.73,10.81,10.81,0,0,1-.84-4.13A15.74,15.74,0,0,1,63.12,41m2.75,7a13.5,13.5,0,0,0,2.4,4.19A11.38,11.38,0,0,0,72,55.09a10.06,10.06,0,0,0,4.62,1.07A9.44,9.44,0,0,0,86.47,46a13.84,13.84,0,0,0-.83-4.71,13.5,13.5,0,0,0-2.4-4.19,11.38,11.38,0,0,0-3.7-2.92,10.13,10.13,0,0,0-4.63-1.07A9.44,9.44,0,0,0,65,43.27,13.85,13.85,0,0,0,65.87,48" transform="translate(-23.13 -21.63)"/><path d="M118.21,40.38c0-.31.05-.88.05-1.73a4.25,4.25,0,0,0-.66-1.27,14.56,14.56,0,0,0-1.3-1.74,8.83,8.83,0,0,0-3-1.85,11.31,11.31,0,0,0-4.1-.74,9.31,9.31,0,0,0-7.29,3.17,12.25,12.25,0,0,0-2.83,8.44,14.57,14.57,0,0,0,.58,4,11.36,11.36,0,0,0,1.88,3.76,9.69,9.69,0,0,0,3.35,2.81,10.5,10.5,0,0,0,4.89,1.07,16.06,16.06,0,0,0,5.11-.78,11,11,0,0,0,3.33-1.59,7,7,0,0,0,1.67-2.14l.46.35a9.84,9.84,0,0,1-1.56,2.31,9.46,9.46,0,0,1-3.23,1.85,18.17,18.17,0,0,1-6.24.86,17.62,17.62,0,0,1-6.22-1,11.61,11.61,0,0,1-4.31-2.69,10.68,10.68,0,0,1-2.45-3.81,12.66,12.66,0,0,1-.78-4.42,13.17,13.17,0,0,1,1-5.09,13.69,13.69,0,0,1,2.8-4.27,13,13,0,0,1,4.19-2.9,12.77,12.77,0,0,1,5.12-1,11.93,11.93,0,0,1,2.83.3c.81.19,1.71.44,2.72.74a8,8,0,0,0,2.31.58,3.47,3.47,0,0,0,1.33-.23h.46a6.19,6.19,0,0,0,.09,1,13.57,13.57,0,0,0,.32,1.42,4.56,4.56,0,0,1,.17.81,18.29,18.29,0,0,1,.06,2,5.9,5.9,0,0,1-.23,1.79Z" transform="translate(-23.13 -21.63)"/><path d="M126.53,41a13.78,13.78,0,0,1,2.37-4.45,11.92,11.92,0,0,1,4.24-3.33,14.14,14.14,0,0,1,6.16-1.27,16.45,16.45,0,0,1,5.93,1,11.88,11.88,0,0,1,4.24,2.65,11.38,11.38,0,0,1,2.52,3.7,11,11,0,0,1,.84,4.17,15.34,15.34,0,0,1-.76,4.7,13.73,13.73,0,0,1-2.37,4.46,12,12,0,0,1-4.24,3.32,14.14,14.14,0,0,1-6.16,1.27,16.37,16.37,0,0,1-5.89-1,12.07,12.07,0,0,1-4.25-2.66,10.92,10.92,0,0,1-2.54-3.73,10.63,10.63,0,0,1-.84-4.13,15.74,15.74,0,0,1,.75-4.71m2.74,7a13.5,13.5,0,0,0,2.4,4.19,11.49,11.49,0,0,0,3.7,2.92A10.09,10.09,0,0,0,140,56.16a9.76,9.76,0,0,0,7.08-2.69A9.86,9.86,0,0,0,149.88,46a13.85,13.85,0,0,0-.84-4.71,13.5,13.5,0,0,0-2.4-4.19,11.38,11.38,0,0,0-3.7-2.92,10.06,10.06,0,0,0-4.62-1.07,9.44,9.44,0,0,0-9.88,10.17,14.09,14.09,0,0,0,.83,4.71" transform="translate(-23.13 -21.63)"/><path d="M158.66,56.16a5.64,5.64,0,0,0,1.16.12,3.89,3.89,0,0,0,.78-.09,2.61,2.61,0,0,0,.66-.2,2.35,2.35,0,0,0,.64-1,6.65,6.65,0,0,0,.23-2V35.12a2.78,2.78,0,0,0-.35-1.41A1.34,1.34,0,0,0,161,33a6,6,0,0,0-1-.06,4.82,4.82,0,0,0-.69.06,3.61,3.61,0,0,1-.53,0V32.4a7.18,7.18,0,0,1,1.28-.11c.46,0,1.09,0,1.9.11a18.41,18.41,0,0,0,2.26.18c.38,0,1,0,1.73-.11,1.82-.12,3.57-.18,5.26-.18a14.8,14.8,0,0,1,6.68,1.36A11.27,11.27,0,0,1,182,37a13.31,13.31,0,0,1,2.63,7.63,12.36,12.36,0,0,1-4.51,9.54,10.41,10.41,0,0,1-3.78,2.08,16.34,16.34,0,0,1-4.48.57c-.58,0-2.18,0-4.8-.11l-3-.06q-.58,0-2.55.12c-.85,0-1.33.05-1.44.05a7.37,7.37,0,0,1-1.45-.11Zm6.42-2.54a1.84,1.84,0,0,0,.86,1.76c.58.33,2.06.49,4.46.49a21.61,21.61,0,0,0,3.17-.23A10.75,10.75,0,0,0,177,54.46a8.09,8.09,0,0,0,3.12-3.09,10.82,10.82,0,0,0,1.3-5.67,17.26,17.26,0,0,0-.49-4,12.64,12.64,0,0,0-1.73-4,9.48,9.48,0,0,0-3.47-3.12,11.26,11.26,0,0,0-5.41-1.22c-1.34,0-2.36,0-3.06,0a6.56,6.56,0,0,0-1.5.17.92.92,0,0,0-.58.38,2.12,2.12,0,0,0-.11.81Z" transform="translate(-23.13 -21.63)"/><path d="M195.19,35.58a2.76,2.76,0,0,0-.92-2.42,2.36,2.36,0,0,0-.85-.23,7.69,7.69,0,0,0-.95-.06,3.84,3.84,0,0,0-.75.06V32.4a3.64,3.64,0,0,1,.75-.11c.16,0,.62,0,1.39.11q1.62.18,2.37.18l3-.18,1.21,0q1.91-.12,2.31-.12a15.19,15.19,0,0,1,2.11.15,8.2,8.2,0,0,1,2.31.69,4.82,4.82,0,0,1,2.08,1.79,5.75,5.75,0,0,1,.84,3.27,5.11,5.11,0,0,1-1.91,4.13,9.29,9.29,0,0,1-5.31,1.88v.11a2.91,2.91,0,0,1,.61.35,3.51,3.51,0,0,1,.49.64l5.31,8.09a7.7,7.7,0,0,0,2.34,2.43,4.85,4.85,0,0,0,2.46.69,1.89,1.89,0,0,0,1.21-.35,1,1,0,0,0,.06.24.58.58,0,0,0,.06.28,4.65,4.65,0,0,1-1.21.29,14.75,14.75,0,0,1-2.08.12,7.1,7.1,0,0,1-3-.61,7.64,7.64,0,0,1-2.83-2.92l-4.86-7.68a7.57,7.57,0,0,0-.75-.93,2.48,2.48,0,0,0-.81-.69,5,5,0,0,0-.92-.18,6.26,6.26,0,0,1-.93-.23V52a11.76,11.76,0,0,0,.35,3.33A1.61,1.61,0,0,0,200,56.39l.58,0h.58v.57a6.45,6.45,0,0,1-.78.12H200l-.69-.06-.35-.06a20.34,20.34,0,0,0-2.13-.17c-.55,0-1.24,0-2.09.11l-.4.06c-.42,0-.73.06-.92.06a14.44,14.44,0,0,1-1.62-.06v-.57a10.68,10.68,0,0,0,1.15,0,4.18,4.18,0,0,0,1.39-.23,2.85,2.85,0,0,0,.69-1.1,7.31,7.31,0,0,0,.12-1.61ZM198,42.81h.12a12.73,12.73,0,0,0,1.41.4,7.26,7.26,0,0,0,1.48.12,6.94,6.94,0,0,0,4.33-1.27,4.36,4.36,0,0,0,1.68-3.7,4.62,4.62,0,0,0-.78-2.83,4.36,4.36,0,0,0-1.94-1.5,8.16,8.16,0,0,0-2.31-.58,24.75,24.75,0,0,0-2.54-.12,1.91,1.91,0,0,0-1,.26,1,1,0,0,0-.41,1Z" transform="translate(-23.13 -21.63)"/><path d="M220.33,56.16a9.56,9.56,0,0,0,1.27.06,8.5,8.5,0,0,0,1.16-.06,3.19,3.19,0,0,0,.83-1.27,9.11,9.11,0,0,0,.21-2.43V36.39a7,7,0,0,0-.23-2.13,3.09,3.09,0,0,0-1-1.27,10.9,10.9,0,0,0-1.32-.06A9.85,9.85,0,0,0,220,33v-.52a9.07,9.07,0,0,1,1.85-.18l1.79.11c.85.09,1.37.12,1.56.12s.87,0,1.91-.12l1.56-.11c.23,0,.64,0,1.22.11a.94.94,0,0,1,.28.07V33a11.25,11.25,0,0,0-1.27-.06q-2.19,0-2.19,2.43v18.2a3.32,3.32,0,0,0,.31,1.5,4.27,4.27,0,0,0,.78,1.1H228a6.69,6.69,0,0,0,1,.12,9,9,0,0,0,1.21-.12v.58a1.2,1.2,0,0,1-.4.11h-.58c-.19,0-.94,0-2.25-.11-1-.08-1.68-.12-1.91-.12l-1.91.12c-1,.08-1.54.11-1.73.11a5.4,5.4,0,0,1-1.1-.11Z" transform="translate(-23.13 -21.63)"/><path d="M250.62,55.67a13.72,13.72,0,0,0,2.59-.9c.59-.26,1.09-.51,1.54-.75a2.87,2.87,0,0,0,.89-.63,3.89,3.89,0,0,0,1.1-2.55h.52a9.46,9.46,0,0,1-.58,2.23,4.45,4.45,0,0,1-.69,1.3c-.19.23-.48.63-.87,1.19s-.69,1-.92,1.41l-6.47-.12c-3-.07-5-.11-6-.11-.58,0-1.54.06-2.89.17l-1.39.06h-.29l-.28-.06v-.57h.52l.52,0,.6,0a1.33,1.33,0,0,0,.5-.12A2.16,2.16,0,0,0,240.18,55a8.41,8.41,0,0,0,.21-2.17V36.39a6.63,6.63,0,0,0-.23-2,4.49,4.49,0,0,0-1-1.5,7.11,7.11,0,0,0-1.09-.06c-.32,0-.72,0-1.22.06l-.23,0v-.52a.84.84,0,0,0,.29-.05,10,10,0,0,1,1.44-.12c.24,0,.73,0,1.5.12a16.91,16.91,0,0,0,1.74.17c.15,0,.56,0,1.21-.12,1.27-.11,2.18-.17,2.72-.17a6.75,6.75,0,0,1,1,.06v.52l-.52-.06h-.58a2,2,0,0,0-1.7.75,3,3,0,0,0-.55,1.85v18.5a1.64,1.64,0,0,0,1.15,1.65,9,9,0,0,0,3,.43,14.06,14.06,0,0,0,3.3-.32" transform="translate(-23.13 -21.63)"/><path d="M262.52,41a13.78,13.78,0,0,1,2.37-4.45,12,12,0,0,1,4.25-3.33,14.11,14.11,0,0,1,6.16-1.27,16.44,16.44,0,0,1,5.92,1,12,12,0,0,1,4.25,2.65,11.35,11.35,0,0,1,2.51,3.7,10.79,10.79,0,0,1,.84,4.17,15.63,15.63,0,0,1-.75,4.7,13.73,13.73,0,0,1-2.37,4.46,12,12,0,0,1-4.25,3.32,14.07,14.07,0,0,1-6.15,1.27,16.43,16.43,0,0,1-5.9-1,12.16,12.16,0,0,1-4.25-2.66,11.21,11.21,0,0,1-2.54-3.73,10.81,10.81,0,0,1-.84-4.13,15.74,15.74,0,0,1,.75-4.71m2.75,7a13.5,13.5,0,0,0,2.4,4.19,11.38,11.38,0,0,0,3.7,2.92A10.06,10.06,0,0,0,276,56.16,9.44,9.44,0,0,0,285.87,46a13.84,13.84,0,0,0-.83-4.71,13.5,13.5,0,0,0-2.4-4.19,11.6,11.6,0,0,0-3.7-2.92,10.13,10.13,0,0,0-4.63-1.07,9.44,9.44,0,0,0-9.88,10.17,13.85,13.85,0,0,0,.84,4.71" transform="translate(-23.13 -21.63)"/></svg>