<svg id="Capa_1" data-name="Capa 1" xmlns="http://www.w3.org/2000/svg" viewBox="0 0 197.51 42.48">
    <defs>
        <style>.cls-1,.cls-2{fill:#F1EEE9;}.cls-1{fill-rule:evenodd;}</style>
    </defs>
    <path class="cls-1" d="M27.6,5.53c-.23,0-.34.08-.34.34,0,.73,2,.08,2,1.54q0,1.79-5.2,13c-1.38,3-2,4.5-2.11,4.5s-.85-1.88-2.62-5.73C16,12,14.17,8.06,14.17,7.18c0-1.19,2.19-.35,2.19-1.27,0-.15-.07-.3-.15-.3-.69,0-2.11.19-4.19.19-1.5,0-2.73-.16-3.65-.16H8.13c-.3,0-.42,0-.42.35,0,.53.46.19,1.46.61.73.31,1.39,1.39,2.23,3,2.73,5.38,5.77,11.83,8.43,18.21.5,1.23.46,1.73,1.07,1.73s.66-.35,1-1.39c.8-2.46,3.15-7.41,6.62-15.17,1.57-3.54,2.57-5.69,3.73-6.34,1-.54,1.5-.12,1.5-.77,0-.27-.08-.3-.31-.3-1.31,0-2.39.11-3.27.11s-1.81-.19-2.58-.19" transform="translate(-4.42 -5.37)"/><path class="cls-1" d="M43.87,11.73c-.94,0-2.24.23-3.83.23-1,0-1.93-.11-2.84-.11h-.14c-.22,0-.3,0-.3.31,0,.48,1.15.05,2,.62s.71,3,.71,7.67v2.38c0,2.66,0,4.3-.4,5a2.43,2.43,0,0,1-2,.71c-.28,0-.37.11-.37.34s.09.25.28.25c.91,0,1.93-.14,3.12-.14,1.62,0,2.86.17,3.77.17h.14c.23,0,.31,0,.31-.26,0-.42-.39-.16-1.38-.39s-1.08-1.1-1.08-3.43c0-.82,0-1.81,0-3,0-5.83.09-8.83.68-9.34s1.81-.31,1.81-.82c0-.2-.14-.2-.42-.2" transform="translate(-4.42 -5.37)"/><path class="cls-1" d="M61.36,6c-.2.82-.6,1.22-1.31,1.22a2.28,2.28,0,0,1-.71-.12l-1.56-.45a3.78,3.78,0,0,0-1.11-.17c-1.21,0-2.18,1-2.52,2.8h.68c.26-.93.63-1.24,1.39-1.24a2.82,2.82,0,0,1,.79.14l1.56.45a3.88,3.88,0,0,0,.92.14c1.27,0,2.15-1,2.52-2.77ZM51.29,15.21c1.47,1.45,5.22,4.59,10.89,10,3,2.86,3.11,4,3.6,4,.25,0,.34,0,.34-.28v-.31c0-1.14-.09-2.86-.09-5.21V20c0-4.59,0-7,.69-7.5S68,12.36,68,12s-.14-.29-.4-.29-.93.06-2,.06-2-.22-2.57-.22c-.14,0-.23.05-.23.28,0,.39.68.08,1.39.54,1,.65,1,3,1,7.78,0,.85,0,2.24-.06,4.19l-.23.15c-6.12-5.27-10.57-9.32-13.26-12.69-.74.06-1.42.11-2,.11-.82,0-1.39-.08-1.7-.08s-.25.06-.25.28c0,.4,1.07.06,1.8.88s.77,3.82.77,9.31c0,1.25-.08,2.5-.08,3.71,0,.57,0,1,0,1.36,0,.76-.12,1.05-.68,1.22-.86.25-1.22.14-1.22.48s.11.23.28.23c.51,0,1.59-.2,3.12-.2.93,0,1.7.14,2.32.14.15,0,.2,0,.2-.2,0-.65-1.81-.14-2.6-.88-.58-.51-.6-3.34-.6-8.83v-4Z" transform="translate(-4.42 -5.37)"/><path class="cls-1" d="M83,27.13a2.47,2.47,0,0,1,.14.71c0,.94-1.36.57-1.36,1.1,0,.17,0,.2.17.2s.17,0,.28,0c.49,0,1.34-.19,2.56-.19,1.53,0,2.38.08,2.55.08s.22,0,.22-.25-.37-.14-.85-.34c-.76-.31-1.1-1.08-1.67-2.44C82,18.5,80.29,14.2,80,13.09s-.23-1.44-.8-1.44c-.39,0-.39.2-.56.79s-1.17,3.31-3,8c-1.93,4.87-2.86,7.59-3.91,8.13-.51.25-.88.14-.88.45,0,.14.08.17.25.17s.91-.14,2-.14,2.21.23,2.89.23c.17,0,.28-.09.28-.23,0-.54-2.21-.2-2.21-1.5a3.05,3.05,0,0,1,.17-.88l1.16-3.17c.15-.4.26-.43.6-.43h5.16c.25,0,.46,0,.57.35ZM78.67,16l2.38,5.8a.74.74,0,0,1,.09.31c0,.14-.06.2-.2.2H76.18c-.2,0-.29,0-.29-.17a.71.71,0,0,1,.09-.31l2.24-5.92c0-.14.14-.22.23-.22s.14.14.22.31" transform="translate(-4.42 -5.37)"/><path class="cls-1" d="M118.25,28a40.3,40.3,0,0,1,1-4.49c0-.12-.16-.19-.43-.19s-.31.42-.81,1.38c-1.31,2.42-3.34,3.57-6.46,3.57-5.43,0-9.66-4.61-9.66-11.33,0-6.38,3.5-10.49,8.81-10.49a11.89,11.89,0,0,1,5.74,1.73,2.15,2.15,0,0,1,1.27,2.31V11c0,.23,0,.31.34.31s.39-.19.42-.73a21.93,21.93,0,0,1,.7-4.11c0-.15-.12-.23-.27-.23s-.62.19-1,.19c-1.08,0-3.27-1-6.5-1-7.77,0-13.24,5-13.24,11.91,0,7.11,5.5,12.07,12.93,12.07A26.51,26.51,0,0,0,118.25,28" transform="translate(-4.42 -5.37)"/><path class="cls-1" d="M124,20.34a9.22,9.22,0,0,0,18.43-.11,8.66,8.66,0,0,0-9-8.75c-5.25,0-9.42,3.93-9.42,8.86m8.62-7.81a6.71,6.71,0,0,1,5.28,2.68,10.44,10.44,0,0,1,2.18,6.26c0,4.19-2.41,6.85-5.84,6.85a7.18,7.18,0,0,1-5.89-3.22,10.61,10.61,0,0,1-2-6c0-3.93,2.56-6.59,6.24-6.59" transform="translate(-4.42 -5.37)"/><path class="cls-1" d="M152.63,11.73c-1.22,0-2.63.29-4.19.29a12.58,12.58,0,0,1-1.88-.14c-.11,0-.16.17-.16.36s.79.12,1.27.51c.65.51.68,2.13.68,5.13v8.06c0,1.45,0,2.24-.56,2.52-.77.4-1.17.2-1.17.57a.23.23,0,0,0,.26.26,22.3,22.3,0,0,1,3.06-.2c1.39,0,2.64.08,3.66.08,3.88,0,6.12-1.89,6.12-4.56,0-2-1.33-3.76-3.85-4.58-.83-.26-1.36-.28-1.36-.4s.28-.11.65-.25c1.87-.71,2.77-1.9,2.77-3.57,0-2.32-1.87-4.08-5.3-4.08m-1.9,8.55a14.25,14.25,0,0,1,1.45-.08c3.15,0,5,1.72,5,4.39,0,2.4-1.53,3.85-4.25,3.85-1.25,0-1.87-.2-2-.71a51,51,0,0,1-.18-6Zm0-.76V14.14c0-1.53.09-1.64,1.31-1.64a3.37,3.37,0,0,1,3.4,3.68c0,2.21-1.39,3.37-4.14,3.37-.17,0-.37,0-.57,0" transform="translate(-4.42 -5.37)"/><path class="cls-1" d="M164.08,20.34a9.22,9.22,0,0,0,18.43-.11,8.66,8.66,0,0,0-9-8.75,9.1,9.1,0,0,0-9.41,8.86m8.62-7.81A6.7,6.7,0,0,1,178,15.21a10.44,10.44,0,0,1,2.18,6.26c0,4.19-2.4,6.85-5.83,6.85a7.23,7.23,0,0,1-5.91-3.22,10.66,10.66,0,0,1-1.95-6c0-3.93,2.55-6.59,6.24-6.59" transform="translate(-4.42 -5.37)"/><path class="cls-1" d="M188.06,29a.34.34,0,0,1,.25-.17,31.2,31.2,0,0,0,4.6.63c3.49,0,5.72-1.93,5.72-4.7,0-2.29-1.36-3.77-4-5-2.81-1.24-4.93-1.75-4.93-4.38a3.26,3.26,0,0,1,3.45-3.23A4.38,4.38,0,0,1,197.07,14a14.1,14.1,0,0,1,.66,1.64c.31,0,.37,0,.37-.14a13.94,13.94,0,0,1-.2-1.76,9,9,0,0,1,.22-2,.19.19,0,0,0-.16-.2c-.2,0-.6.4-1.14.4a32.6,32.6,0,0,0-3.32-.51c-3.6,0-5.84,2.21-5.84,4.92,0,2.1,1.2,3.37,3.63,4.48,3,1.36,5.27,1.81,5.27,4.61,0,1.93-1.24,3.12-3.51,3.12-2.07,0-4.37-.88-5-2a9.39,9.39,0,0,1-.71-2c-.28,0-.48.05-.48.14a20.28,20.28,0,0,1,.65,4.16v.4H188Z" transform="translate(-4.42 -5.37)"/><path class="cls-2" d="M8.24,47.76,5.72,41.6a1.66,1.66,0,0,0-.48-.8,1.54,1.54,0,0,0-.82-.2v-.37H7.71v.37l-.46.07c-.2,0-.33.06-.37.14A.73.73,0,0,0,7,41.3c.37,1,1,2.52,1.9,4.64q1.08-2.71,1.71-4.54.33-.74-.45-.75l-.35,0v-.37h2.9v.37a1.42,1.42,0,0,0-.88.29A3.25,3.25,0,0,0,11.13,42q-.83,1.8-2.43,5.81Z" transform="translate(-4.42 -5.37)"/><path class="cls-2" d="M20,45.89a1.83,1.83,0,0,0,.19,1.1c.13.16.44.25.94.28v.38H17.6v-.38a1.45,1.45,0,0,0,1-.28,2.06,2.06,0,0,0,.17-1.1V42a2.12,2.12,0,0,0-.17-1.14,1.36,1.36,0,0,0-1-.25v-.37h3.51v.37c-.5,0-.81.09-.94.25A1.89,1.89,0,0,0,20,42Z" transform="translate(-4.42 -5.37)"/><path class="cls-2" d="M33.23,47.73h-.51L27.8,42.07h0V44.5a12.76,12.76,0,0,0,.1,2.14.58.58,0,0,0,.32.43,2.39,2.39,0,0,0,.89.2v.38H26.05v-.38c.66,0,1-.24,1.07-.63a7.69,7.69,0,0,0,.08-.77c0-.32,0-.78,0-1.37V42.27A2.33,2.33,0,0,0,27,41a1.46,1.46,0,0,0-1.09-.35v-.37h2l4.78,5.44h0v-2.3a16,16,0,0,0-.1-2.15.58.58,0,0,0-.32-.46,2.42,2.42,0,0,0-.9-.16v-.37h3.07v.37c-.66,0-1,.23-1.08.62,0,.17,0,.42,0,.75a12.7,12.7,0,0,0-.06,1.4Z" transform="translate(-4.42 -5.37)"/><path class="cls-2" d="M40.37,42a2.15,2.15,0,0,0-.16-1.14c-.13-.16-.44-.24-.94-.25v-.37H45c0,.39.06,1,.13,1.86l-.41,0a2,2,0,0,0-.4-1.07.86.86,0,0,0-.4-.24,3.32,3.32,0,0,0-.89-.09h-.9a.92.92,0,0,0-.38,0c-.06,0-.09.16-.09.37V43.5h1.26a1.62,1.62,0,0,0,.93-.14,1.53,1.53,0,0,0,.24-.78h.41V45h-.41a1.68,1.68,0,0,0-.24-.85,2.08,2.08,0,0,0-.93-.11H41.62v1.82c0,.64.09,1,.31,1.13a3.17,3.17,0,0,0,1.28.14,2,2,0,0,0,1.44-.37,1.61,1.61,0,0,0,.31-.44,3.66,3.66,0,0,0,.27-.7l.42.05q-.19,1.06-.42,1.95H39.16v-.38a1.62,1.62,0,0,0,1-.29,1.93,1.93,0,0,0,.18-1.11Z" transform="translate(-4.42 -5.37)"/><path class="cls-2" d="M51.65,47.65v-.38A1.87,1.87,0,0,0,52.8,47a1.83,1.83,0,0,0,.19-1.1v-1a1.39,1.39,0,0,0-.25-.78c-.32-.56-.84-1.45-1.58-2.66a2.11,2.11,0,0,0-.52-.68,1.71,1.71,0,0,0-.78-.15v-.37h3.33v.37l-.56.07c-.19,0-.3,0-.34.11a.53.53,0,0,0,.08.37c.36.64.88,1.53,1.56,2.65.56-1,1-1.87,1.31-2.55.12-.22.16-.37.13-.45s-.18-.12-.4-.13l-.49-.07v-.37h2.94v.37a1.78,1.78,0,0,0-.87.2,2.64,2.64,0,0,0-.54.65c-.45.65-.95,1.45-1.51,2.42a2.34,2.34,0,0,0-.21.46,1.41,1.41,0,0,0,0,.35v1.21a1.71,1.71,0,0,0,.22,1.1,2,2,0,0,0,1.17.28v.38Z" transform="translate(-4.42 -5.37)"/><path class="cls-2" d="M65.11,47.27l.31,0c.23,0,.38-.09.44-.22a1.18,1.18,0,0,0-.17-.75l-.55-1.35H62.9c-.16.41-.34.92-.55,1.56s-.05.77.43.76l.38,0v.38H60.33v-.38a1.52,1.52,0,0,0,.83-.27,2.4,2.4,0,0,0,.61-1l2.39-5.85.41-.09L67,46.17a1.58,1.58,0,0,0,.59.88,1.42,1.42,0,0,0,.81.22v.38H65.11Zm-2-2.91H65L64,41.82h0Z" transform="translate(-4.42 -5.37)"/><path class="cls-2" d="M75.43,45.88a1.83,1.83,0,0,0,.2,1.11c.12.16.44.25.94.28v.38H73v-.38A1.49,1.49,0,0,0,74,47a2.09,2.09,0,0,0,.16-1.1V42A2.17,2.17,0,0,0,74,40.85a1.37,1.37,0,0,0-.94-.25v-.37h3.5a3.93,3.93,0,0,1,1.84.38,1.7,1.7,0,0,1,.79,1.53,1.87,1.87,0,0,1-.44,1.22,2.85,2.85,0,0,1-1.12.72c.27.47.61,1,1,1.64a7.66,7.66,0,0,0,1,1.2,2,2,0,0,0,.83.5l0,.32h-.25a3.33,3.33,0,0,1-1.51-.28,2.41,2.41,0,0,1-.86-.75c-.43-.64-.8-1.25-1.11-1.82a.78.78,0,0,0-.31-.38,1.35,1.35,0,0,0-.48-.07h-.49Zm0-1.89h.75a2.74,2.74,0,0,0,.56-.06,1.56,1.56,0,0,0,.52-.2,1.36,1.36,0,0,0,.47-.65,2.47,2.47,0,0,0,.13-.79,1.55,1.55,0,0,0-.49-1.22,1.8,1.8,0,0,0-1.17-.39,2.55,2.55,0,0,0-.65,0c-.09.06-.13.2-.12.44Z" transform="translate(-4.42 -5.37)"/><path class="cls-2" d="M88.41,40.23a4.89,4.89,0,0,1,3.3,1,3.17,3.17,0,0,1,1,2.43,3.55,3.55,0,0,1-1.4,3,5.61,5.61,0,0,1-3.34,1H84.78v-.39a1.49,1.49,0,0,0,1-.28,1.91,1.91,0,0,0,.18-1.1V42a2.15,2.15,0,0,0-.16-1.14,1.26,1.26,0,0,0-.9-.25v-.37ZM87.19,46a1.56,1.56,0,0,0,.2,1,1.2,1.2,0,0,0,1,.25q2.91-.07,2.89-3.19,0-3.33-3.12-3.29a1.81,1.81,0,0,0-.8.13c-.08.06-.12.25-.12.56Z" transform="translate(-4.42 -5.37)"/><path class="cls-2" d="M108.51,40.23a4.94,4.94,0,0,1,3.31,1,3.2,3.2,0,0,1,1,2.43,3.55,3.55,0,0,1-1.4,3,5.61,5.61,0,0,1-3.34,1h-3.16v-.39a1.49,1.49,0,0,0,1-.28,1.91,1.91,0,0,0,.18-1.1V42a2.15,2.15,0,0,0-.16-1.14,1.26,1.26,0,0,0-.9-.25v-.37ZM107.29,46a1.56,1.56,0,0,0,.2,1,1.2,1.2,0,0,0,1,.25q2.91-.07,2.89-3.19,0-3.33-3.11-3.29a1.87,1.87,0,0,0-.81.13c-.08.06-.12.25-.12.56Z" transform="translate(-4.42 -5.37)"/><path class="cls-2" d="M118.94,42a2.15,2.15,0,0,0-.16-1.14c-.13-.16-.44-.24-.94-.25v-.37h5.69c0,.39.06,1,.13,1.86l-.41,0a2.05,2.05,0,0,0-.4-1.07.91.91,0,0,0-.4-.24,3.32,3.32,0,0,0-.89-.09h-.9a.92.92,0,0,0-.38,0c-.06,0-.09.16-.09.37V43.5h1.26a1.62,1.62,0,0,0,.93-.14,1.53,1.53,0,0,0,.24-.78h.4V45h-.4a1.68,1.68,0,0,0-.24-.85,2.08,2.08,0,0,0-.93-.11h-1.26v1.82c0,.64.09,1,.3,1.13a3.27,3.27,0,0,0,1.29.14,2,2,0,0,0,1.44-.37,1.61,1.61,0,0,0,.31-.44,3.66,3.66,0,0,0,.27-.7l.42.05q-.19,1.06-.42,1.95h-6.07v-.38a1.62,1.62,0,0,0,1-.29,1.93,1.93,0,0,0,.18-1.11Z" transform="translate(-4.42 -5.37)"/><path class="cls-2" d="M129.58,45.32a3.51,3.51,0,0,0,.76,1.34,2.48,2.48,0,0,0,.64.49,1.37,1.37,0,0,0,.73.21,1.49,1.49,0,0,0,1.07-.36,1.3,1.3,0,0,0,.37-1,1.26,1.26,0,0,0-.49-1.05,3.7,3.7,0,0,0-1.08-.56l-.64-.31a3.77,3.77,0,0,1-.7-.41,2.27,2.27,0,0,1-.53-.62,1.49,1.49,0,0,1-.23-.82,2,2,0,0,1,.72-1.63,2.85,2.85,0,0,1,1.87-.6,6.44,6.44,0,0,1,1,.09l.62.21c.09.46.19,1.07.29,1.83l-.41,0A2.52,2.52,0,0,0,133,41a1.53,1.53,0,0,0-1.15-.48,1.28,1.28,0,0,0-.91.35,1.26,1.26,0,0,0-.34.85,1.08,1.08,0,0,0,.48.92,6.07,6.07,0,0,0,1,.51,5.07,5.07,0,0,1,1.55.8,2.12,2.12,0,0,1,.51.64,2,2,0,0,1,.2.92,2.1,2.1,0,0,1-.77,1.68,3,3,0,0,1-2,.67,3.49,3.49,0,0,1-1.29-.24,4.75,4.75,0,0,1-.75-.34c0-.16-.09-.43-.16-.8l-.21-1.12Z" transform="translate(-4.42 -5.37)"/><path class="cls-2" d="M141.69,45.89a1.83,1.83,0,0,0,.19,1.1c.13.16.44.25.94.28v.38h-3.51v-.38a1.45,1.45,0,0,0,1-.28,2.06,2.06,0,0,0,.17-1.1V42a2.12,2.12,0,0,0-.17-1.14,1.36,1.36,0,0,0-1-.25v-.37h3.51v.37c-.5,0-.81.09-.94.25a1.89,1.89,0,0,0-.19,1.14Z" transform="translate(-4.42 -5.37)"/><path class="cls-2" d="M154.3,42.39a2.33,2.33,0,0,0-.88-1.53,2.74,2.74,0,0,0-1.45-.35,2.49,2.49,0,0,0-2,.87,3.39,3.39,0,0,0-.79,2.42,4.25,4.25,0,0,0,.71,2.43,2.58,2.58,0,0,0,2.32,1.13,2.22,2.22,0,0,0,.81-.13.59.59,0,0,0,.36-.6V45.46a1,1,0,0,0-.18-.74,2.72,2.72,0,0,0-1.24-.23v-.38h3.39v.38a1,1,0,0,0-.61.19,1.32,1.32,0,0,0-.11.78v.9a3.68,3.68,0,0,0,.11,1,12.39,12.39,0,0,1-1.23.29,7.12,7.12,0,0,1-1.35.17A4.64,4.64,0,0,1,149,46.76,3.47,3.47,0,0,1,147.76,44a3.55,3.55,0,0,1,1.39-3,5,5,0,0,1,3.1-1,12.56,12.56,0,0,1,1.37.09c.4.08.7.15.89.21,0,.37.11,1.05.2,2Z" transform="translate(-4.42 -5.37)"/><path class="cls-2" d="M167.56,47.73H167l-4.91-5.66h0V44.5a14,14,0,0,0,.1,2.14.61.61,0,0,0,.32.43,2.39,2.39,0,0,0,.89.2v.38h-3v-.38c.66,0,1-.24,1.07-.63a7.69,7.69,0,0,0,.08-.77c0-.32,0-.78,0-1.37V42.27a2.44,2.44,0,0,0-.25-1.32,1.48,1.48,0,0,0-1.1-.35v-.37h2L167,45.67h0v-2.3a18,18,0,0,0-.1-2.15.6.6,0,0,0-.33-.46,2.42,2.42,0,0,0-.9-.16v-.37h3.08v.37c-.67,0-1,.23-1.08.62,0,.17,0,.42,0,.75a13.15,13.15,0,0,0-.05,1.4Z" transform="translate(-4.42 -5.37)"/><path class="cls-2" d="M177.47,47.27l.31,0c.24,0,.38-.09.44-.22s0-.37-.16-.75l-.56-1.35h-2.23c-.17.41-.35.92-.55,1.56s-.06.77.43.76l.38,0v.38h-2.84v-.38a1.49,1.49,0,0,0,.83-.27,2.39,2.39,0,0,0,.62-1l2.38-5.85.41-.09,2.4,6.14a1.63,1.63,0,0,0,.59.88,1.42,1.42,0,0,0,.81.22v.38h-3.26Zm-2-2.91h1.88l-.94-2.54h0Z" transform="translate(-4.42 -5.37)"/><path class="cls-2" d="M186.67,40.72h-.5a3.92,3.92,0,0,0-1,.09,1.4,1.4,0,0,0-.46.29,1.38,1.38,0,0,0-.19.37,4.43,4.43,0,0,0-.24.73h-.39c.06-.9.11-1.65.14-2.26h.21a.86.86,0,0,0,.28.22.78.78,0,0,0,.34.07h5a.78.78,0,0,0,.34-.07,1.11,1.11,0,0,0,.2-.22h.21c0,.63.07,1.37.14,2.23l-.4,0a4.75,4.75,0,0,0-.17-.78.91.91,0,0,0-.25-.39.76.76,0,0,0-.45-.25,4.53,4.53,0,0,0-.84-.06h-.72v5.17a1.67,1.67,0,0,0,.2,1.1,1.66,1.66,0,0,0,1.06.28v.38h-3.72v-.38a1.57,1.57,0,0,0,1-.28,1.94,1.94,0,0,0,.18-1.1Z" transform="translate(-4.42 -5.37)"/><path class="cls-2" d="M196.65,42a2.12,2.12,0,0,0-.17-1.14c-.12-.16-.43-.24-.93-.25v-.37h5.68c0,.39.07,1,.14,1.86l-.41,0a2.05,2.05,0,0,0-.4-1.07.91.91,0,0,0-.4-.24,3.37,3.37,0,0,0-.89-.09h-.9a1,1,0,0,0-.39,0s-.08.16-.08.37V43.5h1.26a1.56,1.56,0,0,0,.92-.14,1.43,1.43,0,0,0,.25-.78h.4V45h-.4a1.56,1.56,0,0,0-.25-.85,2,2,0,0,0-.92-.11H197.9v1.82c0,.64.09,1,.3,1.13a3.23,3.23,0,0,0,1.29.14,2,2,0,0,0,1.44-.37,1.41,1.41,0,0,0,.3-.44,3.63,3.63,0,0,0,.28-.7l.41.05c-.12.71-.26,1.36-.41,1.95h-6.07v-.38a1.65,1.65,0,0,0,1-.29,1.93,1.93,0,0,0,.18-1.11Z" transform="translate(-4.42 -5.37)"/></svg>