<svg id="Capa_1" data-name="Capa 1" xmlns="http://www.w3.org/2000/svg" viewBox="0 0 472.44 73.61"><defs><style>.cls-1{fill:#12100b;}</style></defs><path class="cls-1" d="M86.18,74a26.93,26.93,0,0,1-12.93,10.7c-5.5,2.34-10.86,2.74-17.61,2.74-25.59,0-37.82-19.22-37.82-34.05,0-32.26,26-39.4,37.41-39.4,4.8,0,7.71,1,13.47,2.88,3.31,1.1,4.13,1.38,7,1.38a10.54,10.54,0,0,0,5-1.1c0,4.94,2.19,7.69,2.19,13.59a22.24,22.24,0,0,1-.68,5.77c-.28-.14-.83-.14-1.24-.28a10,10,0,0,0,.56-3c0-7.68-14.58-16.75-25.87-16.75C43.54,16.47,27,25.54,27,49c0,16.75,8.39,35.85,31.36,35.85a40.32,40.32,0,0,0,13.07-2.07c5.77-1.78,11-5.49,13.21-9.33Z" transform="translate(-17.82 -14)"/><path class="cls-1" d="M191.8,55.46c0,17-11.41,29.66-28.74,29.66-21.73,0-31.63-20.32-31.63-35.42,0-19.23,12.38-33.37,29.16-33.37C184.09,16.33,191.8,41.73,191.8,55.46Zm7.58-5.07c0-22.25-15.55-36.39-37.56-36.39-21.31,0-38,18.4-38,37.89,0,18.83,12.8,35.71,38.25,35.71C186.58,87.6,199.38,65.76,199.38,50.39Z" transform="translate(-17.82 -14)"/><path class="cls-1" d="M255.9,21.14c0-3.44,2.89-3.44,7.29-3.44,12.1,0,15.95,6.19,15.95,13.74,0,10.71-7.84,13.17-16.63,13.17H255.9Zm-7,51.35a61.08,61.08,0,0,1-.28,6.88,12.26,12.26,0,0,1-3.31,5.49,17.57,17.57,0,0,1-3.16.41,18.32,18.32,0,0,1-2.47-.28v1.64a16.07,16.07,0,0,0,2.62.15c4.81,0,7.56-.68,10.45-.68,1.92,0,6.19.68,16.09.68,19.38,0,23.78-15.52,23.78-20.46,0-12.1-11-19.23-20.77-20.47v-.27c4.55-.68,15.55-5.91,15.55-16.2,0-4.13-1.92-14.42-19-14.42-6.6,0-11.82.69-15.52.69-2.08,0-5.38-.69-8.95-.69h-3.58v1.51c.69,0,1.52-.14,2.2-.14,4.68-.13,6.33,3.57,6.33,9.07Zm7-25.26c5.78,0,12.51,0,17.6,2.06,7,2.88,10.45,10.16,10.45,16.89,0,12.08-7,18.81-17.87,18.81a30.66,30.66,0,0,1-10.18-1.51Z" transform="translate(-17.82 -14)"/><path class="cls-1" d="M402.25,55.46c0,17-11.42,29.66-28.75,29.66-21.74,0-31.64-20.32-31.64-35.42,0-19.23,12.37-33.37,29.16-33.37C394.54,16.33,402.25,41.73,402.25,55.46Zm7.55-5.07C409.8,28.14,394.26,14,372.26,14c-21.33,0-38,18.4-38,37.89,0,18.83,12.79,35.71,38.23,35.71C397,87.6,409.8,65.76,409.8,50.39Z" transform="translate(-17.82 -14)"/><path class="cls-1" d="M478,47.5c8.38,6.87,12.23,13.45,12.23,21.28,0,6-3.58,18.14-22,18.14-8.24,0-12.1-4.13-18.15-4.13,0-3.71-1.92-9.2-1.92-12.9a13.26,13.26,0,0,1,.55-4.54H450a28.46,28.46,0,0,0-.27,3.43,15.42,15.42,0,0,0,1,6A35.25,35.25,0,0,0,457.11,81a17.78,17.78,0,0,0,11.7,3.85c8.25,0,15.13-5.64,15.13-14.14,0-8.8-7.56-15.26-12.38-19.38l-5.63-4.8c-8.12-6.87-12.54-10.71-12.54-18.26,0-6.45,5.51-14.15,15.7-14.15,4.25,0,6.46.83,14.43,3.85a17.49,17.49,0,0,1,1,6.46,20.58,20.58,0,0,1-1,6.59h-1.37a50.46,50.46,0,0,0,.68-5.91c0-.56-4.67-8.79-13.19-8.79-5.79,0-10.46,3.71-10.46,9.07,0,2.88.69,7.13,13.34,17.56Z" transform="translate(-17.82 -14)"/></svg>