<svg width="304" height="160" viewBox="0 0 304 160" fill="none" xmlns="http://www.w3.org/2000/svg">
<path fill-rule="evenodd" clip-rule="evenodd" d="M85.3577 0C84.6632 0 84.3209 0.244425 84.3209 1.05586C84.3209 3.27509 90.2677 1.28071 90.2677 5.71917C90.2677 9.33642 85.0154 22.5117 74.5107 45.2449C70.3245 54.3467 68.5639 58.9318 68.114 58.9318C67.4098 58.9318 65.5319 53.2127 60.172 41.5495C50.0879 19.7384 44.6106 7.69399 44.6106 5.01527C44.6106 1.4078 51.2518 3.96921 51.2518 1.17317C51.2518 0.703909 51.0269 0.244409 50.7921 0.244409C48.699 0.244409 44.3661 0.82121 38.077 0.82121C33.5289 0.82121 29.8024 0.351964 27.0051 0.351964H26.2813C25.3619 0.351964 25 0.469267 25 1.4078C25 3.03067 26.3987 1.9846 29.4503 3.27508C31.6608 4.20384 33.6365 7.46912 36.2089 12.4844C44.4835 28.8011 53.697 48.3929 61.7565 67.7501C63.2725 71.4749 63.1551 73 65.0135 73C67.1262 73 66.9697 71.9539 68.0651 68.8059C70.4908 61.3368 77.6112 46.3203 88.1257 22.7398C92.9085 11.9858 95.9504 5.48455 99.4323 3.49995C102.367 1.87708 104 3.148 104 1.17317C104 0.35196 103.755 0.244409 103.022 0.244409C99.1096 0.244409 95.8036 0.596373 93.1139 0.596373C90.2481 0.596373 87.6464 0 85.3577 0Z" fill="#1D1D1B" fill-opacity="0.3"/>
<path fill-rule="evenodd" clip-rule="evenodd" d="M134.78 20C131.984 20 128.089 20.6803 123.355 20.6803C120.385 20.6803 117.57 20.3354 114.861 20.3354H114.446C113.781 20.3354 113.482 20.4312 113.482 21.2935C113.482 22.7212 116.934 21.466 119.267 23.1428C121.388 24.6567 121.388 31.9867 121.388 45.9665V53.0474C121.388 60.9619 121.292 65.8389 120.192 68.0332C119.431 69.3746 116.972 70.1411 114.099 70.1411C113.251 70.1411 113 70.4765 113 71.1472C113 71.8179 113.251 71.9042 113.839 71.9042C116.558 71.9042 119.624 71.4922 123.162 71.4922C127.983 71.4922 131.714 72 134.423 72H134.857C135.542 72 135.821 71.9042 135.821 71.2239C135.821 69.9687 134.645 70.7256 131.675 70.0549C128.879 69.4608 128.465 66.7684 128.465 59.86C128.465 57.4166 128.552 54.475 128.552 50.8531C128.552 33.5102 128.802 24.5705 130.576 23.0662C132.697 21.2073 135.995 22.108 135.995 20.6228C136.053 20 135.638 20 134.78 20Z" fill="#1D1D1B" fill-opacity="0.3"/>
<path fill-rule="evenodd" clip-rule="evenodd" d="M187.696 2C187.083 4.50311 185.858 5.71049 183.684 5.71049C182.953 5.70698 182.226 5.59112 181.53 5.36695L176.748 3.98288C175.648 3.64336 174.502 3.47124 173.349 3.47242C169.624 3.47242 166.68 6.48598 165.633 12.0125H167.707C168.488 9.16578 169.624 8.21362 171.976 8.21362C172.797 8.25275 173.611 8.39456 174.396 8.63571L179.169 10.0296C180.082 10.2917 181.025 10.4369 181.975 10.4615C185.858 10.4615 188.555 7.51666 189.682 2H187.696ZM156.869 30.1232C161.364 34.5306 172.845 44.1013 190.205 60.4942C199.414 69.211 199.76 72.7546 201.232 72.7546C202.012 72.7546 202.279 72.6564 202.279 71.881V70.8993C202.279 67.4539 202.012 62.1826 202.012 55.0267V44.7001C202.012 30.7318 202.18 23.3991 204.107 21.8482C205.658 20.631 208 21.4163 208 20.2874C208 19.4236 207.575 19.4236 206.795 19.4236C206.014 19.4236 203.929 19.6003 200.708 19.6003C197.161 19.6003 194.464 18.9132 192.804 18.9132C192.379 18.9132 192.112 19.0801 192.112 19.7672C192.112 20.9844 194.187 20.0322 196.361 21.4163C199.404 23.3795 199.572 30.5551 199.572 45.1419C199.572 47.7235 199.572 51.9542 199.404 57.9028L198.702 58.3347C179.93 42.2854 166.304 29.9465 158.064 19.6788C155.811 19.8457 153.717 20.0224 151.978 20.0224C149.468 20.0224 147.729 19.7574 146.761 19.7574C146.257 19.7574 146 19.9439 146 20.6212C146 21.8384 149.28 20.7979 151.543 23.301C153.806 25.8041 153.895 34.9527 153.895 51.6794C153.895 55.4782 153.638 59.2771 153.638 62.9875C153.638 64.7054 153.717 66.0993 153.717 67.13C153.717 69.4564 153.371 70.3202 151.642 70.8404C149.023 71.6159 147.917 71.2723 147.917 72.303C147.917 73 148.253 73 148.757 73C150.328 73 153.638 72.3914 158.331 72.3914C161.186 72.3914 163.528 72.8233 165.435 72.8233C165.88 72.8233 166.047 72.8233 166.047 72.2245C166.047 70.2613 160.505 71.7828 158.064 69.5447C156.315 67.9938 156.236 59.3654 156.236 42.6191V30.4766L156.869 30.1232Z" fill="#1D1D1B" fill-opacity="0.3"/>
<path fill-rule="evenodd" clip-rule="evenodd" d="M253.125 66.4127C253.389 67.1068 253.538 67.8396 253.566 68.5822C253.566 71.4419 249.428 70.3178 249.428 71.9547C249.428 72.4774 249.506 72.5661 249.948 72.5661C250.203 72.5661 250.448 72.4774 250.811 72.4774C252.262 72.4774 254.86 71.8758 258.567 71.8758C263.225 71.8758 265.804 72.1322 266.323 72.1322C266.843 72.1322 267 72.0533 267 71.363C267 70.6727 265.882 70.9193 264.421 70.3177C262.107 69.3316 261.058 67.0241 259.342 62.8627C249.948 39.9748 244.849 26.8101 243.829 23.4178C242.711 19.6015 243.133 19 241.407 19C240.211 19 240.211 19.6015 239.691 21.416C239.171 23.2305 236.151 31.5632 230.552 45.9507C224.668 60.8609 221.854 69.1837 218.657 70.8305C217.118 71.6096 216 71.2644 216 72.221C216 72.645 216.235 72.7436 216.755 72.7436C218.786 72.4925 220.828 72.3444 222.874 72.2998C226.669 72.2998 229.61 73 231.699 73C232.219 73 232.562 72.7436 232.562 72.2998C232.562 70.653 225.845 71.6983 225.845 67.7144C225.882 66.7958 226.058 65.8882 226.365 65.0223L229.885 55.3189C230.316 54.0961 230.66 54.0073 231.699 54.0073H247.388C248.143 54.0073 248.761 54.096 249.104 55.0526L253.125 66.4127ZM239.946 32.3619L247.182 50.1121C247.351 50.4134 247.442 50.7524 247.447 51.0982C247.447 51.5223 247.271 51.7096 246.849 51.7096H232.376C231.768 51.7096 231.493 51.7096 231.493 51.187C231.509 50.8415 231.603 50.5042 231.768 50.2009L238.573 32.0858C238.73 31.6519 239.004 31.3955 239.269 31.3955C239.534 31.3955 239.671 31.8393 239.946 32.3619Z" fill="#1D1D1B" fill-opacity="0.3"/>
<path fill-rule="evenodd" clip-rule="evenodd" d="M60.9571 155.706C61.7789 147.884 64 143.729 64 141.791C64 141.443 63.5206 141.204 62.7085 141.204C61.8964 141.204 61.779 142.506 60.2624 145.468C56.2899 152.943 50.1061 156.501 40.6935 156.501C24.2458 156.501 11.4086 142.268 11.4086 121.524C11.4086 101.844 22.0346 89.1608 38.13 89.1608C44.2785 89.3983 50.2646 91.2326 55.5169 94.4884C59.2643 96.7447 59.3818 98.6431 59.3818 101.615V103.265C59.3818 103.981 59.4992 104.259 60.4287 104.259C61.3582 104.259 61.5832 103.663 61.7104 102.003C62.019 97.7175 62.7234 93.4712 63.8141 89.3198C63.8141 88.8427 63.4521 88.6042 62.9922 88.6042C62.1703 88.6042 61.1234 89.2005 59.8416 89.2005C56.5834 89.2005 49.9202 86 40.1162 86C16.5455 86 0 101.287 0 122.776C0 144.703 16.6335 160 39.2062 160C47.1708 159.97 53.9416 157.605 60.9571 155.706Z" fill="#1D1D1B" fill-opacity="0.3"/>
<path fill-rule="evenodd" clip-rule="evenodd" d="M78 132.155C78 147.691 89.8922 160 106.01 160C122.127 160 134 147.691 134 131.809C134 116.539 122.382 105 106.608 105C90.6667 105 78 117.062 78 132.155ZM104.196 108.208C110.225 108.208 115.833 110.992 120.225 116.45C124.453 121.945 126.783 128.679 126.863 135.629C126.863 148.461 119.529 156.614 109.108 156.614C102.127 156.614 95.7549 153.15 91.1961 146.744C87.4105 141.379 85.3319 134.984 85.2353 128.404C85.2353 116.371 92.9902 108.208 104.196 108.208Z" fill="#1D1D1B" fill-opacity="0.3"/>
<path fill-rule="evenodd" clip-rule="evenodd" d="M165.176 106C161.426 106 157.081 106.856 152.279 106.856C150.35 106.858 148.424 106.718 146.516 106.438C146.169 106.438 146 106.943 146 107.546C146 108.149 148.44 107.886 149.918 109.082C151.903 110.609 152.022 115.49 152.022 124.543V148.901C152.022 153.267 151.932 155.649 150.266 156.514C147.915 157.71 146.684 157.107 146.684 158.226C146.671 158.33 146.683 158.437 146.718 158.537C146.754 158.636 146.812 158.727 146.889 158.801C146.965 158.875 147.058 158.931 147.161 158.964C147.263 158.998 147.371 159.008 147.478 158.994C150.598 158.582 153.744 158.381 156.892 158.391C161.158 158.391 165.007 158.644 168.152 158.644C180.056 158.644 187 152.926 187 144.885C187 138.73 182.903 133.518 175.145 131.038C172.616 130.28 170.969 130.192 170.969 129.842C170.969 129.492 171.832 129.502 172.953 129.074C178.697 126.935 181.494 123.357 181.494 118.31C181.494 111.299 175.721 106 165.176 106ZM159.343 131.807C160.815 131.64 162.295 131.556 163.777 131.554C173.459 131.554 179.123 136.766 179.123 144.807C179.123 152.061 174.431 156.427 166.049 156.427C162.21 156.427 160.305 155.824 159.868 154.288C159.601 153.519 159.343 147.364 159.343 136.085V131.807ZM159.343 129.502V113.273C159.343 108.655 159.601 108.314 163.36 108.314C169.541 108.314 173.816 112.758 173.816 119.419C173.816 126.079 169.541 129.59 161.079 129.59C160.563 129.59 159.948 129.502 159.343 129.502Z" fill="#1D1D1B" fill-opacity="0.3"/>
<path fill-rule="evenodd" clip-rule="evenodd" d="M199 132.164C199 147.701 211.126 160 227.52 160C243.914 160 256 147.691 256 131.809C256 116.539 244.173 105 228.138 105C211.964 105.01 199 117.072 199 132.164ZM225.645 108.218C231.778 108.218 237.482 111.001 241.939 116.46C246.243 121.953 248.614 128.688 248.691 135.639C248.691 148.471 241.251 156.624 230.651 156.624C223.541 156.624 217.059 153.16 212.412 146.753C208.581 141.382 206.481 134.988 206.389 128.413C206.389 116.381 214.277 108.218 225.675 108.218H225.645Z" fill="#1D1D1B" fill-opacity="0.3"/>
<path fill-rule="evenodd" clip-rule="evenodd" d="M271.74 158.618C271.816 158.472 271.927 158.349 272.062 158.257C272.198 158.166 272.354 158.11 272.517 158.094C274.682 158.094 279.514 160 286.531 160C297.18 160 304 154.075 304 145.593C304 138.573 299.857 134.06 291.728 130.417C283.166 126.595 276.68 125.035 276.68 116.958C276.68 111.231 281.256 107.083 287.22 107.083C292.85 107.083 297.18 109.335 299.247 112.811C300.979 115.773 300.89 117.847 301.215 117.847C302.199 117.847 302.337 117.847 302.337 117.412C302.019 115.633 301.815 113.836 301.727 112.031C301.727 109.987 301.958 107.949 302.415 105.958C302.424 105.81 302.376 105.664 302.281 105.55C302.186 105.436 302.051 105.363 301.904 105.346C301.303 105.346 300.093 106.56 298.44 106.56C296.196 106.56 292.82 105 288.323 105C277.339 105 270.51 111.774 270.51 120.098C270.51 126.516 274.141 130.436 281.581 133.823C290.655 137.98 297.662 139.373 297.662 147.963C297.662 153.888 293.853 157.502 286.935 157.502C280.627 157.502 273.619 154.816 271.631 151.35C269.899 148.487 269.732 145.09 269.457 145.09C268.6 145.09 268 145.268 268 145.524C268 147.173 269.968 151.35 269.968 158.292V159.496H271.376L271.74 158.618Z" fill="#1D1D1B" fill-opacity="0.3"/>
</svg>
