<svg width="345" height="65" viewBox="0 0 345 65" fill="none" xmlns="http://www.w3.org/2000/svg">
<path d="M68.54 63V61.02C66.92 60.93 63.32 60.21 62.24 59.67C60.17 58.68 59.45 57.24 59.45 55.26V9.09C59.45 7.11 59.99 5.4 62.24 4.68C63.86 4.14 66.92 3.6 68.54 3.51V1.53H40.64V3.51C42.26 3.6 45.59 4.5 47.12 5.13C49.19 6.03 49.91 7.55999 49.91 9.54V29.52H18.86V9.09C18.86 7.11 19.4 5.4 21.65 4.68C23.27 4.14 26.51 3.6 28.13 3.51V1.53H0.23V3.51C1.85 3.6 5 4.5 6.53 5.13C8.69 6.03 9.32 7.55999 9.32 9.54V55.71C9.32 57.69 8.69 59.31 6.53 60.12C5.36 60.57 1.85 60.93 0.23 61.02V63H28.13V61.02C26.51 60.93 22.73 60.12 21.65 59.67C19.58 58.77 18.86 57.24 18.86 55.26V32.49H49.91V55.71C49.91 57.69 49.28 59.31 47.12 60.12C45.95 60.57 42.26 60.93 40.64 61.02V63H68.54ZM148.059 31.86C148.059 23.04 144.819 14.76 139.509 9.45C132.759 2.88 125.109 0.0899945 116.649 0.0899945C107.919 0.0899945 99.9985 3.24 93.8785 9.45C88.0285 15.3 85.1485 23.13 85.1485 32.94C85.1485 42.75 88.8385 50.4 94.7785 55.98C100.629 61.47 108.099 64.44 116.289 64.44C125.559 64.44 132.849 61.2 138.699 55.8C145.269 49.41 148.059 41.22 148.059 31.86ZM137.169 32.13C137.169 48.87 130.599 61.65 116.649 61.65C102.609 61.65 96.0385 48.51 96.0385 32.49C96.0385 13.86 103.869 2.88 116.649 2.88C131.589 2.88 137.169 17.46 137.169 32.13ZM216.404 46.71C216.404 34.83 203.984 31.05 197.594 30.33V29.52C206.144 27.09 213.164 24.03 213.164 13.86C213.164 4.22999 202.184 1.53 195.524 1.53H164.744V3.51C166.364 3.6 169.154 4.22999 171.044 5.04C173.204 5.94 173.834 7.55999 173.834 9.54V55.53C173.834 57.51 173.204 59.04 171.044 59.85C169.874 60.3 166.004 60.93 164.384 61.02V63H195.704C204.254 63 216.404 58.23 216.404 46.71ZM202.364 15.57C202.364 23.13 198.854 29.25 188.954 29.25H183.374V4.14C185.534 4.05 189.224 3.96 190.754 3.96C196.334 3.96 202.364 6.66 202.364 15.57ZM205.334 44.91C205.334 52.2 202.544 60.48 191.834 60.48C186.524 60.48 184.004 59.04 183.374 54.99V31.86C184.994 31.77 189.404 31.68 191.024 31.68C200.294 31.68 205.334 37.62 205.334 44.91ZM285.433 46.71C285.433 34.83 273.013 31.05 266.623 30.33V29.52C275.173 27.09 282.193 24.03 282.193 13.86C282.193 4.22999 271.213 1.53 264.553 1.53H233.773V3.51C235.393 3.6 238.183 4.22999 240.073 5.04C242.233 5.94 242.863 7.55999 242.863 9.54V55.53C242.863 57.51 242.233 59.04 240.073 59.85C238.903 60.3 235.033 60.93 233.413 61.02V63H264.733C273.283 63 285.433 58.23 285.433 46.71ZM271.393 15.57C271.393 23.13 267.883 29.25 257.983 29.25H252.403V4.14C254.563 4.05 258.253 3.96 259.783 3.96C265.363 3.96 271.393 6.66 271.393 15.57ZM274.363 44.91C274.363 52.2 271.573 60.48 260.863 60.48C255.553 60.48 253.033 59.04 252.403 54.99V31.86C254.023 31.77 258.433 31.68 260.053 31.68C269.323 31.68 274.363 37.62 274.363 44.91ZM344.472 45.45C344.472 35.91 339.522 32.31 331.782 28.8C327.732 26.82 323.952 26.01 319.542 23.58C314.592 20.88 311.622 17.73 311.622 12.24C311.622 5.22 317.562 3.06 320.172 3.06C332.232 3.06 336.282 10.89 339.882 21.06H341.862L341.412 0.629998H338.352L335.292 4.86C332.142 2.43 327.012 0.359996 322.332 0.359996C312.072 0.359996 304.332 7.47 304.332 17.01C304.332 25.02 308.022 29.97 314.952 33.03C319.992 35.28 322.692 36.27 327.822 38.34C333.222 40.5 336.642 44.64 336.642 50.13C336.642 56.88 333.222 61.47 325.212 61.47C314.052 61.47 308.292 52.38 304.602 42.84H302.532L303.162 63.9H306.222L309.372 59.67C312.072 61.83 316.842 64.17 324.132 64.17C335.742 64.17 344.472 56.43 344.472 45.45Z" fill="#1C1C1C" fill-opacity="0.2"/>
</svg>
