<svg width="279" height="90" viewBox="0 0 279 90" fill="none" xmlns="http://www.w3.org/2000/svg">
<path d="M37.2689 1.85622V0.81966H23.2283V1.85622C24.3119 1.90333 27.1389 2.70431 28.0341 3.2697C29.0707 3.92933 29.6361 6.23802 29.6361 9.63038V25.6028L9.94151 0.81966H0.235581V1.85622C1.50772 1.90333 4.14622 3.03412 5.27701 3.92933C6.21933 4.68319 6.78473 6.28514 6.78473 7.6515V24.2364C6.78473 27.9115 6.36068 29.8903 5.22989 30.6913C4.71162 31.0682 1.69618 31.9163 0.848091 31.9634V33H14.9829V31.9634C14.1348 31.9163 10.9309 31.1154 10.13 30.4557C9.09342 29.6076 8.52803 27.5816 8.52803 24.0008V6.7563L29.6361 33.3298H31.3794V9.34769C31.3794 6.23802 31.6621 3.8351 32.9342 3.03412C33.6881 2.56296 36.4208 1.90333 37.2689 1.85622ZM79.5855 1.85622V0.81966H65.4977V1.85622C66.5814 1.90333 69.1257 2.46873 70.3036 3.22258C71.3401 3.88221 71.9055 6.09667 71.9055 9.53615V23.4825C71.9055 26.5922 70.1622 31.7279 62.6708 31.7279C55.3206 31.7279 54.0956 26.9691 54.0956 23.5768V4.77742C54.0956 3.74086 54.3783 2.84565 55.5562 2.46873C56.4043 2.18603 58.1005 1.90333 58.9486 1.85622V0.81966H44.2955V1.85622C45.0493 1.90333 46.7455 2.23314 47.5936 2.65719C48.6773 3.22258 49.0542 3.97644 49.0542 5.013V24.5191C49.0542 29.4192 53.2946 33.7539 61.54 33.7539C66.2045 33.7539 73.6959 31.3509 73.6959 23.671V9.25345C73.6959 6.33225 73.9786 3.78798 75.2508 2.987C76.2402 2.37449 78.7374 1.90333 79.5855 1.85622ZM115.913 23.9537H114.735C114.264 25.3672 112.332 29.0894 110.918 30.55C109.788 31.7279 106.49 31.6336 103.191 31.6336C98.4327 31.6336 97.5846 31.2096 97.5846 27.3461V16.9805H101.684C104.228 16.9805 105.029 17.7815 105.641 18.4411C106.207 19.0536 107.008 21.645 107.102 23.0114H108.374V9.86596H107.102C106.961 11.091 106.348 13.4939 105.641 14.2007C105.076 14.766 104.322 15.6613 101.684 15.6613H97.5846V2.0918H103.144C104.652 2.0918 105.924 2.13891 107.055 2.28026C109.081 2.56296 111.578 6.04955 112.096 8.12267H113.368V0.81966H87.4075V1.85622C88.2556 1.90333 90.2344 2.32738 91.1296 2.70431C92.3076 3.17547 92.5902 3.97644 92.5902 5.013V29.0894C92.5902 30.173 92.2604 30.974 91.1296 31.3981C90.4229 31.6807 88.2556 31.9163 87.4075 31.9634V33H115.3L115.913 23.9537ZM146.68 23.8123C146.68 18.818 144.089 16.9334 140.037 15.0959C137.917 14.0593 135.938 13.6353 133.629 12.3631C131.038 10.9496 129.483 9.30057 129.483 6.42648C129.483 2.75142 132.593 1.62064 133.959 1.62064C140.273 1.62064 142.393 5.71974 144.277 11.0439H145.314L145.078 0.348499H143.476L141.874 2.56296C140.225 1.29082 137.54 0.20715 135.09 0.20715C129.719 0.20715 125.667 3.92933 125.667 8.92364C125.667 13.117 127.598 15.7084 131.226 17.3103C133.865 18.4882 135.278 19.0065 137.964 20.0902C140.791 21.221 142.581 23.3883 142.581 26.2624C142.581 29.7961 140.791 32.199 136.597 32.199C130.755 32.199 127.74 27.4403 125.808 22.446H124.724L125.054 33.4712H126.656L128.305 31.2567C129.719 32.3875 132.216 33.6125 136.032 33.6125C142.11 33.6125 146.68 29.5605 146.68 23.8123ZM183.943 9.01787V0.81966H154.449V9.01787H155.579C156.098 6.94476 158.642 2.56296 160.668 2.28026C161.799 2.13891 163.448 2.0918 164.484 2.0918H166.699V29.0422C166.699 30.0788 166.369 30.974 165.238 31.3981C164.626 31.6336 162.223 31.9163 161.375 31.9634V33H177.017V31.9634C176.169 31.9163 173.719 31.3981 173.154 31.1625C172.07 30.6913 171.693 29.8432 171.693 28.8067V2.0918H173.908C175.18 2.0918 176.593 2.13891 177.724 2.28026C179.75 2.56296 182.294 6.94476 182.813 9.01787H183.943ZM224.397 26.922V25.9326H223.172V26.922C223.172 30.3144 222.466 31.1154 221.146 31.1154C220.44 31.1154 219.167 30.974 218.602 28.8538C217.99 26.5451 217.707 24.2364 217 21.645C216.058 18.2055 212.1 16.9805 209.886 16.7449V16.2738C213.231 15.3314 218.602 13.2112 218.602 8.07555C218.602 2.93989 213.278 0.81966 208.519 0.81966H192.076V1.85622C192.924 1.90333 194.62 2.23314 195.468 2.51584C196.646 2.89277 196.929 3.8351 196.929 4.87165C196.929 9.1121 196.929 24.6133 196.929 29.0894C196.929 30.1259 196.599 31.0211 195.468 31.4452C194.856 31.6807 192.924 31.9163 192.076 31.9634V33H206.823V31.9634C205.975 31.9163 203.996 31.6807 203.384 31.4452C202.253 31.0211 201.923 30.1259 201.923 29.0894C201.923 27.0634 201.923 22.3989 201.923 17.3103H205.645C211.111 17.3103 211.959 21.8335 212.43 25.5556C213.137 30.8798 214.927 33.5183 218.696 33.5183C222.843 33.5183 224.397 31.3509 224.397 26.922ZM212.807 9.01787C212.807 14.3891 208.99 15.9439 204.844 15.9439H201.923V2.13891H206.069C209.65 2.13891 212.807 3.64663 212.807 9.01787ZM264.036 33V31.9634C263.141 31.9163 261.775 31.5865 260.927 31.1154C259.796 30.4557 259.372 29.749 258.995 28.8067C257.252 24.4249 252.634 12.4574 247.828 0.301384H246.038C242.457 9.30057 238.547 19.2892 235.201 27.3932C234.495 29.0422 233.646 30.4086 232.516 31.0682C231.668 31.5394 230.113 31.9163 229.218 31.9634V33H242.175V31.9634C240.525 31.8692 236.85 31.1154 236.85 29.4192C236.85 28.7595 237.039 27.8172 237.369 26.7807C237.793 25.3672 238.358 23.7652 239.253 21.5979H250.844L253.765 29.0422C253.906 29.4192 253.954 29.7961 253.954 30.1259C253.954 31.3038 250.844 31.8692 249.195 31.9634V33H264.036ZM250.231 20.0431H239.866L245.001 6.89765L250.231 20.0431ZM37.9756 89V87.9634C37.1275 87.9163 35.2429 87.5394 34.6775 87.2567C33.5938 86.7384 33.2169 85.9846 33.2169 84.948V60.7774C33.2169 59.7409 33.4996 58.8457 34.6775 58.4687C35.5256 58.186 37.1275 57.9033 37.9756 57.8562V56.8197H23.3696V57.8562C24.2177 57.9033 25.961 58.3745 26.762 58.7043C27.8457 59.1755 28.2226 59.9764 28.2226 61.013V71.4728H11.9675V60.7774C11.9675 59.7409 12.2502 58.8457 13.4281 58.4687C14.2762 58.186 15.9724 57.9033 16.8205 57.8562V56.8197H2.21446V57.8562C3.06255 57.9033 4.71162 58.3745 5.51259 58.7043C6.64338 59.1755 6.97319 59.9764 6.97319 61.013V85.1836C6.97319 86.2201 6.64338 87.0682 5.51259 87.4923C4.90008 87.7279 3.06255 87.9163 2.21446 87.9634V89H16.8205V87.9634C15.9724 87.9163 13.9935 87.4923 13.4281 87.2567C12.3444 86.7855 11.9675 85.9846 11.9675 84.948V73.0276H28.2226V85.1836C28.2226 86.2201 27.8928 87.0682 26.762 87.4923C26.1495 87.7279 24.2177 87.9163 23.3696 87.9634V89H37.9756ZM62.7841 89V87.9634C61.936 87.9163 59.91 87.4923 59.3446 87.2567C58.261 86.7855 57.884 86.0317 57.884 84.9951V60.7303C57.884 59.6937 58.1667 58.8457 59.3446 58.4687C60.1927 58.186 61.936 57.9033 62.7841 57.8562V56.8197H47.9897V57.8562C48.8377 57.9033 50.581 58.3745 51.4291 58.7043C52.607 59.1755 52.8897 59.9293 52.8897 60.9659V85.2307C52.8897 86.2673 52.5599 87.0682 51.4291 87.4923C50.8166 87.7279 48.8377 87.9163 47.9897 87.9634V89H62.7841ZM94.6464 79.8123C94.6464 74.818 92.055 72.9334 88.0031 71.0959C85.8828 70.0593 83.9039 69.6353 81.5953 68.3631C79.0039 66.9496 77.449 65.3006 77.449 62.4265C77.449 58.7514 80.5587 57.6206 81.9251 57.6206C88.2386 57.6206 90.3589 61.7197 92.2435 67.0439H93.2801L93.0445 56.3485H91.4425L89.8406 58.563C88.1915 57.2908 85.5059 56.2071 83.0559 56.2071C77.6846 56.2071 73.6326 59.9293 73.6326 64.9236C73.6326 69.117 75.5644 71.7084 79.1923 73.3103C81.8308 74.4882 83.2443 75.0065 85.9299 76.0902C88.7569 77.221 90.5473 79.3883 90.5473 82.2624C90.5473 85.7961 88.7569 88.199 84.5636 88.199C78.7212 88.199 75.7057 83.4403 73.774 78.446H72.6903L73.0201 89.4712H74.6221L76.2711 87.2567C77.6846 88.3875 80.1818 89.6125 83.9982 89.6125C90.0762 89.6125 94.6464 85.5605 94.6464 79.8123ZM131.909 65.0179V56.8197H102.415V65.0179H103.545C104.064 62.9448 106.608 58.563 108.634 58.2803C109.765 58.1389 111.414 58.0918 112.45 58.0918H114.665V85.0422C114.665 86.0788 114.335 86.974 113.204 87.3981C112.592 87.6336 110.189 87.9163 109.341 87.9634V89H124.983V87.9634C124.135 87.9163 121.685 87.3981 121.12 87.1625C120.036 86.6913 119.659 85.8432 119.659 84.8067V58.0918H121.874C123.146 58.0918 124.559 58.1389 125.69 58.2803C127.716 58.563 130.26 62.9448 130.779 65.0179H131.909ZM172.646 72.6978C172.646 68.0804 170.95 63.7457 168.17 60.9659C164.636 57.5264 160.632 56.0658 156.203 56.0658C151.632 56.0658 147.486 57.7149 144.282 60.9659C141.22 64.0284 139.712 68.1275 139.712 73.2632C139.712 78.3989 141.644 82.4037 144.753 85.3249C147.816 88.199 151.727 89.7539 156.014 89.7539C160.867 89.7539 164.684 88.0577 167.746 85.2307C171.186 81.8855 172.646 77.5979 172.646 72.6978ZM166.945 72.8392C166.945 81.6028 163.506 88.2933 156.203 88.2933C148.852 88.2933 145.413 81.4143 145.413 73.0276C145.413 63.2746 149.512 57.5264 156.203 57.5264C164.024 57.5264 166.945 65.1592 166.945 72.8392ZM214.551 82.922V81.9326H213.326V82.922C213.326 86.3144 212.619 87.1154 211.3 87.1154C210.593 87.1154 209.321 86.974 208.756 84.8538C208.143 82.5451 207.86 80.2364 207.154 77.645C206.211 74.2055 202.253 72.9805 200.039 72.7449V72.2738C203.384 71.3314 208.756 69.2112 208.756 64.0755C208.756 58.9399 203.431 56.8197 198.673 56.8197H182.229V57.8562C183.077 57.9033 184.773 58.2331 185.621 58.5158C186.799 58.8928 187.082 59.8351 187.082 60.8717C187.082 65.1121 187.082 80.6133 187.082 85.0894C187.082 86.1259 186.752 87.0211 185.621 87.4452C185.009 87.6807 183.077 87.9163 182.229 87.9634V89H196.976V87.9634C196.128 87.9163 194.15 87.6807 193.537 87.4452C192.406 87.0211 192.076 86.1259 192.076 85.0894C192.076 83.0634 192.076 78.3989 192.076 73.3103H195.799C201.264 73.3103 202.112 77.8335 202.583 81.5556C203.29 86.8798 205.08 89.5183 208.85 89.5183C212.996 89.5183 214.551 87.3509 214.551 82.922ZM202.96 65.0179C202.96 70.3891 199.144 71.9439 194.998 71.9439H192.076V58.1389H196.223C199.803 58.1389 202.96 59.6466 202.96 65.0179ZM237.464 89V87.9634C236.616 87.9163 234.59 87.4923 234.024 87.2567C232.94 86.7855 232.564 86.0317 232.564 84.9951V60.7303C232.564 59.6937 232.846 58.8457 234.024 58.4687C234.872 58.186 236.616 57.9033 237.464 57.8562V56.8197H222.669V57.8562C223.517 57.9033 225.261 58.3745 226.109 58.7043C227.287 59.1755 227.569 59.9293 227.569 60.9659V85.2307C227.569 86.2673 227.239 87.0682 226.109 87.4923C225.496 87.7279 223.517 87.9163 222.669 87.9634V89H237.464ZM278.985 89V87.9634C278.09 87.9163 276.723 87.5865 275.875 87.1154C274.744 86.4557 274.32 85.749 273.943 84.8067C272.2 80.4249 267.583 68.4574 262.777 56.3014H260.986C257.406 65.3006 253.495 75.2892 250.15 83.3932C249.443 85.0422 248.595 86.4086 247.464 87.0682C246.616 87.5394 245.061 87.9163 244.166 87.9634V89H257.123V87.9634C255.474 87.8692 251.799 87.1154 251.799 85.4192C251.799 84.7595 251.987 83.8172 252.317 82.7807C252.741 81.3672 253.306 79.7652 254.202 77.5979H265.792L268.713 85.0422C268.855 85.4192 268.902 85.7961 268.902 86.1259C268.902 87.3038 265.792 87.8692 264.143 87.9634V89H278.985ZM265.18 76.0431H254.814L259.95 62.8976L265.18 76.0431Z" fill="#F1EEE9"/>
</svg>
