<svg width="264" height="67" viewBox="0 0 264 67" fill="none" xmlns="http://www.w3.org/2000/svg">
<path d="M28.4 65V63.02C26.78 62.93 22.91 62.12 21.83 61.67C19.76 60.77 19.04 59.33 19.04 57.35V11C19.04 9.02 19.58 7.4 21.83 6.68C23.45 6.14 26.78 5.6 28.4 5.51V3.53H0.14V5.51C1.76 5.6 5.09 6.5 6.71 7.13C8.96 8.03 9.5 9.47 9.5 11.45V57.8C9.5 59.78 8.87 61.31 6.71 62.12C5.54 62.57 1.76 62.93 0.14 63.02V65H28.4ZM90.5647 65V63.2C88.9447 63.11 87.8647 62.75 86.6047 62.21C84.9847 61.49 84.2647 60.14 84.2647 58.16V37.37C84.2647 28.82 80.3947 23.15 72.0247 23.15C64.2847 23.15 60.8647 27.2 57.4447 30.53H57.2647V24.41L56.6347 23.78L42.2347 24.77V26.48C43.8547 26.57 45.5647 27.2 46.6447 27.92C48.0847 28.91 48.8947 30.8 49.0747 32.69V58.52C49.0747 60.5 48.3547 62.03 46.6447 62.57C45.3847 62.93 44.3047 63.11 42.6847 63.2V65H63.9247V63.2C62.3947 63.11 61.0447 62.75 59.6947 62.12C58.0747 61.4 57.2647 60.05 57.2647 58.07V33.5C58.2547 31.43 61.9447 27.2 68.5147 27.2C72.3847 27.2 75.9847 30.62 75.9847 36.83V58.52C75.9847 60.5 75.2647 62.03 73.5547 62.57C72.2947 62.93 70.9447 63.11 69.3247 63.2V65H90.5647ZM119.723 5.78C119.723 2.89999 117.383 0.469999 114.053 0.469999C111.083 0.469999 108.563 3.08 108.563 6.14C108.563 9.11 111.083 11.63 114.053 11.63C117.293 11.63 119.723 8.93 119.723 5.78ZM125.303 65V63.2C124.133 63.11 122.783 62.75 121.343 62.12C119.723 61.4 118.913 59.87 118.913 57.98V24.41L118.283 23.78L102.983 24.77V26.48C104.603 26.57 107.213 27.47 108.293 28.19C109.733 29.18 110.543 30.8 110.723 32.69V58.52C110.723 60.32 110.003 62.03 108.293 62.57C107.033 62.93 105.953 63.11 104.333 63.2V65H125.303ZM175.175 55.37L173.465 54.11C170.495 59.33 167.075 62.12 160.685 62.12C152.765 62.12 148.085 54.2 148.085 43.67C148.085 30.08 153.665 25.31 158.975 25.31C162.125 25.31 163.925 25.94 164.375 28.55C164.375 30.26 163.205 30.35 163.205 34.13C163.205 37.64 166.445 38.63 168.245 38.63C171.395 38.63 172.925 36.56 172.925 33.59C172.925 28.1 168.245 23.15 158.975 23.15C146.645 23.15 138.995 33.41 138.995 44.48C138.995 56.9 145.475 66.08 158.525 66.08C165.635 66.08 171.845 61.31 175.175 55.37ZM202.587 5.78C202.587 2.89999 200.247 0.469999 196.917 0.469999C193.947 0.469999 191.427 3.08 191.427 6.14C191.427 9.11 193.947 11.63 196.917 11.63C200.157 11.63 202.587 8.93 202.587 5.78ZM208.167 65V63.2C206.997 63.11 205.647 62.75 204.207 62.12C202.587 61.4 201.777 59.87 201.777 57.98V24.41L201.147 23.78L185.847 24.77V26.48C187.467 26.57 190.077 27.47 191.157 28.19C192.597 29.18 193.407 30.8 193.587 32.69V58.52C193.587 60.32 192.867 62.03 191.157 62.57C189.897 62.93 188.817 63.11 187.197 63.2V65H208.167ZM263.259 44.21C263.259 32.24 255.339 23.15 242.739 23.15C230.139 23.15 221.769 32.06 221.769 44.84C221.769 58.07 231.309 66.26 242.109 66.26C255.699 66.26 263.259 56.18 263.259 44.21ZM254.169 44.3C254.169 55.1 250.659 64.19 242.649 64.19C234.189 64.19 230.859 54.83 230.859 44.12C230.859 35.57 233.289 25.22 242.649 25.22C251.379 25.22 254.169 34.85 254.169 44.3Z" fill="#1C1C1C" fill-opacity="0.2"/>
</svg>
