<svg width="262" height="65" viewBox="0 0 262 65" fill="none" xmlns="http://www.w3.org/2000/svg">
<path d="M50.1 16.11C50.1 6.84 41.46 1.53 30.84 1.53H0.69V3.51C2.31 3.6 5.28 4.05 7.53 4.77C9.78 5.48999 10.32 7.38 10.32 9.36V55.53C10.32 57.51 9.69 59.22 7.53 60.03C6.36 60.48 2.67 60.93 1.05 61.02V63H29.76V61.02C27.51 60.93 23.82 60.48 22.65 60.03C20.49 59.22 19.86 57.51 19.86 55.53V34.83H26.88C38.49 34.83 50.1 28.35 50.1 16.11ZM38.94 18.36C38.94 22.59 37.23 32.13 24.27 32.13H19.86V4.05H25.98C36.24 4.05 38.94 11.61 38.94 18.36ZM119.041 63V61.02C117.331 60.93 114.721 60.3 113.101 59.4C110.941 58.14 110.131 56.79 109.411 54.99C106.081 46.62 97.2614 23.76 88.0814 0.539999H84.6614C77.8214 17.73 70.3514 36.81 63.9614 52.29C62.6114 55.44 60.9914 58.05 58.8314 59.31C57.2114 60.21 54.2414 60.93 52.5314 61.02V63H77.2814V61.02C74.1314 60.84 67.1114 59.4 67.1114 56.16C67.1114 54.9 67.4714 53.1 68.1014 51.12C68.9114 48.42 69.9914 45.36 71.7014 41.22H93.8414L99.4214 55.44C99.6914 56.16 99.7814 56.88 99.7814 57.51C99.7814 59.76 93.8414 60.84 90.6914 61.02V63H119.041ZM92.6714 38.25H72.8714L82.6814 13.14L92.6714 38.25ZM194.542 3.51V1.53H167.632V3.51C169.702 3.6 174.562 4.68 176.812 6.12C178.792 7.38 179.872 11.61 179.872 18.18V44.82C179.872 50.76 176.542 60.57 162.232 60.57C148.192 60.57 145.852 51.48 145.852 45V9.09C145.852 7.11 146.392 5.4 148.642 4.68C150.262 4.14 153.502 3.6 155.122 3.51V1.53H127.132V3.51C128.572 3.6 131.812 4.22999 133.432 5.04C135.502 6.12 136.222 7.55999 136.222 9.54V46.8C136.222 56.16 144.322 64.44 160.072 64.44C168.982 64.44 183.292 59.85 183.292 45.18V17.64C183.292 12.06 183.832 7.2 186.262 5.67C188.152 4.5 192.922 3.6 194.542 3.51ZM261.054 45.54H258.894C257.994 48.6 253.404 55.71 251.064 58.23C249.264 60.12 243.054 60.57 237.834 60.57C228.114 60.57 227.124 59.94 227.124 52.29V9.27C227.124 7.29 227.664 5.48999 229.914 4.77C231.534 4.22999 234.864 3.6 236.484 3.51V1.53H208.314V3.51C209.934 3.6 213.174 4.5 214.794 5.22C217.044 6.21 217.584 7.74 217.584 9.72V55.53C217.584 57.51 216.954 59.22 214.794 60.03C213.624 60.48 209.934 60.93 208.314 61.02V63H259.704L261.054 45.54Z" fill="#1C1C1C" fill-opacity="0.2"/>
</svg>
