<svg width="196" height="31" viewBox="0 0 196 31" fill="none" xmlns="http://www.w3.org/2000/svg">
<g clip-path="url(#clip0_342_2292)">
<path d="M3.94919 4.45858C3.99497 3.46759 3.77798 2.48208 3.32008 1.60132C3.09786 1.25592 2.7848 0.977955 2.41503 0.797725C2.04526 0.617494 1.63295 0.541913 1.22306 0.57922H0.757052H0.279396V-0.0595953H1.81721C2.39972 -0.0595953 3.20358 -0.059596 4.2288 0.103012C4.69552 0.17517 5.16634 0.217843 5.63846 0.230776C6.03457 0.230776 6.80348 0.230775 8.06169 0.103012C9.78592 -0.00152186 11.1956 -0.0595953 12.3023 -0.0595953C13.7395 -0.108683 15.1733 0.107905 16.5314 0.57922C17.4881 0.904991 18.3432 1.47339 19.0128 2.22853C19.532 2.80517 19.9283 3.48085 20.1778 4.21466C20.3644 4.82481 20.4625 5.45843 20.4691 6.09627C20.483 7.07169 20.2379 8.03342 19.7584 8.88383C19.3086 9.74766 18.6861 10.5105 17.9294 11.1255C17.2569 11.6771 16.5171 12.1415 15.7275 12.5077C15.1081 12.7952 14.4542 13.0021 13.7819 13.1232V13.2394C16.077 13.5076 18.2353 14.4679 19.9681 15.9921C20.84 16.7256 21.5354 17.645 22.0032 18.6823C22.471 19.7196 22.6992 20.8484 22.671 21.9854C22.6418 22.8174 22.4846 23.64 22.205 24.4245C21.8356 25.4704 21.2877 26.4449 20.5856 27.305C19.7143 28.3284 18.6287 29.1491 17.4051 29.7092C15.8659 30.417 14.183 30.759 12.4888 30.7081C10.4849 30.7081 8.53935 30.6268 6.66368 30.4758H5.60351C5.05423 30.4845 4.50585 30.5232 3.96084 30.592C3.02079 30.6982 2.07589 30.7564 1.12986 30.7662C0.740681 30.7713 0.351567 30.7519 -0.0351562 30.7081V30.0112C0.0416498 29.9949 0.121039 29.9949 0.197845 30.0112C0.471905 30.051 0.74813 30.0743 1.02501 30.0809C1.48011 30.0589 1.93235 29.9968 2.37642 29.8951C3.0391 29.2547 3.52467 28.4545 3.78609 27.5721C3.86532 27.2454 3.89671 26.9089 3.87929 26.5732C3.87929 25.9925 3.87929 25.3421 3.87929 24.6335L3.94919 4.45858ZM6.94328 12.6703H9.77427C11.5887 12.7633 13.3918 12.3361 14.9702 11.4391C16.2634 10.6261 16.9158 9.11613 16.9158 7.03707C16.9545 6.25219 16.8329 5.46765 16.5586 4.73097C16.2842 3.99428 15.8628 3.32076 15.3197 2.7512C14.2596 1.69425 12.512 1.17158 10.0772 1.17158C9.26627 1.13241 8.45397 1.21066 7.66559 1.40387C7.19958 1.55487 6.95493 1.973 6.95493 2.63505L6.94328 12.6703ZM6.94328 29.2911C7.60026 29.4986 8.26948 29.6654 8.94711 29.7905C9.71891 29.8988 10.4978 29.9493 11.2771 29.9415C12.3062 29.9937 13.3348 29.8316 14.2976 29.4657C15.2604 29.0997 16.1362 28.5379 16.8692 27.816C17.5891 27.0139 18.1421 26.0772 18.4961 25.0604C18.85 24.0435 18.998 22.9667 18.9313 21.8924C18.9308 20.3788 18.5289 18.8922 17.7663 17.5833C17.0308 16.2581 15.8575 15.2279 14.446 14.668C13.4317 14.2567 12.358 14.0097 11.2655 13.9363C10.1005 13.8434 8.63255 13.7853 6.89668 13.7853L6.94328 29.2911Z" fill="white" fill-opacity="0.3"/>
<path d="M3.94919 4.45858C3.99497 3.46759 3.77798 2.48208 3.32008 1.60132C3.09786 1.25592 2.7848 0.977955 2.41503 0.797725C2.04526 0.617494 1.63295 0.541913 1.22306 0.57922H0.757052H0.279396V-0.0595953H1.81721C2.39972 -0.0595953 3.20358 -0.059596 4.2288 0.103012C4.69552 0.17517 5.16634 0.217843 5.63846 0.230776C6.03457 0.230776 6.80348 0.230775 8.06169 0.103012C9.78592 -0.00152186 11.1956 -0.0595953 12.3023 -0.0595953C13.7395 -0.108683 15.1733 0.107905 16.5314 0.57922C17.4881 0.904991 18.3432 1.47339 19.0128 2.22853C19.532 2.80517 19.9283 3.48085 20.1778 4.21466C20.3644 4.82481 20.4625 5.45843 20.4691 6.09627C20.483 7.07169 20.2379 8.03342 19.7584 8.88383C19.3086 9.74766 18.6861 10.5105 17.9294 11.1255C17.2569 11.6771 16.5171 12.1415 15.7275 12.5077C15.1081 12.7952 14.4542 13.0021 13.7819 13.1232V13.2394C16.077 13.5076 18.2353 14.4679 19.9681 15.9921C20.84 16.7256 21.5354 17.645 22.0032 18.6823C22.471 19.7196 22.6992 20.8484 22.671 21.9854C22.6418 22.8174 22.4846 23.64 22.205 24.4245C21.8356 25.4704 21.2877 26.4449 20.5856 27.305C19.7143 28.3284 18.6287 29.1491 17.4051 29.7092C15.8659 30.417 14.183 30.759 12.4888 30.7081C10.4849 30.7081 8.53935 30.6268 6.66368 30.4758H5.60351C5.05423 30.4845 4.50585 30.5232 3.96084 30.592C3.02079 30.6982 2.07589 30.7564 1.12986 30.7662C0.740681 30.7713 0.351567 30.7519 -0.0351562 30.7081V30.0112C0.0416498 29.9949 0.121039 29.9949 0.197845 30.0112C0.471905 30.051 0.74813 30.0743 1.02501 30.0809C1.48011 30.0589 1.93235 29.9968 2.37642 29.8951C3.0391 29.2547 3.52467 28.4545 3.78609 27.5721C3.86532 27.2454 3.89671 26.9089 3.87929 26.5732C3.87929 25.9925 3.87929 25.3421 3.87929 24.6335L3.94919 4.45858ZM6.94328 12.6703H9.77427C11.5887 12.7633 13.3918 12.3361 14.9702 11.4391C16.2634 10.6261 16.9158 9.11613 16.9158 7.03707C16.9545 6.25219 16.8329 5.46765 16.5586 4.73097C16.2842 3.99428 15.8628 3.32076 15.3197 2.7512C14.2596 1.69425 12.512 1.17158 10.0772 1.17158C9.26627 1.13241 8.45397 1.21066 7.66559 1.40387C7.19958 1.55487 6.95493 1.973 6.95493 2.63505L6.94328 12.6703ZM6.94328 29.2911C7.60026 29.4986 8.26948 29.6654 8.94711 29.7905C9.71891 29.8988 10.4978 29.9493 11.2771 29.9415C12.3062 29.9937 13.3348 29.8316 14.2976 29.4657C15.2604 29.0997 16.1362 28.5379 16.8692 27.816C17.5891 27.0139 18.1421 26.0772 18.4961 25.0604C18.85 24.0435 18.998 22.9667 18.9313 21.8924C18.9308 20.3788 18.5289 18.8922 17.7663 17.5833C17.0308 16.2581 15.8575 15.2279 14.446 14.668C13.4317 14.2567 12.358 14.0097 11.2655 13.9363C10.1005 13.8434 8.63255 13.7853 6.89668 13.7853L6.94328 29.2911Z" fill="white" fill-opacity="0.3"/>
<path d="M33.5066 9.09507C33.5631 8.63727 33.5067 8.17264 33.3422 7.74151C33.1778 7.31038 32.9102 6.92579 32.5629 6.62111C32.292 6.50351 32.0056 6.42528 31.7124 6.38881C31.3913 6.35276 31.0686 6.33338 30.7455 6.33074C30.488 6.32812 30.2307 6.34754 29.9766 6.38881V5.86615C30.2271 5.79599 30.4853 5.75698 30.7455 5.75C30.8969 5.75 31.3746 5.75 32.1551 5.86615C33.2503 5.98229 34.0658 6.04037 34.5667 6.04037L37.5725 5.86615H38.8074C40.1005 5.78484 40.8927 5.75 41.1374 5.75C41.8581 5.75089 42.5779 5.79744 43.2927 5.88938C44.0975 6.02131 44.8811 6.25957 45.6227 6.59788C46.4879 6.99405 47.223 7.62626 47.743 8.42141C48.3531 9.41482 48.6494 10.5682 48.5935 11.7316C48.6173 12.5336 48.4551 13.3301 48.1197 14.0594C47.7843 14.7886 47.2846 15.4309 46.6596 15.9362C45.0886 17.1111 43.1934 17.7761 41.2306 17.841V17.9572C41.4516 18.0442 41.6594 18.1615 41.8481 18.3056C42.0463 18.4995 42.2186 18.7182 42.3607 18.9561L47.778 27.1794C48.3609 28.163 49.157 29.0043 50.108 29.6417C50.8623 30.1018 51.7286 30.3468 52.6128 30.3502C53.0535 30.3733 53.4889 30.2463 53.8477 29.9902C53.8391 30.0712 53.8391 30.153 53.8477 30.2341C53.8279 30.3299 53.8279 30.4286 53.8477 30.5244C53.4491 30.6697 53.0345 30.7672 52.6128 30.8148C51.9096 30.9032 51.2011 30.942 50.4925 30.931C49.4424 30.9476 48.4011 30.7376 47.4401 30.3154C46.2237 29.6099 45.2244 28.5855 44.5509 27.3536L39.8093 19.4903C39.58 19.1557 39.3228 18.841 39.0404 18.5495C38.8161 18.2639 38.5393 18.0235 38.2249 17.841C37.9148 17.761 37.5995 17.7028 37.2812 17.6668C36.9621 17.6093 36.6469 17.5317 36.3375 17.4345V25.774C36.2923 26.9076 36.41 28.0419 36.687 29.1423C36.8102 29.5002 37.054 29.8046 37.3768 30.0036C37.6996 30.2026 38.0816 30.2841 38.4579 30.2341L39.0404 30.176H39.6345V30.7567C39.3733 30.8128 39.1087 30.8516 38.8423 30.8729H38.4579H37.7472C37.6292 30.8644 37.5122 30.8449 37.3977 30.8148C36.6754 30.7157 35.948 30.6575 35.2191 30.6406C34.6716 30.6406 33.9609 30.6406 33.0988 30.7567H32.6794C32.37 30.7923 32.0589 30.8116 31.7474 30.8148C31.203 30.8276 30.6584 30.8083 30.1164 30.7567V30.176C30.5032 30.2185 30.8922 30.2379 31.2814 30.2341C31.7618 30.2332 32.2385 30.1507 32.691 29.9902C33.0186 29.666 33.2625 29.2674 33.4017 28.8287C33.5006 28.2887 33.5397 27.7395 33.5182 27.191L33.5066 9.09507ZM36.3375 16.4356H36.454C36.9264 16.6018 37.4089 16.7376 37.8987 16.8422C38.4066 16.9264 38.922 16.9576 39.4365 16.9351C41.0109 17.0045 42.5638 16.551 43.8519 15.6458C44.4199 15.2054 44.8716 14.6336 45.168 13.9799C45.4644 13.3262 45.5965 12.6103 45.5528 11.8942C45.6139 10.8733 45.3355 9.86082 44.7606 9.01377C44.2649 8.32824 43.5812 7.79992 42.7917 7.49222C42.0457 7.18992 41.2618 6.99062 40.4617 6.89987C39.5982 6.81715 38.7311 6.77838 37.8637 6.78372C37.4915 6.7651 37.1222 6.85815 36.8035 7.05086C36.6584 7.16322 36.5446 7.3109 36.4732 7.47972C36.4018 7.64854 36.3752 7.83283 36.3958 8.01489L36.3375 16.4356Z" fill="white" fill-opacity="0.3"/>
<path d="M33.5066 9.09507C33.5631 8.63727 33.5067 8.17264 33.3422 7.74151C33.1778 7.31038 32.9102 6.92579 32.5629 6.62111C32.292 6.50351 32.0056 6.42528 31.7124 6.38881C31.3913 6.35276 31.0686 6.33338 30.7455 6.33074C30.488 6.32812 30.2307 6.34754 29.9766 6.38881V5.86615C30.2271 5.79599 30.4853 5.75698 30.7455 5.75C30.8969 5.75 31.3746 5.75 32.1551 5.86615C33.2503 5.98229 34.0658 6.04037 34.5667 6.04037L37.5725 5.86615H38.8074C40.1005 5.78484 40.8927 5.75 41.1374 5.75C41.8581 5.75089 42.5779 5.79744 43.2927 5.88938C44.0975 6.02131 44.8811 6.25957 45.6227 6.59788C46.4879 6.99405 47.223 7.62626 47.743 8.42141C48.3531 9.41482 48.6494 10.5682 48.5935 11.7316C48.6173 12.5336 48.4551 13.3301 48.1197 14.0594C47.7843 14.7886 47.2846 15.4309 46.6596 15.9362C45.0886 17.1111 43.1934 17.7761 41.2306 17.841V17.9572C41.4516 18.0442 41.6594 18.1615 41.8481 18.3056C42.0463 18.4995 42.2186 18.7182 42.3607 18.9561L47.778 27.1794C48.3609 28.163 49.157 29.0043 50.108 29.6417C50.8623 30.1018 51.7286 30.3468 52.6128 30.3502C53.0535 30.3733 53.4889 30.2463 53.8477 29.9902C53.8391 30.0712 53.8391 30.153 53.8477 30.2341C53.8279 30.3299 53.8279 30.4286 53.8477 30.5244C53.4491 30.6697 53.0345 30.7672 52.6128 30.8148C51.9096 30.9032 51.2011 30.942 50.4925 30.931C49.4424 30.9476 48.4011 30.7376 47.4401 30.3154C46.2237 29.6099 45.2244 28.5855 44.5509 27.3536L39.8093 19.4903C39.58 19.1557 39.3228 18.841 39.0404 18.5495C38.8161 18.2639 38.5393 18.0235 38.2249 17.841C37.9148 17.761 37.5995 17.7028 37.2812 17.6668C36.9621 17.6093 36.6469 17.5317 36.3375 17.4345V25.774C36.2923 26.9076 36.41 28.0419 36.687 29.1423C36.8102 29.5002 37.054 29.8046 37.3768 30.0036C37.6996 30.2026 38.0816 30.2841 38.4579 30.2341L39.0404 30.176H39.6345V30.7567C39.3733 30.8128 39.1087 30.8516 38.8423 30.8729H38.4579H37.7472C37.6292 30.8644 37.5122 30.8449 37.3977 30.8148C36.6754 30.7157 35.948 30.6575 35.2191 30.6406C34.6716 30.6406 33.9609 30.6406 33.0988 30.7567H32.6794C32.37 30.7923 32.0589 30.8116 31.7474 30.8148C31.203 30.8276 30.6584 30.8083 30.1164 30.7567V30.176C30.5032 30.2185 30.8922 30.2379 31.2814 30.2341C31.7618 30.2332 32.2385 30.1507 32.691 29.9902C33.0186 29.666 33.2625 29.2674 33.4017 28.8287C33.5006 28.2887 33.5397 27.7395 33.5182 27.191L33.5066 9.09507ZM36.3375 16.4356H36.454C36.9264 16.6018 37.4089 16.7376 37.8987 16.8422C38.4066 16.9264 38.922 16.9576 39.4365 16.9351C41.0109 17.0045 42.5638 16.551 43.8519 15.6458C44.4199 15.2054 44.8716 14.6336 45.168 13.9799C45.4644 13.3262 45.5965 12.6103 45.5528 11.8942C45.6139 10.8733 45.3355 9.86082 44.7606 9.01377C44.2649 8.32824 43.5812 7.79992 42.7917 7.49222C42.0457 7.18992 41.2618 6.99062 40.4617 6.89987C39.5982 6.81715 38.7311 6.77838 37.8637 6.78372C37.4915 6.7651 37.1222 6.85815 36.8035 7.05086C36.6584 7.16322 36.5446 7.3109 36.4732 7.47972C36.4018 7.64854 36.3752 7.83283 36.3958 8.01489L36.3375 16.4356Z" fill="white" fill-opacity="0.3"/>
<path d="M56.0605 30.1188H56.5266H56.946C57.1399 30.1307 57.3345 30.1307 57.5285 30.1188C57.6531 30.1158 57.7758 30.0881 57.8896 30.0375L58.1226 29.8517C58.2766 29.7522 58.4244 29.6436 58.5653 29.5265C58.7401 29.3987 58.8333 29.3058 58.8333 29.2709L58.9498 29.0967C59.2643 28.667 59.5206 28.2605 59.742 27.9352C59.9187 27.6483 60.067 27.3449 60.1847 27.0293L68.3398 5.41406H68.9806L77.1357 26.0304C77.6017 27.1919 77.9628 27.9817 78.2191 28.4928C78.4769 29.0011 78.7648 29.4936 79.0812 29.9678C79.2286 30.0333 79.3863 30.0726 79.5472 30.084C79.7828 30.1174 80.0201 30.1368 80.2579 30.1421C80.4942 30.1196 80.728 30.0769 80.9569 30.0143H81.3763V30.6531C80.9918 30.7232 80.6022 30.7621 80.2113 30.7693L79.1628 30.7112C78.3519 30.5886 77.5354 30.5072 76.7163 30.4673C76.2503 30.4673 75.5513 30.4673 74.6542 30.5834C74.2261 30.6498 73.7941 30.6886 73.361 30.6996C73.0068 30.702 72.6527 30.6826 72.3009 30.6415V29.9911C72.6505 30.06 73.0049 30.1027 73.361 30.1188C73.6604 30.1142 73.958 30.0713 74.2464 29.9911C74.7124 29.9214 74.9571 29.4916 74.9571 28.7018C74.9464 28.2496 74.8474 27.8038 74.6658 27.3893L71.4853 19.4913H64.1341L61.5361 26.4602C61.2981 27.0811 61.1605 27.7358 61.1284 28.3998C61.1203 28.8466 61.2417 29.2861 61.4779 29.6658C61.5952 29.863 61.7684 30.0212 61.9757 30.1204C62.183 30.2196 62.4152 30.2554 62.6429 30.2234H63.2953H63.8778V30.746C63.546 30.7924 63.2109 30.8118 62.8759 30.8041L61.2332 30.746H59.6954C59.1944 30.746 58.6236 30.746 57.9945 30.746L57.1091 30.8041C56.7741 30.8109 56.4391 30.7915 56.1071 30.746L56.0605 30.1188ZM71.1358 18.504L67.7223 10.0484L64.6001 18.5504L71.1358 18.504Z" fill="white" fill-opacity="0.3"/>
<path d="M56.0605 30.1188H56.5266H56.946C57.1399 30.1307 57.3345 30.1307 57.5285 30.1188C57.6531 30.1158 57.7758 30.0881 57.8896 30.0375L58.1226 29.8517C58.2766 29.7522 58.4244 29.6436 58.5653 29.5265C58.7401 29.3987 58.8333 29.3058 58.8333 29.2709L58.9498 29.0967C59.2643 28.667 59.5206 28.2605 59.742 27.9352C59.9187 27.6483 60.067 27.3449 60.1847 27.0293L68.3398 5.41406H68.9806L77.1357 26.0304C77.6017 27.1919 77.9628 27.9817 78.2191 28.4928C78.4769 29.0011 78.7648 29.4936 79.0812 29.9678C79.2286 30.0333 79.3863 30.0726 79.5472 30.084C79.7828 30.1174 80.0201 30.1368 80.2579 30.1421C80.4942 30.1196 80.728 30.0769 80.9569 30.0143H81.3763V30.6531C80.9918 30.7232 80.6022 30.7621 80.2113 30.7693L79.1628 30.7112C78.3519 30.5886 77.5354 30.5072 76.7163 30.4673C76.2503 30.4673 75.5513 30.4673 74.6542 30.5834C74.2261 30.6498 73.7941 30.6886 73.361 30.6996C73.0068 30.702 72.6527 30.6826 72.3009 30.6415V29.9911C72.6505 30.06 73.0049 30.1027 73.361 30.1188C73.6604 30.1142 73.958 30.0713 74.2464 29.9911C74.7124 29.9214 74.9571 29.4916 74.9571 28.7018C74.9464 28.2496 74.8474 27.8038 74.6658 27.3893L71.4853 19.4913H64.1341L61.5361 26.4602C61.2981 27.0811 61.1605 27.7358 61.1284 28.3998C61.1203 28.8466 61.2417 29.2861 61.4779 29.6658C61.5952 29.863 61.7684 30.0212 61.9757 30.1204C62.183 30.2196 62.4152 30.2554 62.6429 30.2234H63.2953H63.8778V30.746C63.546 30.7924 63.2109 30.8118 62.8759 30.8041L61.2332 30.746H59.6954C59.1944 30.746 58.6236 30.746 57.9945 30.746L57.1091 30.8041C56.7741 30.8109 56.4391 30.7915 56.1071 30.746L56.0605 30.1188ZM71.1358 18.504L67.7223 10.0484L64.6001 18.5504L71.1358 18.504Z" fill="white" fill-opacity="0.3"/>
<path d="M84.207 29.9316C84.5567 30.0006 84.9111 30.0433 85.2672 30.0594C85.6579 30.075 86.049 30.0438 86.4322 29.9665C86.6359 29.9059 86.8205 29.7939 86.9681 29.6413C87.5882 28.9964 88.0158 28.192 88.203 27.3183C88.3963 26.6205 88.5135 25.904 88.5525 25.1812L89.438 10.5V10.3258C89.5195 9.23402 89.5545 8.42098 89.5545 7.92154C89.5548 7.66813 89.5021 7.41744 89.3998 7.18546C89.2975 6.95349 89.1478 6.74531 88.9603 6.57422C88.5164 6.51233 88.0687 6.48128 87.6205 6.4813C87.2078 6.47576 86.7951 6.49905 86.3856 6.55099V5.95863L88.0982 5.84249H88.7972C89.5773 5.83845 90.3565 5.89671 91.1272 6.01671C91.4112 6.02945 91.6865 6.11813 91.9243 6.27344C92.162 6.42875 92.3535 6.64497 92.4786 6.89944L100.016 25.065L107.193 7.74732V7.64278C107.443 7.04054 107.844 6.51255 108.358 6.10963C109.125 5.72595 109.985 5.56496 110.839 5.64503C111.791 5.64027 112.74 5.73763 113.67 5.9354V6.52776C113.469 6.50163 113.27 6.45889 113.076 6.4C112.727 6.4 112.47 6.4 112.307 6.4C111.445 6.4 110.898 6.63229 110.665 7.08527C110.419 7.54191 110.294 8.05377 110.303 8.57197C110.314 9.10408 110.352 9.63526 110.42 10.1632L111.899 25.7735C111.943 26.7295 112.131 27.6733 112.459 28.5727C112.744 29.1735 113.182 29.6899 113.729 30.071C114.045 30.188 114.381 30.2471 114.719 30.2453L115.255 30.1872C115.452 30.1675 115.651 30.1675 115.849 30.1872V30.7098C115.517 30.7524 115.182 30.7718 114.847 30.7679C114.218 30.7679 113.251 30.7098 111.958 30.5937L110.898 30.5356C110.548 30.5356 109.977 30.5356 109.197 30.6518C108.416 30.7679 107.915 30.7679 107.601 30.7679C106.89 30.7679 106.319 30.7679 105.888 30.7098V30.1872H107.368C107.853 30.2052 108.329 30.0577 108.719 29.769C109.068 29.5019 109.243 28.8747 109.243 27.8991C109.245 27.1889 109.206 26.4792 109.127 25.7735L107.659 9.69861H107.542L99.294 29.4438H98.8513L90.6263 9.38501H90.5098L89.5312 26.9466C89.486 27.7348 89.5968 28.5241 89.8574 29.2696C89.9845 29.5237 90.1836 29.7351 90.43 29.8775C90.6764 30.02 90.9594 30.0873 91.2437 30.071L92.8282 30.0013V30.6518C92.3971 30.6518 91.8728 30.7098 91.2437 30.7098C90.8069 30.6957 90.3713 30.6569 89.9389 30.5937C89.3744 30.5254 88.8066 30.4867 88.238 30.4775C88.0438 30.4775 87.473 30.5356 86.5254 30.6518L85.6983 30.7098H84.8245C84.6223 30.6963 84.4227 30.6573 84.2303 30.5937L84.207 29.9316Z" fill="white" fill-opacity="0.3"/>
<path d="M84.207 29.9316C84.5567 30.0006 84.9111 30.0433 85.2672 30.0594C85.6579 30.075 86.049 30.0438 86.4322 29.9665C86.6359 29.9059 86.8205 29.7939 86.9681 29.6413C87.5882 28.9964 88.0158 28.192 88.203 27.3183C88.3963 26.6205 88.5135 25.904 88.5525 25.1812L89.438 10.5V10.3258C89.5195 9.23402 89.5545 8.42098 89.5545 7.92154C89.5548 7.66813 89.5021 7.41744 89.3998 7.18546C89.2975 6.95349 89.1478 6.74531 88.9603 6.57422C88.5164 6.51233 88.0687 6.48128 87.6205 6.4813C87.2078 6.47576 86.7951 6.49905 86.3856 6.55099V5.95863L88.0982 5.84249H88.7972C89.5773 5.83845 90.3565 5.89671 91.1272 6.01671C91.4112 6.02945 91.6865 6.11813 91.9243 6.27344C92.162 6.42875 92.3535 6.64497 92.4786 6.89944L100.016 25.065L107.193 7.74732V7.64278C107.443 7.04054 107.844 6.51255 108.358 6.10963C109.125 5.72595 109.985 5.56496 110.839 5.64503C111.791 5.64027 112.74 5.73763 113.67 5.9354V6.52776C113.469 6.50163 113.27 6.45889 113.076 6.4C112.727 6.4 112.47 6.4 112.307 6.4C111.445 6.4 110.898 6.63229 110.665 7.08527C110.419 7.54191 110.294 8.05377 110.303 8.57197C110.314 9.10408 110.352 9.63526 110.42 10.1632L111.899 25.7735C111.943 26.7295 112.131 27.6733 112.459 28.5727C112.744 29.1735 113.182 29.6899 113.729 30.071C114.045 30.188 114.381 30.2471 114.719 30.2453L115.255 30.1872C115.452 30.1675 115.651 30.1675 115.849 30.1872V30.7098C115.517 30.7524 115.182 30.7718 114.847 30.7679C114.218 30.7679 113.251 30.7098 111.958 30.5937L110.898 30.5356C110.548 30.5356 109.977 30.5356 109.197 30.6518C108.416 30.7679 107.915 30.7679 107.601 30.7679C106.89 30.7679 106.319 30.7679 105.888 30.7098V30.1872H107.368C107.853 30.2052 108.329 30.0577 108.719 29.769C109.068 29.5019 109.243 28.8747 109.243 27.8991C109.245 27.1889 109.206 26.4792 109.127 25.7735L107.659 9.69861H107.542L99.294 29.4438H98.8513L90.6263 9.38501H90.5098L89.5312 26.9466C89.486 27.7348 89.5968 28.5241 89.8574 29.2696C89.9845 29.5237 90.1836 29.7351 90.43 29.8775C90.6764 30.02 90.9594 30.0873 91.2437 30.071L92.8282 30.0013V30.6518C92.3971 30.6518 91.8728 30.7098 91.2437 30.7098C90.8069 30.6957 90.3713 30.6569 89.9389 30.5937C89.3744 30.5254 88.8066 30.4867 88.238 30.4775C88.0438 30.4775 87.473 30.5356 86.5254 30.6518L85.6983 30.7098H84.8245C84.6223 30.6963 84.4227 30.6573 84.2303 30.5937L84.207 29.9316Z" fill="white" fill-opacity="0.3"/>
<path d="M118.365 30.1188H118.831H119.251C119.445 30.1304 119.639 30.1304 119.833 30.1188C119.958 30.1158 120.08 30.0881 120.194 30.0375L120.427 29.8517C120.581 29.7522 120.729 29.6436 120.87 29.5265C121.045 29.3987 121.126 29.3058 121.126 29.2709L121.243 29.0967C121.557 28.667 121.825 28.2604 122.047 27.9352C122.219 27.6457 122.367 27.3428 122.489 27.0293L130.644 5.41406H131.297L139.452 26.0304C139.93 27.1919 140.291 27.9817 140.547 28.4927C140.801 29.0009 141.085 29.4934 141.398 29.9678C141.55 30.0306 141.711 30.0697 141.875 30.084C142.107 30.1173 142.34 30.1367 142.574 30.142C142.815 30.1209 143.052 30.0781 143.285 30.0143H143.693V30.6531C143.308 30.7242 142.919 30.7631 142.528 30.7693L141.456 30.7112C140.636 30.6108 139.812 30.5527 138.986 30.537C138.52 30.537 137.821 30.537 136.924 30.6531C136.496 30.7184 136.064 30.7572 135.631 30.7693C135.277 30.772 134.922 30.7526 134.571 30.7112V30.0607C134.92 30.1302 135.275 30.1729 135.631 30.1885C135.93 30.1827 136.227 30.1398 136.516 30.0607C136.982 29.9911 137.215 29.5613 137.215 28.7715C137.209 28.3075 137.11 27.8495 136.924 27.4242L133.802 19.4912H126.439L123.852 26.4601C123.609 27.0795 123.471 27.7351 123.445 28.3998C123.437 28.8466 123.558 29.2861 123.794 29.6658C123.912 29.863 124.085 30.0212 124.292 30.1204C124.499 30.2196 124.732 30.2554 124.959 30.2234H125.612H126.194V30.746C125.862 30.7919 125.527 30.8114 125.192 30.8041L123.55 30.746H122.012C121.511 30.746 120.928 30.746 120.311 30.746L119.425 30.8041C119.09 30.8114 118.755 30.7919 118.423 30.746L118.365 30.1188ZM133.441 18.504L130.027 10.0484L126.905 18.504H133.441Z" fill="white" fill-opacity="0.3"/>
<path d="M118.365 30.1188H118.831H119.251C119.445 30.1304 119.639 30.1304 119.833 30.1188C119.958 30.1158 120.08 30.0881 120.194 30.0375L120.427 29.8517C120.581 29.7522 120.729 29.6436 120.87 29.5265C121.045 29.3987 121.126 29.3058 121.126 29.2709L121.243 29.0967C121.557 28.667 121.825 28.2604 122.047 27.9352C122.219 27.6457 122.367 27.3428 122.489 27.0293L130.644 5.41406H131.297L139.452 26.0304C139.93 27.1919 140.291 27.9817 140.547 28.4927C140.801 29.0009 141.085 29.4934 141.398 29.9678C141.55 30.0306 141.711 30.0697 141.875 30.084C142.107 30.1173 142.34 30.1367 142.574 30.142C142.815 30.1209 143.052 30.0781 143.285 30.0143H143.693V30.6531C143.308 30.7242 142.919 30.7631 142.528 30.7693L141.456 30.7112C140.636 30.6108 139.812 30.5527 138.986 30.537C138.52 30.537 137.821 30.537 136.924 30.6531C136.496 30.7184 136.064 30.7572 135.631 30.7693C135.277 30.772 134.922 30.7526 134.571 30.7112V30.0607C134.92 30.1302 135.275 30.1729 135.631 30.1885C135.93 30.1827 136.227 30.1398 136.516 30.0607C136.982 29.9911 137.215 29.5613 137.215 28.7715C137.209 28.3075 137.11 27.8495 136.924 27.4242L133.802 19.4912H126.439L123.852 26.4601C123.609 27.0795 123.471 27.7351 123.445 28.3998C123.437 28.8466 123.558 29.2861 123.794 29.6658C123.912 29.863 124.085 30.0212 124.292 30.1204C124.499 30.2196 124.732 30.2554 124.959 30.2234H125.612H126.194V30.746C125.862 30.7919 125.527 30.8114 125.192 30.8041L123.55 30.746H122.012C121.511 30.746 120.928 30.746 120.311 30.746L119.425 30.8041C119.09 30.8114 118.755 30.7919 118.423 30.746L118.365 30.1188ZM133.441 18.504L130.027 10.0484L126.905 18.504H133.441Z" fill="white" fill-opacity="0.3"/>
<path d="M151.581 9.09507C151.637 8.63728 151.581 8.17264 151.416 7.74151C151.252 7.31039 150.984 6.92579 150.637 6.62111C150.366 6.50511 150.079 6.42694 149.787 6.38882C149.462 6.35279 149.135 6.33341 148.808 6.33074C148.55 6.32812 148.293 6.34754 148.039 6.38882V5.86615C148.29 5.79678 148.548 5.75779 148.808 5.75C148.971 5.75 149.437 5.75 150.218 5.86615C151.324 5.98229 152.128 6.04037 152.641 6.04037L155.647 5.86615H156.881C158.175 5.78484 158.955 5.75 159.212 5.75C159.928 5.75091 160.644 5.79747 161.355 5.88938C162.161 6.01825 162.945 6.25664 163.685 6.59788C164.556 6.99058 165.295 7.6233 165.817 8.42141C166.423 9.41649 166.719 10.5686 166.668 11.7316C166.689 12.5344 166.525 13.3313 166.187 14.0604C165.85 14.7896 165.348 15.4315 164.722 15.9362C163.156 17.1129 161.264 17.7782 159.305 17.841V17.9572C159.523 18.0497 159.73 18.1666 159.922 18.3056C160.116 18.5006 160.284 18.7191 160.423 18.9561L165.84 27.1794C166.437 28.1712 167.254 29.0136 168.229 29.6417C168.979 30.1014 169.841 30.3465 170.722 30.3502C171.166 30.3732 171.605 30.2464 171.968 29.9902C171.954 30.0708 171.954 30.1534 171.968 30.2341C171.962 30.3343 171.982 30.4345 172.027 30.5244C171.628 30.6683 171.213 30.7658 170.792 30.8148C170.114 30.8801 169.433 30.8995 168.753 30.8729C167.699 30.8894 166.654 30.6794 165.689 30.2573C164.475 29.5485 163.477 28.525 162.8 27.2955L157.86 19.4904C157.623 19.1613 157.367 18.8472 157.091 18.5495C156.866 18.2602 156.585 18.0193 156.264 17.841C155.954 17.761 155.639 17.7028 155.32 17.6668C155.002 17.6076 154.687 17.5301 154.377 17.4345V25.774C154.334 26.9082 154.456 28.0426 154.738 29.1423C154.859 29.4993 155.1 29.8033 155.421 30.0025C155.742 30.2016 156.122 30.2835 156.497 30.2341L157.091 30.176H157.674V30.7567C157.412 30.8128 157.148 30.8516 156.881 30.8729H156.497H155.798C155.676 30.8656 155.555 30.8462 155.437 30.8148C154.718 30.7161 153.995 30.658 153.27 30.6406C152.711 30.6406 152.012 30.6406 151.138 30.7567H150.73C150.417 30.7927 150.102 30.8121 149.787 30.8148C149.238 30.8287 148.69 30.8093 148.144 30.7567V30.176C148.531 30.2189 148.92 30.2383 149.309 30.2341C149.789 30.2323 150.266 30.1498 150.719 29.9902C151.046 29.666 151.29 29.2674 151.429 28.8287C151.522 28.2879 151.561 27.7394 151.546 27.191L151.581 9.09507ZM154.4 16.4356H154.528C154.996 16.603 155.475 16.7388 155.961 16.8422C156.457 16.9318 156.96 16.9707 157.464 16.9583C159.039 17.0295 160.592 16.5759 161.879 15.6691C162.45 15.2299 162.903 14.6586 163.202 14.0048C163.5 13.351 163.634 12.6345 163.592 11.9175C163.646 10.8973 163.368 9.88692 162.8 9.037C162.301 8.3542 161.618 7.82656 160.831 7.51545C160.085 7.21411 159.301 7.01485 158.501 6.9231C157.641 6.84008 156.778 6.80132 155.915 6.80695C155.542 6.78688 155.172 6.88003 154.854 7.07409C154.705 7.18356 154.588 7.33042 154.514 7.49975C154.441 7.66907 154.413 7.85483 154.435 8.03812L154.4 16.4356Z" fill="white" fill-opacity="0.3"/>
<path d="M151.581 9.09507C151.637 8.63728 151.581 8.17264 151.416 7.74151C151.252 7.31039 150.984 6.92579 150.637 6.62111C150.366 6.50511 150.079 6.42694 149.787 6.38882C149.462 6.35279 149.135 6.33341 148.808 6.33074C148.55 6.32812 148.293 6.34754 148.039 6.38882V5.86615C148.29 5.79678 148.548 5.75779 148.808 5.75C148.971 5.75 149.437 5.75 150.218 5.86615C151.324 5.98229 152.128 6.04037 152.641 6.04037L155.647 5.86615H156.881C158.175 5.78484 158.955 5.75 159.212 5.75C159.928 5.75091 160.644 5.79747 161.355 5.88938C162.161 6.01825 162.945 6.25664 163.685 6.59788C164.556 6.99058 165.295 7.6233 165.817 8.42141C166.423 9.41649 166.719 10.5686 166.668 11.7316C166.689 12.5344 166.525 13.3313 166.187 14.0604C165.85 14.7896 165.348 15.4315 164.722 15.9362C163.156 17.1129 161.264 17.7782 159.305 17.841V17.9572C159.523 18.0497 159.73 18.1666 159.922 18.3056C160.116 18.5006 160.284 18.7191 160.423 18.9561L165.84 27.1794C166.437 28.1712 167.254 29.0136 168.229 29.6417C168.979 30.1014 169.841 30.3465 170.722 30.3502C171.166 30.3732 171.605 30.2464 171.968 29.9902C171.954 30.0708 171.954 30.1534 171.968 30.2341C171.962 30.3343 171.982 30.4345 172.027 30.5244C171.628 30.6683 171.213 30.7658 170.792 30.8148C170.114 30.8801 169.433 30.8995 168.753 30.8729C167.699 30.8894 166.654 30.6794 165.689 30.2573C164.475 29.5485 163.477 28.525 162.8 27.2955L157.86 19.4904C157.623 19.1613 157.367 18.8472 157.091 18.5495C156.866 18.2602 156.585 18.0193 156.264 17.841C155.954 17.761 155.639 17.7028 155.32 17.6668C155.002 17.6076 154.687 17.5301 154.377 17.4345V25.774C154.334 26.9082 154.456 28.0426 154.738 29.1423C154.859 29.4993 155.1 29.8033 155.421 30.0025C155.742 30.2016 156.122 30.2835 156.497 30.2341L157.091 30.176H157.674V30.7567C157.412 30.8128 157.148 30.8516 156.881 30.8729H156.497H155.798C155.676 30.8656 155.555 30.8462 155.437 30.8148C154.718 30.7161 153.995 30.658 153.27 30.6406C152.711 30.6406 152.012 30.6406 151.138 30.7567H150.73C150.417 30.7927 150.102 30.8121 149.787 30.8148C149.238 30.8287 148.69 30.8093 148.144 30.7567V30.176C148.531 30.2189 148.92 30.2383 149.309 30.2341C149.789 30.2323 150.266 30.1498 150.719 29.9902C151.046 29.666 151.29 29.2674 151.429 28.8287C151.522 28.2879 151.561 27.7394 151.546 27.191L151.581 9.09507ZM154.4 16.4356H154.528C154.996 16.603 155.475 16.7388 155.961 16.8422C156.457 16.9318 156.96 16.9707 157.464 16.9583C159.039 17.0295 160.592 16.5759 161.879 15.6691C162.45 15.2299 162.903 14.6586 163.202 14.0048C163.5 13.351 163.634 12.6345 163.592 11.9175C163.646 10.8973 163.368 9.88692 162.8 9.037C162.301 8.3542 161.618 7.82656 160.831 7.51545C160.085 7.21411 159.301 7.01485 158.501 6.9231C157.641 6.84008 156.778 6.80132 155.915 6.80695C155.542 6.78688 155.172 6.88003 154.854 7.07409C154.705 7.18356 154.588 7.33042 154.514 7.49975C154.441 7.66907 154.413 7.85483 154.435 8.03812L154.4 16.4356Z" fill="white" fill-opacity="0.3"/>
<path d="M193.323 10.8022C193.3 10.3558 193.185 9.91904 192.984 9.51927C192.784 9.1195 192.502 8.7654 192.158 8.47924C191.443 7.89384 190.614 7.46275 189.723 7.21322C188.873 6.96439 188.004 6.78569 187.125 6.67894C186.321 6.60925 185.622 6.5744 185.04 6.5744C184.325 6.56547 183.619 6.72464 182.978 7.039C182.978 7.2016 182.896 7.27129 182.861 7.27129C182.764 7.47578 182.705 7.69616 182.686 7.92173V16.6096H186.275C187.12 16.6429 187.965 16.5449 188.779 16.3193C189.061 16.2141 189.299 16.0166 189.453 15.7591C189.608 15.5017 189.67 15.1996 189.63 14.9022C189.588 14.4184 189.47 13.9442 189.28 13.4968C189.356 13.4703 189.438 13.4703 189.513 13.4968C189.577 13.5009 189.64 13.4801 189.688 13.4388L189.746 13.4968C189.94 13.7608 190.079 14.061 190.154 14.3796C190.257 14.8407 190.3 15.313 190.282 15.785C190.245 16.1713 190.245 16.5602 190.282 16.9465C190.282 17.1091 190.48 17.6085 190.748 18.4796C190.911 18.9442 191.028 19.3159 191.109 19.6411C191.163 19.8118 191.202 19.9866 191.226 20.1638V20.9884H190.888C190.741 20.3933 190.493 19.8276 190.154 19.3159C189.829 18.8749 189.359 18.5623 188.826 18.4332C188.096 18.235 187.345 18.1182 186.589 18.0847C185.692 18.0847 184.399 17.9918 182.71 17.9918V28.3871C182.71 28.9678 182.896 29.3279 183.257 29.4673C183.922 29.641 184.61 29.7115 185.296 29.6763C186.391 29.6763 187.393 29.6763 188.302 29.595C189.279 29.5155 190.246 29.3444 191.191 29.084C192.156 28.8393 193.058 28.3918 193.836 27.7715C194.574 27.1682 195.077 26.3256 195.257 25.3904H195.665C195.654 25.9197 195.564 26.4444 195.397 26.9468C195.064 27.5954 194.674 28.2133 194.232 28.7936L194.173 28.8517C193.661 29.5602 193.346 30.0131 193.206 30.2338C193.029 30.5204 192.881 30.8239 192.764 31.1398C192.333 31.0701 191.727 30.9888 190.935 30.9075C190.422 30.9075 189.059 30.9075 186.81 30.9075C186.181 30.9075 185.203 30.9075 183.875 30.8494C182.547 30.7913 181.545 30.8494 180.927 30.8494C180.578 30.8494 180.042 30.8494 179.331 30.8494C178.62 30.8494 178.096 30.9075 177.747 30.9075C176.803 30.9075 176.174 30.9075 175.859 30.8494V30.199C175.901 30.1932 175.943 30.1964 175.984 30.2084C176.024 30.2204 176.061 30.241 176.092 30.2687C176.454 30.2687 176.745 30.3267 176.978 30.3267C177.379 30.3846 177.789 30.3416 178.169 30.2016C178.55 30.0617 178.889 29.8292 179.156 29.5253C179.568 28.7855 179.755 27.9418 179.692 27.0978V8.80445C179.74 8.1265 179.616 7.44751 179.331 6.82993C179.155 6.60066 178.921 6.42262 178.652 6.31435C178.384 6.20608 178.091 6.17155 177.805 6.21434L176.151 6.33049V5.6336L177.036 5.57553C178.527 5.57553 180.531 5.57553 182.931 5.6336H184.702C186.974 5.6336 188.476 5.6336 189.199 5.57553C189.921 5.51745 190.841 5.43615 191.937 5.28516H192.053C192.136 5.59292 192.237 5.89546 192.356 6.19111L193.113 8.2121L193.533 9.26905C193.623 9.77492 193.662 10.2886 193.649 10.8022H193.323Z" fill="white" fill-opacity="0.3"/>
<path d="M193.323 10.8022C193.3 10.3558 193.185 9.91904 192.984 9.51927C192.784 9.1195 192.502 8.7654 192.158 8.47924C191.443 7.89384 190.614 7.46275 189.723 7.21322C188.873 6.96439 188.004 6.78569 187.125 6.67894C186.321 6.60925 185.622 6.5744 185.04 6.5744C184.325 6.56547 183.619 6.72464 182.978 7.039C182.978 7.2016 182.896 7.27129 182.861 7.27129C182.764 7.47578 182.705 7.69616 182.686 7.92173V16.6096H186.275C187.12 16.6429 187.965 16.5449 188.779 16.3193C189.061 16.2141 189.299 16.0166 189.453 15.7591C189.608 15.5017 189.67 15.1996 189.63 14.9022C189.588 14.4184 189.47 13.9442 189.28 13.4968C189.356 13.4703 189.438 13.4703 189.513 13.4968C189.577 13.5009 189.64 13.4801 189.688 13.4388L189.746 13.4968C189.94 13.7608 190.079 14.061 190.154 14.3796C190.257 14.8407 190.3 15.313 190.282 15.785C190.245 16.1713 190.245 16.5602 190.282 16.9465C190.282 17.1091 190.48 17.6085 190.748 18.4796C190.911 18.9442 191.028 19.3159 191.109 19.6411C191.163 19.8118 191.202 19.9866 191.226 20.1638V20.9884H190.888C190.741 20.3933 190.493 19.8276 190.154 19.3159C189.829 18.8749 189.359 18.5623 188.826 18.4332C188.096 18.235 187.345 18.1182 186.589 18.0847C185.692 18.0847 184.399 17.9918 182.71 17.9918V28.3871C182.71 28.9678 182.896 29.3279 183.257 29.4673C183.922 29.641 184.61 29.7115 185.296 29.6763C186.391 29.6763 187.393 29.6763 188.302 29.595C189.279 29.5155 190.246 29.3444 191.191 29.084C192.156 28.8393 193.058 28.3918 193.836 27.7715C194.574 27.1682 195.077 26.3256 195.257 25.3904H195.665C195.654 25.9197 195.564 26.4444 195.397 26.9468C195.064 27.5954 194.674 28.2133 194.232 28.7936L194.173 28.8517C193.661 29.5602 193.346 30.0131 193.206 30.2338C193.029 30.5204 192.881 30.8239 192.764 31.1398C192.333 31.0701 191.727 30.9888 190.935 30.9075C190.422 30.9075 189.059 30.9075 186.81 30.9075C186.181 30.9075 185.203 30.9075 183.875 30.8494C182.547 30.7913 181.545 30.8494 180.927 30.8494C180.578 30.8494 180.042 30.8494 179.331 30.8494C178.62 30.8494 178.096 30.9075 177.747 30.9075C176.803 30.9075 176.174 30.9075 175.859 30.8494V30.199C175.901 30.1932 175.943 30.1964 175.984 30.2084C176.024 30.2204 176.061 30.241 176.092 30.2687C176.454 30.2687 176.745 30.3267 176.978 30.3267C177.379 30.3846 177.789 30.3416 178.169 30.2016C178.55 30.0617 178.889 29.8292 179.156 29.5253C179.568 28.7855 179.755 27.9418 179.692 27.0978V8.80445C179.74 8.1265 179.616 7.44751 179.331 6.82993C179.155 6.60066 178.921 6.42262 178.652 6.31435C178.384 6.20608 178.091 6.17155 177.805 6.21434L176.151 6.33049V5.6336L177.036 5.57553C178.527 5.57553 180.531 5.57553 182.931 5.6336H184.702C186.974 5.6336 188.476 5.6336 189.199 5.57553C189.921 5.51745 190.841 5.43615 191.937 5.28516H192.053C192.136 5.59292 192.237 5.89546 192.356 6.19111L193.113 8.2121L193.533 9.26905C193.623 9.77492 193.662 10.2886 193.649 10.8022H193.323Z" fill="white" fill-opacity="0.3"/>
</g>
<defs>
<clipPath id="clip0_342_2292">
<rect width="195.688" height="31" fill="white"/>
</clipPath>
</defs>
</svg>
