<svg width="145" height="23" viewBox="0 0 145 23" fill="none" xmlns="http://www.w3.org/2000/svg">
<g clip-path="url(#clip0_342_2238)">
<path d="M20.8756 18.7467C19.9411 20.263 18.5577 21.4343 16.9271 22.09C15.2475 22.8211 13.6107 22.9461 11.5494 22.9461C3.73477 22.9461 0 16.9407 0 12.3069C0 2.22704 7.93982 -0.00390625 11.4242 -0.00390625C12.89 -0.00390625 13.7786 0.308552 15.5376 0.895972C16.5484 1.23968 16.7988 1.32716 17.6753 1.32716C18.2041 1.34273 18.7285 1.22468 19.2022 0.98346C19.2022 2.527 19.8709 3.38626 19.8709 5.22976C19.8791 5.83742 19.8092 6.44355 19.6633 7.03264C19.5778 6.98889 19.4098 6.98889 19.2846 6.94515C19.3882 6.64349 19.4458 6.32735 19.4556 6.00778C19.4556 3.6081 15.0032 0.774113 11.5555 0.774113C7.85432 0.770989 2.80337 3.60498 2.80337 10.9352C2.80337 16.1689 5.36549 22.1368 12.38 22.1368C13.7362 22.1476 15.0848 21.9291 16.3713 21.4901C18.1333 20.9339 19.7305 19.7747 20.4053 18.5748L20.8756 18.7467Z" fill="white" fill-opacity="0.3"/>
<path d="M53.1307 12.9545C53.1307 18.2663 49.6463 22.222 44.3541 22.222C37.7183 22.222 34.695 15.8728 34.695 11.1547C34.695 5.14617 38.4756 0.728026 43.5998 0.728026C50.7762 0.728026 53.1307 8.66444 53.1307 12.9545ZM55.4455 11.3703C55.4455 4.41815 50.6968 0 43.9755 0C37.4679 0 32.3711 5.74922 32.3711 11.839C32.3711 17.7226 36.2799 22.9969 44.0518 22.9969C51.5366 22.9969 55.4455 16.1728 55.4455 11.3703Z" fill="white" fill-opacity="0.3"/>
<path d="M72.7032 2.23177C72.7032 1.15691 73.5858 1.15692 74.9294 1.15692C78.6245 1.15692 79.8002 3.09103 79.8002 5.45008C79.8002 8.7965 77.4061 9.56515 74.7218 9.56515H72.7032V2.23177ZM70.5656 18.2765C70.5766 18.9941 70.5481 19.7118 70.4801 20.4262C70.2978 21.0796 69.9489 21.6716 69.4693 22.1416C69.1521 22.2141 68.8291 22.257 68.5043 22.2697C68.2512 22.258 67.9992 22.2288 67.75 22.1822V22.6946C68.015 22.7325 68.2826 22.7482 68.5501 22.7415C70.019 22.7415 70.8587 22.529 71.7413 22.529C72.3276 22.529 73.6316 22.7415 76.6548 22.7415C82.573 22.7415 83.9167 17.8921 83.9167 16.3486C83.9167 12.5679 80.5576 10.34 77.574 9.95259V9.86823C78.9635 9.65576 82.3226 8.02161 82.3226 4.80642C82.3226 3.51597 81.7363 0.300781 76.5205 0.300781C74.505 0.300781 72.9109 0.516377 71.781 0.516377C71.1458 0.516377 70.1381 0.300781 69.0479 0.300781H67.9546V0.772592C68.1653 0.772592 68.4188 0.728848 68.6264 0.728848C70.0556 0.688229 70.5595 1.84432 70.5595 3.56284L70.5656 18.2765ZM72.7032 10.3838C74.4683 10.3838 76.5235 10.3838 78.0779 11.0274C80.2155 11.9273 81.2691 14.202 81.2691 16.3049C81.2691 20.0793 79.1314 22.1822 75.812 22.1822C74.7571 22.2053 73.7061 22.0457 72.7032 21.7104V10.3838Z" fill="white" fill-opacity="0.3"/>
<path d="M117.397 12.9545C117.397 18.2663 113.91 22.222 108.618 22.222C101.979 22.222 98.9556 15.8728 98.9556 11.1547C98.9556 5.14617 102.733 0.728026 107.86 0.728026C115.043 0.728026 117.397 8.66444 117.397 12.9545ZM119.703 11.3703C119.703 4.41815 114.957 0 108.239 0C101.725 0 96.6348 5.74922 96.6348 11.839C96.6348 17.7226 100.541 22.9969 108.309 22.9969C115.794 22.9969 119.703 16.1728 119.703 11.3703Z" fill="white" fill-opacity="0.3"/>
<path d="M140.528 10.4689C143.087 12.6155 144.263 14.6715 144.263 17.118C144.263 18.9927 143.17 22.786 137.545 22.786C135.028 22.786 133.85 21.4955 132.002 21.4955C132.002 20.3363 131.416 18.6209 131.416 17.4648C131.391 16.9856 131.448 16.5056 131.584 16.0463H131.978C131.929 16.4015 131.902 16.7594 131.895 17.118C131.874 17.7575 131.978 18.3948 132.201 18.9927C132.767 19.7223 133.422 20.3753 134.149 20.9362C135.162 21.76 136.429 22.1866 137.722 22.1392C140.241 22.1392 142.342 20.3769 142.342 17.721C142.342 14.9714 140.034 12.9529 138.562 11.6656L136.842 10.1658C134.363 8.01923 133.013 6.81939 133.013 4.46034C133.013 2.44499 134.696 0.0390625 137.807 0.0390625C139.105 0.0390625 139.78 0.298402 142.214 1.24202C142.439 1.88923 142.542 2.57402 142.519 3.2605C142.528 3.95928 142.424 4.65477 142.214 5.3196H141.796C141.9 4.70877 141.97 4.09216 142.003 3.47297C142.003 3.298 140.577 0.726469 137.975 0.726469C136.207 0.726469 134.781 1.88569 134.781 3.56046C134.781 4.46034 134.992 5.78828 138.855 9.04722L140.528 10.4689Z" fill="white" fill-opacity="0.3"/>
</g>
<defs>
<clipPath id="clip0_342_2238">
<rect width="144.273" height="23" fill="white"/>
</clipPath>
</defs>
</svg>
