<svg width="234" height="32" viewBox="0 0 234 32" fill="none" xmlns="http://www.w3.org/2000/svg">
<g clip-path="url(#clip0_342_2307)">
<path d="M29.0522 26.119C28.3826 27.2357 27.5215 28.2198 26.5102 29.024C25.5954 29.7321 24.6073 30.3353 23.5636 30.8227C22.4981 31.2888 21.3773 31.6094 20.23 31.7761C18.8524 31.9449 17.4657 32.023 16.0783 32.0099C13.7027 32.0521 11.3438 31.596 9.14719 30.6698C7.22609 29.8662 5.49335 28.6554 4.0632 27.1173C2.76637 25.7163 1.73451 24.0818 1.01983 22.2966C0.362776 20.6763 0.0163856 18.942 -0.00048787 17.1881C-0.100035 14.3039 0.463323 11.436 1.64434 8.81486C2.623 6.73063 4.06604 4.91011 5.85755 3.49951C7.41908 2.28501 9.18346 1.37078 11.0647 0.801366C12.6292 0.319239 14.2511 0.0589869 15.8848 0.0278972C16.7172 0.0199166 17.5483 0.0982639 18.3652 0.261737C19.4691 0.525996 20.5584 0.850234 21.6285 1.23307C22.4113 1.4759 22.9567 1.63779 23.2645 1.70974C23.7068 1.80506 24.1584 1.84731 24.6103 1.83565C24.9524 1.83729 25.2939 1.80718 25.6306 1.74572C26.0066 1.65695 26.3723 1.5273 26.7213 1.35898C26.7573 2.27571 26.9141 3.18328 27.1875 4.05713C27.4716 5.10982 27.6281 6.19419 27.6537 7.28591C27.6583 8.1319 27.5578 8.97507 27.3546 9.79518C27.2757 9.78604 27.1986 9.76482 27.1259 9.73223C27.0255 9.7369 26.9256 9.71523 26.8356 9.66927L26.8884 9.55235C26.9966 9.1629 27.0557 8.76093 27.0643 8.35617C27.0183 7.42929 26.6682 6.5453 26.0704 5.8469C25.3323 4.89988 24.4395 4.09051 23.4317 3.45454C22.2981 2.72577 21.0809 2.14276 19.8078 1.71874C17.2378 0.788812 14.4253 0.843132 11.8915 1.87163C10.4241 2.44075 9.08391 3.3064 7.95096 4.41688C6.67314 5.66845 5.67412 7.1869 5.02194 8.86882C4.2445 10.8956 3.86781 13.0599 3.91367 15.2364C3.91313 17.1319 4.15863 19.0191 4.64372 20.8486C5.12092 22.6549 5.91357 24.3582 6.98342 25.8761C8.07797 27.4 9.51365 28.6336 11.1702 29.4737C13.0621 30.4122 15.146 30.8747 17.2482 30.8227C18.0683 30.8184 18.8876 30.7673 19.7022 30.6698C20.7562 30.5237 21.7934 30.2706 22.7984 29.9143C23.9972 29.5277 25.1305 28.9544 26.1584 28.2145C27.0714 27.6077 27.8431 26.8033 28.4189 25.8581L29.0522 26.119Z" fill="white" fill-opacity="0.3"/>
<path d="M35.1753 17.4197C35.6308 15.969 36.3368 14.6135 37.2599 13.4174C38.2673 12.1417 39.5458 11.1175 40.9982 10.4225C42.6972 9.62975 44.5493 9.23932 46.4164 9.28026C48.1915 9.24987 49.9568 9.55477 51.6236 10.1796C53.0205 10.6947 54.2947 11.507 55.3618 12.563C56.309 13.5092 57.0598 14.641 57.5696 15.8907C58.0568 17.0783 58.3079 18.3533 58.3084 19.6411C58.3008 21.0763 58.0784 22.5019 57.6487 23.8682C57.2024 25.3256 56.4956 26.6857 55.5641 27.8795C54.5557 29.1519 53.2774 30.173 51.8259 30.8654C50.1285 31.6518 48.2793 32.0361 46.4164 31.9896C44.6473 32.0172 42.8883 31.7124 41.2269 31.0903C39.8318 30.567 38.5586 29.7522 37.4886 28.6979C36.5292 27.7461 35.7691 26.6047 35.2545 25.3432C34.7722 24.1666 34.5212 22.9045 34.5156 21.6288C34.5265 20.1997 34.7489 18.7806 35.1753 17.4197ZM37.5942 23.7153C38.0706 25.091 38.7857 26.3675 39.7052 27.4837C40.6083 28.5783 41.726 29.4668 42.986 30.092C44.2462 30.7393 45.6395 31.0692 47.0497 31.0543C48.2255 31.1102 49.3994 30.9098 50.4936 30.4665C51.5879 30.0232 52.5775 29.3471 53.3968 28.483C54.2161 27.6189 54.8463 26.5866 55.2457 25.4545C55.6452 24.3225 55.8047 23.1165 55.7136 21.9166C55.7125 20.4719 55.4655 19.0385 54.9836 17.6805C54.5071 16.3048 53.792 15.0283 52.8726 13.9121C51.9789 12.814 50.8703 11.9195 49.6181 11.2859C48.3544 10.6395 46.9585 10.3096 45.5456 10.3235C44.3656 10.2597 43.1858 10.4542 42.0851 10.894C40.9845 11.3337 39.9883 12.0087 39.1632 12.8737C38.338 13.7386 37.703 14.7737 37.3004 15.9098C36.8979 17.0458 36.7372 18.2566 36.8289 19.4613C36.8394 20.9141 37.0984 22.3538 37.5942 23.7153Z" fill="white" fill-opacity="0.3"/>
<path d="M83.6317 16.8644C83.6317 16.5856 83.6757 16.073 83.6757 15.3085C83.5467 14.897 83.3504 14.5107 83.0951 14.1663C82.7526 13.6163 82.3704 13.0932 81.9517 12.6014C81.1904 11.8711 80.2929 11.3052 79.3129 10.9375C78.1615 10.4892 76.9387 10.2636 75.7066 10.272C74.4983 10.2338 73.2966 10.4696 72.188 10.9625C71.0793 11.4555 70.0912 12.1933 69.2945 13.123C67.5632 15.2446 66.6747 17.9539 66.8052 20.7138C66.811 21.9314 66.9827 23.1422 67.3154 24.3113C67.656 25.5339 68.2168 26.6808 68.969 27.693C69.7501 28.754 70.7579 29.6184 71.9156 30.2203C73.2525 30.8909 74.7282 31.2211 76.2168 31.1826C77.7422 31.1985 79.2601 30.9615 80.7115 30.4811C81.7596 30.1765 82.7499 29.693 83.6405 29.0511C84.2482 28.5137 84.7473 27.8598 85.1094 27.1264L85.514 27.4412C85.1553 28.1968 84.6933 28.8963 84.1418 29.5187C83.3119 30.2603 82.3462 30.8258 81.3008 31.1826C79.5292 31.7652 77.6718 32.0269 75.8122 31.9561C73.9505 31.9948 72.0972 31.6901 70.3412 31.0567C68.9183 30.5463 67.6236 29.7201 66.5502 28.6374C65.6005 27.6658 64.8656 26.4973 64.3952 25.2107C63.9367 23.938 63.7044 22.5917 63.7091 21.2354C63.7026 19.665 64.0016 18.1088 64.5887 16.6576C65.1668 15.2309 66.0023 13.9281 67.0515 12.8172C68.0997 11.7077 69.3522 10.8213 70.737 10.209C72.1616 9.59555 73.6948 9.28937 75.2404 9.30964C76.0777 9.2977 76.9134 9.38828 77.7297 9.57945C78.4421 9.75033 79.2338 9.97518 80.1221 10.245C80.7702 10.5216 81.455 10.6974 82.154 10.7666C82.5534 10.7766 82.9509 10.7064 83.3238 10.5598H83.7284C83.731 10.8613 83.7574 11.1621 83.8076 11.4592C83.879 11.8897 83.973 12.316 84.0891 12.7363C84.1604 12.974 84.2105 13.2178 84.2386 13.4648C84.2883 14.0629 84.3059 14.6634 84.2914 15.2635C84.3051 15.8076 84.2369 16.3506 84.0891 16.8734L83.6317 16.8644Z" fill="white" fill-opacity="0.3"/>
<path d="M90.9488 17.4195C91.397 15.9657 92.1037 14.6089 93.0334 13.4173C94.0365 12.1408 95.3123 11.1163 96.7628 10.4224C98.4621 9.63052 100.314 9.24012 102.181 9.28014C103.959 9.24967 105.727 9.55455 107.397 10.1795C108.791 10.6945 110.063 11.5069 111.126 12.5629C112.073 13.5111 112.827 14.6422 113.343 15.8906C113.826 17.0797 114.077 18.3536 114.082 19.641C114.075 21.077 113.85 22.5032 113.413 23.8681C112.967 25.3255 112.26 26.6856 111.329 27.8793C110.323 29.1507 109.048 30.1717 107.599 30.8653C105.9 31.6571 104.048 32.0475 102.181 32.0075C100.415 32.0352 98.6586 31.7303 97.0003 31.1081C95.6042 30.587 94.3306 29.772 93.2621 28.7158C92.297 27.7688 91.5361 26.6262 91.0279 25.3611C90.5416 24.1858 90.2904 22.9228 90.2891 21.6466C90.2972 20.2085 90.5197 18.7801 90.9488 17.4105V17.4195ZM93.3588 23.7062C93.8353 25.0819 94.5504 26.3584 95.4698 27.4746C96.3655 28.5706 97.4736 29.4648 98.7243 30.1008C99.9882 30.7454 101.384 31.0723 102.797 31.0542C103.94 31.0955 105.08 30.9028 106.149 30.4873C107.219 30.0719 108.196 29.442 109.024 28.6348C109.87 27.7522 110.526 26.6986 110.95 25.5417C111.374 24.3847 111.557 23.1499 111.487 21.9164C111.483 20.4713 111.233 19.0379 110.748 17.6804C110.272 16.3047 109.557 15.0282 108.637 13.9119C107.743 12.8139 106.635 11.9193 105.383 11.2858C104.123 10.6384 102.729 10.3085 101.319 10.3234C100.14 10.2634 98.9627 10.4611 97.8646 10.9031C96.7664 11.3452 95.7731 12.0216 94.9508 12.8871C94.1284 13.7526 93.496 14.7875 93.0956 15.9226C92.6952 17.0578 92.536 18.2671 92.6288 19.4701C92.6343 20.9144 92.8812 22.347 93.3588 23.7062Z" fill="white" fill-opacity="0.3"/>
<path d="M119.211 31.0569C119.547 31.1288 119.888 31.165 120.231 31.1648C120.462 31.1616 120.692 31.1344 120.917 31.0839C121.118 31.0504 121.313 30.9899 121.498 30.904C121.758 30.6584 121.952 30.3487 122.061 30.0046C122.217 29.419 122.285 28.8125 122.263 28.2058V12.1339C122.272 11.6908 122.166 11.2531 121.955 10.8658C121.889 10.7174 121.794 10.5843 121.676 10.4746C121.558 10.3648 121.42 10.2807 121.269 10.2272C120.978 10.1842 120.684 10.1661 120.39 10.1732C120.186 10.1763 119.983 10.1944 119.783 10.2272C119.628 10.2389 119.472 10.2389 119.317 10.2272V9.68759C119.688 9.62028 120.065 9.58716 120.442 9.58865C120.847 9.58865 121.401 9.58865 122.114 9.68759C122.772 9.78326 123.436 9.83732 124.101 9.84948C124.436 9.84948 124.981 9.84947 125.623 9.75054C127.224 9.64262 128.763 9.58865 130.25 9.58865C132.275 9.52332 134.287 9.94215 136.125 10.8118C137.548 11.5079 138.787 12.5407 139.74 13.8247C141.188 15.8122 141.996 18.2099 142.054 20.687C142.053 22.3279 141.697 23.9482 141.011 25.4317C140.325 26.9152 139.326 28.225 138.087 29.2671C137.118 30.1213 135.986 30.7585 134.762 31.1378C133.478 31.4944 132.152 31.6669 130.821 31.6505C130.311 31.6505 128.904 31.6505 126.599 31.5515L123.961 31.4976C123.621 31.4976 122.873 31.5336 121.718 31.6055C120.97 31.6055 120.548 31.6505 120.451 31.6505C120.024 31.6606 119.597 31.6274 119.176 31.5515L119.211 31.0569ZM124.858 28.7725C124.825 29.0824 124.879 29.3954 125.013 29.6754C125.147 29.9554 125.355 30.1911 125.614 30.3554C126.125 30.6522 127.426 30.7961 129.537 30.7961C130.47 30.7972 131.402 30.728 132.326 30.5892C133.383 30.4127 134.403 30.0539 135.343 29.5279C136.49 28.878 137.44 27.9162 138.087 26.7488C138.916 25.1876 139.312 23.424 139.23 21.6494C139.225 20.4371 139.08 19.2297 138.799 18.0518C138.5 16.7716 137.985 15.5544 137.278 14.4543C136.505 13.2735 135.456 12.309 134.225 11.6482C132.754 10.8826 131.118 10.5054 129.467 10.551C128.288 10.551 127.391 10.551 126.775 10.551C126.331 10.5499 125.889 10.6012 125.456 10.7039C125.249 10.7454 125.066 10.8681 124.946 11.0457C124.868 11.2798 124.835 11.5272 124.849 11.7742L124.858 28.7725Z" fill="white" fill-opacity="0.3"/>
<path d="M151.341 12.5461C151.391 12.1433 151.343 11.7343 151.202 11.3548C151.061 10.9753 150.831 10.6371 150.532 10.3696C150.298 10.2533 150.044 10.1831 149.784 10.1627C149.507 10.1271 149.228 10.1091 148.949 10.1088C148.728 10.1046 148.507 10.1227 148.289 10.1627V9.68605C148.505 9.62969 148.726 9.59653 148.949 9.58712C149.089 9.58712 149.494 9.58712 150.171 9.68605C151.121 9.79398 151.816 9.84794 152.256 9.84794L154.895 9.68605H155.959C157.079 9.6141 157.756 9.57812 157.991 9.57812C158.612 9.57894 159.232 9.62402 159.847 9.71303C160.55 9.8164 161.235 10.0255 161.879 10.3336C162.628 10.6776 163.264 11.2369 163.708 11.9435C164.237 12.8261 164.494 13.8506 164.447 14.8845C164.467 15.5942 164.325 16.299 164.034 16.9435C163.742 17.5879 163.309 18.1546 162.767 18.5989C161.419 19.6432 159.787 20.234 158.096 20.2898V20.3887C158.287 20.4711 158.467 20.5768 158.633 20.7035C158.798 20.8778 158.942 21.0709 159.064 21.2791L163.735 28.5551C164.254 29.4302 164.957 30.1766 165.793 30.7406C166.447 31.1415 167.194 31.3558 167.957 31.3612C168.336 31.3837 168.712 31.2726 169.021 31.0464C169.03 31.1203 169.047 31.1928 169.074 31.2622C169.07 31.3494 169.089 31.4359 169.127 31.514C168.785 31.6493 168.427 31.7371 168.062 31.7749C167.456 31.8549 166.844 31.891 166.233 31.8828C165.325 31.8983 164.424 31.7111 163.594 31.3342C162.547 30.7048 161.687 29.7972 161.105 28.708L156.83 21.8007C156.632 21.5046 156.411 21.2249 156.17 20.9643C155.979 20.7072 155.736 20.4954 155.458 20.3437C155.194 20.264 154.923 20.2098 154.648 20.1818C154.371 20.1343 154.098 20.0652 153.83 19.975V27.3139C153.793 28.3222 153.897 29.3307 154.138 30.3089C154.243 30.6059 154.44 30.8597 154.699 31.0318C154.957 31.2039 155.264 31.2848 155.572 31.2622H156.082H156.592V31.7749C156.366 31.8251 156.137 31.8612 155.906 31.8828H155.572L154.965 31.8288L154.657 31.7749C154.036 31.6904 153.41 31.6393 152.784 31.622C152.3 31.622 151.693 31.622 150.945 31.7209L150.594 31.7749C150.224 31.7749 149.951 31.8288 149.784 31.8288C149.309 31.8381 148.833 31.8201 148.359 31.7749V31.2622C148.696 31.2808 149.034 31.2808 149.371 31.2622C149.787 31.2645 150.2 31.1946 150.594 31.0554C150.868 30.7777 151.075 30.4392 151.2 30.066C151.288 29.5888 151.323 29.1032 151.306 28.618L151.341 12.5461ZM153.813 19.0486H153.918C154.325 19.1928 154.739 19.3129 155.159 19.4084C155.588 19.4897 156.024 19.5259 156.46 19.5163C157.819 19.58 159.159 19.178 160.269 18.3741C160.761 17.9838 161.153 17.4768 161.41 16.897C161.668 16.3172 161.783 15.682 161.747 15.0464C161.795 14.1442 161.554 13.2507 161.061 12.5011C160.63 11.8938 160.038 11.4255 159.354 11.152C158.706 10.8775 158.021 10.7017 157.322 10.6304C156.58 10.5553 155.834 10.5193 155.088 10.5225C154.78 10.5163 154.475 10.5972 154.209 10.7563C154.071 10.8551 153.963 10.9925 153.899 11.1519C153.835 11.3113 153.818 11.4862 153.848 11.6557L153.813 19.0486Z" fill="white" fill-opacity="0.3"/>
<path d="M173.454 31.057C173.825 31.1003 174.198 31.1184 174.571 31.111C174.912 31.1168 175.253 31.0988 175.592 31.057C175.921 30.7419 176.172 30.3501 176.322 29.9148C176.479 29.1981 176.541 28.463 176.506 27.7293V13.2763C176.536 12.6309 176.467 11.9847 176.304 11.3606C176.115 10.9068 175.812 10.5126 175.425 10.2184C175.039 10.1764 174.651 10.1584 174.264 10.1644C173.896 10.1615 173.529 10.1826 173.164 10.2274V9.75968C173.7 9.64888 174.245 9.59463 174.791 9.59779L176.366 9.69672C177.113 9.77766 177.571 9.80464 177.738 9.80464C177.905 9.80464 178.503 9.80465 179.418 9.69672L180.79 9.59779C180.992 9.59779 181.353 9.59779 181.863 9.69672C181.948 9.70462 182.031 9.72585 182.109 9.75968V10.2274C181.738 10.1878 181.365 10.1698 180.992 10.1734C179.708 10.1734 179.066 10.9019 179.066 12.3589V28.7276C179.053 29.1929 179.146 29.6549 179.339 30.0767C179.515 30.4416 179.746 30.7755 180.025 31.066H180.201C180.491 31.1246 180.785 31.1606 181.08 31.174C181.437 31.1626 181.793 31.1265 182.145 31.066V31.5877C182.034 31.6413 181.915 31.6748 181.793 31.6866H181.283C181.116 31.6866 180.456 31.6866 179.304 31.5877C178.424 31.5157 177.826 31.4797 177.624 31.4797L175.944 31.5877C175.064 31.6596 174.589 31.6866 174.422 31.6866C174.097 31.6876 173.773 31.6544 173.454 31.5877V31.057Z" fill="white" fill-opacity="0.3"/>
<path d="M200.097 30.613C200.881 30.4217 201.645 30.1505 202.376 29.8036C202.895 29.5697 203.334 29.3449 203.73 29.129C204.024 28.9931 204.29 28.8007 204.513 28.5624C205.1 27.9457 205.445 27.1292 205.48 26.269H205.938C205.848 26.9563 205.677 27.6298 205.428 28.2746C205.29 28.6961 205.085 29.0912 204.821 29.4438C204.654 29.6507 204.399 30.0104 204.056 30.5141C203.713 31.0177 203.449 31.4135 203.246 31.7822L197.555 31.6743C194.917 31.6113 193.157 31.5754 192.278 31.5754C191.768 31.5754 190.923 31.6293 189.736 31.7283L188.513 31.7822H188.258L188.012 31.7283V31.2156H188.469H188.927H189.454C189.606 31.2092 189.756 31.1726 189.894 31.1077C190.127 31.0039 190.338 30.8534 190.513 30.6649C190.688 30.4764 190.825 30.2538 190.915 30.0104C191.059 29.3708 191.121 28.7148 191.099 28.0588V13.2729C191.122 12.6663 191.054 12.0597 190.897 11.4742C190.696 10.9683 190.397 10.5094 190.017 10.1251C189.7 10.082 189.379 10.064 189.059 10.0711C188.777 10.0711 188.425 10.0711 187.986 10.1251H187.783V9.65742C187.87 9.6579 187.957 9.64268 188.038 9.61246C188.457 9.5453 188.881 9.50923 189.305 9.50453C189.516 9.50453 189.947 9.50453 190.624 9.61246C191.132 9.69037 191.642 9.74141 192.155 9.76535C192.287 9.76535 192.647 9.76535 193.219 9.65742C194.336 9.55849 195.137 9.50453 195.612 9.50453C195.906 9.50022 196.2 9.51825 196.491 9.55849V10.0262L196.034 9.97221H195.524C195.24 9.95255 194.955 10.0037 194.695 10.1211C194.434 10.2386 194.206 10.419 194.028 10.6467C193.692 11.1317 193.522 11.7166 193.545 12.3106V28.9492C193.528 29.2762 193.619 29.5996 193.802 29.8683C193.985 30.137 194.25 30.3357 194.556 30.4331C195.408 30.7136 196.3 30.8444 197.195 30.8199C198.17 30.8413 199.144 30.7447 200.097 30.5321" fill="white" fill-opacity="0.3"/>
<path d="M210.566 17.4197C211.014 15.9658 211.721 14.6091 212.651 13.4174C213.658 12.1417 214.936 11.1175 216.389 10.4225C218.088 9.62975 219.94 9.23932 221.807 9.28026C223.582 9.25069 225.347 9.55557 227.014 10.1796C228.41 10.6964 229.684 11.5085 230.752 12.563C231.697 13.5116 232.447 14.6428 232.96 15.8907C233.447 17.0783 233.699 18.3533 233.699 19.6411C233.692 21.0763 233.469 22.5019 233.039 23.8682C232.593 25.3256 231.886 26.6857 230.955 27.8795C229.946 29.1519 228.668 30.173 227.217 30.8654C225.521 31.658 223.671 32.0485 221.807 32.0076C220.038 32.0352 218.279 31.7303 216.618 31.1082C215.222 30.585 213.949 29.7702 212.879 28.7159C211.92 27.7641 211.16 26.6227 210.645 25.3612C210.163 24.1846 209.912 22.9225 209.906 21.6468C209.914 20.2087 210.137 18.7802 210.566 17.4107V17.4197ZM212.985 23.7063C213.461 25.082 214.176 26.3585 215.096 27.4747C215.99 28.5728 217.098 29.4674 218.35 30.1009C219.614 30.7465 221.01 31.0734 222.423 31.0543C223.6 31.1128 224.776 30.9144 225.872 30.4723C226.969 30.0301 227.96 29.3544 228.782 28.49C229.603 27.6257 230.235 26.5924 230.635 25.459C231.036 24.3256 231.196 23.1181 231.104 21.9166C231.103 20.4719 230.856 19.0385 230.374 17.6805C229.898 16.3048 229.183 15.0283 228.263 13.9121C227.366 12.8182 226.258 11.9243 225.009 11.2859C223.745 10.6395 222.349 10.3096 220.936 10.3235C219.758 10.2636 218.58 10.4612 217.482 10.9033C216.384 11.3453 215.39 12.0217 214.568 12.8872C213.746 13.7527 213.113 14.7876 212.713 15.9227C212.312 17.0579 212.153 18.2673 212.246 19.4703C212.25 20.9154 212.5 22.3488 212.985 23.7063Z" fill="white" fill-opacity="0.3"/>
</g>
<defs>
<clipPath id="clip0_342_2307">
<rect width="233.697" height="32" fill="white"/>
</clipPath>
</defs>
</svg>
