<svg width="154" height="30" viewBox="0 0 154 30" fill="none" xmlns="http://www.w3.org/2000/svg">
<g clip-path="url(#clip0_342_2317)">
<path d="M41.2003 29.1909H25.2246V0.8125H41.2003V5.80027H30.9924V12.2731H41.2003V17.1842H30.9924V24.2012H41.2003V29.1909Z" fill="white" fill-opacity="0.3"/>
<path d="M65.5841 29.1909H50.4492V0.8125H56.2635V24.2012H65.5841V29.1909Z" fill="white" fill-opacity="0.3"/>
<path d="M79.0371 0.8125H73.9922V29.1909H79.0371V0.8125Z" fill="white" fill-opacity="0.3"/>
<path d="M95.6748 29.1909H89.9688V0.8125H95.4715L107.828 18.9394V0.8125H113.512V29.1909H108.112L95.6748 10.5179V29.1909Z" fill="white" fill-opacity="0.3"/>
<path d="M122.762 14.9402C122.762 10.7133 124.262 7.16689 127.262 4.30092C130.262 1.43495 133.965 0.00131099 138.37 1.24117e-05C140.365 -0.00249525 142.34 0.375007 144.179 1.1103C146.043 1.85493 147.737 2.9387 149.166 4.30092C150.65 5.68066 151.832 7.32727 152.643 9.14528C153.452 10.9383 153.87 12.8696 153.87 14.8214C153.88 16.7944 153.496 18.7512 152.737 20.5871C151.995 22.3913 150.89 24.0402 149.485 25.4412C148.047 26.8823 146.316 28.0296 144.397 28.8132C142.479 29.5968 140.413 30.0003 138.325 29.9992C136.2 30.0199 134.093 29.6289 132.132 28.85C130.203 28.0653 128.469 26.9041 127.041 25.4412C125.664 24.0494 124.581 22.4187 123.85 20.6377C123.116 18.8201 122.747 16.8876 122.76 14.9402H122.762ZM138.407 5.84558C135.748 5.84558 133.504 6.71758 131.674 8.46158C129.844 10.2056 128.93 12.3521 128.933 14.9012C128.933 17.3984 129.875 19.5716 131.758 21.4208C133.641 23.27 135.83 24.1946 138.325 24.1946C139.568 24.2151 140.801 23.9846 141.943 23.5182C143.086 23.0519 144.111 22.3602 144.952 21.489C146.755 19.6852 147.656 17.4367 147.654 14.7435C147.672 13.5752 147.44 12.4158 146.972 11.3358C146.504 10.2558 145.81 9.27783 144.932 8.46158C144.091 7.62194 143.078 6.9563 141.956 6.50621C140.833 6.05611 139.625 5.83122 138.407 5.84558Z" fill="white" fill-opacity="0.3"/>
<path d="M0 29.1909V0.8125H15.9757V5.80027H5.74643V12.2731H15.9757V17.1842H5.74643V29.1909H0Z" fill="white" fill-opacity="0.3"/>
</g>
<defs>
<clipPath id="clip0_342_2317">
<rect width="153.871" height="30" fill="white"/>
</clipPath>
</defs>
</svg>
