<svg width="1605" height="235" viewBox="0 0 1605 235" fill="none" xmlns="http://www.w3.org/2000/svg">
<path d="M151.25 187.75L144.75 184.25C135 206 120.75 221.75 90.25 221.75C57.5 221.75 30.25 191 30.25 145.75C30.25 89 55 64.25 80.5 64.25C112.75 64.25 129.75 90.5 138.75 119.5H144.75L143.75 57.75H133.5L126 70.5C118.5 63.5 102 57 88.25 57C38 57 0.25 96.25 0.25 147.75C0.25 200.75 33.75 234.75 83 234.75C121 234.75 141 211 151.25 187.75ZM368.58 144.5C368.58 120 359.58 97 344.83 82.25C326.08 64 304.83 56.25 281.33 56.25C257.08 56.25 235.08 65 218.08 82.25C201.83 98.5 193.83 120.25 193.83 147.5C193.83 174.75 204.08 196 220.58 211.5C236.83 226.75 257.58 235 280.33 235C306.08 235 326.33 226 342.58 211C360.83 193.25 368.58 170.5 368.58 144.5ZM338.33 145.25C338.33 191.75 320.08 227.25 281.33 227.25C242.33 227.25 224.08 190.75 224.08 146.25C224.08 94.5 245.83 64 281.33 64C322.83 64 338.33 104.5 338.33 145.25ZM605.928 65.75V60.25H531.428V65.75C537.178 66 552.178 70.25 556.928 73.25C562.428 76.75 565.428 89 565.428 107V191.75L460.928 60.25H409.428V65.75C416.178 66 430.178 72 436.178 76.75C441.178 80.75 444.178 89.25 444.178 96.5V184.5C444.178 204 441.928 214.5 435.928 218.75C433.178 220.75 417.178 225.25 412.678 225.5V231H487.678V225.5C483.178 225.25 466.178 221 461.928 217.5C456.428 213 453.428 202.25 453.428 183.25V91.75L565.428 232.75H574.678V105.5C574.678 89 576.178 76.25 582.928 72C586.928 69.5 601.428 66 605.928 65.75ZM795.461 183H789.211C786.711 190.5 776.461 210.25 768.961 218C762.961 224.25 745.461 223.75 727.961 223.75C702.711 223.75 698.211 221.5 698.211 201V146H719.961C733.461 146 737.711 150.25 740.961 153.75C743.961 157 748.211 170.75 748.711 178H755.461V108.25H748.711C747.961 114.75 744.711 127.5 740.961 131.25C737.961 134.25 733.961 139 719.961 139H698.211V67H727.711C735.711 67 742.461 67.25 748.461 68C759.211 69.5 772.461 88 775.211 99H781.961V60.25H644.211V65.75C648.711 66 659.211 68.25 663.961 70.25C670.211 72.75 671.711 77 671.711 82.5V210.25C671.711 216 669.961 220.25 663.961 222.5C660.211 224 648.711 225.25 644.211 225.5V231H792.211L795.461 183ZM1022.96 231V225.5C1018.46 225.25 1006.96 224.5 1004.21 222.5C995.965 217 990.965 210.75 986.715 205.25C975.715 191 958.715 167.25 936.465 136.75C951.715 117.5 963.965 101.75 977.215 86C981.715 80.5 987.965 73.5 997.715 69.25C1002.46 67.25 1010.96 66 1015.46 65.75V60.25H944.465V65.75C954.715 66.25 968.465 67.25 968.465 76.75C968.465 83.25 952.715 103.75 930.715 129.75C914.215 107.5 896.465 84 896.465 76.75C896.465 67.25 911.715 66.25 921.965 65.75V60.25H830.715V65.75C835.215 66 845.965 67.5 849.465 69.25C858.715 74 862.965 80.5 866.965 86C881.215 104.5 895.465 124.5 913.215 149.25C895.465 171.5 883.465 187.25 868.465 205.25C863.965 210.75 857.715 217.75 847.965 222C843.215 224 834.715 225.25 830.215 225.5V231H901.215V225.5C890.965 225 877.215 224 877.215 214.5C877.215 207.5 900.465 179.5 919.215 156.5C934.965 178 957.465 206.5 957.465 214.5C957.465 224 941.965 225 931.715 225.5V231H1022.96ZM1141.64 231V225.5C1137.14 225.25 1126.39 223 1123.39 221.75C1117.64 219.25 1115.64 215.25 1115.64 209.75V81C1115.64 75.5 1117.14 71 1123.39 69C1127.89 67.5 1137.14 66 1141.64 65.75V60.25H1063.14V65.75C1067.64 66 1076.89 68.5 1081.39 70.25C1087.64 72.75 1089.14 76.75 1089.14 82.25V211C1089.14 216.5 1087.39 220.75 1081.39 223C1078.14 224.25 1067.64 225.25 1063.14 225.5V231H1141.64ZM1367.46 144.5C1367.46 120 1358.46 97 1343.71 82.25C1324.96 64 1303.71 56.25 1280.21 56.25C1255.96 56.25 1233.96 65 1216.96 82.25C1200.71 98.5 1192.71 120.25 1192.71 147.5C1192.71 174.75 1202.96 196 1219.46 211.5C1235.71 226.75 1256.46 235 1279.21 235C1304.96 235 1325.21 226 1341.46 211C1359.71 193.25 1367.46 170.5 1367.46 144.5ZM1337.21 145.25C1337.21 191.75 1318.96 227.25 1280.21 227.25C1241.21 227.25 1222.96 190.75 1222.96 146.25C1222.96 94.5 1244.71 64 1280.21 64C1321.71 64 1337.21 104.5 1337.21 145.25ZM1311.96 9.99998C1311.96 5.24999 1307.71 0.499987 1301.96 0.499987C1295.71 0.499987 1291.46 2.99998 1286.71 11.25C1281.21 20.5 1275.21 30.75 1262.46 49.25L1265.96 52.25C1285.96 36.25 1295.46 29.75 1302.96 23.75C1308.96 19 1311.96 16.25 1311.96 9.99998ZM1604.8 65.75V60.25H1530.3V65.75C1536.05 66 1551.05 70.25 1555.8 73.25C1561.3 76.75 1564.3 89 1564.3 107V191.75L1459.8 60.25H1408.3V65.75C1415.05 66 1429.05 72 1435.05 76.75C1440.05 80.75 1443.05 89.25 1443.05 96.5V184.5C1443.05 204 1440.8 214.5 1434.8 218.75C1432.05 220.75 1416.05 225.25 1411.55 225.5V231H1486.55V225.5C1482.05 225.25 1465.05 221 1460.8 217.5C1455.3 213 1452.3 202.25 1452.3 183.25V91.75L1564.3 232.75H1573.55V105.5C1573.55 89 1575.05 76.25 1581.8 72C1585.8 69.5 1600.3 66 1604.8 65.75Z" fill="black" fill-opacity="0.5"/>
</svg>
