<svg width="65" height="462" viewBox="0 0 65 462" fill="none" xmlns="http://www.w3.org/2000/svg">
<path d="M45.72 407.13V409.38C48.42 410.28 55.53 413.97 58.32 416.67C60.57 418.83 60.39 425.13 60.39 431.43C60.39 440.52 59.58 442.14 52.2 442.14H32.4V434.31C32.4 429.45 33.93 427.92 35.19 426.75C36.36 425.67 41.31 424.14 43.92 423.96V421.53H18.81L18.81 423.96C21.15 424.23 25.74 425.4 27.09 426.75C28.17 427.83 29.88 429.27 29.88 434.31V442.14H3.96V431.52C3.96 428.64 4.05 426.21 4.32 424.05C4.86 420.18 11.52 415.41 15.48 414.42V411.99H1.53L1.53 461.58H3.51C3.6 459.96 4.41 456.18 5.13 454.47C6.03 452.22 7.55999 451.68 9.54 451.68H55.53C57.6 451.68 59.13 452.31 59.94 454.47C60.48 455.82 60.93 459.96 61.02 461.58H63V408.3L45.72 407.13ZM45.45 348.359C35.91 348.359 32.31 353.309 28.8 361.049C26.82 365.099 26.01 368.879 23.58 373.289C20.88 378.239 17.73 381.209 12.24 381.209C5.22 381.209 3.06 375.269 3.06 372.659C3.06 360.599 10.89 356.549 21.06 352.949V350.969L0.629998 351.419V354.479L4.86 357.539C2.43 360.689 0.359996 365.819 0.359996 370.499C0.359996 380.759 7.47 388.499 17.01 388.499C25.02 388.499 29.97 384.809 33.03 377.879C35.28 372.839 36.27 370.139 38.34 365.009C40.5 359.609 44.64 356.189 50.13 356.189C56.88 356.189 61.47 359.609 61.47 367.619C61.47 378.779 52.38 384.539 42.84 388.229V390.299L63.9 389.669V386.609L59.67 383.459C61.83 380.759 64.17 375.989 64.17 368.699C64.17 357.089 56.43 348.359 45.45 348.359ZM45.72 276.37V278.62C48.42 279.52 55.53 283.21 58.32 285.91C60.57 288.07 60.39 294.37 60.39 300.67C60.39 309.76 59.58 311.38 52.2 311.38H32.4V303.55C32.4 298.69 33.93 297.16 35.19 295.99C36.36 294.91 41.31 293.38 43.92 293.2V290.77H18.81V293.2C21.15 293.47 25.74 294.64 27.09 295.99C28.17 297.07 29.88 298.51 29.88 303.55V311.38H3.96V300.76C3.96 297.88 4.05 295.45 4.32 293.29C4.86 289.42 11.52 284.65 15.48 283.66V281.23H1.53L1.53 330.82H3.51C3.6 329.2 4.41 325.42 5.13 323.71C6.03 321.46 7.55999 320.92 9.54 320.92H55.53C57.6 320.92 59.13 321.55 59.94 323.71C60.48 325.06 60.93 329.2 61.02 330.82H63V277.54L45.72 276.37ZM3.51 192.308H1.53L1.53 219.128H3.51C3.6 217.058 5.13 211.658 6.21 209.948C7.47 207.968 11.88 206.888 18.36 206.888H48.87L1.53 244.508V263.048H3.51C3.6 260.618 5.76 255.578 7.47 253.418C8.91 251.618 11.97 250.538 14.58 250.538H46.26C53.28 250.538 57.06 251.348 58.59 253.508C59.31 254.498 60.93 260.258 61.02 261.878H63V234.878H61.02C60.93 236.498 59.4 242.618 58.14 244.148C56.52 246.128 52.65 247.208 45.81 247.208H12.87L63.63 206.888V203.558H17.82C11.88 203.558 7.29 203.018 5.76 200.588C4.86 199.148 3.6 193.928 3.51 192.308ZM47.43 124.256L46.17 126.596C54 130.106 59.67 135.236 59.67 146.216C59.67 158.006 48.6 167.816 32.31 167.816C11.88 167.816 2.97 158.906 2.97 149.726C2.97 138.116 12.42 131.996 22.86 128.756V126.596L0.629998 126.956V130.646L5.22 133.346C2.7 136.046 0.359996 141.986 0.359996 146.936C0.359996 165.026 14.49 178.616 33.03 178.616C52.11 178.616 64.35 166.556 64.35 148.826C64.35 135.146 55.8 127.946 47.43 124.256ZM63 79.9477H61.02C60.93 81.5677 60.12 85.4377 59.67 86.5177C58.77 88.5877 57.33 89.3077 55.35 89.3077H9C7.02 89.3077 5.4 88.7677 4.68 86.5177C4.14 84.8977 3.6 81.5677 3.51 79.9477H1.53V108.208H3.51C3.6 106.588 4.5 103.258 5.13 101.638C6.03 99.3877 7.47 98.8477 9.45 98.8477H55.8C57.78 98.8477 59.31 99.4777 60.12 101.638C60.57 102.808 60.93 106.588 61.02 108.208H63V79.9477ZM63 0.635165H61.02C60.93 2.34516 60.3 4.95516 59.4 6.57516C58.14 8.73517 56.79 9.54516 54.99 10.2652C46.62 13.5952 23.76 22.4152 0.539999 31.5952V35.0152C17.73 41.8552 36.81 49.3252 52.29 55.7152C55.44 57.0652 58.05 58.6852 59.31 60.8452C60.21 62.4652 60.93 65.4352 61.02 67.1452H63L63 42.3952H61.02C60.84 45.5452 59.4 52.5652 56.16 52.5652C54.9 52.5652 53.1 52.2052 51.12 51.5752C48.42 50.7652 45.36 49.6852 41.22 47.9752V25.8352L55.44 20.2552C56.16 19.9852 56.88 19.8952 57.51 19.8952C59.76 19.8952 60.84 25.8352 61.02 28.9852H63V0.635165ZM38.25 27.0052V46.8052L13.14 36.9952L38.25 27.0052Z" fill="#1C1C1C"/>
</svg>
