<svg width="287" height="59" viewBox="0 0 287 59" fill="none" xmlns="http://www.w3.org/2000/svg">
<g clip-path="url(#clip0_3137:2662)">
<path fill-rule="evenodd" clip-rule="evenodd" d="M29.6196 0C29.2753 0 29.1054 0.119484 29.1054 0.517763C29.1054 1.61082 32.0517 0.632822 32.0517 2.81893C32.0517 4.58906 29.4467 11.0795 24.2367 22.2903C22.1578 26.7776 21.286 29.0213 21.058 29.0213C20.7093 29.0213 19.7793 26.2023 17.1192 20.4494C12.1387 9.71358 9.42046 3.79693 9.42046 2.47375C9.42046 0.703626 12.711 1.95157 12.711 0.575292C12.711 0.345175 12.6037 0.132759 12.483 0.132759C11.4457 0.132759 9.29974 0.420406 6.17018 0.420406C3.93477 0.420406 2.0615 0.190289 0.680021 0.190289H0.322354C-0.124727 0.190289 -0.3125 0.243393 -0.3125 0.703626C-0.3125 1.50461 0.380475 0.991272 1.89608 1.62409C2.99143 2.08875 3.97501 3.69514 5.24919 6.1689C9.35786 14.2097 13.9315 23.8702 17.9284 33.4112C18.684 35.2521 18.6214 36 19.5424 36C20.593 36 20.5349 35.4822 21.058 33.9289C22.2651 30.2515 25.797 22.8347 31.0145 11.2226C33.3885 5.93436 34.8862 2.71715 36.6253 1.73915C38.0739 0.933742 38.892 1.56656 38.892 0.588568C38.892 0.190289 38.7758 0.146036 38.4181 0.146036C36.4599 0.146036 34.8415 0.318623 33.5002 0.318623C32.0517 0.318623 30.7775 0.0265517 29.6196 0.0265517" fill="white"/>
<path fill-rule="evenodd" clip-rule="evenodd" d="M54.2943 10C52.8284 10 50.779 10.3353 48.2862 10.3353C46.7316 10.3353 45.2517 10.1677 43.8279 10.1677H43.6085C43.2584 10.1677 43.1417 10.2118 43.1417 10.6089C43.1417 11.3236 44.9576 10.6927 46.2134 11.5398C47.3291 12.2987 47.3291 15.9518 47.3291 22.9846V26.5142C47.3291 30.485 47.2731 32.9336 46.6943 34.0146C46.2928 34.6852 44.9997 35.0691 43.4918 35.0691C43.025 35.0691 42.9129 35.2411 42.9129 35.5764C42.9129 35.9118 43.0483 35.9559 43.3564 35.9559C44.7849 35.9559 46.3862 35.7441 48.2581 35.7441C50.7977 35.7441 52.7537 36 54.1776 36H54.4063C54.7658 36 54.8732 35.9559 54.8732 35.6117C54.8732 34.9852 54.2523 35.3647 52.6931 35.0249C51.2225 34.7338 51.0078 33.3793 51.0078 29.9158C51.0078 28.6893 51.0498 27.2157 51.0498 25.3979C51.0498 16.6974 51.1852 12.2192 52.1142 11.4648C53.2299 10.5868 54.9759 11.0501 54.9759 10.3C54.9759 10.0044 54.7564 10.0044 54.3036 10.0044" fill="white"/>
<path fill-rule="evenodd" clip-rule="evenodd" d="M80.2823 1C79.9902 2.23415 79.3969 2.83346 78.33 2.83346C77.9736 2.82902 77.6198 2.77066 77.2808 2.66032L74.961 1.9811C74.4235 1.81317 73.8638 1.72785 73.3008 1.72806C71.4901 1.72806 70.0602 3.21525 69.5467 5.93214H70.5605C70.9412 4.5293 71.4901 4.06317 72.6368 4.06317C73.0354 4.08276 73.4298 4.15439 73.8099 4.27626L76.1386 4.95548C76.5807 5.08422 77.0375 5.15582 77.4977 5.16857C79.3881 5.16857 80.7029 3.72133 81.2519 1H80.2823ZM65.2878 14.8508C67.4748 17.0261 73.0573 21.7407 81.5086 29.816C85.9889 34.1088 86.1527 35.8491 86.8654 35.8491C87.2506 35.8491 87.379 35.8047 87.379 35.4051V34.9612C87.379 33.2609 87.2506 30.6683 87.2506 27.139V22.0337C87.2506 15.1527 87.3303 11.5391 88.2688 10.7799C89.0258 10.1806 90.1592 10.5668 90.1592 10.0075C90.1592 9.56355 89.9555 9.56355 89.5704 9.56355C89.1852 9.56355 88.1803 9.64789 86.6131 9.64789C84.8909 9.64789 83.5717 9.30606 82.7704 9.30606C82.5667 9.30606 82.4383 9.39485 82.4383 9.75C82.4383 10.3493 83.4477 9.88318 84.5058 10.5668C85.9889 11.5391 86.0641 15.0684 86.0641 22.2513C86.0641 23.5209 86.0641 25.6074 85.9889 28.5419L85.6435 28.7549C76.5193 20.8484 69.8831 14.7709 65.8766 9.71448C64.7787 9.79883 63.756 9.88318 62.9149 9.88318C61.6886 9.88318 60.843 9.75 60.3781 9.75C60.1302 9.75 60.0018 9.84323 60.0018 10.1939C60.0018 10.7933 61.6 10.2827 62.6979 11.5257C63.7959 12.7688 63.8446 17.2614 63.8446 25.5053C63.8446 27.3787 63.7206 29.2477 63.7206 31.0723C63.7206 31.9202 63.756 32.6039 63.756 33.11C63.756 34.2598 63.5878 34.6859 62.7466 34.939C61.4761 35.3208 60.936 35.1521 60.936 35.6626C60.936 36 61.0998 36 61.3477 36C62.1136 36 63.7206 35.7026 66.0005 35.7026C67.3907 35.7026 68.5284 35.9201 69.4625 35.9201C69.675 35.9201 69.7547 35.9201 69.7547 35.6182C69.7547 34.6416 67.0586 35.4051 65.8766 34.2864C65.0177 33.5228 64.9912 29.2744 64.9912 21.0304V15.024L65.2878 14.8508Z" fill="white"/>
<path fill-rule="evenodd" clip-rule="evenodd" d="M113.464 32.7082C113.594 33.0545 113.667 33.42 113.682 33.7904C113.682 35.2212 111.645 34.6597 111.645 35.4793C111.645 35.7419 111.681 35.7827 111.899 35.7827C112.028 35.7827 112.148 35.7419 112.343 35.7419C113.064 35.7419 114.345 35.4385 116.164 35.4385C118.458 35.4385 119.721 35.5653 119.984 35.5653C120.246 35.5653 120.317 35.5246 120.317 35.1804C120.317 34.8363 119.766 34.9631 119.05 34.6597C117.907 34.1798 117.395 33.0116 116.55 30.9333C111.899 19.4867 109.39 12.8985 108.888 11.2096C108.341 9.30337 108.545 9 107.701 9C107.109 9 107.109 9.30337 106.851 10.209C106.593 11.1145 105.108 15.2848 102.355 22.4796C99.4688 29.9326 98.0724 34.0983 96.4936 34.9178C95.7376 35.3072 95.1861 35.1352 95.1861 35.6106C95.1861 35.8279 95.3062 35.8732 95.5597 35.8732C95.9466 35.8732 96.9205 35.6559 98.5704 35.6559C100.443 35.6559 101.888 36 102.906 36C103.164 36 103.329 35.8732 103.329 35.6559C103.329 34.8318 100.02 35.3525 100.02 33.3602C100.039 32.8973 100.125 32.4396 100.274 32.0018L102.008 27.1524C102.226 26.5457 102.395 26.5004 102.898 26.5004H110.627C111 26.5004 111.303 26.5457 111.472 27.0211L113.464 32.7082ZM106.976 15.6742L110.533 24.5579C110.615 24.7047 110.659 24.8695 110.662 25.0379C110.662 25.2507 110.578 25.3413 110.369 25.3413H103.253C102.96 25.3413 102.809 25.3413 102.809 25.0787C102.819 24.9116 102.866 24.7491 102.946 24.6032L106.291 15.5474C106.375 15.3346 106.509 15.2033 106.638 15.2033C106.767 15.2033 106.842 15.4206 106.971 15.656" fill="white"/>
<path fill-rule="evenodd" clip-rule="evenodd" d="M166.039 33.9213C166.446 30.1147 167.563 28.0938 167.563 27.1743C167.563 26.9967 167.324 26.8856 166.912 26.8856C166.501 26.8856 166.46 27.5163 165.687 28.9599C163.692 32.5977 160.59 34.3255 155.841 34.3255C147.593 34.3255 141.148 27.4009 141.148 17.3049C141.148 7.72856 146.475 1.5546 154.557 1.5546C157.194 1.5546 160.59 2.53621 163.285 4.14855C165.162 5.25009 165.221 6.16953 165.221 7.61752V8.42147C165.221 8.76792 165.28 8.86564 165.745 8.86564C166.211 8.86564 166.329 8.58137 166.388 7.76854C166.539 5.6892 166.887 3.62822 167.428 1.61234C167.428 1.38137 167.251 1.26588 167.021 1.26588C166.609 1.26588 166.08 1.5546 165.438 1.5546C163.801 1.5546 160.463 0 155.538 0C143.708 0 135.396 7.43985 135.396 17.8823C135.396 28.5424 143.767 36 155.073 36C159.116 36 162.512 34.8452 166.026 33.9213" fill="white"/>
<path fill-rule="evenodd" clip-rule="evenodd" d="M174.609 22.3265C174.609 29.953 180.581 36 188.678 36C196.774 36 202.747 29.953 202.747 22.1574C202.747 14.6643 196.906 9 188.977 9C180.962 9 174.6 14.9179 174.6 22.3265H174.609ZM187.761 10.5751C190.788 10.5751 193.606 11.9367 195.812 14.6154C197.941 17.3138 199.113 20.6195 199.152 24.0307C199.152 30.3401 195.467 34.3359 190.23 34.3359C186.717 34.3359 183.513 32.6361 181.226 29.4858C179.324 26.8551 178.28 23.7215 178.23 20.4977C178.23 14.5798 182.129 10.5751 187.761 10.5751Z" fill="white"/>
<path fill-rule="evenodd" clip-rule="evenodd" d="M218.187 10C216.349 10 214.216 10.4381 211.862 10.4381C210.915 10.4395 209.97 10.3706 209.034 10.2322C208.868 10.2322 208.778 10.4819 208.778 10.7754C208.778 11.069 209.975 10.9463 210.701 11.5333C211.692 12.2825 211.732 14.6789 211.732 19.1212V31.0463C211.732 33.1886 211.692 34.3627 210.871 34.7832C209.719 35.3703 209.119 35.0768 209.119 35.62C209.112 35.6714 209.118 35.7237 209.135 35.7727C209.152 35.8217 209.181 35.8661 209.218 35.9026C209.256 35.939 209.302 35.9665 209.352 35.9828C209.403 35.9991 209.456 36.0039 209.509 35.9968C211.039 35.7961 212.582 35.698 214.126 35.7032C216.219 35.7032 218.102 35.8303 219.649 35.8303C225.503 35.8303 228.883 33.0221 228.883 29.0792C228.883 26.0563 226.875 23.5022 223.055 22.2843C221.818 21.9075 221.011 21.8462 221.011 21.6972C221.011 21.5483 221.433 21.5308 221.989 21.3205C224.808 20.2734 226.18 18.5123 226.18 16.037C226.18 12.5979 223.356 10 218.178 10H218.187ZM215.318 22.6611C216.042 22.5808 216.769 22.5398 217.497 22.5384C222.244 22.5384 225.023 25.0925 225.023 29.0398C225.023 32.6015 222.724 34.7351 218.609 34.7351C216.726 34.7351 215.789 34.4415 215.574 33.688C215.448 33.3112 215.318 30.2884 215.318 24.7595V22.6611ZM215.318 21.5308V13.5617C215.318 11.3012 215.448 11.1303 217.286 11.1303C220.321 11.1303 222.419 13.3208 222.419 16.5846C222.419 19.8485 220.321 21.5746 216.17 21.5746C215.915 21.5746 215.614 21.5308 215.318 21.5308Z" fill="white"/>
<path fill-rule="evenodd" clip-rule="evenodd" d="M234.929 22.3265C234.929 29.953 240.905 36 248.995 36C257.086 36 263.062 29.953 263.062 22.1574C263.062 14.6643 257.217 9 249.295 9C241.286 9 234.915 14.9179 234.915 22.3265H234.929ZM248.074 10.5751C251.105 10.5751 253.923 11.9367 256.128 14.6154C258.252 17.3158 259.421 20.6208 259.459 24.0307C259.459 30.3401 255.784 34.3359 250.543 34.3359C247.035 34.3359 243.831 32.6361 241.535 29.4858C239.638 26.8538 238.595 23.7208 238.545 20.4977C238.545 14.5798 242.443 10.5751 248.074 10.5751Z" fill="white"/>
<path fill-rule="evenodd" clip-rule="evenodd" d="M270.962 35.3192C271.001 35.2497 271.055 35.19 271.122 35.1451C271.188 35.1003 271.265 35.0715 271.345 35.0611C272.439 35.0611 274.874 36 278.402 36C283.755 36 287.188 33.1033 287.188 28.9296C287.188 25.4812 285.104 23.2698 281.015 21.4811C276.702 19.6033 273.442 18.838 273.442 14.8734C273.442 12.0658 275.722 10.019 278.749 10.019C281.58 10.019 283.764 11.1269 284.794 12.8266C285.665 14.2772 285.619 15.3006 285.797 15.3006C286.253 15.3006 286.362 15.3006 286.362 15.087C286.203 14.2147 286.101 13.3334 286.057 12.4484C286.057 11.4451 286.173 10.445 286.403 9.4672C286.407 9.39451 286.383 9.32311 286.334 9.26766C286.286 9.21222 286.218 9.17694 286.144 9.16908C285.843 9.16908 285.232 9.76088 284.402 9.76088C283.271 9.76088 281.58 9 279.31 9C273.789 9 270.356 12.3238 270.356 16.4085C270.356 19.5588 272.18 21.481 275.922 23.1407C280.481 25.1831 284.01 25.8683 284.01 30.0821C284.01 32.9787 282.1 34.7675 278.617 34.7675C275.425 34.7675 271.92 33.4326 270.917 31.7418C270.046 30.3401 269.964 28.676 269.827 28.676C269.399 28.676 269.093 28.7606 269.093 28.8851C269.093 29.695 270.087 31.7418 270.087 35.1501V35.7419H270.789L270.962 35.3192Z" fill="white"/>
<path d="M78.1261 59C76.7811 55.7163 74.952 51.2093 74.1361 49.1953C73.5982 47.8698 73.2888 47.7395 72.0649 47.6047V47H77.2788V47.6047L76.5615 47.7116C75.8711 47.7907 75.7949 47.9767 76.0773 48.7163C76.4359 49.6977 77.9198 53.3023 79.0944 56.0837C79.991 53.9953 81.3987 50.0698 81.8067 48.8791C82.0891 48.0326 81.9636 47.7907 81.0939 47.6884L80.529 47.6047V47H85.1331V47.6047C83.7882 47.7628 83.5192 48.0046 82.7033 49.7535C82.0398 51.1488 80.3273 55.2651 78.8389 59H78.1261Z" fill="white"/>
<path d="M95.5805 56.1476C95.5805 58.1122 95.7179 58.2491 97.1966 58.3813V59H92.1704V58.3813C93.6451 58.2491 93.7866 58.1122 93.7866 56.1476V49.8524C93.7866 47.8642 93.6492 47.7509 92.1704 47.6234V47H97.1926V47.6234C95.7179 47.7509 95.5764 47.8642 95.5764 49.8524L95.5805 56.1476Z" fill="white"/>
<path d="M116.358 59H115.513L107.435 49.9662V53.8405C107.41 54.9743 107.462 56.1086 107.592 57.2352C107.671 57.8731 108.251 58.1665 109.578 58.2456V58.851H104.525V58.2456C105.639 58.1898 106.196 57.8731 106.298 57.2352C106.43 56.1088 106.485 54.9745 106.46 53.8405V50.2782C106.46 48.1595 106.033 47.7637 104.233 47.6333V47.0186H107.481L115.369 55.6938H115.42V52.0151C115.444 50.872 115.391 49.7286 115.262 48.5925C115.156 47.9593 114.571 47.6892 113.249 47.6147V47H118.306V47.6147C117.197 47.6659 116.641 47.9593 116.529 48.5925C116.403 49.7288 116.35 50.8721 116.371 52.0151L116.358 59Z" fill="white"/>
<path d="M135.891 50.5772C135.324 48.4031 133.987 47.7666 132.083 47.7666C129.098 47.7666 127.466 49.9093 127.466 52.7737C127.466 56.0415 129.37 58.238 132.273 58.238C134.282 58.238 135.32 57.2159 136.324 55.2212L137 55.3243C136.7 56.297 136.296 57.8525 135.996 58.5159C134.731 58.8014 133.439 58.9636 132.14 59C127.247 59 125 56.0415 125 53.1278C125 49.4744 128.237 47 132.364 47C133.656 46.997 134.943 47.1476 136.196 47.4483C136.329 48.4166 136.415 49.3355 136.548 50.4875L135.891 50.5772Z" fill="white"/>
<path d="M148.913 47.0184V47.6249C147.327 47.749 147.172 47.8822 147.172 49.8213V53.3549C147.172 56.2038 148.157 57.95 150.376 57.95C152.899 57.95 153.757 55.9833 153.757 53.1573V51.9489C153.777 50.8209 153.727 49.6927 153.607 48.5715C153.505 47.9466 152.952 47.6801 151.689 47.6065V47H156.506V47.6065C155.445 47.6571 154.919 47.9466 154.817 48.5715C154.692 49.6923 154.641 50.8207 154.663 51.9489V53.5709C154.663 55.0413 154.314 56.6358 153.306 57.6789C152.361 58.5681 151.12 59.0395 149.846 58.993C148.688 59.054 147.544 58.7129 146.593 58.0235C145.66 57.2653 145.205 55.9511 145.205 53.8558V49.803C145.205 47.8639 145.082 47.7306 143.438 47.6065V47L148.913 47.0184Z" fill="white"/>
<path d="M163.542 59V58.3813C165.343 58.2727 165.469 58.1405 165.469 56.1192V49.8524C165.469 47.8359 165.316 47.7273 163.669 47.6234V47H169.395V47.6234C167.626 47.7273 167.473 47.8359 167.473 49.8524V56.1995C167.473 57.2527 167.599 57.791 167.954 57.9752C168.31 58.1594 168.855 58.1924 169.804 58.1924C170.754 58.1924 171.632 58.0083 172.055 57.5218C172.469 56.9966 172.767 56.3823 172.929 55.7226L173.595 55.7981C173.464 56.4215 173.082 58.49 172.929 59H163.542Z" fill="white"/>
<path d="M184.531 47.0184V47.6249C182.821 47.749 182.659 47.8822 182.659 49.8213V53.3548C182.659 56.2037 183.719 57.9498 186.104 57.9498C188.812 57.9498 189.739 55.9832 189.739 53.1573V51.9488C189.762 50.8207 189.707 49.6923 189.572 48.5715C189.463 47.9466 188.869 47.6801 187.51 47.6065V47H192.694V47.6065C191.554 47.6571 190.984 47.9466 190.874 48.5715C190.742 49.6925 190.688 50.8208 190.713 51.9488V53.5708C190.713 55.0412 190.333 56.6357 189.249 57.6787C188.235 58.5677 186.902 59.0392 185.534 58.9929C184.289 59.0546 183.059 58.7134 182.037 58.0233C181.034 57.2652 180.545 55.951 180.545 53.8557V49.8029C180.545 47.8639 180.407 47.7306 178.621 47.6065V47L184.531 47.0184Z" fill="white"/>
<path d="M214.658 47V47.6234C212.825 47.7509 212.718 47.8359 212.749 49.6635L212.874 56.3365C212.897 58.1688 212.977 58.2491 214.81 58.3813V59H209.132V58.3813C210.863 58.2491 210.965 58.1688 210.938 56.3365L210.863 48.9646H210.787L206.384 58.7875H205.938L201.79 49.451H201.741L201.59 53.7816C201.515 54.9546 201.515 56.1316 201.59 57.3046C201.665 58.0083 202.152 58.2491 203.396 58.3813V59H198.726V58.3813C199.841 58.3011 200.198 58.0083 200.354 57.3046C200.541 56.1673 200.643 55.0161 200.657 53.8619L200.863 50.0413C200.965 47.7792 200.863 47.7509 199.056 47.6234V47H202.696L206.768 55.8453L210.782 47.0189L214.658 47Z" fill="white"/>
</g>
<defs>
<clipPath id="clip0_3137:2662">
<rect width="287" height="59" fill="white"/>
</clipPath>
</defs>
</svg>
