<svg width="298" height="90" viewBox="0 0 298 90" fill="none" xmlns="http://www.w3.org/2000/svg">
<path d="M38.2689 1.85622V0.81966H24.2283V1.85622C25.3119 1.90333 28.1389 2.70431 29.0341 3.2697C30.0707 3.92933 30.6361 6.23802 30.6361 9.63038V25.6028L10.9415 0.81966H1.23558V1.85622C2.50772 1.90333 5.14622 3.03412 6.27701 3.92933C7.21933 4.68319 7.78473 6.28514 7.78473 7.6515V24.2364C7.78473 27.9115 7.36068 29.8903 6.22989 30.6913C5.71162 31.0682 2.69618 31.9163 1.84809 31.9634V33H15.9829V31.9634C15.1348 31.9163 11.9309 31.1154 11.13 30.4557C10.0934 29.6076 9.52803 27.5816 9.52803 24.0008V6.7563L30.6361 33.3298H32.3794V9.34769C32.3794 6.23802 32.6621 3.8351 33.9342 3.03412C34.6881 2.56296 37.4208 1.90333 38.2689 1.85622ZM80.5855 1.85622V0.81966H66.4977V1.85622C67.5814 1.90333 70.1257 2.46873 71.3036 3.22258C72.3401 3.88221 72.9055 6.09667 72.9055 9.53615V23.4825C72.9055 26.5922 71.1622 31.7279 63.6708 31.7279C56.3206 31.7279 55.0956 26.9691 55.0956 23.5768V4.77742C55.0956 3.74086 55.3783 2.84565 56.5562 2.46873C57.4043 2.18603 59.1005 1.90333 59.9486 1.85622V0.81966H45.2955V1.85622C46.0493 1.90333 47.7455 2.23314 48.5936 2.65719C49.6773 3.22258 50.0542 3.97644 50.0542 5.013V24.5191C50.0542 29.4192 54.2946 33.7539 62.54 33.7539C67.2045 33.7539 74.6959 31.3509 74.6959 23.671V9.25345C74.6959 6.33225 74.9786 3.78798 76.2508 2.987C77.2402 2.37449 79.7374 1.90333 80.5855 1.85622ZM116.913 23.9537H115.735C115.264 25.3672 113.332 29.0894 111.918 30.55C110.788 31.7279 107.49 31.6336 104.191 31.6336C99.4327 31.6336 98.5846 31.2096 98.5846 27.3461V16.9805H102.684C105.228 16.9805 106.029 17.7815 106.641 18.4411C107.207 19.0536 108.008 21.645 108.102 23.0114H109.374V9.86596H108.102C107.961 11.091 107.348 13.4939 106.641 14.2007C106.076 14.766 105.322 15.6613 102.684 15.6613H98.5846V2.0918H104.144C105.652 2.0918 106.924 2.13891 108.055 2.28026C110.081 2.56296 112.578 6.04955 113.096 8.12267H114.368V0.81966H88.4075V1.85622C89.2556 1.90333 91.2344 2.32738 92.1296 2.70431C93.3076 3.17547 93.5902 3.97644 93.5902 5.013V29.0894C93.5902 30.173 93.2604 30.974 92.1296 31.3981C91.4229 31.6807 89.2556 31.9163 88.4075 31.9634V33H116.3L116.913 23.9537ZM147.68 23.8123C147.68 18.818 145.089 16.9334 141.037 15.0959C138.917 14.0593 136.938 13.6353 134.629 12.3631C132.038 10.9496 130.483 9.30057 130.483 6.42648C130.483 2.75142 133.593 1.62064 134.959 1.62064C141.273 1.62064 143.393 5.71974 145.277 11.0439H146.314L146.078 0.348499H144.476L142.874 2.56296C141.225 1.29082 138.54 0.20715 136.09 0.20715C130.719 0.20715 126.667 3.92933 126.667 8.92364C126.667 13.117 128.598 15.7084 132.226 17.3103C134.865 18.4882 136.278 19.0065 138.964 20.0902C141.791 21.221 143.581 23.3883 143.581 26.2624C143.581 29.7961 141.791 32.199 137.597 32.199C131.755 32.199 128.74 27.4403 126.808 22.446H125.724L126.054 33.4712H127.656L129.305 31.2567C130.719 32.3875 133.216 33.6125 137.032 33.6125C143.11 33.6125 147.68 29.5605 147.68 23.8123ZM184.943 9.01787V0.81966H155.449V9.01787H156.579C157.098 6.94476 159.642 2.56296 161.668 2.28026C162.799 2.13891 164.448 2.0918 165.484 2.0918H167.699V29.0422C167.699 30.0788 167.369 30.974 166.238 31.3981C165.626 31.6336 163.223 31.9163 162.375 31.9634V33H178.017V31.9634C177.169 31.9163 174.719 31.3981 174.154 31.1625C173.07 30.6913 172.693 29.8432 172.693 28.8067V2.0918H174.908C176.18 2.0918 177.593 2.13891 178.724 2.28026C180.75 2.56296 183.294 6.94476 183.813 9.01787H184.943ZM225.397 26.922V25.9326H224.172V26.922C224.172 30.3144 223.466 31.1154 222.146 31.1154C221.44 31.1154 220.167 30.974 219.602 28.8538C218.99 26.5451 218.707 24.2364 218 21.645C217.058 18.2055 213.1 16.9805 210.886 16.7449V16.2738C214.231 15.3314 219.602 13.2112 219.602 8.07555C219.602 2.93989 214.278 0.81966 209.519 0.81966H193.076V1.85622C193.924 1.90333 195.62 2.23314 196.468 2.51584C197.646 2.89277 197.929 3.8351 197.929 4.87165C197.929 9.1121 197.929 24.6133 197.929 29.0894C197.929 30.1259 197.599 31.0211 196.468 31.4452C195.856 31.6807 193.924 31.9163 193.076 31.9634V33H207.823V31.9634C206.975 31.9163 204.996 31.6807 204.384 31.4452C203.253 31.0211 202.923 30.1259 202.923 29.0894C202.923 27.0634 202.923 22.3989 202.923 17.3103H206.645C212.111 17.3103 212.959 21.8335 213.43 25.5556C214.137 30.8798 215.927 33.5183 219.696 33.5183C223.843 33.5183 225.397 31.3509 225.397 26.922ZM213.807 9.01787C213.807 14.3891 209.99 15.9439 205.844 15.9439H202.923V2.13891H207.069C210.65 2.13891 213.807 3.64663 213.807 9.01787ZM266.073 16.6978C266.073 12.0804 264.377 7.74574 261.597 4.96588C258.063 1.5264 254.058 0.0658004 249.629 0.0658004C245.059 0.0658004 240.913 1.71487 237.709 4.96588C234.646 8.02843 233.139 12.1275 233.139 17.2632C233.139 22.3989 235.071 26.4037 238.18 29.3249C241.243 32.199 245.153 33.7539 249.441 33.7539C254.294 33.7539 258.11 32.0577 261.173 29.2307C264.612 25.8855 266.073 21.5979 266.073 16.6978ZM260.372 16.8392C260.372 25.6028 256.932 32.2933 249.629 32.2933C242.279 32.2933 238.84 25.4143 238.84 17.0276C238.84 7.27458 242.939 1.5264 249.629 1.5264C257.451 1.5264 260.372 9.15922 260.372 16.8392ZM297.565 23.8123C297.565 18.818 294.974 16.9334 290.922 15.0959C288.801 14.0593 286.822 13.6353 284.514 12.3631C281.922 10.9496 280.368 9.30057 280.368 6.42648C280.368 2.75142 283.477 1.62064 284.844 1.62064C291.157 1.62064 293.277 5.71974 295.162 11.0439H296.199L295.963 0.348499H294.361L292.759 2.56296C291.11 1.29082 288.424 0.20715 285.974 0.20715C280.603 0.20715 276.551 3.92933 276.551 8.92364C276.551 13.117 278.483 15.7084 282.111 17.3103C284.749 18.4882 286.163 19.0065 288.848 20.0902C291.675 21.221 293.466 23.3883 293.466 26.2624C293.466 29.7961 291.675 32.199 287.482 32.199C281.64 32.199 278.624 27.4403 276.692 22.446H275.609L275.939 33.4712H277.541L279.19 31.2567C280.603 32.3875 283.1 33.6125 286.917 33.6125C292.995 33.6125 297.565 29.5605 297.565 23.8123ZM34.1227 57.8562V56.8197H21.4484V57.8562C23.6158 57.9976 26.8668 58.8457 26.8668 60.4005C26.8668 60.9659 26.7725 62.2851 25.7831 64.6409C24.2754 68.2689 21.1657 75.5248 18.1974 82.5451C14.2868 71.9911 10.9886 62.7563 10.2819 60.7774C10.1405 60.4005 10.0463 59.9293 10.0463 59.5995C10.0463 58.4687 12.9675 57.9504 14.6166 57.8562V56.8197H0.0105605V57.8562C0.905768 57.9033 2.27214 58.2331 3.12023 58.7043C4.25102 59.3639 4.67506 60.0236 5.05199 61.013C6.60682 65.3006 10.9415 77.1738 15.3233 89.3769H17.0666C20.7417 80.5191 26.6783 66.7141 28.6101 62.238C29.2697 60.7774 29.8351 59.5053 31.0601 58.7985C31.9082 58.3274 33.2275 57.9033 34.1227 57.8562ZM55.456 89V87.9634C54.6079 87.9163 52.5819 87.4923 52.0165 87.2567C50.9328 86.7855 50.5559 86.0317 50.5559 84.9951V60.7303C50.5559 59.6937 50.8386 58.8457 52.0165 58.4687C52.8646 58.186 54.6079 57.9033 55.456 57.8562V56.8197H40.6615V57.8562C41.5096 57.9033 43.2529 58.3745 44.101 58.7043C45.2789 59.1755 45.5616 59.9293 45.5616 60.9659V85.2307C45.5616 86.2673 45.2318 87.0682 44.101 87.4923C43.4885 87.7279 41.5096 87.9163 40.6615 87.9634V89H55.456ZM100.558 57.8562V56.8197H86.5173V57.8562C87.601 57.9033 90.4279 58.7043 91.3232 59.2697C92.3597 59.9293 92.9251 62.238 92.9251 65.6304V81.6028L73.2305 56.8197H63.5246V57.8562C64.7968 57.9033 67.4353 59.0341 68.566 59.9293C69.5084 60.6832 70.0738 62.2851 70.0738 63.6515V80.2364C70.0738 83.9115 69.6497 85.8903 68.5189 86.6913C68.0007 87.0682 64.9852 87.9163 64.1371 87.9634V89H78.272V87.9634C77.4239 87.9163 74.22 87.1154 73.419 86.4557C72.3825 85.6076 71.8171 83.5816 71.8171 80.0008V62.7563L92.9251 89.3298H94.6684V65.3477C94.6684 62.238 94.9511 59.8351 96.2232 59.0341C96.9771 58.563 99.7098 57.9033 100.558 57.8562ZM91.7001 47.9618L90.7578 47.632C89.8154 49.6109 89.4856 50.7888 86.6115 50.7888C84.3028 50.7888 82.8894 48.2445 79.2614 48.2445C76.246 48.2445 74.1258 51.9667 73.3719 54.134L74.2671 54.511C75.4921 52.3907 76.1046 51.3071 78.0835 51.3071C80.722 51.3071 81.8528 53.8513 85.6692 53.8513C88.7318 53.8513 91.0876 50.2234 91.7001 47.9618ZM136.278 79.9537H135.1C134.629 81.3672 132.697 85.0894 131.284 86.55C130.153 87.7279 126.855 87.6336 123.557 87.6336C118.798 87.6336 117.95 87.2096 117.95 83.3461V72.9805H122.049C124.593 72.9805 125.394 73.7815 126.007 74.4411C126.572 75.0536 127.373 77.645 127.468 79.0114H128.74V65.866H127.468C127.326 67.091 126.714 69.4939 126.007 70.2007C125.442 70.766 124.688 71.6613 122.049 71.6613H117.95V58.0918H123.51C125.017 58.0918 126.29 58.1389 127.42 58.2803C129.446 58.563 131.944 62.0496 132.462 64.1227H133.734V56.8197H107.773V57.8562C108.621 57.9033 110.6 58.3274 111.495 58.7043C112.673 59.1755 112.956 59.9764 112.956 61.013V85.0894C112.956 86.173 112.626 86.974 111.495 87.3981C110.788 87.6807 108.621 87.9163 107.773 87.9634V89H135.666L136.278 79.9537ZM177.977 73.1219C177.977 60.212 166.857 56.8197 160.402 56.8197H145.231V57.8562C146.079 57.9033 147.398 58.1389 148.529 58.6101C149.66 59.0812 149.99 59.9764 149.99 61.013V85.1836C149.99 86.2201 149.66 87.0682 148.529 87.4923C147.917 87.7279 145.985 87.9634 145.043 87.9634V89H159.46C168.554 89 177.977 84.0999 177.977 73.1219ZM172.181 73.0747C172.181 81.5556 168.412 87.6336 160.12 87.6336C156.492 87.6336 155.267 86.3144 154.984 84.0057V58.2331C156.021 58.186 158 58.1389 159.083 58.1389C166.999 58.1389 172.181 64.4996 172.181 73.0747ZM220.113 72.6978C220.113 68.0804 218.416 63.7457 215.637 60.9659C212.103 57.5264 208.098 56.0658 203.669 56.0658C199.099 56.0658 194.953 57.7149 191.749 60.9659C188.686 64.0284 187.178 68.1275 187.178 73.2632C187.178 78.3989 189.11 82.4037 192.22 85.3249C195.282 88.199 199.193 89.7539 203.481 89.7539C208.334 89.7539 212.15 88.0577 215.213 85.2307C218.652 81.8855 220.113 77.5979 220.113 72.6978ZM214.412 72.8392C214.412 81.6028 210.972 88.2933 203.669 88.2933C196.319 88.2933 192.879 81.4143 192.879 73.0276C192.879 63.2746 196.979 57.5264 203.669 57.5264C211.49 57.5264 214.412 65.1592 214.412 72.8392ZM251.605 79.8123C251.605 74.818 249.013 72.9334 244.961 71.0959C242.841 70.0593 240.862 69.6353 238.553 68.3631C235.962 66.9496 234.407 65.3006 234.407 62.4265C234.407 58.7514 237.517 57.6206 238.883 57.6206C245.197 57.6206 247.317 61.7197 249.202 67.0439H250.238L250.003 56.3485H248.401L246.799 58.563C245.15 57.2908 242.464 56.2071 240.014 56.2071C234.643 56.2071 230.591 59.9293 230.591 64.9236C230.591 69.117 232.523 71.7084 236.151 73.3103C238.789 74.4882 240.202 75.0065 242.888 76.0902C245.715 77.221 247.505 79.3883 247.505 82.2624C247.505 85.7961 245.715 88.199 241.522 88.199C235.679 88.199 232.664 83.4403 230.732 78.446H229.648L229.978 89.4712H231.58L233.229 87.2567C234.643 88.3875 237.14 89.6125 240.956 89.6125C247.034 89.6125 251.605 85.5605 251.605 79.8123Z" fill="#1C1C1C"/>
</svg>
