<svg width="1237" height="165" viewBox="0 0 1237 165" fill="none" xmlns="http://www.w3.org/2000/svg">
<path d="M106.525 128.4H102.15C100.4 133.65 93.225 147.475 87.975 152.9C83.775 157.275 71.525 156.925 59.275 156.925C41.6 156.925 38.45 155.35 38.45 141V102.5H53.675C63.125 102.5 66.1 105.475 68.375 107.925C70.475 110.2 73.45 119.825 73.8 124.9H78.525V76.075H73.8C73.275 80.625 71 89.55 68.375 92.175C66.275 94.275 63.475 97.6 53.675 97.6H38.45V47.2H59.1C64.7 47.2 69.425 47.375 73.625 47.9C81.15 48.95 90.425 61.9 92.35 69.6H97.075V42.475H0.65V46.325C3.8 46.5 11.15 48.075 14.475 49.475C18.85 51.225 19.9 54.2 19.9 58.05V147.475C19.9 151.5 18.675 154.475 14.475 156.05C11.85 157.1 3.8 157.975 0.65 158.15V162H104.25L106.525 128.4ZM254.578 46.325V42.475H207.503V46.325C215.553 46.85 227.628 50 227.628 55.775C227.628 57.875 227.278 62.775 223.603 71.525C218.003 85 206.453 111.95 195.428 138.025C180.903 98.825 168.653 64.525 166.028 57.175C165.503 55.775 165.153 54.025 165.153 52.8C165.153 48.6 176.003 46.675 182.128 46.325V42.475H127.878V46.325C131.203 46.5 136.278 47.725 139.428 49.475C143.628 51.925 145.203 54.375 146.603 58.05C152.378 73.975 168.478 118.075 184.753 163.4H191.228C204.878 130.5 226.928 79.225 234.103 62.6C236.553 57.175 238.653 52.45 243.203 49.825C246.353 48.075 251.253 46.5 254.578 46.325ZM398.935 101.45C398.935 84.3 392.635 68.2 382.31 57.875C369.185 45.1 354.31 39.675 337.86 39.675C320.885 39.675 305.485 45.8 293.585 57.875C282.21 69.25 276.61 84.475 276.61 103.55C276.61 122.625 283.785 137.5 295.335 148.35C306.71 159.025 321.235 164.8 337.16 164.8C355.185 164.8 369.36 158.5 380.735 148C393.51 135.575 398.935 119.65 398.935 101.45ZM377.76 101.975C377.76 134.525 364.985 159.375 337.86 159.375C310.56 159.375 297.785 133.825 297.785 102.675C297.785 66.45 313.01 45.1 337.86 45.1C366.91 45.1 377.76 73.45 377.76 101.975ZM537.078 128.05H532.878C531.128 134 522.203 147.825 517.653 152.725C514.153 156.4 502.078 157.275 491.928 157.275C473.028 157.275 471.103 156.05 471.103 141.175V57.525C471.103 53.675 472.153 50.175 476.528 48.775C479.678 47.725 486.153 46.5 489.303 46.325V42.475H434.528V46.325C437.678 46.5 443.978 48.25 447.128 49.65C451.503 51.575 452.553 54.55 452.553 58.4V147.475C452.553 151.325 451.328 154.65 447.128 156.225C444.853 157.1 437.678 157.975 434.528 158.15V162H534.453L537.078 128.05ZM691.319 46.325V42.475H638.994V46.325C643.019 46.5 652.469 48.6 656.844 51.4C660.694 53.85 662.794 62.075 662.794 74.85V126.65C662.794 138.2 656.319 157.275 628.494 157.275C601.194 157.275 596.644 139.6 596.644 127V57.175C596.644 53.325 597.694 50 602.069 48.6C605.219 47.55 611.519 46.5 614.669 46.325V42.475H560.244V46.325C563.044 46.5 569.344 47.725 572.494 49.3C576.519 51.4 577.919 54.2 577.919 58.05V130.5C577.919 148.7 593.669 164.8 624.294 164.8C641.619 164.8 669.444 155.875 669.444 127.35V73.8C669.444 62.95 670.494 53.5 675.219 50.525C678.894 48.25 688.169 46.5 691.319 46.325ZM825.897 131.725L821.347 129.275C814.522 144.5 804.547 155.525 783.197 155.525C760.272 155.525 741.197 134 741.197 102.325C741.197 62.6 758.522 45.275 776.372 45.275C798.947 45.275 810.847 63.65 817.147 83.95H821.347L820.647 40.725H813.472L808.222 49.65C802.972 44.75 791.422 40.2 781.797 40.2C746.622 40.2 720.197 67.675 720.197 103.725C720.197 140.825 743.647 164.625 778.122 164.625C804.722 164.625 818.722 148 825.897 131.725ZM912.053 162V158.15C908.903 157.975 901.378 156.4 899.278 155.525C895.253 153.775 893.853 150.975 893.853 147.125V57C893.853 53.15 894.903 50 899.278 48.6C902.428 47.55 908.903 46.5 912.053 46.325V42.475H857.103V46.325C860.253 46.5 866.728 48.25 869.878 49.475C874.253 51.225 875.303 54.025 875.303 57.875V148C875.303 151.85 874.078 154.825 869.878 156.4C867.603 157.275 860.253 157.975 857.103 158.15V162H912.053ZM1070.12 101.45C1070.12 84.3 1063.82 68.2 1053.5 57.875C1040.37 45.1 1025.5 39.675 1009.05 39.675C992.071 39.675 976.671 45.8 964.771 57.875C953.396 69.25 947.796 84.475 947.796 103.55C947.796 122.625 954.971 137.5 966.521 148.35C977.896 159.025 992.421 164.8 1008.35 164.8C1026.37 164.8 1040.55 158.5 1051.92 148C1064.7 135.575 1070.12 119.65 1070.12 101.45ZM1048.95 101.975C1048.95 134.525 1036.17 159.375 1009.05 159.375C981.746 159.375 968.971 133.825 968.971 102.675C968.971 66.45 984.196 45.1 1009.05 45.1C1038.1 45.1 1048.95 73.45 1048.95 101.975ZM1031.27 7.29999C1031.27 3.97499 1028.3 0.649991 1024.27 0.649991C1019.9 0.649991 1016.92 2.39999 1013.6 8.17499C1009.75 14.65 1005.55 21.825 996.621 34.775L999.071 36.875C1013.07 25.675 1019.72 21.125 1024.97 16.925C1029.17 13.6 1031.27 11.675 1031.27 7.29999ZM1236.26 46.325V42.475H1184.11V46.325C1188.14 46.5 1198.64 49.475 1201.96 51.575C1205.81 54.025 1207.91 62.6 1207.91 75.2V134.525L1134.76 42.475H1098.71V46.325C1103.44 46.5 1113.24 50.7 1117.44 54.025C1120.94 56.825 1123.04 62.775 1123.04 67.85V129.45C1123.04 143.1 1121.46 150.45 1117.26 153.425C1115.34 154.825 1104.14 157.975 1100.99 158.15V162H1153.49V158.15C1150.34 157.975 1138.44 155 1135.46 152.55C1131.61 149.4 1129.51 141.875 1129.51 128.575V64.525L1207.91 163.225H1214.39V74.15C1214.39 62.6 1215.44 53.675 1220.16 50.7C1222.96 48.95 1233.11 46.5 1236.26 46.325Z" fill="black" fill-opacity="0.6"/>
</svg>
