<svg width="1651" height="143" viewBox="0 0 1651 143" fill="none" xmlns="http://www.w3.org/2000/svg">
<path d="M121.6 101.6H116.6C114.6 107.6 106.4 123.4 100.4 129.6C95.6 134.6 81.6 134.2 67.6 134.2C47.4 134.2 43.8 132.4 43.8 116V72H61.2C72 72 75.4 75.4 78 78.2C80.4 80.8 83.8 91.8 84.2 97.6H89.6V41.8H84.2C83.6 47 81 57.2 78 60.2C75.6 62.6 72.4 66.4 61.2 66.4H43.8V8.8H67.4C73.8 8.8 79.2 8.99999 84 9.6C92.6 10.8 103.2 25.6 105.4 34.4H110.8V3.39999H0.600001V7.8C4.2 7.99999 12.6 9.8 16.4 11.4C21.4 13.4 22.6 16.8 22.6 21.2V123.4C22.6 128 21.2 131.4 16.4 133.2C13.4 134.4 4.2 135.4 0.600001 135.6V140H119L121.6 101.6ZM303.603 140V135.6C300.003 135.4 290.803 134.8 288.603 133.2C282.003 128.8 278.003 123.8 274.603 119.4C265.803 108 252.203 89 234.403 64.6C246.603 49.2 256.403 36.6 267.003 24C270.603 19.6 275.603 14 283.403 10.6C287.203 8.99999 294.003 7.99999 297.603 7.8V3.39999H240.803V7.8C249.003 8.19999 260.003 8.99999 260.003 16.6C260.003 21.8 247.403 38.2 229.803 59C216.603 41.2 202.403 22.4 202.403 16.6C202.403 8.99999 214.603 8.19999 222.803 7.8V3.39999H149.803V7.8C153.403 7.99999 162.003 9.19999 164.803 10.6C172.203 14.4 175.603 19.6 178.803 24C190.203 38.8 201.603 54.8 215.803 74.6C201.603 92.4 192.003 105 180.003 119.4C176.403 123.8 171.403 129.4 163.603 132.8C159.803 134.4 153.003 135.4 149.403 135.6V140H206.203V135.6C198.003 135.2 187.003 134.4 187.003 126.8C187.003 121.2 205.603 98.8 220.603 80.4C233.203 97.6 251.203 120.4 251.203 126.8C251.203 134.4 238.803 135.2 230.603 135.6V140H303.603ZM444.547 35.8C444.547 15.2 425.347 3.39999 401.747 3.39999H334.747V7.8C338.347 7.99999 344.947 8.99999 349.947 10.6C354.947 12.2 356.147 16.4 356.147 20.8V123.4C356.147 127.8 354.747 131.6 349.947 133.4C347.347 134.4 339.147 135.4 335.547 135.6V140H399.347V135.6C394.347 135.4 386.147 134.4 383.547 133.4C378.747 131.6 377.347 127.8 377.347 123.4V77.4H392.947C418.747 77.4 444.547 63 444.547 35.8ZM419.747 40.8C419.747 50.2 415.947 71.4 387.147 71.4H377.347V8.99999H390.947C413.747 8.99999 419.747 25.8 419.747 40.8ZM603.366 101.6H598.366C596.366 107.6 588.166 123.4 582.166 129.6C577.366 134.6 563.366 134.2 549.366 134.2C529.166 134.2 525.566 132.4 525.566 116V72H542.966C553.766 72 557.166 75.4 559.766 78.2C562.166 80.8 565.566 91.8 565.966 97.6H571.366V41.8H565.966C565.366 47 562.766 57.2 559.766 60.2C557.366 62.6 554.166 66.4 542.966 66.4H525.566V8.8H549.166C555.566 8.8 560.966 8.99999 565.766 9.6C574.366 10.8 584.966 25.6 587.166 34.4H592.566V3.39999H482.366V7.8C485.966 7.99999 494.366 9.8 498.166 11.4C503.166 13.4 504.366 16.8 504.366 21.2V123.4C504.366 128 502.966 131.4 498.166 133.2C495.166 134.4 485.966 135.4 482.366 135.6V140H600.766L603.366 101.6ZM778.169 114.2V110H772.969V114.2C772.969 128.6 769.969 132 764.369 132C761.369 132 755.969 131.4 753.569 122.4C750.969 112.6 749.769 102.8 746.769 91.8C742.769 77.2 725.969 72 716.569 71V69C730.769 65 753.569 56 753.569 34.2C753.569 12.4 730.969 3.39999 710.769 3.39999H640.969V7.8C644.569 7.99999 651.769 9.39999 655.369 10.6C660.369 12.2 661.569 16.2 661.569 20.6C661.569 38.6 661.569 104.4 661.569 123.4C661.569 127.8 660.169 131.6 655.369 133.4C652.769 134.4 644.569 135.4 640.969 135.6V140H703.569V135.6C699.969 135.4 691.569 134.4 688.969 133.4C684.169 131.6 682.769 127.8 682.769 123.4C682.769 114.8 682.769 95 682.769 73.4H698.569C721.769 73.4 725.369 92.6 727.369 108.4C730.369 131 737.969 142.2 753.969 142.2C771.569 142.2 778.169 133 778.169 114.2ZM728.969 38.2C728.969 61 712.769 67.6 695.169 67.6H682.769V8.99999H700.369C715.569 8.99999 728.969 15.4 728.969 38.2ZM875.43 140V135.6C871.83 135.4 863.23 133.6 860.83 132.6C856.23 130.6 854.63 127.4 854.63 123V20C854.63 15.6 855.83 12 860.83 10.4C864.43 9.19999 871.83 7.99999 875.43 7.8V3.39999H812.63V7.8C816.23 7.99999 823.63 9.99999 827.23 11.4C832.23 13.4 833.43 16.6 833.43 21V124C833.43 128.4 832.03 131.8 827.23 133.6C824.63 134.6 816.23 135.4 812.63 135.6V140H875.43ZM1037.28 101.6H1032.28C1030.28 107.6 1022.08 123.4 1016.08 129.6C1011.28 134.6 997.28 134.2 983.28 134.2C963.08 134.2 959.48 132.4 959.48 116V72H976.88C987.68 72 991.08 75.4 993.68 78.2C996.08 80.8 999.48 91.8 999.88 97.6H1005.28V41.8H999.88C999.28 47 996.68 57.2 993.68 60.2C991.28 62.6 988.08 66.4 976.88 66.4H959.48V8.8H983.08C989.48 8.8 994.88 8.99999 999.68 9.6C1008.28 10.8 1018.88 25.6 1021.08 34.4H1026.48V3.39999H916.28V7.8C919.88 7.99999 928.28 9.8 932.08 11.4C937.08 13.4 938.28 16.8 938.28 21.2V123.4C938.28 128 936.88 131.4 932.08 133.2C929.08 134.4 919.88 135.4 916.28 135.6V140H1034.68L1037.28 101.6ZM1224.08 7.8V3.39999H1164.48V7.8C1169.08 7.99999 1181.08 11.4 1184.88 13.8C1189.28 16.6 1191.68 26.4 1191.68 40.8V108.6L1108.08 3.39999H1066.88V7.8C1072.28 7.99999 1083.48 12.8 1088.28 16.6C1092.28 19.8 1094.68 26.6 1094.68 32.4V102.8C1094.68 118.4 1092.88 126.8 1088.08 130.2C1085.88 131.8 1073.08 135.4 1069.48 135.6V140H1129.48V135.6C1125.88 135.4 1112.28 132 1108.88 129.2C1104.48 125.6 1102.08 117 1102.08 101.8V28.6L1191.68 141.4H1199.08V39.6C1199.08 26.4 1200.28 16.2 1205.68 12.8C1208.88 10.8 1220.48 7.99999 1224.08 7.8ZM1375.31 105.4L1370.11 102.6C1362.31 120 1350.91 132.6 1326.51 132.6C1300.31 132.6 1278.51 108 1278.51 71.8C1278.51 26.4 1298.31 6.59999 1318.71 6.59999C1344.51 6.59999 1358.11 27.6 1365.31 50.8H1370.11L1369.31 1.4H1361.11L1355.11 11.6C1349.11 6 1335.91 0.799992 1324.91 0.799992C1284.71 0.799992 1254.51 32.2 1254.51 73.4C1254.51 115.8 1281.31 143 1320.71 143C1351.11 143 1367.11 124 1375.31 105.4ZM1473.77 140V135.6C1470.17 135.4 1461.57 133.6 1459.17 132.6C1454.57 130.6 1452.97 127.4 1452.97 123V20C1452.97 15.6 1454.17 12 1459.17 10.4C1462.77 9.19999 1470.17 7.99999 1473.77 7.8V3.39999H1410.97V7.8C1414.57 7.99999 1421.97 9.99999 1425.57 11.4C1430.57 13.4 1431.77 16.6 1431.77 21V124C1431.77 128.4 1430.37 131.8 1425.57 133.6C1422.97 134.6 1414.57 135.4 1410.97 135.6V140H1473.77ZM1650.02 140V135.6C1646.22 135.4 1640.42 134 1636.82 132C1632.02 129.2 1630.22 126.2 1628.62 122.2C1621.22 103.6 1601.62 52.8 1581.22 1.2H1573.62C1558.42 39.4 1541.82 81.8 1527.62 116.2C1524.62 123.2 1521.02 129 1516.22 131.8C1512.62 133.8 1506.02 135.4 1502.22 135.6V140H1557.22V135.6C1550.22 135.2 1534.62 132 1534.62 124.8C1534.62 122 1535.42 118 1536.82 113.6C1538.62 107.6 1541.02 100.8 1544.82 91.6H1594.02L1606.42 123.2C1607.02 124.8 1607.22 126.4 1607.22 127.8C1607.22 132.8 1594.02 135.2 1587.02 135.6V140H1650.02ZM1591.42 85H1547.42L1569.22 29.2L1591.42 85Z" fill="black" fill-opacity="0.5"/>
</svg>
