<svg width="1260" height="319" viewBox="0 0 1260 319" fill="none" xmlns="http://www.w3.org/2000/svg">
<path d="M160 115L160.738 115.674L161.297 115.063L160.8 114.4L160 115ZM155.5 109L156.3 108.4L155.644 107.525L154.831 108.257L155.5 109ZM147 191L147.655 191.756L147.657 191.754L147 191ZM4 298.5L3.44807 297.666L3.10104 297.896L3.01942 298.304L4 298.5ZM1.5 311L0.519419 310.804L0.280196 312H1.5V311ZM209 311V312H209.598L209.881 311.474L209 311ZM255 225.5L255.881 225.974L256.434 224.946L255.333 224.557L255 225.5ZM246.5 222.5L246.833 221.557L246.105 221.3L245.672 221.939L246.5 222.5ZM61.5 270.5L60.8961 269.703L58.524 271.5H61.5V270.5ZM78 258L77.5458 257.109L77.4668 257.149L77.3961 257.203L78 258ZM275.5 69.5C275.5 47.923 266.091 30.5025 249.78 18.5069C233.498 6.53302 210.395 0 183 0V2C210.105 2 232.752 8.46696 248.595 20.1181C264.409 31.7475 273.5 48.577 273.5 69.5H275.5ZM183 0C144.241 0 108.649 15.2235 82.7441 36.2866C56.8757 57.3204 40.5 84.3268 40.5 108H42.5C42.5 85.1732 58.3743 58.6796 84.0059 37.8384C109.601 17.0265 144.759 2 183 2V0ZM40.5 108C40.5 123.008 45.8535 134.178 54.6696 141.578C63.4602 148.957 75.5863 152.5 89 152.5V150.5C75.9137 150.5 64.2898 147.043 55.9554 140.047C47.6465 133.072 42.5 122.492 42.5 108H40.5ZM89 152.5C116.882 152.5 139.63 138.793 160.738 115.674L159.262 114.326C138.37 137.207 116.118 150.5 89 150.5V152.5ZM160.8 114.4L156.3 108.4L154.7 109.6L159.2 115.6L160.8 114.4ZM154.831 108.257C139.785 121.798 129.06 131.5 111 131.5V133.5C129.94 133.5 141.215 123.202 156.169 109.743L154.831 108.257ZM111 131.5C101.425 131.5 94.4959 128.926 89.9363 123.775C85.3545 118.598 83 110.635 83 99.5H81C81 110.865 83.3955 119.402 88.4387 125.1C93.5041 130.824 101.075 133.5 111 133.5V131.5ZM83 99.5C83 81.8584 93.8165 60.4731 110.893 43.4584C127.952 26.4616 151.087 14 175.5 14V12C150.413 12 126.798 24.7883 109.482 42.0416C92.1835 59.2769 81 81.1416 81 99.5H83ZM175.5 14C192.033 14 204.12 19.1753 212.08 27.7431C220.052 36.3235 224 48.4298 224 62.5H226C226 48.0702 221.948 35.4265 213.545 26.3818C205.13 17.3247 192.467 12 175.5 12V14ZM224 62.5C224 101.069 200.262 143.317 146.343 190.246L147.657 191.754C201.738 144.683 226 101.931 226 62.5H224ZM146.345 190.244C105.377 225.717 72.9109 251.691 3.44807 297.666L4.55193 299.334C74.0891 253.309 106.623 227.283 147.655 191.756L146.345 190.244ZM3.01942 298.304L0.519419 310.804L2.48058 311.196L4.98058 298.696L3.01942 298.304ZM1.5 312H209V310H1.5V312ZM209.881 311.474L255.881 225.974L254.119 225.026L208.119 310.526L209.881 311.474ZM255.333 224.557L246.833 221.557L246.167 223.443L254.667 226.443L255.333 224.557ZM245.672 221.939C225.7 251.397 204.962 269.5 180 269.5V271.5C206.038 271.5 227.3 252.603 247.328 223.061L245.672 221.939ZM180 269.5H61.5V271.5H180V269.5ZM62.1039 271.297L78.6039 258.797L77.3961 257.203L60.8961 269.703L62.1039 271.297ZM78.4542 258.891C142.215 226.385 191.442 196.961 224.735 166.74C258.047 136.502 275.5 105.378 275.5 69.5H273.5C273.5 104.622 256.453 135.248 223.39 165.26C190.308 195.289 141.285 224.615 77.5458 257.109L78.4542 258.891ZM644.074 117C644.074 78.3017 632.637 49.0277 613.413 29.4248C594.19 9.82259 567.289 0 536.574 0V2C566.86 2 593.208 11.6774 611.985 30.8251C630.762 49.9723 642.074 78.6982 642.074 117H644.074ZM536.574 0C493.193 0 451.806 24.2056 421.298 61.7443C390.784 99.2909 371.074 150.262 371.074 204H373.074C373.074 150.738 392.615 100.209 422.85 63.0057C453.092 25.7944 493.955 2 536.574 2V0ZM371.074 204C371.074 236.682 380.377 265.438 398.575 286.037C416.788 306.653 443.825 319 479.074 319V317C444.324 317 417.86 304.847 400.074 284.713C382.272 264.562 373.074 236.318 373.074 204H371.074ZM479.074 319C522.952 319 564.214 294.923 594.475 257.693C624.741 220.458 644.074 169.987 644.074 117H642.074C642.074 169.513 622.908 219.542 592.923 256.432C562.934 293.327 522.197 317 479.074 317V319ZM592.574 91C592.574 138.33 578.742 191.922 556.876 233.661C545.944 254.528 533.027 272.389 518.869 285.019C504.711 297.651 489.376 305 473.574 305V307C490.023 307 505.812 299.349 520.201 286.512C534.59 273.674 547.642 255.597 558.648 234.589C580.656 192.578 594.574 138.67 594.574 91H592.574ZM473.574 305C457.438 305 444.739 297.443 436.032 284.322C427.301 271.163 422.574 252.377 422.574 230H420.574C420.574 252.623 425.347 271.837 434.366 285.428C443.41 299.057 456.71 307 473.574 307V305ZM422.574 230C422.574 177.914 436.784 123.826 458.706 82.7836C469.667 62.2635 482.535 45.0442 496.479 32.9668C510.424 20.8887 525.388 14 540.574 14V12C524.76 12 509.349 19.1738 495.17 31.455C480.989 43.737 467.981 61.174 456.942 81.8414C434.865 123.174 420.574 177.586 420.574 230H422.574ZM540.574 14C558.192 14 571.138 22.4143 579.725 36.2158C588.342 50.0644 592.574 69.3586 592.574 91H594.574C594.574 69.1414 590.306 49.4356 581.423 35.1592C572.511 20.8357 558.956 12 540.574 12V14ZM875.703 115L876.442 115.674L877 115.063L876.503 114.4L875.703 115ZM871.203 109L872.003 108.4L871.347 107.525L870.534 108.257L871.203 109ZM862.703 191L863.358 191.756L863.36 191.754L862.703 191ZM719.703 298.5L719.151 297.666L718.804 297.896L718.723 298.304L719.703 298.5ZM717.203 311L716.223 310.804L715.983 312H717.203V311ZM924.703 311V312H925.301L925.584 311.474L924.703 311ZM970.703 225.5L971.584 225.974L972.137 224.946L971.036 224.557L970.703 225.5ZM962.203 222.5L962.536 221.557L961.808 221.3L961.375 221.939L962.203 222.5ZM777.203 270.5L776.599 269.703L774.227 271.5H777.203V270.5ZM793.703 258L793.249 257.109L793.17 257.149L793.099 257.203L793.703 258ZM991.203 69.5C991.203 47.923 981.795 30.5025 965.483 18.5069C949.201 6.53302 926.098 0 898.703 0V2C925.808 2 948.455 8.46696 964.298 20.1181C980.112 31.7475 989.203 48.577 989.203 69.5H991.203ZM898.703 0C859.944 0 824.352 15.2235 798.447 36.2866C772.579 57.3204 756.203 84.3268 756.203 108H758.203C758.203 85.1732 774.077 58.6796 799.709 37.8384C825.305 17.0265 860.462 2 898.703 2V0ZM756.203 108C756.203 123.008 761.557 134.178 770.373 141.578C779.163 148.957 791.289 152.5 804.703 152.5V150.5C791.617 150.5 779.993 147.043 771.659 140.047C763.35 133.072 758.203 122.492 758.203 108H756.203ZM804.703 152.5C832.585 152.5 855.333 138.793 876.442 115.674L874.965 114.326C854.073 137.207 831.821 150.5 804.703 150.5V152.5ZM876.503 114.4L872.003 108.4L870.403 109.6L874.903 115.6L876.503 114.4ZM870.534 108.257C855.488 121.798 844.763 131.5 826.703 131.5V133.5C845.643 133.5 856.918 123.202 871.872 109.743L870.534 108.257ZM826.703 131.5C817.128 131.5 810.199 128.926 805.639 123.775C801.058 118.598 798.703 110.635 798.703 99.5H796.703C796.703 110.865 799.099 119.402 804.142 125.1C809.207 130.824 816.778 133.5 826.703 133.5V131.5ZM798.703 99.5C798.703 81.8584 809.52 60.4731 826.596 43.4584C843.655 26.4616 866.79 14 891.203 14V12C866.116 12 842.501 24.7883 825.185 42.0416C807.887 59.2769 796.703 81.1416 796.703 99.5H798.703ZM891.203 14C907.737 14 919.823 19.1753 927.783 27.7431C935.755 36.3235 939.703 48.4298 939.703 62.5H941.703C941.703 48.0702 937.651 35.4265 929.248 26.3818C920.833 17.3247 908.17 12 891.203 12V14ZM939.703 62.5C939.703 101.069 915.965 143.317 862.047 190.246L863.36 191.754C917.441 144.683 941.703 101.931 941.703 62.5H939.703ZM862.049 190.244C821.08 225.717 788.614 251.691 719.151 297.666L720.255 299.334C789.792 253.309 822.326 227.283 863.358 191.756L862.049 190.244ZM718.723 298.304L716.223 310.804L718.184 311.196L720.684 298.696L718.723 298.304ZM717.203 312H924.703V310H717.203V312ZM925.584 311.474L971.584 225.974L969.823 225.026L923.823 310.526L925.584 311.474ZM971.036 224.557L962.536 221.557L961.87 223.443L970.37 226.443L971.036 224.557ZM961.375 221.939C941.404 251.397 920.665 269.5 895.703 269.5V271.5C921.741 271.5 943.003 252.603 963.031 223.061L961.375 221.939ZM895.703 269.5H777.203V271.5H895.703V269.5ZM777.807 271.297L794.307 258.797L793.099 257.203L776.599 269.703L777.807 271.297ZM794.157 258.891C857.919 226.385 907.145 196.961 940.438 166.74C973.751 136.502 991.203 105.378 991.203 69.5H989.203C989.203 104.622 972.156 135.248 939.094 165.26C906.011 195.289 856.988 224.615 793.249 257.109L794.157 258.891ZM1258.28 1.49998L1259.19 1.91216L1259.83 0.499985H1258.28V1.49998ZM1251.78 1.49998V0.499985H1251.54L1251.33 0.60556L1251.78 1.49998ZM1126.78 11L1127.22 10.1056L1126.55 9.77048L1126.04 10.3195L1126.78 11ZM1120.28 18L1119.54 17.3195L1118.94 17.9746L1119.52 18.6522L1120.28 18ZM1191.28 45.5L1192.24 45.7671L1192.71 44.0726L1191.01 44.5352L1191.28 45.5ZM1128.78 271L1129.74 271.275L1129.74 271.267L1128.78 271ZM1107.28 295.5L1107.59 296.449L1107.6 296.445L1107.28 295.5ZM1069.78 300.5L1069.72 299.502L1068.98 299.545L1068.8 300.268L1069.78 300.5ZM1067.28 311L1066.3 310.768L1066.01 312H1067.28V311ZM1218.28 311V312H1219.07L1219.25 311.232L1218.28 311ZM1220.78 300.5L1221.75 300.732L1222.03 299.564L1220.83 299.501L1220.78 300.5ZM1186.28 293L1186.72 292.106L1186.71 292.1L1186.7 292.094L1186.28 293ZM1177.28 269L1176.31 268.73L1176.31 268.744L1176.31 268.757L1177.28 269ZM1231.28 76.5L1232.24 76.7701L1232.24 76.7577L1231.28 76.5ZM1258.28 0.499985H1251.78V2.49998H1258.28V0.499985ZM1251.33 0.60556C1234.37 9.08766 1204.04 21.5 1175.78 21.5V23.5C1204.52 23.5 1235.19 10.9123 1252.22 2.39442L1251.33 0.60556ZM1175.78 21.5C1155.95 21.5 1140.11 16.5468 1127.22 10.1056L1126.33 11.8944C1139.45 18.4532 1155.6 23.5 1175.78 23.5V21.5ZM1126.04 10.3195L1119.54 17.3195L1121.01 18.6804L1127.51 11.6804L1126.04 10.3195ZM1119.52 18.6522C1138.15 40.3036 1156.41 48.5 1172.78 48.5V46.5C1157.15 46.5 1139.41 38.6964 1121.04 17.3477L1119.52 18.6522ZM1172.78 48.5C1181.83 48.5 1185.93 47.9954 1191.54 46.4648L1191.01 44.5352C1185.63 46.0046 1181.72 46.5 1172.78 46.5V48.5ZM1190.31 45.2329L1127.81 270.733L1129.74 271.267L1192.24 45.7671L1190.31 45.2329ZM1127.82 270.725C1124.87 281.048 1119.53 290.201 1106.95 294.555L1107.6 296.445C1121.03 291.799 1126.69 281.952 1129.74 271.275L1127.82 270.725ZM1106.96 294.551C1103.32 295.764 1096.18 296.88 1088.78 297.757C1081.43 298.63 1073.95 299.253 1069.72 299.502L1069.84 301.498C1074.11 301.247 1081.63 300.62 1089.02 299.743C1096.38 298.87 1103.73 297.736 1107.59 296.449L1106.96 294.551ZM1068.8 300.268L1066.3 310.768L1068.25 311.232L1070.75 300.732L1068.8 300.268ZM1067.28 312H1218.28V310H1067.28V312ZM1219.25 311.232L1221.75 300.732L1219.8 300.268L1217.3 310.768L1219.25 311.232ZM1220.83 299.501C1216.16 299.256 1208.85 298.02 1202.05 296.523C1198.66 295.777 1195.42 294.969 1192.72 294.195C1189.99 293.415 1187.88 292.686 1186.72 292.106L1185.83 293.894C1187.17 294.564 1189.44 295.335 1192.17 296.118C1194.92 296.906 1198.2 297.723 1201.62 298.477C1208.45 299.98 1215.89 301.244 1220.72 301.499L1220.83 299.501ZM1186.7 292.094C1183 290.367 1180.55 288.7 1179.01 286.702C1177.49 284.736 1176.78 282.346 1176.78 279H1174.78C1174.78 282.654 1175.56 285.514 1177.42 287.923C1179.26 290.3 1182.05 292.133 1185.85 293.906L1186.7 292.094ZM1176.78 279C1176.78 276.611 1177.26 273.198 1178.25 269.243L1176.31 268.757C1175.3 272.802 1174.78 276.389 1174.78 279H1176.78ZM1178.24 269.27L1232.24 76.7701L1230.31 76.2299L1176.31 268.73L1178.24 269.27ZM1232.24 76.7577C1238.23 54.3158 1249.71 22.8675 1259.19 1.91216L1257.37 1.08783C1247.85 22.1325 1236.33 53.6842 1230.31 76.2423L1232.24 76.7577Z" fill="#A68676" fill-opacity="0.5"/>
</svg>
