<svg width="301" height="157" viewBox="0 0 301 157" fill="none" xmlns="http://www.w3.org/2000/svg">
<path d="M37.9756 44V42.9634C37.1275 42.9163 35.2429 42.5394 34.6775 42.2567C33.5938 41.7384 33.2169 40.9846 33.2169 39.948V15.7774C33.2169 14.7409 33.4996 13.8457 34.6775 13.4687C35.5256 13.186 37.1275 12.9033 37.9756 12.8562V11.8197H23.3696V12.8562C24.2177 12.9033 25.961 13.3745 26.762 13.7043C27.8457 14.1755 28.2226 14.9764 28.2226 16.013V26.4728H11.9675V15.7774C11.9675 14.7409 12.2502 13.8457 13.4281 13.4687C14.2762 13.186 15.9724 12.9033 16.8205 12.8562V11.8197H2.21446V12.8562C3.06255 12.9033 4.71162 13.3745 5.51259 13.7043C6.64338 14.1755 6.97319 14.9764 6.97319 16.013V40.1836C6.97319 41.2201 6.64338 42.0682 5.51259 42.4923C4.90008 42.7279 3.06255 42.9163 2.21446 42.9634V44H16.8205V42.9634C15.9724 42.9163 13.9935 42.4923 13.4281 42.2567C12.3444 41.7855 11.9675 40.9846 11.9675 39.948V28.0276H28.2226V40.1836C28.2226 41.2201 27.8928 42.0682 26.762 42.4923C26.1495 42.7279 24.2177 42.9163 23.3696 42.9634V44H37.9756ZM79.5104 44V42.9634C78.6152 42.9163 77.2488 42.5865 76.4007 42.1154C75.2699 41.4557 74.8459 40.749 74.4689 39.8067C72.7256 35.4249 68.1083 23.4574 63.3024 11.3014H61.512C57.9312 20.3006 54.0205 30.2892 50.6753 38.3932C49.9685 40.0422 49.1204 41.4086 47.9897 42.0682C47.1416 42.5394 45.5867 42.9163 44.6915 42.9634V44H57.6485V42.9634C55.9994 42.8692 52.3243 42.1154 52.3243 40.4192C52.3243 39.7595 52.5128 38.8172 52.8426 37.7807C53.2667 36.3672 53.8321 34.7652 54.7273 32.5979H66.3178L69.239 40.0422C69.3804 40.4192 69.4275 40.7961 69.4275 41.1259C69.4275 42.3038 66.3178 42.8692 64.6688 42.9634V44H79.5104ZM65.7053 31.0431H55.3398L60.4754 17.8976L65.7053 31.0431ZM113.266 35.472C113.266 29.2526 106.764 27.2738 103.419 26.8968V26.4728C107.895 25.2007 111.57 23.5987 111.57 18.2746C111.57 13.2331 105.821 11.8197 102.335 11.8197H86.2211V12.8562C87.0692 12.9033 88.5298 13.2331 89.5192 13.6572C90.65 14.1284 90.9798 14.9764 90.9798 16.013V40.0894C90.9798 41.1259 90.65 41.9269 89.5192 42.3509C88.9067 42.5865 86.8807 42.9163 86.0326 42.9634V44H102.429C106.905 44 113.266 41.5028 113.266 35.472ZM105.916 19.1698C105.916 23.1275 104.078 26.3314 98.8954 26.3314H95.9742V13.186C97.1049 13.1389 99.0367 13.0918 99.8377 13.0918C102.759 13.0918 105.916 14.5053 105.916 19.1698ZM107.47 34.5297C107.47 38.3461 106.01 42.6807 100.403 42.6807C97.6232 42.6807 96.304 41.9269 95.9742 39.8067V27.6978C96.8222 27.6507 99.1309 27.6036 99.979 27.6036C104.832 27.6036 107.47 30.7132 107.47 34.5297ZM150.817 34.8595H149.686C149.215 36.4614 146.812 40.1836 145.587 41.5028C144.645 42.4923 141.394 42.7279 138.661 42.7279C133.572 42.7279 133.054 42.3981 133.054 38.3932V15.8717C133.054 14.8351 133.337 13.8928 134.515 13.5158C135.363 13.2331 137.106 12.9033 137.954 12.8562V11.8197H123.207V12.8562C124.055 12.9033 125.751 13.3745 126.599 13.7514C127.777 14.2697 128.06 15.0707 128.06 16.1072V40.0894C128.06 41.1259 127.73 42.0211 126.599 42.4452C125.987 42.6807 124.055 42.9163 123.207 42.9634V44H150.11L150.817 34.8595ZM190.06 44V42.9634C189.165 42.9163 187.799 42.5865 186.951 42.1154C185.82 41.4557 185.396 40.749 185.019 39.8067C183.276 35.4249 178.658 23.4574 173.852 11.3014H172.062C168.481 20.3006 164.57 30.2892 161.225 38.3932C160.519 40.0422 159.67 41.4086 158.54 42.0682C157.692 42.5394 156.137 42.9163 155.241 42.9634V44H168.198V42.9634C166.549 42.8692 162.874 42.1154 162.874 40.4192C162.874 39.7595 163.063 38.8172 163.393 37.7807C163.817 36.3672 164.382 34.7652 165.277 32.5979H176.868L179.789 40.0422C179.93 40.4192 179.977 40.7961 179.977 41.1259C179.977 42.3038 176.868 42.8692 175.219 42.9634V44H190.06ZM176.255 31.0431H165.89L171.025 17.8976L176.255 31.0431ZM179.93 2.34931C179.93 1.4541 179.129 0.558897 178.046 0.558897C176.868 0.558897 176.067 1.03006 175.172 2.58489C174.135 4.32819 173.004 6.25995 170.601 9.74655L171.261 10.3119C175.03 7.29651 176.821 6.07149 178.234 4.9407C179.365 4.04549 179.93 3.52722 179.93 2.34931ZM30.2015 91.8489L28.9764 91.1893C27.1389 95.2884 24.4533 98.2567 18.7051 98.2567C12.5329 98.2567 7.39724 92.4614 7.39724 83.9334C7.39724 73.238 12.0617 68.5735 16.8676 68.5735C22.9456 68.5735 26.1495 73.5207 27.8457 78.9862H28.9764L28.788 67.3485H26.8562L25.4427 69.7514C24.0292 68.4322 20.9196 67.2071 18.3282 67.2071C8.85784 67.2071 1.7433 74.6044 1.7433 84.3103C1.7433 94.2989 8.05686 100.707 17.3387 100.707C24.5004 100.707 28.2697 96.2307 30.2015 91.8489ZM71.1605 83.6978C71.1605 79.0804 69.4643 74.7457 66.6845 71.9659C63.1508 68.5264 59.1459 67.0658 54.717 67.0658C50.1467 67.0658 46.0005 68.7149 42.7966 71.9659C39.734 75.0284 38.2263 79.1275 38.2263 84.2632C38.2263 89.3989 40.1581 93.4037 43.2677 96.3249C46.3303 99.199 50.2409 100.754 54.5285 100.754C59.3815 100.754 63.1979 99.0577 66.2604 96.2307C69.6999 92.8855 71.1605 88.5979 71.1605 83.6978ZM65.4594 83.8392C65.4594 92.6028 62.02 99.2933 54.717 99.2933C47.3668 99.2933 43.9274 92.4143 43.9274 84.0276C43.9274 74.2746 48.0265 68.5264 54.717 68.5264C62.5382 68.5264 65.4594 76.1592 65.4594 83.8392ZM115.892 68.8562V67.8197H101.852V68.8562C102.935 68.9033 105.762 69.7043 106.657 70.2697C107.694 70.9293 108.259 73.238 108.259 76.6304V92.6028L88.5648 67.8197H78.8588V68.8562C80.131 68.9033 82.7695 70.0341 83.9003 70.9293C84.8426 71.6832 85.408 73.2851 85.408 74.6515V91.2364C85.408 94.9115 84.9839 96.8903 83.8531 97.6913C83.3349 98.0682 80.3194 98.9163 79.4713 98.9634V100H93.6062V98.9634C92.7581 98.9163 89.5542 98.1154 88.7532 97.4557C87.7167 96.6076 87.1513 94.5816 87.1513 91.0008V73.7563L108.259 100.33H110.003V76.3477C110.003 73.238 110.285 70.8351 111.557 70.0341C112.311 69.563 115.044 68.9033 115.892 68.8562ZM37.2689 124.856V123.82H23.2283V124.856C24.3119 124.903 27.1389 125.704 28.0341 126.27C29.0707 126.929 29.6361 129.238 29.6361 132.63V148.603L9.94151 123.82H0.235581V124.856C1.50772 124.903 4.14622 126.034 5.27701 126.929C6.21933 127.683 6.78473 129.285 6.78473 130.652V147.236C6.78473 150.911 6.36068 152.89 5.22989 153.691C4.71162 154.068 1.69618 154.916 0.848091 154.963V156H14.9829V154.963C14.1348 154.916 10.9309 154.115 10.13 153.456C9.09342 152.608 8.52803 150.582 8.52803 147.001V129.756L29.6361 156.33H31.3794V132.348C31.3794 129.238 31.6621 126.835 32.9342 126.034C33.6881 125.563 36.4208 124.903 37.2689 124.856ZM77.4181 139.698C77.4181 135.08 75.7219 130.746 72.9421 127.966C69.4084 124.526 65.4035 123.066 60.9746 123.066C56.4043 123.066 52.2581 124.715 49.0542 127.966C45.9916 131.028 44.4839 135.128 44.4839 140.263C44.4839 145.399 46.4157 149.404 49.5253 152.325C52.5879 155.199 56.4985 156.754 60.7861 156.754C65.6391 156.754 69.4555 155.058 72.518 152.231C75.9575 148.885 77.4181 144.598 77.4181 139.698ZM71.7171 139.839C71.7171 148.603 68.2776 155.293 60.9746 155.293C53.6245 155.293 50.185 148.414 50.185 140.028C50.185 130.275 54.2841 124.526 60.9746 124.526C68.7959 124.526 71.7171 132.159 71.7171 139.839ZM108.91 146.812C108.91 141.818 106.319 139.933 102.267 138.096C100.147 137.059 98.1676 136.635 95.8589 135.363C93.2675 133.95 91.7127 132.301 91.7127 129.426C91.7127 125.751 94.8224 124.621 96.1887 124.621C102.502 124.621 104.623 128.72 106.507 134.044H107.544L107.308 123.348H105.706L104.104 125.563C102.455 124.291 99.7696 123.207 97.3195 123.207C91.9483 123.207 87.8963 126.929 87.8963 131.924C87.8963 136.117 89.8281 138.708 93.456 140.31C96.0945 141.488 97.508 142.006 100.194 143.09C103.021 144.221 104.811 146.388 104.811 149.262C104.811 152.796 103.021 155.199 98.8273 155.199C92.9848 155.199 89.9694 150.44 88.0376 145.446H86.954L87.2838 156.471H88.8857L90.5348 154.257C91.9483 155.387 94.4454 156.613 98.2619 156.613C104.34 156.613 108.91 152.561 108.91 146.812ZM151.026 139.698C151.026 135.08 149.33 130.746 146.55 127.966C143.016 124.526 139.011 123.066 134.583 123.066C130.012 123.066 125.866 124.715 122.662 127.966C119.6 131.028 118.092 135.128 118.092 140.263C118.092 145.399 120.024 149.404 123.133 152.325C126.196 155.199 130.106 156.754 134.394 156.754C139.247 156.754 143.063 155.058 146.126 152.231C149.565 148.885 151.026 144.598 151.026 139.698ZM145.325 139.839C145.325 148.603 141.886 155.293 134.583 155.293C127.232 155.293 123.793 148.414 123.793 140.028C123.793 130.275 127.892 124.526 134.583 124.526C142.404 124.526 145.325 132.159 145.325 139.839ZM188.36 132.018V123.82H158.866V132.018H159.997C160.515 129.945 163.059 125.563 165.085 125.28C166.216 125.139 167.865 125.092 168.902 125.092H171.116V152.042C171.116 153.079 170.786 153.974 169.655 154.398C169.043 154.634 166.64 154.916 165.792 154.963V156H181.434V154.963C180.586 154.916 178.136 154.398 177.571 154.162C176.487 153.691 176.11 152.843 176.11 151.807V125.092H178.325C179.597 125.092 181.01 125.139 182.141 125.28C184.167 125.563 186.711 129.945 187.23 132.018H188.36ZM228.814 149.922V148.933H227.589V149.922C227.589 153.314 226.883 154.115 225.563 154.115C224.857 154.115 223.585 153.974 223.019 151.854C222.407 149.545 222.124 147.236 221.417 144.645C220.475 141.206 216.517 139.981 214.303 139.745V139.274C217.648 138.331 223.019 136.211 223.019 131.076C223.019 125.94 217.695 123.82 212.936 123.82H196.493V124.856C197.341 124.903 199.037 125.233 199.885 125.516C201.063 125.893 201.346 126.835 201.346 127.872C201.346 132.112 201.346 147.613 201.346 152.089C201.346 153.126 201.016 154.021 199.885 154.445C199.273 154.681 197.341 154.916 196.493 154.963V156H211.24V154.963C210.392 154.916 208.413 154.681 207.801 154.445C206.67 154.021 206.34 153.126 206.34 152.089C206.34 150.063 206.34 145.399 206.34 140.31H210.062C215.528 140.31 216.376 144.833 216.847 148.556C217.554 153.88 219.344 156.518 223.113 156.518C227.26 156.518 228.814 154.351 228.814 149.922ZM217.224 132.018C217.224 137.389 213.408 138.944 209.261 138.944H206.34V125.139H210.486C214.067 125.139 217.224 126.647 217.224 132.018ZM269.49 139.698C269.49 135.08 267.794 130.746 265.014 127.966C261.48 124.526 257.475 123.066 253.047 123.066C248.476 123.066 244.33 124.715 241.126 127.966C238.064 131.028 236.556 135.128 236.556 140.263C236.556 145.399 238.488 149.404 241.597 152.325C244.66 155.199 248.571 156.754 252.858 156.754C257.711 156.754 261.527 155.058 264.59 152.231C268.029 148.885 269.49 144.598 269.49 139.698ZM263.789 139.839C263.789 148.603 260.35 155.293 253.047 155.293C245.696 155.293 242.257 148.414 242.257 140.028C242.257 130.275 246.356 124.526 253.047 124.526C260.868 124.526 263.789 132.159 263.789 139.839ZM300.982 146.812C300.982 141.818 298.391 139.933 294.339 138.096C292.218 137.059 290.24 136.635 287.931 135.363C285.34 133.95 283.785 132.301 283.785 129.426C283.785 125.751 286.894 124.621 288.261 124.621C294.574 124.621 296.695 128.72 298.579 134.044H299.616L299.38 123.348H297.778L296.176 125.563C294.527 124.291 291.842 123.207 289.392 123.207C284.02 123.207 279.968 126.929 279.968 131.924C279.968 136.117 281.9 138.708 285.528 140.31C288.166 141.488 289.58 142.006 292.266 143.09C295.093 144.221 296.883 146.388 296.883 149.262C296.883 152.796 295.093 155.199 290.899 155.199C285.057 155.199 282.041 150.44 280.11 145.446H279.026L279.356 156.471H280.958L282.607 154.257C284.02 155.387 286.517 156.613 290.334 156.613C296.412 156.613 300.982 152.561 300.982 146.812Z" fill="#F1EEE9"/>
</svg>
