<svg width="230" height="47" viewBox="0 0 230 47" fill="none" xmlns="http://www.w3.org/2000/svg">
<g clip-path="url(#clip0_342_2274)">
<path fill-rule="evenodd" clip-rule="evenodd" d="M23.8442 0C23.57 0 23.4346 0.095182 23.4346 0.412455C23.4346 1.28319 25.7817 0.504112 25.7817 2.24559C25.7817 3.65569 23.7065 8.82607 19.5562 17.7567C17.9001 21.3313 17.2056 23.1186 17.0239 23.1186C16.7461 23.1186 16.0054 20.873 13.8863 16.2902C9.91876 7.73794 7.75337 3.02467 7.75337 1.97062C7.75337 0.560515 10.3746 1.55464 10.3746 0.458283C10.3746 0.27497 10.2892 0.105757 10.193 0.105757C9.36673 0.105757 7.65721 0.3349 5.16417 0.3349C3.38342 0.3349 1.89115 0.151586 0.790652 0.151586H0.505732C0.149582 0.151586 0 0.193889 0 0.560516C0 1.19859 0.552031 0.789658 1.75938 1.29377C2.63194 1.66392 3.41547 2.94359 4.4305 4.91421C7.70351 11.3196 11.3469 19.0152 14.5309 26.6157C15.1328 28.0822 15.0829 28.678 15.8166 28.678C16.6535 28.678 16.6072 28.2655 17.0239 27.0281C17.9855 24.0987 20.7991 18.1903 24.9554 8.94005C26.8465 4.72737 28.0396 2.16451 29.4251 1.38543C30.579 0.743829 31.2307 1.24794 31.2307 0.468859C31.2307 0.151586 31.1381 0.116333 30.8532 0.116333C29.2933 0.116333 28.004 0.253818 26.9356 0.253818C25.7817 0.253818 24.7666 0.0211514 23.8442 0.0211514" fill="white" fill-opacity="0.3"/>
<path fill-rule="evenodd" clip-rule="evenodd" d="M43.5021 7.96484C42.3343 7.96484 40.7018 8.23196 38.7159 8.23196C37.4775 8.23196 36.2987 8.0984 35.1644 8.0984H34.9896C34.7107 8.0984 34.6178 8.13355 34.6178 8.44987C34.6178 9.01924 36.0644 8.51665 37.0648 9.19146C37.9536 9.79598 37.9536 12.7061 37.9536 18.3085V21.1202C37.9536 24.2834 37.9089 26.234 37.4478 27.0951C37.128 27.6293 36.0979 27.9351 34.8967 27.9351C34.5248 27.9351 34.4355 28.0722 34.4355 28.3393C34.4355 28.6064 34.5434 28.6416 34.7888 28.6416C35.9268 28.6416 37.2024 28.4729 38.6936 28.4729C40.7167 28.4729 42.2748 28.6767 43.4091 28.6767H43.5913C43.8777 28.6767 43.9632 28.6416 43.9632 28.3674C43.9632 27.8683 43.4686 28.1706 42.2265 27.9C41.0551 27.668 40.884 26.589 40.884 23.83C40.884 22.8529 40.9175 21.679 40.9175 20.231C40.9175 13.3001 41.0253 9.73272 41.7654 9.13171C42.6542 8.43229 44.045 8.80133 44.045 8.20384C44.045 7.96836 43.8702 7.96836 43.5095 7.96836" fill="white" fill-opacity="0.3"/>
<path fill-rule="evenodd" clip-rule="evenodd" d="M64.2006 0.796875C63.9678 1.78001 63.4952 2.25743 62.6453 2.25743C62.3614 2.25389 62.0796 2.2074 61.8095 2.11951L59.9615 1.57843C59.5334 1.44465 59.0875 1.37669 58.639 1.37685C57.1966 1.37685 56.0575 2.56156 55.6484 4.72587H56.456C56.7593 3.60835 57.1966 3.23702 58.11 3.23702C58.4276 3.25263 58.7417 3.30969 59.0446 3.40677L60.8996 3.94785C61.2518 4.0504 61.6157 4.10745 61.9823 4.1176C63.4882 4.1176 64.5356 2.96472 64.9729 0.796875H64.2006ZM52.2558 11.8306C53.9979 13.5635 58.4451 17.3192 65.1775 23.752C68.7464 27.1717 68.8769 28.558 69.4447 28.558C69.7515 28.558 69.8538 28.5226 69.8538 28.2043V27.8507C69.8538 26.4962 69.7515 24.431 69.7515 21.6195V17.5526C69.7515 12.0711 69.815 9.1924 70.5627 8.58767C71.1657 8.11025 72.0686 8.41792 72.0686 7.97233C72.0686 7.61868 71.9063 7.61868 71.5995 7.61868C71.2927 7.61868 70.4921 7.68588 69.2437 7.68588C67.8718 7.68588 66.8209 7.41357 66.1826 7.41357C66.0203 7.41357 65.9181 7.4843 65.9181 7.76721C65.9181 8.24463 66.7221 7.87331 67.565 8.41792C68.7464 9.1924 68.8064 12.0039 68.8064 17.7259C68.8064 18.7373 68.8064 20.3994 68.7464 22.737L68.4714 22.9067C61.2029 16.6083 55.9164 11.7669 52.7248 7.73892C51.8502 7.80611 51.0355 7.87331 50.3655 7.87331C49.3886 7.87331 48.715 7.76721 48.3447 7.76721C48.1472 7.76721 48.0449 7.84148 48.0449 8.12086C48.0449 8.59828 49.318 8.19159 50.1927 9.18179C51.0673 10.172 51.1061 13.7509 51.1061 20.3181C51.1061 21.8104 51.0073 23.2993 51.0073 24.7528C51.0073 25.4282 51.0355 25.9728 51.0355 26.376C51.0355 27.2919 50.9015 27.6314 50.2315 27.833C49.2193 28.1372 48.789 28.0028 48.789 28.4095C48.789 28.6782 48.9195 28.6782 49.117 28.6782C49.7271 28.6782 51.0073 28.4413 52.8235 28.4413C53.9309 28.4413 54.8373 28.6146 55.5814 28.6146C55.7507 28.6146 55.8142 28.6146 55.8142 28.3741C55.8142 27.5961 53.6664 28.2043 52.7248 27.3132C52.0406 26.7049 52.0195 23.3205 52.0195 16.7533V11.9685L52.2558 11.8306Z" fill="white" fill-opacity="0.3"/>
<path fill-rule="evenodd" clip-rule="evenodd" d="M90.6366 26.0542C90.74 26.33 90.7986 26.6212 90.8102 26.9162C90.8102 28.056 89.1876 27.6088 89.1876 28.2616C89.1876 28.4708 89.216 28.5033 89.3896 28.5033C89.4923 28.5033 89.588 28.4708 89.7438 28.4708C90.3178 28.4708 91.338 28.2292 92.787 28.2292C94.615 28.2292 95.6212 28.3302 95.8302 28.3302C96.0392 28.3302 96.0959 28.2977 96.0959 28.0236C96.0959 27.7494 95.6566 27.8504 95.0862 27.6088C94.1757 27.2264 93.7683 26.2958 93.0952 24.6402C89.3896 15.5218 87.3915 10.2736 86.9912 8.92818C86.5554 7.40964 86.7184 7.16797 86.0453 7.16797C85.5741 7.16797 85.5741 7.40964 85.3686 8.13104C85.1632 8.85243 83.9799 12.1745 81.787 17.906C79.4878 23.8431 78.3754 27.1615 77.1177 27.8144C76.5155 28.1246 76.0762 27.9875 76.0762 28.3662C76.0762 28.5394 76.1718 28.5754 76.3738 28.5754C76.682 28.5754 77.4578 28.4023 78.7721 28.4023C80.2636 28.4023 81.415 28.6764 82.2263 28.6764C82.4317 28.6764 82.5628 28.5754 82.5628 28.4023C82.5628 27.7458 79.9271 28.1606 79.9271 26.5736C79.9422 26.2048 80.0103 25.8402 80.129 25.4915L81.5106 21.6284C81.6842 21.1451 81.8189 21.109 82.2192 21.109H88.3764C88.674 21.109 88.9149 21.1451 89.0495 21.5238L90.6366 26.0542ZM85.4678 12.4847L88.302 19.5616C88.3666 19.6785 88.4019 19.8098 88.4047 19.9439C88.4047 20.1135 88.3374 20.1856 88.1709 20.1856H82.5026C82.2688 20.1856 82.1483 20.1856 82.1483 19.9764C82.1564 19.8433 82.194 19.7138 82.2582 19.5977L84.9223 12.3837C84.9896 12.2141 85.0958 12.1095 85.1986 12.1095C85.3013 12.1095 85.3615 12.2827 85.4643 12.4702" fill="white" fill-opacity="0.3"/>
<path fill-rule="evenodd" clip-rule="evenodd" d="M132.517 27.022C132.841 23.9897 133.731 22.3798 133.731 21.6474C133.731 21.5058 133.54 21.4174 133.212 21.4174C132.884 21.4174 132.852 21.9198 132.236 23.0697C130.647 25.9676 128.175 27.344 124.393 27.344C117.822 27.344 112.688 21.8278 112.688 13.7852C112.688 6.15665 116.932 1.23841 123.37 1.23841C125.47 1.23841 128.175 2.02037 130.323 3.30478C131.818 4.18228 131.865 4.91471 131.865 6.06819V6.70863C131.865 6.98461 131.911 7.06246 132.282 7.06246C132.654 7.06246 132.747 6.83601 132.794 6.1885C132.915 4.53207 133.192 2.89028 133.623 1.28441C133.623 1.10041 133.482 1.00842 133.298 1.00842C132.971 1.00842 132.549 1.23841 132.037 1.23841C130.733 1.23841 128.075 0 124.151 0C114.727 0 108.105 5.92666 108.105 14.2452C108.105 22.7372 114.774 28.678 123.78 28.678C127.001 28.678 129.707 27.758 132.506 27.022" fill="white" fill-opacity="0.3"/>
<path fill-rule="evenodd" clip-rule="evenodd" d="M139.345 17.784C139.345 23.8594 144.103 28.6764 150.553 28.6764C157.002 28.6764 161.76 23.8594 161.76 17.6493C161.76 11.6802 157.107 7.16797 150.791 7.16797C144.407 7.16797 139.338 11.8823 139.338 17.784H139.345ZM149.822 8.42275C152.234 8.42275 154.479 9.50739 156.236 11.6412C157.931 13.7909 158.866 16.4242 158.897 19.1415C158.897 24.1677 155.961 27.3508 151.789 27.3508C148.991 27.3508 146.438 25.9967 144.616 23.4872C143.102 21.3915 142.27 18.8953 142.23 16.3271C142.23 11.6129 145.336 8.42275 149.822 8.42275Z" fill="white" fill-opacity="0.3"/>
<path fill-rule="evenodd" clip-rule="evenodd" d="M174.06 7.96484C172.596 7.96484 170.896 8.31384 169.021 8.31384C168.267 8.31492 167.514 8.26009 166.768 8.14981C166.636 8.14981 166.564 8.34874 166.564 8.58256C166.564 8.81639 167.518 8.71867 168.096 9.18632C168.886 9.7831 168.918 11.6921 168.918 15.2309V24.7305C168.918 26.4371 168.886 27.3724 168.232 27.7074C167.314 28.1751 166.836 27.9413 166.836 28.374C166.83 28.415 166.835 28.4566 166.849 28.4956C166.862 28.5347 166.885 28.5701 166.915 28.5991C166.945 28.6281 166.982 28.65 167.022 28.663C167.062 28.676 167.105 28.6798 167.147 28.6741C168.366 28.5143 169.595 28.4361 170.825 28.4403C172.492 28.4403 173.992 28.5415 175.224 28.5415C179.888 28.5415 182.58 26.3045 182.58 23.1635C182.58 20.7555 180.98 18.7208 177.938 17.7506C176.952 17.4505 176.31 17.4016 176.31 17.283C176.31 17.1643 176.645 17.1504 177.088 16.9828C179.334 16.1488 180.427 14.7458 180.427 12.774C180.427 10.0344 178.177 7.96484 174.053 7.96484H174.06ZM171.774 18.0508C172.351 17.9868 172.93 17.9542 173.51 17.953C177.292 17.953 179.506 19.9877 179.506 23.1321C179.506 25.9694 177.674 27.669 174.396 27.669C172.896 27.669 172.149 27.4352 171.978 26.8349C171.878 26.5348 171.774 24.1267 171.774 19.7224V18.0508ZM171.774 17.1504V10.8022C171.774 9.00136 171.878 8.86525 173.342 8.86525C175.76 8.86525 177.431 10.6102 177.431 13.2102C177.431 15.8102 175.76 17.1853 172.453 17.1853C172.249 17.1853 172.01 17.1504 171.774 17.1504Z" fill="white" fill-opacity="0.3"/>
<path fill-rule="evenodd" clip-rule="evenodd" d="M187.396 17.784C187.396 23.8594 192.156 28.6764 198.601 28.6764C205.046 28.6764 209.807 23.8594 209.807 17.6493C209.807 11.6802 205.151 7.16797 198.84 7.16797C192.46 7.16797 187.385 11.8823 187.385 17.784H187.396ZM197.867 8.42275C200.282 8.42275 202.527 9.50739 204.284 11.6412C205.975 13.7924 206.907 16.4252 206.937 19.1415C206.937 24.1677 204.009 27.3508 199.834 27.3508C197.04 27.3508 194.488 25.9967 192.659 23.4872C191.147 21.3905 190.317 18.8947 190.277 16.3271C190.277 11.6129 193.382 8.42275 197.867 8.42275Z" fill="white" fill-opacity="0.3"/>
<path fill-rule="evenodd" clip-rule="evenodd" d="M216.098 28.1341C216.129 28.0787 216.172 28.0312 216.226 27.9954C216.279 27.9597 216.34 27.9368 216.403 27.9285C217.275 27.9285 219.214 28.6764 222.025 28.6764C226.289 28.6764 229.024 26.3689 229.024 23.0441C229.024 20.2971 227.364 18.5354 224.106 17.1105C220.671 15.6147 218.074 15.005 218.074 11.8468C218.074 9.61018 219.89 7.97968 222.301 7.97968C224.557 7.97968 226.296 8.86228 227.117 10.2163C227.811 11.3718 227.774 12.1871 227.916 12.1871C228.279 12.1871 228.366 12.1871 228.366 12.0169C228.239 11.3221 228.158 10.62 228.123 9.91501C228.123 9.11577 228.216 8.31909 228.399 7.54015C228.402 7.48224 228.382 7.42536 228.344 7.38119C228.305 7.33703 228.251 7.30892 228.192 7.30266C227.952 7.30266 227.466 7.77409 226.805 7.77409C225.904 7.77409 224.557 7.16797 222.748 7.16797C218.35 7.16797 215.615 9.81577 215.615 13.0697C215.615 15.5792 217.068 17.1105 220.05 18.4326C223.681 20.0596 226.492 20.6054 226.492 23.9622C226.492 26.2697 224.971 27.6946 222.196 27.6946C219.654 27.6946 216.861 26.6312 216.062 25.2843C215.368 24.1677 215.303 22.8421 215.194 22.8421C214.853 22.8421 214.609 22.9094 214.609 23.0087C214.609 23.6538 215.401 25.2843 215.401 27.9994V28.4709H215.96L216.098 28.1341Z" fill="white" fill-opacity="0.3"/>
<path d="M62.4866 47.0007C61.4152 44.3849 59.9581 40.7946 59.3081 39.1902C58.8796 38.1343 58.6332 38.0305 57.6582 37.9231V37.4414H61.8116V37.9231L61.2402 38.0083C60.6902 38.0713 60.6295 38.2195 60.8545 38.8086C61.1402 39.5904 62.3223 42.4619 63.2579 44.6776C63.9722 43.014 65.0936 39.8868 65.4186 38.9383C65.6435 38.264 65.5436 38.0713 64.8507 37.9898L64.4008 37.9231V37.4414H68.0684V37.9231C66.9971 38.0491 66.7828 38.2417 66.1328 39.6349C65.6043 40.7464 64.24 44.0255 63.0544 47.0007H62.4866Z" fill="white" fill-opacity="0.3"/>
<path d="M76.3903 44.7285C76.3903 46.2935 76.4998 46.4026 77.6778 46.5079V47.0007H73.6738V46.5079C74.8486 46.4026 74.9613 46.2935 74.9613 44.7285V39.7137C74.9613 38.1299 74.8518 38.0396 73.6738 37.938V37.4414H77.6746V37.938C76.4998 38.0396 76.3871 38.1299 76.3871 39.7137L76.3903 44.7285Z" fill="white" fill-opacity="0.3"/>
<path d="M92.9418 47.0007H92.269L85.8337 39.8043V42.8906C85.8138 43.7939 85.8558 44.6974 85.9594 45.5948C86.0222 46.103 86.4842 46.3367 87.5414 46.3998V46.882H83.5161V46.3998C84.4032 46.3553 84.8468 46.103 84.9281 45.5948C85.0337 44.6975 85.0769 43.7939 85.0574 42.8906V40.0529C85.0574 38.3651 84.7174 38.0498 83.2832 37.9459V37.4562H85.8706L92.1544 44.367H92.1951V41.4365C92.2139 40.5259 92.1719 39.615 92.0694 38.71C91.9844 38.2056 91.5187 37.9904 90.4652 37.9311V37.4414H94.4942V37.9311C93.6108 37.9719 93.1672 38.2056 93.0785 38.71C92.9781 39.6152 92.9361 40.5259 92.9529 41.4365L92.9418 47.0007Z" fill="white" fill-opacity="0.3"/>
<path d="M108.092 40.291C107.676 38.5591 106.695 38.0521 105.297 38.0521C103.106 38.0521 101.908 39.759 101.908 42.0408C101.908 44.6439 103.305 46.3937 105.437 46.3937C106.911 46.3937 107.673 45.5795 108.41 43.9905L108.906 44.0726C108.686 44.8475 108.389 46.0866 108.169 46.6151C107.241 46.8425 106.293 46.9717 105.339 47.0007C101.747 47.0007 100.098 44.6439 100.098 42.3229C100.098 39.4126 102.474 37.4414 105.503 37.4414C106.452 37.439 107.397 37.559 108.316 37.7985C108.414 38.5698 108.477 39.3019 108.574 40.2196L108.092 40.291Z" fill="white" fill-opacity="0.3"/>
<path d="M118.874 37.4561V37.9392C117.61 38.0381 117.487 38.1442 117.487 39.6889V42.5038C117.487 44.7733 118.272 46.1643 120.039 46.1643C122.049 46.1643 122.732 44.5976 122.732 42.3464V41.3837C122.748 40.4852 122.708 39.5865 122.612 38.6933C122.532 38.1955 122.091 37.9832 121.085 37.9246V37.4414H124.922V37.9246C124.077 37.9649 123.658 38.1955 123.577 38.6933C123.478 39.5862 123.436 40.485 123.454 41.3837V42.6758C123.454 43.8472 123.176 45.1174 122.373 45.9483C121.62 46.6567 120.631 47.0322 119.617 46.9952C118.694 47.0438 117.783 46.7721 117.025 46.2228C116.283 45.6188 115.92 44.572 115.92 42.9028V39.6743C115.92 38.1296 115.821 38.0234 114.512 37.9246V37.4414L118.874 37.4561Z" fill="white" fill-opacity="0.3"/>
<path d="M130.529 47.0007V46.5079C131.964 46.4214 132.064 46.316 132.064 44.7059V39.7137C132.064 38.1073 131.942 38.0208 130.63 37.938V37.4414H135.191V37.938C133.782 38.0208 133.66 38.1073 133.66 39.7137V44.7698C133.66 45.6088 133.76 46.0376 134.044 46.1844C134.327 46.3311 134.761 46.3574 135.518 46.3574C136.274 46.3574 136.974 46.2107 137.311 45.8232C137.64 45.4048 137.878 44.9155 138.006 44.3899L138.537 44.4501C138.433 44.9467 138.128 46.5944 138.006 47.0007H130.529Z" fill="white" fill-opacity="0.3"/>
<path d="M147.248 37.4561V37.9392C145.885 38.0381 145.756 38.1442 145.756 39.6889V42.5037C145.756 44.7732 146.6 46.1641 148.5 46.1641C150.658 46.1641 151.396 44.5975 151.396 42.3463V41.3837C151.415 40.485 151.37 39.5861 151.263 38.6933C151.176 38.1954 150.703 37.9831 149.621 37.9246V37.4414H153.75V37.9246C152.842 37.9648 152.388 38.1954 152.3 38.6933C152.195 39.5863 152.152 40.4851 152.172 41.3837V42.6758C152.172 43.8471 151.869 45.1173 151.006 45.9482C150.198 46.6564 149.136 47.0319 148.046 46.9951C147.055 47.0442 146.074 46.7724 145.26 46.2227C144.462 45.6187 144.072 44.5719 144.072 42.9027V39.6743C144.072 38.1296 143.962 38.0234 142.539 37.9246V37.4414L147.248 37.4561Z" fill="white" fill-opacity="0.3"/>
<path d="M171.248 37.4414V37.938C169.788 38.0396 169.703 38.1073 169.728 39.5632L169.827 44.8789C169.845 46.3386 169.909 46.4026 171.369 46.5079V47.0007H166.846V46.5079C168.225 46.4026 168.306 46.3386 168.285 44.8789L168.225 39.0064H168.164L164.657 46.8314H164.302L160.998 39.3939H160.959L160.838 42.8437C160.778 43.7781 160.778 44.7157 160.838 45.6502C160.898 46.2107 161.285 46.4026 162.277 46.5079V47.0007H158.557V46.5079C159.445 46.4439 159.729 46.2107 159.854 45.6502C160.003 44.7442 160.083 43.8271 160.095 42.9076L160.259 39.8642C160.34 38.0621 160.259 38.0396 158.82 37.938V37.4414H161.719L164.963 44.4877L168.161 37.4565L171.248 37.4414Z" fill="white" fill-opacity="0.3"/>
</g>
<defs>
<clipPath id="clip0_342_2274">
<rect width="229.424" height="47" fill="white"/>
</clipPath>
</defs>
</svg>
