<svg width="242" height="60" viewBox="0 0 242 60" fill="none" xmlns="http://www.w3.org/2000/svg">
<path fill-rule="evenodd" clip-rule="evenodd" d="M28.3535 0.197402C28.0721 0.197402 27.9376 0.29533 27.9376 0.613598C27.9376 1.50719 30.384 0.711526 30.384 2.49872C30.384 3.95948 28.2638 9.26394 24.0232 18.4121C22.3352 22.0844 21.5768 23.9206 21.4422 23.9206C21.3077 23.9206 20.4025 21.6192 18.2374 16.9064C14.164 8.11736 11.9255 3.29439 11.9255 2.21718C11.9255 0.76049 14.6044 1.78874 14.6044 0.662562C14.6044 0.478946 14.5187 0.295331 14.4209 0.295331C13.5769 0.295331 11.8399 0.527911 9.29556 0.527911C7.46071 0.527911 5.95614 0.332053 4.83077 0.332053H4.53719C4.17023 0.332053 4.02344 0.332053 4.02344 0.76049C4.02344 1.40927 4.58612 0.99307 5.80935 1.50719C6.70231 1.88667 7.50964 3.2087 8.53715 5.17951C11.8766 11.7652 15.5952 19.6607 18.849 27.4705C19.4606 28.9761 19.4117 29.5882 20.1578 29.5882C20.904 29.5882 20.9652 29.1597 21.3811 27.8867C22.3596 24.8754 25.2342 18.816 29.4788 9.31698C31.3993 4.98365 32.6225 2.35183 34.0415 1.55616C35.2647 0.895142 35.8763 1.40927 35.8763 0.613598C35.8763 0.283089 35.7785 0.246366 35.4971 0.246366C33.8947 0.246366 32.5736 0.381018 31.4972 0.381018C30.4207 0.381018 29.2831 0.148438 28.3412 0.148438" fill="white"/>
<path fill-rule="evenodd" clip-rule="evenodd" d="M48.2569 7.78568C47.107 7.78568 45.5168 8.06722 43.5719 8.06722C42.3487 8.06722 41.2111 7.93257 40.0979 7.93257H39.9267C39.6576 7.93257 39.5597 7.93257 39.5597 8.31204C39.5597 8.89961 40.9664 8.37325 42.0062 9.07099C43.0459 9.76873 42.8747 12.7433 42.8747 18.4599V21.3732C42.8747 24.6294 42.8747 26.6369 42.3854 27.4938C42.0698 27.8144 41.6857 28.0592 41.262 28.2097C40.8382 28.3603 40.3858 28.4126 39.9389 28.3629C39.5964 28.3629 39.4863 28.4975 39.4863 28.7791C39.4863 29.0606 39.5964 29.0851 39.8288 29.0851C40.942 29.0851 42.1897 28.9137 43.6453 28.9137C45.6269 28.9137 47.1437 29.1218 48.2569 29.1218H48.4281C48.7095 29.1218 48.8073 29.1218 48.8073 28.8036C48.8073 28.2894 48.3303 28.6077 47.1193 28.3262C45.9083 28.0446 45.7982 26.9796 45.7982 24.1275C45.7982 23.1237 45.7982 21.9118 45.7982 20.4552C45.7982 13.3186 45.9083 9.64632 46.63 9.02202C47.3517 8.39773 48.844 8.64255 48.844 8.01826C48.844 7.77344 48.6728 7.77344 48.3303 7.77344" fill="white"/>
<path fill-rule="evenodd" clip-rule="evenodd" d="M69.6511 0.769531C69.4064 1.7733 68.9171 2.26294 68.0486 2.26294C67.7532 2.26032 67.4601 2.21074 67.1802 2.11605L65.2719 1.5652C64.8322 1.42857 64.3746 1.35843 63.9141 1.3571C62.434 1.3571 61.2475 2.58121 60.8316 4.7846H61.6634C61.9814 3.64618 62.434 3.26671 63.3637 3.26671C63.6923 3.27745 64.0177 3.33516 64.33 3.43808L66.2383 3.98893C66.6052 4.09103 66.983 4.14857 67.3636 4.1603C68.9171 4.1603 69.9936 2.9362 70.4462 0.769531H69.6511ZM57.3332 12.0435C59.1313 13.8185 63.7184 17.6622 70.6541 24.2846C74.3238 27.7855 74.4584 29.181 75.0577 29.181C75.3636 29.181 75.4737 29.181 75.4737 28.8383V28.4588C75.4737 27.0633 75.3636 24.9579 75.3636 22.0812V17.907C75.3636 12.2884 75.3636 9.33827 76.2076 8.72622C77.0516 8.11416 77.7733 8.55484 77.7733 8.11416C77.7733 7.67349 77.6021 7.75917 77.284 7.75917C76.966 7.75917 76.1464 7.83262 74.8376 7.83262C73.5287 7.83262 72.3911 7.56332 71.6939 7.56332C71.5226 7.56332 71.4125 7.62452 71.4125 7.90607C71.4125 8.38347 72.2443 8.00399 73.1128 8.56708C74.336 9.36275 74.336 12.2394 74.336 18.0906C74.336 19.1311 74.336 20.8326 74.2626 23.2196L73.9813 23.4032C66.4952 16.9522 61.0518 11.9946 57.7613 7.86934C56.8561 7.94279 56.0243 8.00399 55.3148 8.00399C54.3118 8.00399 53.6146 7.90607 53.2354 7.90607C52.8562 7.90607 52.9295 7.97951 52.9295 8.24882C52.9295 8.73846 54.2384 8.32226 55.1314 9.32603C56.0243 10.3298 56.0732 14.0021 56.0732 20.7225C56.0732 22.2526 55.9754 23.7827 55.9754 25.2639C55.9754 25.9616 55.9754 26.488 55.9754 26.9287C55.9754 27.859 55.8286 28.214 55.1436 28.4221C54.0916 28.7281 53.6512 28.5934 53.6512 29.0096C53.6512 29.4258 53.7858 29.2912 53.9938 29.2912C54.6176 29.2912 55.9387 29.0464 57.8102 29.0464C58.9478 29.0464 59.8897 29.2177 60.6481 29.2177C60.8316 29.2177 60.8928 29.2177 60.8928 28.9729C60.8928 28.1773 58.6787 28.8015 57.7124 27.8957C57.0029 27.2714 56.9784 23.8072 56.9784 17.0869V12.1904L57.3332 12.0435Z" fill="white"/>
<path fill-rule="evenodd" clip-rule="evenodd" d="M96.122 26.6366C96.2214 26.9164 96.2791 27.2092 96.2933 27.5058C96.2933 28.6564 94.6297 28.2035 94.6297 28.8523C94.6297 29.0604 94.6297 29.0971 94.8376 29.0971C95.0456 29.0971 95.0456 29.0971 95.1801 29.0971C95.7795 29.0971 96.8193 28.8645 98.3116 28.8645C100.183 28.8645 101.223 28.9624 101.431 28.9624C101.639 28.9624 101.7 28.9624 101.7 28.6564C101.7 28.3504 101.247 28.485 100.66 28.2402C99.7305 27.8608 99.3146 26.9182 98.6174 25.2534C94.8988 16.0726 92.8071 10.809 92.4523 9.45021C92.0976 8.09146 92.171 7.6875 91.4737 7.6875C90.9967 7.6875 90.9967 7.93232 90.7887 8.65454C90.5808 9.37677 89.3576 12.7063 87.119 18.4474C84.7582 24.4088 83.6206 27.7383 82.3362 28.3994C81.7124 28.7054 81.2598 28.5707 81.2598 28.9502C81.2598 29.1216 81.3576 29.1583 81.5656 29.1583C81.7735 29.1583 82.6787 28.9869 84.012 28.9869C85.3454 28.9869 86.7154 29.2685 87.5472 29.2685C87.7551 29.2685 87.8897 29.1583 87.8897 28.9869C87.8897 28.3259 85.1863 28.7421 85.1863 27.1508C85.2023 26.7834 85.2723 26.4204 85.3943 26.0736L86.8132 22.1931C86.9967 21.7035 87.1313 21.6668 87.5472 21.6668H93.859C94.1648 21.6668 94.4217 21.6668 94.5563 22.0952L96.122 26.6366ZM90.8254 13.0124L93.7367 20.1122C93.8009 20.229 93.8385 20.3586 93.8468 20.4916C93.8468 20.663 93.7734 20.7365 93.6022 20.7365H87.7796C87.5349 20.7365 87.4248 20.7365 87.4248 20.5284C87.4319 20.3951 87.4696 20.2652 87.5349 20.1489L90.275 12.9022C90.275 12.7308 90.4462 12.6329 90.5563 12.6329C90.6664 12.6329 90.7276 12.8043 90.8254 13.0124Z" fill="white"/>
<path fill-rule="evenodd" clip-rule="evenodd" d="M139.241 27.7023C139.544 25.8484 139.952 24.0133 140.464 22.206C140.464 22.0592 140.268 21.9735 139.938 21.9735C139.608 21.9735 139.559 22.4876 138.947 23.6627C137.345 26.6251 134.862 28.0328 131.045 28.0328C124.403 28.0328 119.229 22.3897 119.229 14.1637C119.229 6.35388 123.51 1.32281 130.005 1.32281C132.488 1.41697 134.905 2.14604 137.027 3.44051C137.562 3.67243 138.006 4.07618 138.287 4.58814C138.569 5.1001 138.672 5.69117 138.58 6.26819V6.89249C138.58 7.17403 138.58 7.27196 138.996 7.27196C139.412 7.27196 139.473 7.03938 139.51 6.37836C139.635 4.67793 139.922 2.9933 140.366 1.34729C140.366 1.16367 140.219 1.06574 140.036 1.06574C139.852 1.06574 139.277 1.29832 138.813 1.29832C137.491 1.29832 134.813 0.0742188 130.862 0.0742188C121.357 0.0742188 114.666 6.19475 114.666 14.6533C114.666 23.3567 121.394 29.4283 130.482 29.4283C133.467 29.2597 136.415 28.6789 139.241 27.7023Z" fill="white"/>
<path fill-rule="evenodd" clip-rule="evenodd" d="M146.273 18.3264C146.386 21.2543 147.631 24.0237 149.747 26.0491C151.863 28.0745 154.683 29.1972 157.611 29.1797C160.538 29.1622 163.345 28.0059 165.436 25.9554C167.528 23.9049 168.74 21.1208 168.818 18.1918C168.834 16.7547 168.557 15.3294 168.006 14.0024C167.454 12.6754 166.639 11.4745 165.609 10.4727C164.58 9.47091 163.357 8.68907 162.016 8.17475C160.675 7.66042 159.244 7.42434 157.808 7.48086C151.387 7.48086 146.286 12.2916 146.286 18.3264H146.273ZM156.83 8.76617C158.085 8.78216 159.321 9.08623 160.44 9.65498C161.56 10.2237 162.534 11.042 163.289 12.0468C164.986 14.2434 165.922 16.9333 165.955 19.7097C165.955 24.8387 163.007 28.0948 158.812 28.0948C157.381 28.0749 155.976 27.7054 154.72 27.0185C153.465 26.3315 152.396 25.3479 151.607 24.1532C150.064 22.0108 149.211 19.4487 149.16 16.8085C149.16 11.9978 152.292 8.74169 156.793 8.74169" fill="white"/>
<path fill-rule="evenodd" clip-rule="evenodd" d="M181.295 7.78516C179.802 7.78516 178.077 8.14015 176.169 8.14015C175.399 8.14066 174.631 8.08338 173.87 7.96877C173.735 7.96877 173.674 8.17687 173.674 8.40945C173.674 8.64203 174.64 8.55634 175.227 9.03374C176.022 9.65804 176.059 11.6411 176.059 15.3134V25.1797C176.059 26.9546 176.059 27.9217 175.374 28.2644C174.432 28.7541 173.943 28.5093 173.943 28.9622C173.937 29.0054 173.941 29.0495 173.955 29.0909C173.968 29.1323 173.992 29.1699 174.023 29.2008C174.053 29.2316 174.091 29.2549 174.132 29.2687C174.174 29.2826 174.218 29.2866 174.261 29.2804C175.502 29.113 176.752 29.0312 178.004 29.0356C179.704 29.0356 181.233 29.1335 182.481 29.1335C187.227 29.1335 189.967 26.82 189.967 23.5516C189.967 21.1034 188.34 18.949 185.258 17.9452C184.243 17.627 183.594 17.6025 183.594 17.4556C183.594 17.3087 183.937 17.3209 184.389 17.1496C186.677 16.2804 187.778 14.8238 187.778 12.7795C187.778 9.93958 185.49 7.78516 181.295 7.78516ZM178.97 18.2513C179.56 18.1885 180.152 18.1558 180.744 18.1533C184.597 18.1533 186.86 20.2588 186.86 23.5271C186.86 26.465 184.989 28.24 181.662 28.24C180.132 28.24 179.374 27.9951 179.215 27.3708C178.998 24.9291 178.924 22.4766 178.995 20.0262L178.97 18.2513ZM178.97 17.3209V10.7353C178.97 8.86237 179.081 8.72772 180.573 8.72772C181.151 8.72011 181.724 8.83418 182.255 9.06253C182.786 9.29087 183.263 9.62838 183.655 10.0532C184.047 10.4779 184.346 10.9805 184.531 11.5282C184.717 12.0759 184.785 12.6566 184.732 13.2324C184.732 15.9377 183.032 17.3577 179.668 17.3577C179.46 17.3577 179.215 17.3577 178.97 17.3577" fill="white"/>
<path fill-rule="evenodd" clip-rule="evenodd" d="M195.301 18.3264C195.413 21.2543 196.659 24.0237 198.774 26.0491C200.89 28.0745 203.71 29.1972 206.638 29.1797C209.566 29.1622 212.372 28.0059 214.464 25.9554C216.555 23.9049 217.768 21.1208 217.845 18.1918C217.861 16.7547 217.585 15.3294 217.033 14.0024C216.482 12.6754 215.666 11.4745 214.637 10.4727C213.607 9.47091 212.384 8.68907 211.043 8.17475C209.702 7.66042 208.271 7.42434 206.836 7.48086C205.367 7.43026 203.902 7.67131 202.527 8.1901C201.152 8.70888 199.892 9.49513 198.822 10.5035C197.752 11.5118 196.892 12.7222 196.292 14.0649C195.692 15.4076 195.363 16.856 195.325 18.3264H195.301ZM205.869 8.76617C207.125 8.78124 208.361 9.08491 209.481 9.65373C210.6 10.2225 211.575 11.0413 212.328 12.0468C214.025 14.2434 214.961 16.9333 214.995 19.7097C214.995 24.8387 212.059 28.0948 207.863 28.0948C206.429 28.0736 205.022 27.7038 203.762 27.0171C202.503 26.3304 201.429 25.3475 200.634 24.1532C199.117 22.0019 198.285 19.4415 198.249 16.8085C198.249 11.9978 201.368 8.74169 205.882 8.74169" fill="white"/>
<path fill-rule="evenodd" clip-rule="evenodd" d="M224.632 28.9255C224.663 28.8696 224.707 28.8217 224.76 28.7856C224.814 28.7495 224.874 28.7261 224.938 28.7174C226.792 29.114 228.672 29.3717 230.565 29.4886C234.834 29.4886 237.561 27.1261 237.561 23.7353C237.561 20.9321 235.898 19.1204 232.669 17.6148C229.231 16.0969 226.638 15.4726 226.638 12.2532C226.642 11.7121 226.756 11.1774 226.973 10.6818C227.19 10.1861 227.506 9.73983 227.9 9.37C228.295 9.00016 228.761 8.71453 229.269 8.53047C229.778 8.34642 230.318 8.26777 230.858 8.29932C231.785 8.22806 232.715 8.39937 233.555 8.79642C234.396 9.19347 235.119 9.80259 235.653 10.5639C235.964 11.2155 236.234 11.886 236.461 12.5715C236.84 12.5715 236.913 12.5715 236.913 12.4001C236.786 11.6879 236.704 10.9683 236.668 10.2457C236.666 9.42208 236.757 8.60088 236.938 7.79744C236.941 7.73956 236.923 7.68236 236.887 7.63707C236.851 7.59178 236.799 7.56166 236.742 7.55262C236.497 7.55262 236.008 8.04226 235.347 8.04226C234.005 7.76447 232.65 7.55609 231.286 7.41797C226.883 7.41797 224.143 10.1232 224.143 13.4406C224.143 16.0112 225.611 17.5658 228.583 18.9246C232.253 20.5893 235.029 21.1402 235.029 24.5677C235.029 26.9302 233.513 28.3869 230.736 28.3869C228.204 28.3869 225.39 27.3097 224.62 25.9387C224.239 25.1581 223.947 24.3368 223.751 23.4905C223.409 23.4905 223.164 23.5517 223.164 23.6618C223.605 25.3271 223.871 27.0337 223.959 28.7541V29.2438H224.559L224.632 28.9255Z" fill="white"/>
<path d="M4.79228 47.3368L1.63088 40.2292C1.53023 39.8749 1.32125 39.5545 1.02871 39.3061C0.715864 39.1426 0.359578 39.0627 0 39.0754V38.6484H4.12738V39.0754L3.5503 39.1561C3.2994 39.1561 3.13631 39.2254 3.08613 39.3177C3.06166 39.5166 3.11503 39.717 3.23667 39.883C3.70084 41.0369 4.49119 42.7907 5.62027 45.2368C6.52352 43.1522 7.2386 41.4061 7.7655 39.9984C8.0415 39.4292 7.85332 39.1407 7.20096 39.1331H6.76188V38.7061H10.4V39.1331C10.0017 39.1279 9.61298 39.2457 9.29602 39.4677C8.91868 39.8183 8.62026 40.2339 8.41785 40.6907C7.72368 42.0753 6.70752 44.3099 5.36936 47.3945L4.79228 47.3368Z" fill="white"/>
<path d="M19.5184 45.3172C19.4586 45.7627 19.5338 46.2167 19.7337 46.6155C19.881 46.8044 20.2323 46.9106 20.7988 46.946V47.3945H16.7988V46.946C17.2028 46.9853 17.6064 46.8676 17.932 46.6155C18.1093 46.2093 18.176 45.7602 18.1246 45.3172V40.7258C18.1809 40.2673 18.1143 39.8016 17.932 39.3802C17.6061 39.1308 17.1991 39.0248 16.7988 39.0851V38.6484H20.7762V39.0851C20.2096 39.0851 19.8583 39.1914 19.711 39.3802C19.5139 39.7969 19.4465 40.2673 19.5184 40.7258V45.3172Z" fill="white"/>
<path d="M35.3271 47.3945H34.7053L28.7067 40.7498V43.6026C28.6741 44.4418 28.7149 45.2822 28.8286 46.1149C28.8467 46.223 28.8916 46.3254 28.9595 46.4133C29.0274 46.5012 29.1163 46.572 29.2188 46.6197C29.5614 46.7643 29.9299 46.844 30.3039 46.8545V47.3006H26.573V46.8545C27.3777 46.8545 27.7923 46.5727 27.8776 46.1149C27.9259 45.8153 27.9584 45.5136 27.9751 45.2109C27.9751 44.8353 27.9751 44.2952 27.9751 43.6026V40.9846C28.0407 40.4755 27.9562 39.9588 27.7313 39.4937C27.55 39.3425 27.3388 39.2282 27.1104 39.1576C26.882 39.087 26.6412 39.0616 26.4023 39.0828V38.6484H28.8408L34.6687 45.0348V42.3347C34.6869 41.4917 34.6462 40.6484 34.5468 39.8107C34.5344 39.6963 34.4921 39.5867 34.4239 39.4923C34.3557 39.3978 34.2637 39.3216 34.1566 39.2706C33.8066 39.1415 33.4342 39.0777 33.0593 39.0828V38.6484H36.8023V39.0828C35.9976 39.0828 35.5831 39.3528 35.4856 39.8107C35.4856 40.0102 35.4856 40.3037 35.4856 40.6911C35.4298 41.2373 35.4054 41.786 35.4124 42.3347L35.3271 47.3945Z" fill="white"/>
<path d="M43.8919 40.7342C43.9551 40.275 43.8869 39.8079 43.6947 39.3832C43.5344 39.1936 43.1523 39.0988 42.536 39.0869V38.6484H49.5992C49.5992 39.1106 49.6731 39.8335 49.7594 40.8527H49.254C49.2214 40.3929 49.05 39.9523 48.7609 39.5847C48.627 39.448 48.4563 39.3496 48.2679 39.3002C47.9089 39.2173 47.5398 39.1814 47.1708 39.1936H46.0614C45.907 39.1622 45.7474 39.1622 45.593 39.1936C45.519 39.1936 45.4821 39.3832 45.4821 39.6321V42.5119H47.0352C47.426 42.5668 47.8249 42.509 48.1816 42.346C48.3654 42.0693 48.4677 41.7498 48.4774 41.4216H48.9828V44.2895H48.4774C48.474 43.9344 48.3719 43.5866 48.1816 43.2822C47.8147 43.1555 47.4227 43.1109 47.0352 43.1518H45.4327V45.3087C45.4327 46.0672 45.5437 46.4938 45.8149 46.6479C46.3235 46.8064 46.8605 46.8629 47.3927 46.8138C48.021 46.8924 48.6566 46.7353 49.1677 46.3753C49.3246 46.2234 49.4538 46.0471 49.5498 45.8539C49.6901 45.589 49.8016 45.3111 49.8827 45.0243L50.4004 45.0836C50.2443 45.921 50.0717 46.6914 49.8827 47.3945H42.4004V46.9442C42.8394 46.9631 43.2727 46.8423 43.6331 46.6005C43.8412 46.1929 43.9184 45.735 43.8549 45.285L43.8919 40.7342Z" fill="white"/>
<path d="M58.2769 47.3592V46.9112C58.788 46.9544 59.3003 46.8427 59.7372 46.593C59.9612 46.1947 60.0455 45.7414 59.9785 45.2964V44.1177C59.9746 43.7886 59.864 43.4682 59.6611 43.1983C59.2547 42.5382 58.5944 41.4891 57.6547 40.0629C57.4959 39.7566 57.2712 39.4839 56.9944 39.2614C56.6837 39.1311 56.3444 39.0705 56.0039 39.0846V38.6484H60.2325V39.0846L59.5214 39.1671C59.2801 39.1671 59.1404 39.1671 59.0896 39.2967C59.0645 39.4488 59.1007 39.604 59.1912 39.7329C59.6484 40.4872 60.3087 41.5363 61.1722 42.8565C61.8833 41.6777 62.442 40.6523 62.8357 39.8507C62.988 39.5914 63.0388 39.4146 63.0007 39.3203C62.9626 39.226 62.7722 39.1789 62.4928 39.1671L61.8706 39.0846V38.6484H65.6039V39.0846C65.2201 39.0748 64.8399 39.1559 64.4992 39.3203C64.2277 39.5399 63.9962 39.7986 63.8134 40.0865C63.242 40.8526 62.6071 41.7956 61.896 42.939C61.7862 43.1102 61.6968 43.292 61.6293 43.4812C61.6109 43.6182 61.6109 43.7567 61.6293 43.8937V45.32C61.5627 45.769 61.6611 46.2258 61.9087 46.6166C62.3557 46.8655 62.8744 46.9807 63.3944 46.9466V47.3945L58.2769 47.3592Z" fill="white"/>
<path d="M74.487 46.9566H74.8558C75.1294 46.9566 75.3078 46.8529 75.3792 46.7031C75.4133 46.4013 75.3421 46.097 75.177 45.8389L74.5227 44.2833H71.858C71.6677 44.7557 71.4536 45.3434 71.2038 46.0809C70.9539 46.8184 71.1443 46.9682 71.7153 46.9566H72.1673V47.3945H68.8008V46.9566C69.1542 46.9487 69.4975 46.8405 69.7881 46.6455C70.1246 46.3254 70.3739 45.9295 70.5138 45.4932L73.3569 38.7521L73.8446 38.6484L76.7354 45.6891C76.8419 46.0953 77.0898 46.4534 77.4372 46.7031C77.7247 46.8797 78.0606 46.9681 78.4008 46.9566V47.3945H74.487V46.9566ZM72.1078 43.6034H74.3562L73.1666 40.6765L72.1078 43.6034Z" fill="white"/>
<path d="M87.1271 45.2256C87.0603 45.6699 87.1504 46.1219 87.3844 46.5172C87.5389 46.7033 87.9507 46.808 88.5941 46.8429V47.2851H84V46.8429C84.4567 46.8807 84.9133 46.7693 85.2869 46.5288C85.482 46.1268 85.5532 45.6845 85.4928 45.2489V40.7111C85.5598 40.2565 85.4886 39.7939 85.2869 39.3731C84.9366 39.1456 84.5062 39.0421 84.0772 39.0822V38.6517H88.5812C89.3984 38.6238 90.2109 38.7755 90.9491 39.0938C91.2785 39.2819 91.5464 39.546 91.7251 39.8589C91.9038 40.1719 91.9869 40.5223 91.9657 40.874C91.9703 41.3931 91.7694 41.8966 91.3995 42.2935C90.9989 42.6718 90.505 42.9588 89.9582 43.1313C90.3056 43.6781 90.7432 44.2948 91.245 45.0395C91.6202 45.5433 92.0514 46.0112 92.5319 46.4357C92.8298 46.7058 93.1966 46.9056 93.6 47.0175V47.3898H93.2783C92.6113 47.4196 91.9459 47.308 91.3351 47.064C90.8943 46.8574 90.5147 46.5582 90.2284 46.1914C89.6751 45.4467 89.1989 44.7369 88.8 44.0737C88.7231 43.8914 88.5832 43.7364 88.4011 43.6316C88.2023 43.5709 87.993 43.5434 87.7834 43.5501H87.1528L87.1271 45.2256ZM87.1271 43.0266H88.0922C88.3344 43.0257 88.5759 43.0023 88.8129 42.9567C89.0496 42.9161 89.2762 42.8373 89.482 42.724C89.7632 42.5327 89.9739 42.2691 90.0869 41.9678C90.1975 41.6716 90.254 41.3611 90.2541 41.0486C90.2705 40.7846 90.2225 40.5207 90.1136 40.2754C90.0046 40.0301 89.8373 39.8094 89.6236 39.6291C89.1965 39.3222 88.6633 39.1615 88.118 39.1753C87.8403 39.143 87.5592 39.143 87.2815 39.1753C87.1657 39.2451 87.1142 39.408 87.1271 39.6872V43.0266Z" fill="white"/>
<path d="M103.161 38.661C104.714 38.5688 106.251 38.9865 107.486 39.8362C107.92 40.2004 108.261 40.6439 108.487 41.1365C108.713 41.6291 108.819 42.1595 108.797 42.6918C108.834 43.3689 108.686 44.0438 108.366 44.6581C108.046 45.2723 107.564 45.8075 106.962 46.2173C105.679 47.0159 104.145 47.4275 102.584 47.3924H98.4023V46.9341C98.8691 46.9689 99.3344 46.8521 99.7131 46.6051C99.9334 46.2048 100.016 45.7547 99.9491 45.3124V40.741C100.016 40.2857 99.9438 39.8225 99.7394 39.4013C99.4026 39.1715 98.9803 39.0664 98.5596 39.1076V38.6727L103.161 38.661ZM101.561 45.4417C101.499 45.8487 101.592 46.2625 101.824 46.6168C102.004 46.75 102.215 46.8455 102.442 46.8963C102.669 46.9472 102.905 46.952 103.134 46.9106C105.677 46.8558 106.94 45.6062 106.922 43.1619C106.922 40.553 105.559 39.2642 102.833 39.2956C102.475 39.2748 102.116 39.327 101.784 39.4484C101.679 39.5189 101.627 39.7421 101.627 40.1064L101.561 45.4417Z" fill="white"/>
<path d="M127.559 38.6604C129.002 38.5707 130.43 38.988 131.58 39.8356C131.979 40.2013 132.294 40.645 132.504 41.1374C132.713 41.6297 132.812 42.1594 132.794 42.6915C132.828 43.3686 132.691 44.0435 132.395 44.6579C132.098 45.2722 131.652 45.8074 131.094 46.2172C129.905 47.0159 128.484 47.4275 127.037 47.3924H123.199V46.9341C123.632 46.9689 124.063 46.8521 124.414 46.605C124.618 46.2047 124.694 45.7546 124.632 45.3123V40.7406C124.695 40.2852 124.627 39.822 124.438 39.4008C124.126 39.171 123.735 39.0658 123.345 39.107V38.6721L127.559 38.6604ZM126.078 45.4415C126.02 45.8486 126.106 46.2624 126.321 46.6168C126.488 46.75 126.684 46.8455 126.894 46.8963C127.104 46.9471 127.323 46.952 127.535 46.9106C129.891 46.8557 131.061 45.6061 131.045 43.1616C131.045 40.5525 129.786 39.2637 127.268 39.295C126.932 39.2749 126.596 39.327 126.284 39.4478C126.187 39.5183 126.138 39.7416 126.138 40.1059L126.078 45.4415Z" fill="white"/>
<path d="M140.693 40.7342C140.756 40.275 140.688 39.8079 140.495 39.3832C140.335 39.1936 139.953 39.0988 139.337 39.0869V38.6484H146.351C146.351 39.1106 146.425 39.8335 146.511 40.8527H146.005C145.969 40.3937 145.798 39.9539 145.512 39.5847C145.377 39.4503 145.207 39.3523 145.019 39.3002C144.66 39.2173 144.291 39.1814 143.922 39.1936H142.813C142.658 39.1622 142.499 39.1622 142.344 39.1936C142.271 39.1936 142.234 39.3832 142.234 39.6321V42.5119H143.787C144.177 42.5668 144.576 42.509 144.933 42.346C145.117 42.0693 145.219 41.7498 145.229 41.4216H145.722V44.2895H145.229C145.226 43.9344 145.123 43.5866 144.933 43.2822C144.566 43.1555 144.174 43.1109 143.787 43.1518H142.234V45.3087C142.234 46.0672 142.344 46.4938 142.603 46.6479C143.117 46.8048 143.657 46.8612 144.193 46.8138C144.822 46.8924 145.457 46.7353 145.969 46.3753C146.125 46.2234 146.255 46.0471 146.351 45.8539C146.491 45.589 146.602 45.3111 146.683 45.0243L147.201 45.0836C147.045 45.921 146.872 46.6914 146.683 47.3945H139.201V46.9442C139.64 46.9631 140.073 46.8423 140.434 46.6005C140.642 46.1929 140.719 45.735 140.656 45.285L140.693 40.7342Z" fill="white"/>
<path d="M153.32 44.5676C153.506 45.1208 153.827 45.6298 154.258 46.0578C154.487 46.2771 154.754 46.4611 155.049 46.6028C155.319 46.7556 155.632 46.8365 155.951 46.8363C156.433 46.8641 156.908 46.7203 157.273 46.4359C157.432 46.2902 157.555 46.1157 157.634 45.924C157.713 45.7323 157.745 45.5277 157.73 45.3238C157.74 45.0998 157.69 44.8768 157.585 44.6736C157.48 44.4704 157.322 44.2929 157.125 44.1561C156.721 43.8837 156.27 43.6732 155.79 43.5333L155 43.1886C154.694 43.065 154.404 42.9121 154.135 42.7326C153.872 42.5402 153.65 42.3066 153.48 42.0431C153.289 41.7705 153.19 41.4535 153.196 41.1312C153.179 40.7877 153.25 40.4452 153.404 40.1307C153.558 39.8161 153.792 39.5381 154.086 39.3184C154.743 38.8566 155.562 38.6201 156.396 38.6511C156.81 38.6555 157.223 38.689 157.631 38.7512L158.397 38.9848C158.508 39.4963 158.632 40.1747 158.755 41.0199H158.249C158.137 40.5539 157.894 40.1214 157.545 39.7633C157.363 39.5895 157.142 39.4522 156.897 39.3602C156.653 39.2683 156.389 39.2237 156.124 39.2294C155.707 39.2206 155.303 39.3605 155 39.6187C154.733 39.8752 154.583 40.2126 154.58 40.564C154.575 40.7656 154.627 40.965 154.731 41.1439C154.834 41.3227 154.986 41.4751 155.173 41.5871C155.564 41.8101 155.978 42 156.408 42.1543C157.099 42.3491 157.746 42.6501 158.323 43.044C158.582 43.2422 158.796 43.4839 158.953 43.7557C159.124 44.0742 159.209 44.425 159.2 44.7789C159.21 45.135 159.13 45.4885 158.965 45.8123C158.8 46.1362 158.555 46.4217 158.249 46.6472C157.552 47.1566 156.675 47.4214 155.778 47.3924C155.233 47.3949 154.692 47.3043 154.184 47.1254C153.864 47.0238 153.554 46.8973 153.258 46.7473C153.258 46.5694 153.147 46.2691 153.06 45.8576L152.801 44.6121L153.32 44.5676Z" fill="white"/>
<path d="M168.055 45.3172C167.983 45.7627 168.074 46.2167 168.315 46.6155C168.493 46.8044 168.917 46.9106 169.601 46.946V47.3945H164.801V46.946C165.288 46.9853 165.775 46.8676 166.168 46.6155C166.382 46.2093 166.463 45.7602 166.401 45.3172V40.7258C166.469 40.2673 166.388 39.8016 166.168 39.3802C165.775 39.1308 165.284 39.0248 164.801 39.0851V38.6484H169.601V39.0851C168.917 39.0851 168.493 39.1914 168.315 39.3802C168.068 39.7943 167.977 40.2648 168.055 40.7258V45.3172Z" fill="white"/>
<path d="M183.47 41.3207C183.367 40.6438 182.968 40.0297 182.358 39.6107C181.799 39.333 181.165 39.1975 180.525 39.2195C180.047 39.2014 179.572 39.2795 179.134 39.4479C178.696 39.6164 178.307 39.8708 177.997 40.1919C177.279 40.9445 176.921 41.9146 176.998 42.8966C176.978 43.8615 177.291 44.8088 177.895 45.6125C178.216 46.0321 178.656 46.3697 179.17 46.5914C179.685 46.8131 180.257 46.9111 180.828 46.8754C181.177 46.8837 181.524 46.8344 181.852 46.7301C181.999 46.6759 182.122 46.5816 182.204 46.4609C182.286 46.3403 182.322 46.1996 182.307 46.0596V44.7519C182.358 44.4605 182.276 44.1632 182.08 43.9248C181.587 43.7318 181.05 43.6437 180.512 43.6678V43.2431H184.797V43.6678C184.521 43.6621 184.25 43.7367 184.026 43.8801C183.881 44.1514 183.832 44.4556 183.887 44.7519V45.7578C183.875 46.1342 183.922 46.5103 184.026 46.8754C183.514 47.0068 182.996 47.115 182.471 47.1996C181.911 47.3109 181.339 47.3745 180.765 47.3896C179.313 47.4457 177.89 47.0235 176.77 46.2048C176.263 45.8287 175.858 45.3557 175.586 44.8215C175.315 44.2873 175.184 43.7056 175.203 43.1201C175.166 42.4771 175.307 41.8359 175.613 41.2517C175.919 40.6676 176.381 40.1581 176.96 39.7672C178.089 39.0183 179.468 38.6249 180.879 38.6495C181.458 38.6551 182.036 38.6887 182.61 38.7501C183.116 38.8395 183.495 38.9178 183.735 38.9848C183.735 39.3984 183.875 40.1584 183.988 41.2201L183.47 41.3207Z" fill="white"/>
<path d="M200.152 47.3945H199.471L193.498 40.7941V43.6279C193.472 44.4615 193.513 45.2958 193.62 46.1234C193.641 46.2299 193.686 46.3304 193.754 46.4173C193.821 46.5042 193.909 46.5752 194.009 46.6249C194.351 46.7685 194.718 46.8477 195.092 46.8581V47.3012H191.442V46.8581C192.245 46.8581 192.659 46.5782 192.744 46.1234C192.792 45.8259 192.825 45.5262 192.841 45.2255C192.841 44.8523 192.841 44.3159 192.841 43.6279V41.0274C192.892 40.4971 192.787 39.9638 192.537 39.4881C192.354 39.3376 192.141 39.2239 191.911 39.1538C191.682 39.0837 191.439 39.0585 191.199 39.0799V38.6484H193.632L199.471 44.9923V42.3101C199.482 41.4728 199.442 40.6356 199.349 39.8029C199.333 39.6887 199.288 39.58 199.218 39.4865C199.148 39.3929 199.055 39.3173 198.948 39.2665C198.598 39.1382 198.227 39.0749 197.853 39.0799V38.6484H201.599V39.0799C200.784 39.0799 200.383 39.3481 200.286 39.8029C200.286 40.0012 200.286 40.2927 200.286 40.6775C200.235 41.2203 200.215 41.7653 200.225 42.3101L200.152 47.3945Z" fill="white"/>
<path d="M212.11 46.9239H212.48C212.767 46.9239 212.934 46.8206 213.005 46.6714C213.077 46.5222 213.005 46.2467 212.814 45.8106L212.146 44.2611H209.483C209.28 44.7317 209.065 45.317 208.826 46.0516C208.587 46.7862 208.755 46.9354 209.34 46.9239H209.793V47.3601H206.402V46.9239C206.757 46.918 207.103 46.8101 207.393 46.614C207.736 46.2967 207.99 45.9022 208.134 45.4662L210.975 38.7517L211.465 38.6484L214.331 45.6958C214.442 46.0985 214.69 46.454 215.035 46.7058C215.324 46.8818 215.661 46.9698 216.002 46.9584V47.3945H212.11V46.9239ZM209.722 43.5839H211.967L210.844 40.6685L209.722 43.5839Z" fill="white"/>
<path d="M223.242 38.8206H222.659C222.267 38.8044 221.875 38.842 221.493 38.9324C221.294 39.014 221.111 39.1364 220.956 39.2927C220.861 39.4331 220.786 39.5881 220.735 39.7523C220.617 40.0454 220.523 40.3489 220.455 40.6592H220C220.07 39.5411 220.128 38.6094 220.163 37.8516H220.408C220.498 37.9659 220.609 38.059 220.735 38.1249C220.859 38.1852 220.995 38.2149 221.131 38.2118H226.962C227.099 38.2149 227.234 38.1852 227.359 38.1249C227.447 38.0453 227.526 37.9534 227.592 37.8516H227.837C227.837 38.6342 227.918 39.5536 228 40.622H227.534C227.493 40.2936 227.427 39.9695 227.335 39.6529C227.279 39.4674 227.179 39.3004 227.044 39.1684C226.908 39.003 226.722 38.8932 226.519 38.8579C226.195 38.8007 225.867 38.7757 225.539 38.7833H224.7V45.2062C224.628 45.6767 224.71 46.1593 224.933 46.5727C225.296 46.8345 225.732 46.9571 226.169 46.9206V47.3927H221.831V46.9206C222.245 46.9489 222.657 46.8263 222.997 46.5727C223.191 46.1489 223.264 45.6738 223.207 45.2062L223.242 38.8206Z" fill="white"/>
<path d="M235.743 40.7342C235.798 40.2739 235.733 39.8063 235.554 39.3832C235.421 39.1936 235.076 39.0988 234.521 39.0869V38.6484H240.832C240.832 39.1106 240.91 39.8335 240.987 40.8527H240.532C240.499 40.3937 240.345 39.9539 240.087 39.5847C239.965 39.4503 239.812 39.3523 239.643 39.3002C239.319 39.218 238.987 39.1821 238.654 39.1936H237.654C237.511 39.1633 237.364 39.1633 237.221 39.1936C237.221 39.1936 237.132 39.3832 237.132 39.6321V42.5119H238.532C238.88 42.5688 239.237 42.5109 239.554 42.346C239.729 42.0733 239.826 41.752 239.832 41.4216H240.276V44.2895H239.832C239.832 43.9322 239.736 43.5823 239.554 43.2822C239.228 43.154 238.877 43.1093 238.532 43.1518H237.132V45.3087C237.132 46.0672 237.232 46.4938 237.465 46.6479C237.927 46.806 238.415 46.8625 238.898 46.8138C239.465 46.8924 240.038 46.7353 240.498 46.3753C240.64 46.2257 240.753 46.0487 240.832 45.8539C240.962 45.5896 241.066 45.3116 241.143 45.0243L241.598 45.0836C241.465 45.925 241.31 46.6953 241.143 47.3945H234.398V46.9442C234.794 46.9605 235.184 46.84 235.51 46.6005C235.697 46.1929 235.767 45.735 235.71 45.285L235.743 40.7342Z" fill="white"/>
</svg>
