<svg width="195" height="22" viewBox="0 0 195 22" fill="none" xmlns="http://www.w3.org/2000/svg">
<g clip-path="url(#clip0_342_2324)">
<path d="M5.17355 8.7129C3.55835 4.43641 2.3252 1.79268 1.4741 0.781715C1.23757 0.740299 0.99787 0.719693 0.757754 0.720133C0.498983 0.726627 0.241661 0.761038 -0.00976562 0.822769V0.283931C0.289567 0.255706 0.599133 0.242876 0.921491 0.242876C1.73506 0.271101 2.51026 0.309589 3.24707 0.363473C4.17577 0.335248 5.09168 0.296759 5.99735 0.242876C6.33055 0.236298 6.663 0.276898 6.98489 0.363473V0.876653C6.72905 0.822769 6.47321 0.774017 6.19179 0.732963C5.1582 0.774017 4.6414 1.04857 4.6414 1.55662C4.65881 1.7849 4.71146 2.0091 4.79746 2.22118L11.306 18.099L17.0982 3.98652C17.2739 3.51286 17.3716 3.01368 17.3873 2.50856C17.3967 2.14397 17.3571 1.77977 17.2696 1.42575C17.1788 1.2021 17.0469 0.99755 16.8808 0.822769C16.6085 0.751885 16.328 0.717375 16.0467 0.720133C15.8183 0.715744 15.5901 0.736394 15.3662 0.781715V0.283931C15.7141 0.255706 16.0416 0.242876 16.3486 0.242876C16.9524 0.271101 17.546 0.309589 18.1242 0.363473C18.82 0.335248 19.4827 0.296759 20.1146 0.242876C20.3642 0.2422 20.6136 0.255908 20.8616 0.283931V0.822769C20.7227 0.755934 20.5706 0.720879 20.4165 0.720133C19.8622 0.761187 19.4119 1.08278 19.0656 1.68491C18.7305 2.28533 18.4516 2.81391 18.2342 3.26807L10.5232 22.0094H10.4055L5.17355 8.7129Z" fill="white" fill-opacity="0.3"/>
<path d="M47.0807 10.8768C47.0807 13.3504 46.1836 15.7751 44.3893 18.1512C43.467 19.289 42.3198 20.2229 41.0199 20.8941C39.5655 21.6255 37.9599 22.0034 36.3329 21.9974C32.6915 21.9444 29.954 20.8676 28.1205 18.767C26.2672 16.7394 25.2599 14.0761 25.3062 11.3259C25.3136 8.37661 26.4748 5.54807 28.54 3.44857C30.5868 1.20426 33.1631 0.0547391 36.269 0C39.5232 0.0290802 42.1311 0.999845 44.0925 2.91229C46.0591 4.85211 47.0552 7.50696 47.0807 10.8768ZM44.9266 12.4035C44.9266 11.8544 44.8984 11.2797 44.8473 10.6767C44.7577 10.0763 44.6349 9.44507 44.4789 8.79076C44.1784 7.44014 43.6672 6.14555 42.9643 4.95475C42.3123 3.73551 41.3724 2.69507 40.2268 1.92442C39.0329 1.12215 37.5891 0.707333 35.8954 0.679963C33.424 0.70049 31.4242 1.63704 29.896 3.48962C28.3012 5.35075 27.4919 7.74559 27.4681 10.6741C27.4681 13.0844 28.2066 15.4133 29.6836 17.6611C30.4555 18.7011 31.4337 19.5695 32.5567 20.2116C33.7847 20.9366 35.1897 21.3044 36.6143 21.2739C39.1523 21.2482 41.1785 20.398 42.6931 18.7233C44.1565 17.1188 44.901 15.0122 44.9266 12.4035Z" fill="white" fill-opacity="0.3"/>
<path d="M58.4856 19.4712C58.4666 19.6901 58.5006 19.9103 58.5848 20.1132C58.669 20.316 58.8009 20.4954 58.9692 20.6361C59.2915 20.9303 60.0744 21.0774 61.3178 21.0774C63.518 21.1031 65.4266 20.6079 67.0435 19.5918C67.5486 19.2851 68.0121 18.9143 68.4224 18.4884C68.7601 18.0339 68.956 17.4893 68.9853 16.9232H69.2616C69.26 17.237 69.2335 17.5502 69.1823 17.8598C69.0808 18.317 68.897 18.7517 68.6399 19.1427C68.471 19.3814 68.205 19.7893 67.8442 20.3615C67.5076 20.812 67.2395 21.3101 67.0486 21.8395C65.8871 21.7865 64.7179 21.7599 63.541 21.7599H55.2083C54.9792 21.8075 54.7463 21.8341 54.5124 21.8395C54.284 21.8419 54.0562 21.8152 53.8345 21.7599V21.3007C54.0712 21.3399 54.3108 21.3597 54.5508 21.3597C55.2083 21.3597 55.6637 21.1801 55.9221 20.8208C56.1919 20.3896 56.3199 19.8843 56.288 19.3762V4.19125C56.3242 3.4001 56.2379 2.60809 56.0321 1.84346C55.9383 1.5217 55.7502 1.23564 55.4923 1.02237C55.1192 0.805323 54.6928 0.697746 54.2617 0.711895C54.0538 0.711927 53.8464 0.732555 53.6426 0.773477V0.321879C53.9682 0.26836 54.2976 0.241756 54.6276 0.242336C55.1701 0.239945 55.7124 0.266497 56.2521 0.321879C56.5873 0.408054 56.9301 0.461333 57.2755 0.480964C57.596 0.463915 57.9136 0.410547 58.2221 0.321879C58.6585 0.269127 59.0976 0.242565 59.5371 0.242336C60.009 0.241501 60.4805 0.26806 60.9494 0.321879V0.781175C60.687 0.733264 60.4203 0.712627 60.1537 0.719593C59.5448 0.719593 59.1636 0.822229 59.0075 1.02237C58.8634 1.15266 58.7565 1.31919 58.698 1.50476C58.5495 1.78197 58.4763 2.09343 58.4856 2.40795V19.4712Z" fill="white" fill-opacity="0.3"/>
<path d="M80.5075 2.10993C80.5158 1.98816 80.4981 1.86601 80.4554 1.75171C80.4127 1.63741 80.346 1.53361 80.26 1.4473C80.1739 1.36099 80.0704 1.29417 79.9565 1.25135C79.8425 1.20852 79.7207 1.19069 79.5993 1.19904H76.5011C76.3322 1.19904 75.9203 1.42227 75.2602 1.86617C74.8982 2.13233 74.579 2.4525 74.3136 2.81555C73.9765 3.27496 73.6964 3.77386 73.4796 4.30121L73.2852 4.26015C73.3096 4.02048 73.362 3.78452 73.4412 3.5571C73.5023 3.33094 73.5802 3.10966 73.674 2.8951C73.8906 2.40073 74.3426 1.51122 75.03 0.226562C76.4862 0.428325 77.9553 0.522661 79.4253 0.508812C82.2293 0.454073 85.1024 0.386504 88.0446 0.306106C88.8837 0.280447 89.3238 0.74744 89.38 1.71222C89.336 2.04665 89.2589 2.37585 89.1498 2.69496C88.8765 3.35745 88.4875 3.96569 88.0011 4.49108C87.9173 4.40718 87.8183 4.34012 87.7094 4.29351C88.0124 3.92981 88.2789 3.53704 88.5051 3.1209V2.81555C88.4795 2.02184 88.285 1.53688 87.9218 1.36069C87.5604 1.23423 87.1813 1.16666 86.7986 1.16055H84.4091C83.9539 1.13008 83.4975 1.19834 83.071 1.36069C82.7717 1.53517 82.6233 1.87387 82.6233 2.38705V19.4657C82.6068 19.8489 82.7086 20.228 82.915 20.551C83.0584 20.8061 83.2415 21.0365 83.4574 21.2336C83.7593 21.2837 84.0646 21.3111 84.3707 21.3157C84.6201 21.3264 84.8679 21.2715 85.0896 21.1566V21.6415C84.8202 21.7237 84.5396 21.7627 84.2581 21.757C83.3294 21.7313 82.3572 21.6929 81.3364 21.6415C80.4359 21.6672 79.5584 21.7057 78.709 21.757C78.3886 21.7656 78.0688 21.7267 77.7598 21.6415V21.1566C78.116 21.2357 78.4797 21.2761 78.8446 21.2772C79.2021 21.2673 79.5581 21.227 79.9089 21.1566C80.1337 20.8157 80.3062 20.4429 80.4205 20.0507C80.4789 19.4899 80.5045 18.9261 80.4973 18.3623L80.5075 2.10993Z" fill="white" fill-opacity="0.3"/>
<path d="M96.5716 3.14993C96.5874 2.6942 96.5278 2.239 96.3951 1.80284C96.3104 1.53895 96.1659 1.29832 95.973 1.09978C95.5687 0.8201 95.2873 0.691805 95.1082 0.709766C94.706 0.732698 94.3068 0.793695 93.916 0.891945V0.358238C94.3088 0.275596 94.7094 0.236019 95.1108 0.240206C96.0625 0.293235 96.9818 0.359949 97.8687 0.440347C98.2934 0.440347 98.69 0.427518 99.0661 0.399293C99.565 0.31975 100.033 0.268431 100.473 0.240206C100.834 0.238266 101.194 0.264863 101.55 0.31975V0.861154C101.187 0.753955 100.809 0.702907 100.43 0.709766C99.6622 0.750821 99.1837 1.08695 98.9791 1.7156C98.7529 2.41491 98.6541 3.14935 98.6874 3.88378L98.6388 14.0088C98.6252 14.5732 98.6646 15.1376 98.7565 15.6946C98.882 16.5339 99.1231 17.3517 99.4729 18.1245C99.9537 18.9997 100.655 19.7332 101.507 20.2516C102.397 20.8811 103.649 21.1959 105.263 21.1959C106.473 21.1815 107.655 20.8258 108.673 20.1695C109.725 19.5251 110.546 18.5618 111.016 17.4189C111.433 15.9778 111.636 14.4829 111.618 12.9825V3.77088C111.619 3.18564 111.533 2.60348 111.362 2.04403C111.262 1.77393 111.109 1.52654 110.913 1.31636C110.717 1.10619 110.48 0.937468 110.218 0.8201C110.037 0.736057 109.839 0.698153 109.64 0.709766C109.328 0.715551 109.019 0.777249 108.729 0.891945V0.358238C109.039 0.271937 109.36 0.23216 109.681 0.240206C110.083 0.242889 110.484 0.269451 110.883 0.31975C111.247 0.393067 111.617 0.433429 111.989 0.440347C112.379 0.435909 112.769 0.395541 113.153 0.31975C113.482 0.274162 113.813 0.247603 114.145 0.240206C114.428 0.228608 114.711 0.269492 114.979 0.360804V0.899643C114.737 0.791321 114.477 0.729526 114.212 0.717464C114.019 0.715678 113.827 0.7505 113.646 0.8201C113.184 1.10822 112.845 1.55805 112.695 2.08252C112.51 2.5957 112.433 3.51173 112.462 4.8306V11.9997C112.477 13.4708 112.367 14.9404 112.132 16.3925C111.886 17.6996 111.252 18.9017 110.313 19.8411C109.897 20.2727 109.413 20.6317 108.88 20.9034C108.39 21.1701 107.876 21.3908 107.345 21.5628C106.557 21.7934 105.745 21.9286 104.925 21.9657C99.4294 21.9366 96.6433 19.4211 96.5665 14.4194L96.5716 3.14993Z" fill="white" fill-opacity="0.3"/>
<path d="M125.824 19.4665C125.824 20.4604 126.265 21.0771 127.147 21.3166C127.505 21.318 127.862 21.2914 128.216 21.237V21.6783C127.904 21.732 127.587 21.7577 127.27 21.7553C126.855 21.7406 126.442 21.7021 126.031 21.6399C125.451 21.5885 124.931 21.5629 124.466 21.5629C124.065 21.5677 123.666 21.5934 123.268 21.6399C122.867 21.7097 122.46 21.7491 122.053 21.7579C121.729 21.7542 121.406 21.7277 121.086 21.6783V21.196C121.36 21.2453 121.637 21.2711 121.915 21.2729C122.238 21.2728 122.56 21.247 122.879 21.196C123.19 20.8993 123.428 20.535 123.575 20.1311C123.705 19.6471 123.763 19.1464 123.747 18.6455V2.73689C123.748 2.27369 123.677 1.81313 123.537 1.37183C123.471 1.16944 123.333 0.998049 123.151 0.889446C122.879 0.762843 122.582 0.700512 122.283 0.707267C122.008 0.7468 121.73 0.767374 121.452 0.768848V0.281328C121.738 0.253103 122.091 0.240273 122.516 0.240273C123.284 0.268498 124.051 0.306987 124.778 0.360871L127.909 0.240273C128.464 0.240273 128.991 0.227444 129.495 0.199219C133.589 0.306986 135.671 2.08515 135.74 5.53372C135.747 6.17949 135.613 6.81895 135.348 7.40748C135.083 7.99601 134.693 8.51944 134.205 8.94123C133.122 9.92996 131.595 10.5047 129.623 10.6655C130.292 11.3679 130.901 12.1259 131.442 12.9312C131.896 13.6685 132.664 14.9925 133.745 16.9032C134.054 17.4164 134.395 17.9604 134.768 18.5069C135.093 19.0201 135.436 19.5333 135.792 19.9926C136.5 20.9804 137.306 21.491 138.209 21.5167C138.645 21.5132 139.073 21.3956 139.45 21.1754V21.5167C139.168 21.6341 138.876 21.7277 138.578 21.7964C138.092 21.8885 137.598 21.928 137.104 21.9144C136.549 21.9312 135.997 21.8312 135.483 21.6208C134.97 21.4105 134.505 21.0944 134.121 20.693C133.255 19.8377 132.104 18.1271 130.67 15.5612C130.294 14.8513 129.766 13.9345 129.083 12.8106C128.806 12.3382 128.501 11.8824 128.17 11.4455C127.967 11.1647 127.71 10.9267 127.415 10.7451C127.259 10.6655 127.009 10.5603 126.648 10.4243C126.367 10.3757 126.089 10.3097 125.816 10.2267L125.824 19.4665ZM125.824 9.44158C126.202 9.66493 126.607 9.83747 127.029 9.95476C127.599 10.1773 128.209 10.2795 128.82 10.255C129.935 10.2366 131.011 9.83946 131.872 9.12854C132.856 8.39127 133.361 7.25287 133.387 5.71333C133.376 5.25962 133.323 4.80787 133.231 4.36367C133.097 3.79858 132.852 3.26572 132.512 2.79591C132.129 2.20528 131.591 1.73273 130.956 1.43085C130.094 1.05506 129.158 0.879629 128.219 0.917671C127.078 0.917671 126.389 1.02287 126.157 1.23841C126.036 1.36213 125.943 1.51115 125.886 1.67482C125.829 1.83849 125.809 2.01277 125.827 2.18522L125.824 9.44158Z" fill="white" fill-opacity="0.3"/>
<path d="M146.849 2.25139L146.082 1.48162C145.899 1.23195 145.676 1.01506 145.422 0.840149C145.124 0.763051 144.818 0.728496 144.511 0.737513H144.027V0.301311C144.232 0.301311 144.736 0.287627 145.539 0.260257C146.677 0.260257 147.401 0.339799 147.711 0.498885C148.02 0.642387 148.292 0.855822 148.505 1.1224L162.934 18.4653V4.23483C162.948 3.56989 162.908 2.90492 162.816 2.24626C162.762 1.90124 162.595 1.58384 162.343 1.34306C162.202 1.12019 161.992 0.950507 161.744 0.860677C161.489 0.772549 161.221 0.724935 160.951 0.719552C160.686 0.720138 160.421 0.740723 160.158 0.781134V0.28335C160.506 0.255125 161 0.242295 161.634 0.242295C162.033 0.27052 162.658 0.309008 163.517 0.362892C164.285 0.334667 164.952 0.296179 165.533 0.242295C165.8 0.240821 166.066 0.254528 166.331 0.28335V0.781134C166.133 0.738372 165.931 0.717719 165.728 0.719552C165.037 0.719552 164.533 0.940219 164.193 1.38412C163.91 1.8973 163.767 2.84668 163.765 4.23227V21.5187C163.747 21.6904 163.664 21.8485 163.533 21.96C163.447 21.9684 163.361 21.9813 163.277 21.9985C163.131 21.9915 162.988 21.9647 162.849 21.919L147.683 3.27775V17.793C147.653 18.436 147.725 19.0796 147.898 19.6995C147.944 20.054 148.077 20.3916 148.285 20.6822C148.456 20.8723 148.677 21.0116 148.922 21.0851C149.16 21.2077 149.422 21.276 149.689 21.2852C149.945 21.2852 150.201 21.2724 150.482 21.2467V21.7265H149.881C149.597 21.7522 149.305 21.765 149.009 21.765C148.751 21.7587 148.495 21.733 148.241 21.6881C147.931 21.6624 147.562 21.6496 147.136 21.6496C146.389 21.6752 145.708 21.7137 145.102 21.7676C144.837 21.7691 144.572 21.7554 144.309 21.7265V21.239C144.508 21.2635 144.709 21.2764 144.91 21.2775C145.644 21.3032 146.164 21.062 146.46 20.5565C146.757 20.051 146.849 19.1632 146.849 17.7853V2.25139Z" fill="white" fill-opacity="0.3"/>
<path d="M194.335 10.877C194.335 13.3505 193.438 15.7753 191.644 18.1513C190.721 19.2885 189.574 20.2223 188.274 20.8942C186.818 21.6307 185.208 22.0123 183.577 22.0078C179.934 21.9548 177.196 20.878 175.365 18.7773C173.51 16.7505 172.503 14.0867 172.55 11.3362C172.552 8.38901 173.705 5.55982 175.764 3.45638C177.811 1.21207 180.386 0.0625516 183.49 0.0078125C186.744 0.0368927 189.352 1.00766 191.314 2.92011C193.304 4.85479 194.311 7.50707 194.335 10.877ZM192.181 12.4037C192.181 11.8546 192.155 11.2789 192.102 10.6768C192.012 10.0764 191.889 9.44518 191.733 8.79088C191.437 7.44053 190.929 6.1458 190.229 4.95486C189.577 3.73563 188.637 2.69518 187.491 1.92454C186.298 1.12227 184.854 0.707448 183.16 0.680078C180.689 0.705737 178.689 1.64229 177.161 3.48974C175.569 5.35087 174.76 7.7457 174.733 10.6742C174.733 13.0845 175.47 15.4135 176.946 17.6612C177.716 18.699 178.69 19.5671 179.809 20.2117C181.037 20.9371 182.443 21.305 183.869 21.274C186.403 21.25 188.43 20.4007 189.948 18.726C191.409 17.1198 192.154 15.0123 192.181 12.4037Z" fill="white" fill-opacity="0.3"/>
</g>
<defs>
<clipPath id="clip0_342_2324">
<rect width="194.333" height="22" fill="white"/>
</clipPath>
</defs>
</svg>
