<svg id="Capa_1" data-name="Capa 1" xmlns="http://www.w3.org/2000/svg" viewBox="0 0 761.97 154.01"><defs><style>.cls-1{fill:#1d1d1b;}</style></defs><polygon class="cls-1" points="202.77 151.06 123.11 151.06 123.11 2.96 202.77 2.96 202.77 28.99 151.87 28.99 151.87 62.77 202.77 62.77 202.77 88.4 151.87 88.4 151.87 125.02 202.77 125.02 202.77 151.06"/><polygon class="cls-1" points="324.77 151.06 249.88 151.06 249.88 2.96 278.65 2.96 278.65 125.02 324.77 125.02 324.77 151.06"/><rect class="cls-1" x="364.47" y="2.95" width="28.75" height="148.1"/><polygon class="cls-1" points="475.6 151.06 447.26 151.06 447.26 2.96 474.59 2.96 535.96 97.56 535.96 2.96 564.19 2.96 564.19 151.06 537.37 151.06 475.6 53.61 475.6 151.06"/><path class="cls-1" d="M644.91,107.81q0-32.55,22-54.62t54.31-22.08a73.12,73.12,0,0,1,28.4,5.7A76,76,0,0,1,774,53.19a76.62,76.62,0,0,1,17,24.87A73.77,73.77,0,0,1,797,107.2a79.75,79.75,0,0,1-5.54,29.6,76.39,76.39,0,0,1-15.9,24.92A75.21,75.21,0,0,1,721,185.12a76.63,76.63,0,0,1-30.28-5.9,73.3,73.3,0,0,1-24.89-17.5,76.64,76.64,0,0,1-15.6-24.66,80,80,0,0,1-5.33-29.25m76.5-46.69q-19.5,0-32.92,13.43t-13.4,33.06q0,19.23,13.81,33.47T721,155.32a43,43,0,0,0,32.4-13.89q13.22-13.89,13.21-34.63a44.18,44.18,0,0,0-13.31-32.25,43.33,43.33,0,0,0-31.9-13.43" transform="translate(-35.03 -31.11)"/><polygon class="cls-1" points="0 151.06 0 2.96 79.65 2.96 79.65 28.99 28.65 28.99 28.65 62.77 79.65 62.77 79.65 88.4 28.65 88.4 28.65 151.06 0 151.06"/></svg>