<svg width="338" height="54" viewBox="0 0 338 54" fill="none" xmlns="http://www.w3.org/2000/svg">
<g clip-path="url(#clip0)">
<path d="M6.8214 7.76894C6.90046 6.04272 6.52566 4.32602 5.73477 2.7918C5.35094 2.19012 4.81021 1.70593 4.17152 1.39198C3.53283 1.07803 2.82069 0.946372 2.1127 1.01136H1.30779H0.482762V-0.101417H3.13895C4.14508 -0.101417 5.53355 -0.101418 7.30434 0.181834C8.11048 0.307528 8.92371 0.381863 9.73918 0.40439C10.4233 0.40439 11.7514 0.404389 13.9247 0.181834C16.9028 -0.000256836 19.3377 -0.101417 21.2493 -0.101417C23.7316 -0.186924 26.2082 0.190357 28.5538 1.01136C30.2063 1.57883 31.6834 2.56894 32.84 3.88434C33.7366 4.88882 34.4212 6.06581 34.8522 7.34406C35.1745 8.40691 35.3439 9.51063 35.3553 10.6217C35.3794 12.3208 34.9559 13.9961 34.1278 15.4774C33.3508 16.9822 32.2756 18.3111 30.9686 19.3823C29.807 20.3431 28.5291 21.1521 27.1654 21.7899C26.0956 22.2907 24.9662 22.6511 23.8049 22.8622V23.0646C27.7691 23.5317 31.497 25.2046 34.49 27.8596C35.9959 29.1374 37.1971 30.7388 38.0051 32.5457C38.8131 34.3526 39.2073 36.3189 39.1585 38.2995C39.1081 39.7488 38.8366 41.1818 38.3536 42.5483C37.7155 44.3703 36.7693 46.0678 35.5565 47.5659C34.0517 49.3486 32.1765 50.7782 30.063 51.754C27.4045 52.9869 24.4977 53.5825 21.5713 53.4939C18.1102 53.4939 14.7497 53.3523 11.51 53.0893H9.67881C8.73007 53.1044 7.78288 53.1719 6.84152 53.2916C5.21781 53.4767 3.58574 53.578 1.95172 53.5951C1.27951 53.604 0.607419 53.5702 -0.0605469 53.4939V52.28C0.072116 52.2516 0.209241 52.2516 0.341904 52.28C0.815272 52.3494 1.29238 52.3899 1.77061 52.4014C2.55668 52.3631 3.33782 52.2548 4.10484 52.0777C5.24945 50.9622 6.08814 49.5683 6.53968 48.0312C6.67653 47.4621 6.73075 46.876 6.70066 46.2912C6.70066 45.2796 6.70066 44.1466 6.70066 42.9124L6.8214 7.76894ZM11.9929 22.0732H16.8827C20.0166 22.2353 23.1311 21.491 25.8574 19.9286C28.091 18.5123 29.2179 15.8821 29.2179 12.2605C29.2847 10.8933 29.0748 9.52669 28.6009 8.24343C28.127 6.96016 27.3991 5.78694 26.4611 4.7948C24.6299 2.95366 21.6115 2.04321 17.4059 2.04321C16.0053 1.97499 14.6022 2.11128 13.2405 2.44785C12.4356 2.71087 12.013 3.43923 12.013 4.59247L11.9929 22.0732ZM11.9929 51.0256C13.1277 51.387 14.2836 51.6776 15.454 51.8956C16.7871 52.0842 18.1324 52.1721 19.4785 52.1586C21.2559 52.2495 23.0327 51.9672 24.6956 51.3297C26.3586 50.6923 27.8713 49.7136 29.1374 48.4561C30.3808 47.0588 31.336 45.4272 31.9474 43.656C32.5588 41.8847 32.8143 40.009 32.6991 38.1376C32.6984 35.5009 32.0041 32.9113 30.6868 30.6314C29.4165 28.323 27.3899 26.5284 24.9519 25.5531C23.2 24.8367 21.3454 24.4064 19.4584 24.2785C17.4461 24.1166 14.9107 24.0155 11.9124 24.0155L11.9929 51.0256Z" fill="#1C1C1C"/>
<path d="M6.8214 7.76894C6.90046 6.04272 6.52566 4.32602 5.73477 2.7918C5.35094 2.19012 4.81021 1.70593 4.17152 1.39198C3.53283 1.07803 2.82069 0.946372 2.1127 1.01136H1.30779H0.482762V-0.101417H3.13895C4.14508 -0.101417 5.53355 -0.101418 7.30434 0.181834C8.11048 0.307528 8.92371 0.381863 9.73918 0.40439C10.4233 0.40439 11.7514 0.404389 13.9247 0.181834C16.9028 -0.000256836 19.3377 -0.101417 21.2493 -0.101417C23.7316 -0.186924 26.2082 0.190357 28.5538 1.01136C30.2063 1.57883 31.6834 2.56894 32.84 3.88434C33.7366 4.88882 34.4212 6.06581 34.8522 7.34406C35.1745 8.40691 35.3439 9.51063 35.3553 10.6217C35.3794 12.3208 34.9559 13.9961 34.1278 15.4774C33.3508 16.9822 32.2756 18.3111 30.9686 19.3823C29.807 20.3431 28.5291 21.1521 27.1654 21.7899C26.0956 22.2907 24.9662 22.6511 23.8049 22.8622V23.0646C27.7691 23.5317 31.497 25.2046 34.49 27.8596C35.9959 29.1374 37.1971 30.7388 38.0051 32.5457C38.8131 34.3526 39.2073 36.3189 39.1585 38.2995C39.1081 39.7488 38.8366 41.1818 38.3536 42.5483C37.7155 44.3703 36.7693 46.0678 35.5565 47.5659C34.0517 49.3486 32.1765 50.7782 30.063 51.754C27.4045 52.9869 24.4977 53.5825 21.5713 53.4939C18.1102 53.4939 14.7497 53.3523 11.51 53.0893H9.67881C8.73007 53.1044 7.78288 53.1719 6.84152 53.2916C5.21781 53.4767 3.58574 53.578 1.95172 53.5951C1.27951 53.604 0.607419 53.5702 -0.0605469 53.4939V52.28C0.072116 52.2516 0.209241 52.2516 0.341904 52.28C0.815272 52.3494 1.29238 52.3899 1.77061 52.4014C2.55668 52.3631 3.33782 52.2548 4.10484 52.0777C5.24945 50.9622 6.08814 49.5683 6.53968 48.0312C6.67653 47.4621 6.73075 46.876 6.70066 46.2912C6.70066 45.2796 6.70066 44.1466 6.70066 42.9124L6.8214 7.76894ZM11.9929 22.0732H16.8827C20.0166 22.2353 23.1311 21.491 25.8574 19.9286C28.091 18.5123 29.2179 15.8821 29.2179 12.2605C29.2847 10.8933 29.0748 9.52669 28.6009 8.24343C28.127 6.96016 27.3991 5.78694 26.4611 4.7948C24.6299 2.95366 21.6115 2.04321 17.4059 2.04321C16.0053 1.97499 14.6022 2.11128 13.2405 2.44785C12.4356 2.71087 12.013 3.43923 12.013 4.59247L11.9929 22.0732ZM11.9929 51.0256C13.1277 51.387 14.2836 51.6776 15.454 51.8956C16.7871 52.0842 18.1324 52.1721 19.4785 52.1586C21.2559 52.2495 23.0327 51.9672 24.6956 51.3297C26.3586 50.6923 27.8713 49.7136 29.1374 48.4561C30.3808 47.0588 31.336 45.4272 31.9474 43.656C32.5588 41.8847 32.8143 40.009 32.6991 38.1376C32.6984 35.5009 32.0041 32.9113 30.6868 30.6314C29.4165 28.323 27.3899 26.5284 24.9519 25.5531C23.2 24.8367 21.3454 24.4064 19.4584 24.2785C17.4461 24.1166 14.9107 24.0155 11.9124 24.0155L11.9929 51.0256Z" fill="#1C1C1C"/>
<path d="M57.8725 15.8425C57.9702 15.0451 57.8727 14.2357 57.5887 13.4847C57.3046 12.7337 56.8426 12.0638 56.2426 11.533C55.7747 11.3282 55.28 11.1919 54.7737 11.1284C54.2191 11.0656 53.6616 11.0318 53.1035 11.0272C52.6587 11.0227 52.2144 11.0565 51.7754 11.1284V10.2179C52.2081 10.0957 52.6542 10.0278 53.1035 10.0156C53.3651 10.0156 54.1901 10.0156 55.5383 10.2179C57.4299 10.4203 58.8384 10.5214 59.7037 10.5214L64.8954 10.2179H67.0283C69.262 10.0763 70.6303 10.0156 71.0529 10.0156C72.2976 10.0172 73.541 10.0983 74.7756 10.2584C76.1656 10.4882 77.5191 10.9033 78.8001 11.4926C80.2946 12.1827 81.5642 13.2839 82.4624 14.6691C83.5161 16.3995 84.0279 18.4086 83.9314 20.4353C83.9724 21.8321 83.6923 23.2197 83.113 24.49C82.5336 25.7603 81.6706 26.8791 80.591 27.7593C77.8776 29.8059 74.604 30.9643 71.2139 31.0774V31.2798C71.5956 31.4314 71.9546 31.6357 72.2804 31.8867C72.6227 32.2245 72.9203 32.6053 73.1658 33.0197L82.5228 47.3442C83.5296 49.0576 84.9047 50.5231 86.5473 51.6335C87.8501 52.4349 89.3464 52.8617 90.8737 52.8676C91.6348 52.9078 92.387 52.6867 93.0067 52.2404C92.9919 52.3817 92.9919 52.5241 93.0067 52.6653C92.9725 52.8322 92.9725 53.0043 93.0067 53.1711C92.3182 53.4242 91.6021 53.594 90.8737 53.6769C89.6592 53.8309 88.4353 53.8985 87.2114 53.8792C85.3976 53.9083 83.5991 53.5425 81.9392 52.8069C79.8381 51.578 78.1122 49.7936 76.9488 47.6477L68.7589 33.9504C68.3628 33.3676 67.9186 32.8193 67.4308 32.3116C67.0434 31.8141 66.5654 31.3952 66.0222 31.0774C65.4867 30.938 64.942 30.8366 64.3923 30.774C63.841 30.6738 63.2966 30.5386 62.7624 30.3693V44.8961C62.6842 46.8708 62.8875 48.8466 63.366 50.7635C63.5788 51.387 63.9998 51.9171 64.5574 52.2638C65.115 52.6106 65.7748 52.7524 66.4247 52.6653L67.4308 52.5641H68.4571V53.5758C68.0059 53.6734 67.5488 53.741 67.0887 53.7781H66.4247H65.1972C64.9933 53.7632 64.7912 53.7294 64.5935 53.6769C63.3459 53.5043 62.0896 53.4029 60.8306 53.3734C59.8848 53.3734 58.6573 53.3734 57.1683 53.5758H56.4438C55.9094 53.6376 55.372 53.6714 54.834 53.6769C53.8938 53.6993 52.9531 53.6655 52.0169 53.5758V52.5641C52.685 52.6382 53.357 52.6719 54.0291 52.6653C54.8588 52.6637 55.6822 52.5201 56.464 52.2404C57.0298 51.6757 57.451 50.9815 57.6914 50.2172C57.8623 49.2766 57.9297 48.3199 57.8927 47.3644L57.8725 15.8425ZM62.7624 28.6293H62.9636C63.7794 28.9188 64.6128 29.1553 65.4588 29.3375C66.3362 29.4842 67.2264 29.5385 68.115 29.4993C70.8343 29.6202 73.5166 28.8303 75.7415 27.2535C76.7225 26.4863 77.5028 25.4902 78.0147 24.3515C78.5266 23.2128 78.7547 21.9658 78.6794 20.7185C78.785 18.9401 78.304 17.1764 77.311 15.7009C76.4548 14.5067 75.274 13.5864 73.9103 13.0505C72.6218 12.5239 71.2677 12.1767 69.8858 12.0186C68.3944 11.8745 66.8967 11.807 65.3984 11.8163C64.7555 11.7839 64.1177 11.946 63.5673 12.2816C63.3165 12.4774 63.1201 12.7346 62.9967 13.0287C62.8734 13.3228 62.8273 13.6438 62.863 13.9609L62.7624 28.6293Z" fill="#1C1C1C"/>
<path d="M57.8725 15.8425C57.9702 15.0451 57.8727 14.2357 57.5887 13.4847C57.3046 12.7337 56.8426 12.0638 56.2426 11.533C55.7747 11.3282 55.28 11.1919 54.7737 11.1284C54.2191 11.0656 53.6616 11.0318 53.1035 11.0272C52.6587 11.0227 52.2144 11.0565 51.7754 11.1284V10.2179C52.2081 10.0957 52.6542 10.0278 53.1035 10.0156C53.3651 10.0156 54.1901 10.0156 55.5383 10.2179C57.4299 10.4203 58.8384 10.5214 59.7037 10.5214L64.8954 10.2179H67.0283C69.262 10.0763 70.6303 10.0156 71.0529 10.0156C72.2976 10.0172 73.541 10.0983 74.7756 10.2584C76.1656 10.4882 77.5191 10.9033 78.8001 11.4926C80.2946 12.1827 81.5642 13.2839 82.4624 14.6691C83.5161 16.3995 84.0279 18.4086 83.9314 20.4353C83.9724 21.8321 83.6923 23.2197 83.113 24.49C82.5336 25.7603 81.6706 26.8791 80.591 27.7593C77.8776 29.8059 74.604 30.9643 71.2139 31.0774V31.2798C71.5956 31.4314 71.9546 31.6357 72.2804 31.8867C72.6227 32.2245 72.9203 32.6053 73.1658 33.0197L82.5228 47.3442C83.5296 49.0576 84.9047 50.5231 86.5473 51.6335C87.8501 52.4349 89.3464 52.8617 90.8737 52.8676C91.6348 52.9078 92.387 52.6867 93.0067 52.2404C92.9919 52.3817 92.9919 52.5241 93.0067 52.6653C92.9725 52.8322 92.9725 53.0043 93.0067 53.1711C92.3182 53.4242 91.6021 53.594 90.8737 53.6769C89.6592 53.8309 88.4353 53.8985 87.2114 53.8792C85.3976 53.9083 83.5991 53.5425 81.9392 52.8069C79.8381 51.578 78.1122 49.7936 76.9488 47.6477L68.7589 33.9504C68.3628 33.3676 67.9186 32.8193 67.4308 32.3116C67.0434 31.8141 66.5654 31.3952 66.0222 31.0774C65.4867 30.938 64.942 30.8366 64.3923 30.774C63.841 30.6738 63.2966 30.5386 62.7624 30.3693V44.8961C62.6842 46.8708 62.8875 48.8466 63.366 50.7635C63.5788 51.387 63.9998 51.9171 64.5574 52.2638C65.115 52.6106 65.7748 52.7524 66.4247 52.6653L67.4308 52.5641H68.4571V53.5758C68.0059 53.6734 67.5488 53.741 67.0887 53.7781H66.4247H65.1972C64.9933 53.7632 64.7912 53.7294 64.5935 53.6769C63.3459 53.5043 62.0896 53.4029 60.8306 53.3734C59.8848 53.3734 58.6573 53.3734 57.1683 53.5758H56.4438C55.9094 53.6376 55.372 53.6714 54.834 53.6769C53.8938 53.6993 52.9531 53.6655 52.0169 53.5758V52.5641C52.685 52.6382 53.357 52.6719 54.0291 52.6653C54.8588 52.6637 55.6822 52.5201 56.464 52.2404C57.0298 51.6757 57.451 50.9815 57.6914 50.2172C57.8623 49.2766 57.9297 48.3199 57.8927 47.3644L57.8725 15.8425ZM62.7624 28.6293H62.9636C63.7794 28.9188 64.6128 29.1553 65.4588 29.3375C66.3362 29.4842 67.2264 29.5385 68.115 29.4993C70.8343 29.6202 73.5166 28.8303 75.7415 27.2535C76.7225 26.4863 77.5028 25.4902 78.0147 24.3515C78.5266 23.2128 78.7547 21.9658 78.6794 20.7185C78.785 18.9401 78.304 17.1764 77.311 15.7009C76.4548 14.5067 75.274 13.5864 73.9103 13.0505C72.6218 12.5239 71.2677 12.1767 69.8858 12.0186C68.3944 11.8745 66.8967 11.807 65.3984 11.8163C64.7555 11.7839 64.1177 11.946 63.5673 12.2816C63.3165 12.4774 63.1201 12.7346 62.9967 13.0287C62.8734 13.3228 62.8273 13.6438 62.863 13.9609L62.7624 28.6293Z" fill="#1C1C1C"/>
<path d="M96.8301 52.4628H97.635H98.3594C98.6945 52.4835 99.0305 52.4835 99.3655 52.4628C99.5807 52.4575 99.7927 52.4093 99.9893 52.3212L100.392 51.9975C100.658 51.8242 100.913 51.635 101.156 51.431C101.458 51.2084 101.619 51.0465 101.619 50.9858L101.82 50.6824C102.364 49.9338 102.807 49.2256 103.189 48.6591C103.494 48.1593 103.75 47.6308 103.953 47.081L118.039 9.42871H119.146L133.232 45.341C134.037 47.3643 134.661 48.7401 135.103 49.6303C135.549 50.5157 136.046 51.3737 136.592 52.1998C136.847 52.3138 137.119 52.3823 137.397 52.4021C137.804 52.4604 138.214 52.4941 138.625 52.5033C139.033 52.4641 139.437 52.3897 139.832 52.2807H140.557V53.3935C139.892 53.5157 139.219 53.5833 138.544 53.5958L136.733 53.4947C135.333 53.2812 133.922 53.1394 132.508 53.0698C131.703 53.0698 130.495 53.0698 128.946 53.2721C128.206 53.3877 127.46 53.4553 126.712 53.4744C126.1 53.4786 125.489 53.4448 124.881 53.3733V52.2403C125.485 52.3603 126.097 52.4347 126.712 52.4628C127.229 52.4548 127.743 52.38 128.242 52.2403C129.046 52.1189 129.469 51.3703 129.469 49.9945C129.45 49.2068 129.28 48.4302 128.966 47.7082L123.472 33.9503H110.775L106.288 46.0896C105.877 47.1713 105.639 48.3118 105.583 49.4684C105.57 50.2466 105.779 51.0123 106.187 51.6737C106.39 52.0172 106.689 52.2927 107.047 52.4656C107.405 52.6384 107.806 52.7008 108.199 52.6449H109.326H110.332V53.5553C109.759 53.6361 109.18 53.67 108.602 53.6565L105.765 53.5553H103.108C102.243 53.5553 101.257 53.5553 100.17 53.5553L98.6411 53.6565C98.0625 53.6683 97.4839 53.6345 96.9106 53.5553L96.8301 52.4628ZM122.869 32.2305L116.973 17.5014L111.58 32.3114L122.869 32.2305Z" fill="#1C1C1C"/>
<path d="M96.8301 52.4628H97.635H98.3594C98.6945 52.4835 99.0305 52.4835 99.3655 52.4628C99.5807 52.4575 99.7927 52.4093 99.9893 52.3212L100.392 51.9975C100.658 51.8242 100.913 51.635 101.156 51.431C101.458 51.2084 101.619 51.0465 101.619 50.9858L101.82 50.6824C102.364 49.9338 102.807 49.2256 103.189 48.6591C103.494 48.1593 103.75 47.6308 103.953 47.081L118.039 9.42871H119.146L133.232 45.341C134.037 47.3643 134.661 48.7401 135.103 49.6303C135.549 50.5157 136.046 51.3737 136.592 52.1998C136.847 52.3138 137.119 52.3823 137.397 52.4021C137.804 52.4604 138.214 52.4941 138.625 52.5033C139.033 52.4641 139.437 52.3897 139.832 52.2807H140.557V53.3935C139.892 53.5157 139.219 53.5833 138.544 53.5958L136.733 53.4947C135.333 53.2812 133.922 53.1394 132.508 53.0698C131.703 53.0698 130.495 53.0698 128.946 53.2721C128.206 53.3877 127.46 53.4553 126.712 53.4744C126.1 53.4786 125.489 53.4448 124.881 53.3733V52.2403C125.485 52.3603 126.097 52.4347 126.712 52.4628C127.229 52.4548 127.743 52.38 128.242 52.2403C129.046 52.1189 129.469 51.3703 129.469 49.9945C129.45 49.2068 129.28 48.4302 128.966 47.7082L123.472 33.9503H110.775L106.288 46.0896C105.877 47.1713 105.639 48.3118 105.583 49.4684C105.57 50.2466 105.779 51.0123 106.187 51.6737C106.39 52.0172 106.689 52.2927 107.047 52.4656C107.405 52.6384 107.806 52.7008 108.199 52.6449H109.326H110.332V53.5553C109.759 53.6361 109.18 53.67 108.602 53.6565L105.765 53.5553H103.108C102.243 53.5553 101.257 53.5553 100.17 53.5553L98.6411 53.6565C98.0625 53.6683 97.4839 53.6345 96.9106 53.5553L96.8301 52.4628ZM122.869 32.2305L116.973 17.5014L111.58 32.3114L122.869 32.2305Z" fill="#1C1C1C"/>
<path d="M145.445 52.1385C146.049 52.2585 146.661 52.3329 147.276 52.361C147.951 52.3881 148.627 52.3338 149.289 52.1992C149.641 52.0936 149.959 51.8985 150.214 51.6327C151.285 50.5093 152.024 49.1081 152.347 47.5862C152.681 46.3708 152.884 45.1226 152.951 43.8635L154.48 18.2898V17.9864C154.621 16.0845 154.682 14.6683 154.682 13.7983C154.682 13.3569 154.591 12.9202 154.414 12.5161C154.238 12.112 153.979 11.7494 153.655 11.4513C152.889 11.3435 152.115 11.2894 151.341 11.2895C150.628 11.2798 149.916 11.3204 149.208 11.4109V10.379L152.166 10.1767H153.374C154.721 10.1697 156.067 10.2711 157.398 10.4802C157.889 10.5024 158.364 10.6569 158.775 10.9274C159.186 11.1979 159.516 11.5746 159.732 12.0178L172.752 43.6611L185.147 13.4948V13.3127C185.579 12.2636 186.272 11.3439 187.16 10.642C188.485 9.97369 189.97 9.69327 191.446 9.83275C193.089 9.82446 194.728 9.99404 196.335 10.3386V11.3704C195.988 11.3249 195.645 11.2504 195.309 11.1478C194.706 11.1478 194.263 11.1478 193.981 11.1478C192.492 11.1478 191.546 11.5525 191.144 12.3416C190.719 13.137 190.504 14.0286 190.52 14.9313C190.538 15.8582 190.605 16.7835 190.721 17.7031L193.277 44.8953C193.351 46.5605 193.677 48.2046 194.243 49.7713C194.736 50.8178 195.492 51.7173 196.436 52.3813C196.983 52.5851 197.563 52.6879 198.147 52.6847L199.072 52.5836C199.413 52.5492 199.757 52.5492 200.098 52.5836V53.494C199.525 53.5681 198.946 53.6019 198.368 53.5952C197.281 53.5952 195.611 53.494 193.377 53.2917L191.546 53.1906C190.943 53.1906 189.957 53.1906 188.608 53.3929C187.26 53.5952 186.395 53.5952 185.852 53.5952C184.624 53.5952 183.638 53.5952 182.894 53.494V52.5836H185.449C186.287 52.6151 187.11 52.3581 187.783 51.8552C188.387 51.3899 188.689 50.2973 188.689 48.5978C188.692 47.3608 188.625 46.1246 188.488 44.8953L185.952 16.8938H185.751L171.504 51.2887H170.739L156.533 16.3475H156.332L154.641 46.9388C154.563 48.3117 154.755 49.6866 155.205 50.9852C155.424 51.4279 155.768 51.7961 156.194 52.0442C156.62 52.2923 157.108 52.4095 157.599 52.3813L160.336 52.2599V53.3929C159.592 53.3929 158.686 53.494 157.599 53.494C156.845 53.4695 156.092 53.4019 155.346 53.2917C154.371 53.1728 153.39 53.1053 152.408 53.0894C152.072 53.0894 151.086 53.1906 149.45 53.3929L148.021 53.494H146.512C146.163 53.4704 145.818 53.4024 145.486 53.2917L145.445 52.1385Z" fill="#1C1C1C"/>
<path d="M145.445 52.1385C146.049 52.2585 146.661 52.3329 147.276 52.361C147.951 52.3881 148.627 52.3338 149.289 52.1992C149.641 52.0936 149.959 51.8985 150.214 51.6327C151.285 50.5093 152.024 49.1081 152.347 47.5862C152.681 46.3708 152.884 45.1226 152.951 43.8635L154.48 18.2898V17.9864C154.621 16.0845 154.682 14.6683 154.682 13.7983C154.682 13.3569 154.591 12.9202 154.414 12.5161C154.238 12.112 153.979 11.7494 153.655 11.4513C152.889 11.3435 152.115 11.2894 151.341 11.2895C150.628 11.2798 149.916 11.3204 149.208 11.4109V10.379L152.166 10.1767H153.374C154.721 10.1697 156.067 10.2711 157.398 10.4802C157.889 10.5024 158.364 10.6569 158.775 10.9274C159.186 11.1979 159.516 11.5746 159.732 12.0178L172.752 43.6611L185.147 13.4948V13.3127C185.579 12.2636 186.272 11.3439 187.16 10.642C188.485 9.97369 189.97 9.69327 191.446 9.83275C193.089 9.82446 194.728 9.99404 196.335 10.3386V11.3704C195.988 11.3249 195.645 11.2504 195.309 11.1478C194.706 11.1478 194.263 11.1478 193.981 11.1478C192.492 11.1478 191.546 11.5525 191.144 12.3416C190.719 13.137 190.504 14.0286 190.52 14.9313C190.538 15.8582 190.605 16.7835 190.721 17.7031L193.277 44.8953C193.351 46.5605 193.677 48.2046 194.243 49.7713C194.736 50.8178 195.492 51.7173 196.436 52.3813C196.983 52.5851 197.563 52.6879 198.147 52.6847L199.072 52.5836C199.413 52.5492 199.757 52.5492 200.098 52.5836V53.494C199.525 53.5681 198.946 53.6019 198.368 53.5952C197.281 53.5952 195.611 53.494 193.377 53.2917L191.546 53.1906C190.943 53.1906 189.957 53.1906 188.608 53.3929C187.26 53.5952 186.395 53.5952 185.852 53.5952C184.624 53.5952 183.638 53.5952 182.894 53.494V52.5836H185.449C186.287 52.6151 187.11 52.3581 187.783 51.8552C188.387 51.3899 188.689 50.2973 188.689 48.5978C188.692 47.3608 188.625 46.1246 188.488 44.8953L185.952 16.8938H185.751L171.504 51.2887H170.739L156.533 16.3475H156.332L154.641 46.9388C154.563 48.3117 154.755 49.6866 155.205 50.9852C155.424 51.4279 155.768 51.7961 156.194 52.0442C156.62 52.2923 157.108 52.4095 157.599 52.3813L160.336 52.2599V53.3929C159.592 53.3929 158.686 53.494 157.599 53.494C156.845 53.4695 156.092 53.4019 155.346 53.2917C154.371 53.1728 153.39 53.1053 152.408 53.0894C152.072 53.0894 151.086 53.1906 149.45 53.3929L148.021 53.494H146.512C146.163 53.4704 145.818 53.4024 145.486 53.2917L145.445 52.1385Z" fill="#1C1C1C"/>
<path d="M204.445 52.4628H205.25H205.975C206.31 52.4829 206.646 52.4829 206.981 52.4628C207.196 52.4575 207.408 52.4093 207.605 52.3212L208.007 51.9975C208.273 51.8242 208.528 51.635 208.772 51.431C209.074 51.2084 209.214 51.0465 209.214 50.9858L209.416 50.6824C209.959 49.9338 210.422 49.2256 210.804 48.6591C211.101 48.1549 211.357 47.6271 211.569 47.081L225.655 9.42871H226.781L240.867 45.341C241.692 47.3643 242.316 48.7401 242.759 49.6303C243.197 50.5154 243.688 51.3734 244.228 52.1998C244.491 52.3091 244.769 52.3773 245.053 52.4021C245.453 52.4602 245.856 52.494 246.26 52.5033C246.675 52.4664 247.086 52.3919 247.488 52.2807H248.192V53.3935C247.528 53.5174 246.855 53.5851 246.18 53.5958L244.328 53.4947C242.913 53.3199 241.489 53.2186 240.062 53.1912C239.257 53.1912 238.05 53.1912 236.501 53.3935C235.761 53.5073 235.015 53.5748 234.267 53.5958C233.655 53.6006 233.044 53.5668 232.436 53.4947V52.3616C233.04 52.4827 233.652 52.5571 234.267 52.5842C234.784 52.574 235.298 52.4993 235.796 52.3616C236.601 52.2402 237.004 51.4917 237.004 50.1159C236.993 49.3077 236.822 48.5097 236.501 47.7689L231.108 33.9503H218.39L213.923 46.0896C213.502 47.1685 213.264 48.3105 213.219 49.4684C213.205 50.2466 213.414 51.0123 213.822 51.6737C214.025 52.0172 214.324 52.2927 214.682 52.4656C215.04 52.6384 215.441 52.7008 215.835 52.6449H216.962H217.968V53.5553C217.394 53.6353 216.816 53.6692 216.237 53.6565L213.4 53.5553H210.744C209.878 53.5553 208.872 53.5553 207.806 53.5553L206.276 53.6565C205.698 53.6692 205.119 53.6353 204.546 53.5553L204.445 52.4628ZM230.484 32.2305L224.588 17.5014L219.195 32.2305H230.484Z" fill="#1C1C1C"/>
<path d="M204.445 52.4628H205.25H205.975C206.31 52.4829 206.646 52.4829 206.981 52.4628C207.196 52.4575 207.408 52.4093 207.605 52.3212L208.007 51.9975C208.273 51.8242 208.528 51.635 208.772 51.431C209.074 51.2084 209.214 51.0465 209.214 50.9858L209.416 50.6824C209.959 49.9338 210.422 49.2256 210.804 48.6591C211.101 48.1549 211.357 47.6271 211.569 47.081L225.655 9.42871H226.781L240.867 45.341C241.692 47.3643 242.316 48.7401 242.759 49.6303C243.197 50.5154 243.688 51.3734 244.228 52.1998C244.491 52.3091 244.769 52.3773 245.053 52.4021C245.453 52.4602 245.856 52.494 246.26 52.5033C246.675 52.4664 247.086 52.3919 247.488 52.2807H248.192V53.3935C247.528 53.5174 246.855 53.5851 246.18 53.5958L244.328 53.4947C242.913 53.3199 241.489 53.2186 240.062 53.1912C239.257 53.1912 238.05 53.1912 236.501 53.3935C235.761 53.5073 235.015 53.5748 234.267 53.5958C233.655 53.6006 233.044 53.5668 232.436 53.4947V52.3616C233.04 52.4827 233.652 52.5571 234.267 52.5842C234.784 52.574 235.298 52.4993 235.796 52.3616C236.601 52.2402 237.004 51.4917 237.004 50.1159C236.993 49.3077 236.822 48.5097 236.501 47.7689L231.108 33.9503H218.39L213.923 46.0896C213.502 47.1685 213.264 48.3105 213.219 49.4684C213.205 50.2466 213.414 51.0123 213.822 51.6737C214.025 52.0172 214.324 52.2927 214.682 52.4656C215.04 52.6384 215.441 52.7008 215.835 52.6449H216.962H217.968V53.5553C217.394 53.6353 216.816 53.6692 216.237 53.6565L213.4 53.5553H210.744C209.878 53.5553 208.872 53.5553 207.806 53.5553L206.276 53.6565C205.698 53.6692 205.119 53.6353 204.546 53.5553L204.445 52.4628ZM230.484 32.2305L224.588 17.5014L219.195 32.2305H230.484Z" fill="#1C1C1C"/>
<path d="M261.815 15.8425C261.912 15.0451 261.815 14.2357 261.531 13.4847C261.247 12.7337 260.785 12.0638 260.185 11.533C259.716 11.331 259.221 11.1948 258.716 11.1284C258.154 11.0657 257.59 11.0319 257.025 11.0272C256.581 11.0227 256.136 11.0565 255.697 11.1284V10.2179C256.13 10.0971 256.576 10.0292 257.025 10.0156C257.307 10.0156 258.112 10.0156 259.46 10.2179C261.372 10.4203 262.76 10.5214 263.646 10.5214L268.837 10.2179H270.97C273.204 10.0763 274.552 10.0156 274.995 10.0156C276.233 10.0172 277.47 10.0983 278.697 10.2584C280.089 10.4829 281.443 10.8982 282.722 11.4926C284.226 12.1766 285.503 13.2788 286.404 14.6691C287.451 16.4024 287.963 18.4093 287.873 20.4353C287.91 21.8336 287.627 23.2217 287.044 24.4919C286.461 25.7621 285.595 26.8801 284.513 27.7593C281.809 29.8091 278.541 30.968 275.156 31.0774V31.2798C275.533 31.4408 275.891 31.6445 276.222 31.8867C276.557 32.2263 276.848 32.607 277.088 33.0197L286.445 47.3442C287.476 49.072 288.887 50.5392 290.57 51.6335C291.865 52.4342 293.355 52.8612 294.876 52.8676C295.643 52.9076 296.402 52.6867 297.029 52.2404C297.004 52.3809 297.004 52.5248 297.029 52.6653C297.018 52.8399 297.052 53.0144 297.13 53.1711C296.441 53.4217 295.725 53.5915 294.997 53.6769C293.827 53.7906 292.65 53.8244 291.475 53.7781C289.655 53.8068 287.85 53.4411 286.183 52.7058C284.086 51.4711 282.362 49.6882 281.193 47.5465L272.661 33.9504C272.252 33.3773 271.808 32.83 271.333 32.3116C270.944 31.8077 270.458 31.3879 269.904 31.0774C269.368 30.938 268.824 30.8366 268.274 30.774C267.723 30.6708 267.179 30.5357 266.644 30.3693V44.8961C266.57 46.8719 266.781 48.848 267.268 50.7635C267.477 51.3854 267.894 51.915 268.448 52.2619C269.002 52.6088 269.659 52.7514 270.306 52.6653L271.333 52.5641H272.339V53.5758C271.888 53.6734 271.43 53.741 270.97 53.7781H270.306H269.099C268.888 53.7654 268.679 53.7315 268.475 53.6769C267.234 53.505 265.985 53.4037 264.732 53.3734C263.766 53.3734 262.559 53.3734 261.05 53.5758H260.346C259.804 53.6383 259.26 53.6721 258.716 53.6769C257.769 53.7011 256.821 53.6673 255.878 53.5758V52.5641C256.546 52.6388 257.218 52.6726 257.891 52.6653C258.72 52.6622 259.543 52.5186 260.325 52.2404C260.891 51.6757 261.313 50.9815 261.553 50.2172C261.713 49.2753 261.781 48.3197 261.754 47.3644L261.815 15.8425ZM266.684 28.6293H266.906C267.714 28.9209 268.541 29.1575 269.381 29.3375C270.237 29.4936 271.107 29.5614 271.976 29.5398C274.696 29.6637 277.38 28.8736 279.603 27.294C280.588 26.529 281.372 25.5338 281.887 24.395C282.403 23.2562 282.634 22.008 282.561 20.759C282.655 18.9819 282.175 17.2219 281.193 15.7414C280.332 14.552 279.152 13.6329 277.792 13.0909C276.503 12.566 275.149 12.2189 273.767 12.0591C272.283 11.9145 270.792 11.8469 269.3 11.8568C268.657 11.8218 268.018 11.9841 267.469 12.3221C267.212 12.5128 267.009 12.7686 266.882 13.0636C266.754 13.3585 266.707 13.6821 266.745 14.0014L266.684 28.6293Z" fill="#1C1C1C"/>
<path d="M261.815 15.8425C261.912 15.0451 261.815 14.2357 261.531 13.4847C261.247 12.7337 260.785 12.0638 260.185 11.533C259.716 11.331 259.221 11.1948 258.716 11.1284C258.154 11.0657 257.59 11.0319 257.025 11.0272C256.581 11.0227 256.136 11.0565 255.697 11.1284V10.2179C256.13 10.0971 256.576 10.0292 257.025 10.0156C257.307 10.0156 258.112 10.0156 259.46 10.2179C261.372 10.4203 262.76 10.5214 263.646 10.5214L268.837 10.2179H270.97C273.204 10.0763 274.552 10.0156 274.995 10.0156C276.233 10.0172 277.47 10.0983 278.697 10.2584C280.089 10.4829 281.443 10.8982 282.722 11.4926C284.226 12.1766 285.503 13.2788 286.404 14.6691C287.451 16.4024 287.963 18.4093 287.873 20.4353C287.91 21.8336 287.627 23.2217 287.044 24.4919C286.461 25.7621 285.595 26.8801 284.513 27.7593C281.809 29.8091 278.541 30.968 275.156 31.0774V31.2798C275.533 31.4408 275.891 31.6445 276.222 31.8867C276.557 32.2263 276.848 32.607 277.088 33.0197L286.445 47.3442C287.476 49.072 288.887 50.5392 290.57 51.6335C291.865 52.4342 293.355 52.8612 294.876 52.8676C295.643 52.9076 296.402 52.6867 297.029 52.2404C297.004 52.3809 297.004 52.5248 297.029 52.6653C297.018 52.8399 297.052 53.0144 297.13 53.1711C296.441 53.4217 295.725 53.5915 294.997 53.6769C293.827 53.7906 292.65 53.8244 291.475 53.7781C289.655 53.8068 287.85 53.4411 286.183 52.7058C284.086 51.4711 282.362 49.6882 281.193 47.5465L272.661 33.9504C272.252 33.3773 271.808 32.83 271.333 32.3116C270.944 31.8077 270.458 31.3879 269.904 31.0774C269.368 30.938 268.824 30.8366 268.274 30.774C267.723 30.6708 267.179 30.5357 266.644 30.3693V44.8961C266.57 46.8719 266.781 48.848 267.268 50.7635C267.477 51.3854 267.894 51.915 268.448 52.2619C269.002 52.6088 269.659 52.7514 270.306 52.6653L271.333 52.5641H272.339V53.5758C271.888 53.6734 271.43 53.741 270.97 53.7781H270.306H269.099C268.888 53.7654 268.679 53.7315 268.475 53.6769C267.234 53.505 265.985 53.4037 264.732 53.3734C263.766 53.3734 262.559 53.3734 261.05 53.5758H260.346C259.804 53.6383 259.26 53.6721 258.716 53.6769C257.769 53.7011 256.821 53.6673 255.878 53.5758V52.5641C256.546 52.6388 257.218 52.6726 257.891 52.6653C258.72 52.6622 259.543 52.5186 260.325 52.2404C260.891 51.6757 261.313 50.9815 261.553 50.2172C261.713 49.2753 261.781 48.3197 261.754 47.3644L261.815 15.8425ZM266.684 28.6293H266.906C267.714 28.9209 268.541 29.1575 269.381 29.3375C270.237 29.4936 271.107 29.5614 271.976 29.5398C274.696 29.6637 277.38 28.8736 279.603 27.294C280.588 26.529 281.372 25.5338 281.887 24.395C282.403 23.2562 282.634 22.008 282.561 20.759C282.655 18.9819 282.175 17.2219 281.193 15.7414C280.332 14.552 279.152 13.6329 277.792 13.0909C276.503 12.566 275.149 12.2189 273.767 12.0591C272.283 11.9145 270.792 11.8469 269.3 11.8568C268.657 11.8218 268.018 11.9841 267.469 12.3221C267.212 12.5128 267.009 12.7686 266.882 13.0636C266.754 13.3585 266.707 13.6821 266.745 14.0014L266.684 28.6293Z" fill="#1C1C1C"/>
<path d="M333.916 18.8154C333.876 18.0379 333.677 17.277 333.33 16.5806C332.984 15.8843 332.498 15.2674 331.904 14.769C330.668 13.7492 329.236 12.9983 327.698 12.5636C326.23 12.1302 324.729 11.8189 323.211 11.633C321.822 11.5116 320.615 11.4509 319.609 11.4509C318.375 11.4353 317.154 11.7126 316.047 12.2602C316.047 12.5434 315.906 12.6648 315.846 12.6648C315.678 13.021 315.575 13.4049 315.544 13.7978V28.9316H321.742C323.201 28.9895 324.661 28.8189 326.068 28.4258C326.555 28.2425 326.965 27.8985 327.232 27.45C327.499 27.0016 327.606 26.4753 327.537 25.9574C327.464 25.1147 327.26 24.2886 326.933 23.5093C327.063 23.463 327.205 23.463 327.336 23.5093C327.446 23.5164 327.554 23.4801 327.638 23.4082L327.738 23.5093C328.073 23.9692 328.313 24.4921 328.442 25.047C328.62 25.8502 328.694 26.6729 328.664 27.4951C328.6 28.168 328.6 28.8454 328.664 29.5183C328.664 29.8016 329.006 30.6715 329.469 32.189C329.75 32.9983 329.952 33.6457 330.092 34.2122C330.185 34.5095 330.252 34.814 330.294 35.1226V36.5591H329.71C329.456 35.5224 329.027 34.5371 328.442 33.6457C327.882 32.8776 327.069 32.333 326.148 32.108C324.887 31.7629 323.591 31.5594 322.285 31.5011C320.735 31.5011 318.502 31.3392 315.584 31.3392V49.4471C315.584 50.4587 315.906 51.0859 316.53 51.3287C317.678 51.6313 318.866 51.7542 320.051 51.6929C321.943 51.6929 323.673 51.6929 325.243 51.5513C326.931 51.4129 328.601 51.1148 330.233 50.6611C331.901 50.2349 333.458 49.4554 334.801 48.3748C336.077 47.324 336.946 45.8561 337.256 44.2272H337.96C337.943 45.1492 337.787 46.0632 337.498 46.9383C336.922 48.068 336.249 49.1445 335.485 50.1552L335.385 50.2564C334.499 51.4906 333.956 52.2796 333.715 52.6641C333.408 53.1633 333.152 53.6919 332.95 54.2422C332.205 54.1208 331.159 53.9791 329.791 53.8375C328.905 53.8375 326.551 53.8375 322.667 53.8375C321.581 53.8375 319.89 53.8375 317.596 53.7364C315.302 53.6352 313.572 53.7364 312.505 53.7364C311.902 53.7364 310.976 53.7364 309.748 53.7364C308.521 53.7364 307.615 53.8375 307.012 53.8375C305.382 53.8375 304.295 53.8375 303.752 53.7364V52.6034C303.824 52.5932 303.897 52.5988 303.966 52.6198C304.036 52.6407 304.1 52.6765 304.154 52.7247C304.778 52.7247 305.281 52.8259 305.684 52.8259C306.377 52.9267 307.084 52.8518 307.741 52.608C308.398 52.3642 308.985 51.9592 309.447 51.4299C310.158 50.1411 310.48 48.6714 310.372 47.2013V15.3355C310.454 14.1545 310.24 12.9718 309.748 11.896C309.445 11.4966 309.04 11.1865 308.576 10.9979C308.112 10.8093 307.607 10.7491 307.112 10.8237L304.255 11.026V9.81205L305.784 9.71089C308.36 9.71089 311.821 9.71089 315.966 9.81205H319.025C322.949 9.81205 325.545 9.81205 326.792 9.71089C328.04 9.60972 329.63 9.4681 331.521 9.20508H331.722C331.865 9.74119 332.04 10.2682 332.246 10.7832L333.554 14.3036L334.278 16.1448C334.434 17.026 334.501 17.9207 334.479 18.8154H333.916Z" fill="#1C1C1C"/>
<path d="M333.916 18.8154C333.876 18.0379 333.677 17.277 333.33 16.5806C332.984 15.8843 332.498 15.2674 331.904 14.769C330.668 13.7492 329.236 12.9983 327.698 12.5636C326.23 12.1302 324.729 11.8189 323.211 11.633C321.822 11.5116 320.615 11.4509 319.609 11.4509C318.375 11.4353 317.154 11.7126 316.047 12.2602C316.047 12.5434 315.906 12.6648 315.846 12.6648C315.678 13.021 315.575 13.4049 315.544 13.7978V28.9316H321.742C323.201 28.9895 324.661 28.8189 326.068 28.4258C326.555 28.2425 326.965 27.8985 327.232 27.45C327.499 27.0016 327.606 26.4753 327.537 25.9574C327.464 25.1147 327.26 24.2886 326.933 23.5093C327.063 23.463 327.205 23.463 327.336 23.5093C327.446 23.5164 327.554 23.4801 327.638 23.4082L327.738 23.5093C328.073 23.9692 328.313 24.4921 328.442 25.047C328.62 25.8502 328.694 26.6729 328.664 27.4951C328.6 28.168 328.6 28.8454 328.664 29.5183C328.664 29.8016 329.006 30.6715 329.469 32.189C329.75 32.9983 329.952 33.6457 330.092 34.2122C330.185 34.5095 330.252 34.814 330.294 35.1226V36.5591H329.71C329.456 35.5224 329.027 34.5371 328.442 33.6457C327.882 32.8776 327.069 32.333 326.148 32.108C324.887 31.7629 323.591 31.5594 322.285 31.5011C320.735 31.5011 318.502 31.3392 315.584 31.3392V49.4471C315.584 50.4587 315.906 51.0859 316.53 51.3287C317.678 51.6313 318.866 51.7542 320.051 51.6929C321.943 51.6929 323.673 51.6929 325.243 51.5513C326.931 51.4129 328.601 51.1148 330.233 50.6611C331.901 50.2349 333.458 49.4554 334.801 48.3748C336.077 47.324 336.946 45.8561 337.256 44.2272H337.96C337.943 45.1492 337.787 46.0632 337.498 46.9383C336.922 48.068 336.249 49.1445 335.485 50.1552L335.385 50.2564C334.499 51.4906 333.956 52.2796 333.715 52.6641C333.408 53.1633 333.152 53.6919 332.95 54.2422C332.205 54.1208 331.159 53.9791 329.791 53.8375C328.905 53.8375 326.551 53.8375 322.667 53.8375C321.581 53.8375 319.89 53.8375 317.596 53.7364C315.302 53.6352 313.572 53.7364 312.505 53.7364C311.902 53.7364 310.976 53.7364 309.748 53.7364C308.521 53.7364 307.615 53.8375 307.012 53.8375C305.382 53.8375 304.295 53.8375 303.752 53.7364V52.6034C303.824 52.5932 303.897 52.5988 303.966 52.6198C304.036 52.6407 304.1 52.6765 304.154 52.7247C304.778 52.7247 305.281 52.8259 305.684 52.8259C306.377 52.9267 307.084 52.8518 307.741 52.608C308.398 52.3642 308.985 51.9592 309.447 51.4299C310.158 50.1411 310.48 48.6714 310.372 47.2013V15.3355C310.454 14.1545 310.24 12.9718 309.748 11.896C309.445 11.4966 309.04 11.1865 308.576 10.9979C308.112 10.8093 307.607 10.7491 307.112 10.8237L304.255 11.026V9.81205L305.784 9.71089C308.36 9.71089 311.821 9.71089 315.966 9.81205H319.025C322.949 9.81205 325.545 9.81205 326.792 9.71089C328.04 9.60972 329.63 9.4681 331.521 9.20508H331.722C331.865 9.74119 332.04 10.2682 332.246 10.7832L333.554 14.3036L334.278 16.1448C334.434 17.026 334.501 17.9207 334.479 18.8154H333.916Z" fill="#1C1C1C"/>
</g>
<defs>
<clipPath id="clip0">
<rect width="338" height="54" fill="white"/>
</clipPath>
</defs>
</svg>
