<svg id="Capa_1" data-name="Capa 1" xmlns="http://www.w3.org/2000/svg" viewBox="0 0 642.62 166.55"><defs><style>.cls-1,.cls-2{fill:#1d1d1b;}.cls-1{fill-rule:evenodd;}</style></defs><path class="cls-1" d="M110.79,30.33c-.77,0-1.15.27-1.15,1.17,0,2.47,6.59.26,6.59,5.2q0,6-17.48,44c-4.65,10.14-6.6,15.21-7.11,15.21-.78,0-2.86-6.37-8.81-19.37C71.69,52.28,65.61,38.91,65.61,35.92c0-4,7.36-1.18,7.36-4.29,0-.52-.24-1-.51-1-2.32,0-7.12.65-14.12.65-5,0-9.19-.52-12.28-.52h-.8c-1,0-1.42.12-1.42,1.16,0,1.81,1.55.65,4.94,2.08,2.45,1.05,4.65,4.68,7.5,10.27,9.19,18.17,19.42,40,28.36,61.56,1.69,4.16,1.55,5.85,3.61,5.85,2.35,0,2.22-1.17,3.39-4.68,2.7-8.31,10.6-25.07,22.27-51.31,5.31-11.95,8.66-19.22,12.55-21.43,3.24-1.82,5.07-.39,5.07-2.6,0-.9-.26-1-1.06-1-4.38,0-8,.39-11,.39-3.24,0-6.09-.66-8.68-.66" transform="translate(-43.84 -29.82)"/><path class="cls-1" d="M165.54,51.32c-3.14,0-7.53.76-12.87.76-3.33,0-6.5-.38-9.55-.38h-.47c-.75,0-1,.1-1,1,0,1.62,3.89.19,6.58,2.11,2.39,1.72,2.39,10,2.39,25.94v8c0,9-.12,14.55-1.36,17-.86,1.52-3.63,2.39-6.86,2.39-1,0-1.24.39-1.24,1.15s.29.86.95.86c3.06,0,6.49-.48,10.5-.48,5.44,0,9.63.58,12.68.58h.49c.77,0,1-.1,1-.88,0-1.42-1.33-.56-4.67-1.33-3.15-.66-3.61-3.73-3.61-11.58,0-2.78.09-6.12.09-10.24,0-19.72.29-29.87,2.28-31.58C163.26,52.65,167,53.7,167,52c0-.67-.47-.67-1.44-.67" transform="translate(-43.84 -29.82)"/><path class="cls-1" d="M224.41,31.88c-.66,2.78-2,4.13-4.41,4.13a8,8,0,0,1-2.37-.39l-5.24-1.53a12.59,12.59,0,0,0-3.75-.57c-4.09,0-7.32,3.35-8.48,9.47h2.29c.86-3.16,2.1-4.21,4.69-4.21a10.37,10.37,0,0,1,2.65.48l5.26,1.53a12.22,12.22,0,0,0,3.07.48c4.27,0,7.24-3.26,8.48-9.39Zm-33.87,31.2c4.94,4.9,17.55,15.52,36.64,33.71,10.12,9.67,10.49,13.59,12.1,13.59.87,0,1.16-.1,1.16-1v-1c0-3.83-.29-9.67-.29-17.62V79.26c0-15.5.18-23.64,2.3-25.35,1.71-1.35,4.27-.48,4.27-1.74,0-1-.46-1-1.33-1s-3.14.19-6.68.19c-3.89,0-6.87-.77-8.68-.77-.46,0-.75.2-.75,1,0,1.35,2.28.3,4.67,1.84,3.35,2.19,3.52,10.14,3.52,26.32,0,2.86,0,7.56-.17,14.17l-.78.48c-20.61-17.81-35.6-31.5-44.65-42.89-2.48.19-4.79.38-6.69.38-2.77,0-4.68-.3-5.73-.3-.56,0-.85.21-.85,1,0,1.35,3.61.2,6.09,3s2.59,12.92,2.59,31.49c0,4.22-.28,8.43-.28,12.54,0,1.91.08,3.45.08,4.59,0,2.59-.38,3.55-2.28,4.12-2.87.86-4.09.48-4.09,1.63,0,.76.37.76.93.76,1.73,0,5.36-.67,10.51-.67,3.14,0,5.71.49,7.82.49.48,0,.66,0,.66-.68,0-2.2-6.09-.48-8.76-3-1.94-1.72-2-11.29-2-29.86V63.47Z" transform="translate(-43.84 -29.82)"/><path class="cls-1" d="M297.29,103.39a7.55,7.55,0,0,1,.49,2.39c0,3.16-4.58,1.92-4.58,3.73,0,.58.08.67.57.67.29,0,.56-.09,1-.09,1.62,0,4.5-.67,8.59-.67,5.16,0,8,.28,8.59.28s.75-.09.75-.85-1.24-.48-2.85-1.15c-2.57-1.06-3.72-3.64-5.62-8.23C293.77,74.19,288.13,59.64,287,55.91c-1.23-4.21-.77-4.88-2.67-4.88-1.33,0-1.33.67-1.91,2.67s-3.92,11.21-10.11,27.1c-6.49,16.46-9.63,25.66-13.18,27.47-1.7.86-2.94.48-2.94,1.53,0,.48.27.58.84.58.87,0,3.06-.48,6.77-.48,4.21,0,7.46.76,9.75.76.58,0,.95-.28.95-.76,0-1.82-7.44-.67-7.44-5.07a10.5,10.5,0,0,1,.57-3l3.9-10.71c.49-1.34.87-1.44,2-1.44h17.38c.84,0,1.52.1,1.9,1.15ZM282.7,65.77l8,19.62a2.26,2.26,0,0,1,.29,1.06c0,.47-.19.67-.66.67h-16c-.66,0-1,0-1-.58a2.45,2.45,0,0,1,.31-1.05l7.52-20c.19-.47.49-.76.78-.76s.46.48.75,1" transform="translate(-43.84 -29.82)"/><path class="cls-1" d="M415.93,106.19c.9-8.57,3.37-13.12,3.37-15.19,0-.4-.53-.65-1.44-.65s-1,1.42-2.71,4.67c-4.41,8.19-11.27,12.08-21.77,12.08-18.24,0-32.49-15.59-32.49-38.32,0-21.56,11.78-35.46,29.65-35.46,5.83,0,13.34,2.21,19.3,5.84,4.15,2.48,4.28,4.55,4.28,7.81v1.81c0,.78.13,1,1.16,1s1.29-.64,1.42-2.47A75.56,75.56,0,0,1,419,33.45c0-.52-.39-.78-.9-.78-.91,0-2.08.65-3.5.65-3.62,0-11-3.5-21.89-3.5-26.16,0-44.54,16.75-44.54,40.26,0,24,18.51,40.79,43.51,40.79,8.94,0,16.45-2.6,24.22-4.68" transform="translate(-43.84 -29.82)"/><path class="cls-1" d="M435.18,80.41c0,17.14,13.16,30.73,31,30.73s31-13.59,31-31.11c0-16.84-12.87-29.57-30.34-29.57-17.66,0-31.68,13.3-31.68,29.95m29-26.41c6.67,0,12.88,3.06,17.74,9.08a35.23,35.23,0,0,1,7.36,21.16c0,14.18-8.12,23.16-19.66,23.16-7.74,0-14.8-3.82-19.84-10.9a35.88,35.88,0,0,1-6.6-20.2c0-13.3,8.59-22.3,21-22.3" transform="translate(-43.84 -29.82)"/><path class="cls-1" d="M531.63,51.32c-4.1,0-8.86,1-14.11,1a41.77,41.77,0,0,1-6.31-.47c-.37,0-.57.57-.57,1.24s2.67.39,4.29,1.73c2.21,1.71,2.3,7.18,2.3,17.32V99.36c0,4.89-.09,7.57-1.92,8.53-2.57,1.34-3.91.67-3.91,1.91a.77.77,0,0,0,.87.86,75.49,75.49,0,0,1,10.3-.67c4.67,0,8.87.29,12.32.29,13.06,0,20.6-6.41,20.6-15.41,0-6.9-4.48-12.73-13-15.51-2.76-.86-4.56-1-4.56-1.34s.94-.38,2.18-.86c6.29-2.39,9.35-6.41,9.35-12.06,0-7.85-6.3-13.78-17.85-13.78m-6.38,28.9a43.85,43.85,0,0,1,4.86-.28c10.59,0,16.79,5.83,16.79,14.84,0,8.13-5.13,13-14.31,13-4.2,0-6.29-.67-6.77-2.39-.28-.86-.57-7.76-.57-20.38Zm0-2.58V59.45c0-5.16.29-5.55,4.39-5.55,6.77,0,11.45,5,11.45,12.45s-4.68,11.39-13.94,11.39c-.57,0-1.24-.1-1.9-.1" transform="translate(-43.84 -29.82)"/><path class="cls-1" d="M570.16,80.41c0,17.14,13.17,30.73,31,30.73s31-13.59,31-31.11c0-16.84-12.88-29.57-30.34-29.57-17.65,0-31.69,13.3-31.69,29.95m29-26.41c6.68,0,12.89,3.06,17.75,9.08a35.28,35.28,0,0,1,7.34,21.16c0,14.18-8.1,23.16-19.65,23.16-7.73,0-14.79-3.82-19.85-10.9a35.94,35.94,0,0,1-6.59-20.2c0-13.3,8.59-22.3,21-22.3" transform="translate(-43.84 -29.82)"/><path class="cls-1" d="M650.88,109.61a1.12,1.12,0,0,1,.84-.58c2.4,0,7.74,2.11,15.48,2.11,11.74,0,19.27-6.51,19.27-15.89,0-7.75-4.57-12.72-13.54-16.74-9.46-4.22-16.61-5.94-16.61-14.85,0-6.31,5-10.91,11.64-10.91,6.21,0,11,2.49,13.26,6.31,1.91,3.26,1.81,5.56,2.2,5.56,1,0,1.24,0,1.24-.48a46.68,46.68,0,0,1-.67-5.93,29.92,29.92,0,0,1,.76-6.7.64.64,0,0,0-.57-.67c-.66,0-2,1.33-3.82,1.33-2.48,0-6.19-1.71-11.17-1.71-12.11,0-19.64,7.47-19.64,16.65,0,7.08,4,11.4,12.21,15.13,10,4.59,17.74,6.13,17.74,15.6,0,6.51-4.19,10.53-11.83,10.53-7,0-14.69-3-16.89-6.8-1.91-3.15-2.09-6.89-2.39-6.89-.94,0-1.61.19-1.61.47,0,1.82,2.18,6.42,2.18,14.08v1.33h1.54Z" transform="translate(-43.84 -29.82)"/><path class="cls-2" d="M218.44,196.08c-3-7.06-7.08-16.75-8.9-21.08-1.2-2.85-1.89-3.13-4.62-3.42v-1.3h11.63v1.3l-1.6.23c-1.54.17-1.71.57-1.08,2.16.8,2.11,4.11,9.86,6.73,15.84,2-4.49,5.14-12.93,6.05-15.49.63-1.82.35-2.34-1.59-2.56l-1.26-.18v-1.3h10.27v1.3c-3,.34-3.6.86-5.42,4.62-1.48,3-5.3,11.85-8.62,19.88Z" transform="translate(-43.84 -29.82)"/><path class="cls-2" d="M258.63,189.64c0,4.16.34,4.45,4,4.73v1.31H250.19v-1.31c3.65-.28,4-.57,4-4.73V176.31c0-4.21-.34-4.45-4-4.72v-1.32h12.43v1.32c-3.65.27-4,.51-4,4.72Z" transform="translate(-43.84 -29.82)"/><path class="cls-2" d="M304.63,196h-1.82L285.4,176.6h0v8.32a53.16,53.16,0,0,0,.34,7.29c.17,1.37,1.42,2,4.28,2.17v1.3H279.13v-1.3c2.4-.12,3.6-.8,3.82-2.17a52.49,52.49,0,0,0,.35-7.29v-7.65c0-4.55-.92-5.4-4.8-5.68v-1.32h7l17,18.63h.11V181a55,55,0,0,0-.34-7.35c-.23-1.36-1.49-1.94-4.34-2.1v-1.32h10.9v1.32c-2.39.11-3.59.74-3.83,2.1a56.91,56.91,0,0,0-.34,7.35Z" transform="translate(-43.84 -29.82)"/><path class="cls-2" d="M347.05,177.57c-1.19-4.85-4-6.27-8-6.27-6.27,0-9.7,4.78-9.7,11.17,0,7.29,4,12.19,10.1,12.19,4.22,0,6.4-2.28,8.51-6.73l1.42.23c-.63,2.17-1.48,5.64-2.11,7.12a39.81,39.81,0,0,1-8.1,1.08c-10.28,0-15-6.6-15-13.1,0-8.15,6.8-13.67,15.47-13.67a32.25,32.25,0,0,1,8.05,1c.28,2.16.46,4.21.74,6.78Z" transform="translate(-43.84 -29.82)"/><path class="cls-2" d="M377.2,170.27v1.32c-3.59.27-3.94.56-3.94,4.78v7.69c0,6.2,2.23,10,7.25,10,5.71,0,7.65-4.28,7.65-10.43V181a56.78,56.78,0,0,0-.34-7.35c-.23-1.36-1.48-1.94-4.34-2.1v-1.32h10.9v1.32c-2.4.11-3.59.74-3.82,2.1a54.22,54.22,0,0,0-.35,7.35v3.53c0,3.2-.79,6.67-3.07,8.94a11.09,11.09,0,0,1-7.83,2.86,11.82,11.82,0,0,1-7.36-2.11c-2.11-1.65-3.14-4.51-3.14-9.07v-8.82c0-4.22-.28-4.51-4-4.78v-1.32Z" transform="translate(-43.84 -29.82)"/><path class="cls-2" d="M409.63,195.68v-1.31c4-.23,4.28-.51,4.28-4.79V176.31c0-4.27-.34-4.5-4-4.72v-1.32h12.72v1.32c-3.93.22-4.27.45-4.27,4.72v13.44c0,2.23.28,3.37,1.07,3.76s2,.46,4.11.46,4.06-.39,5-1.42a9.82,9.82,0,0,0,1.94-3.81l1.48.16c-.29,1.32-1.14,5.7-1.48,6.78Z" transform="translate(-43.84 -29.82)"/><path class="cls-2" d="M457.13,170.27v1.32c-3.6.27-3.94.56-3.94,4.78v7.69c0,6.2,2.23,10,7.25,10,5.7,0,7.65-4.28,7.65-10.43V181a54.22,54.22,0,0,0-.35-7.35c-.23-1.36-1.48-1.94-4.34-2.1v-1.32h10.91v1.32c-2.4.11-3.6.74-3.83,2.1a54.91,54.91,0,0,0-.34,7.35v3.53c0,3.2-.8,6.67-3.08,8.94a11.07,11.07,0,0,1-7.82,2.86,11.8,11.8,0,0,1-7.36-2.11c-2.11-1.65-3.14-4.51-3.14-9.07v-8.82c0-4.22-.29-4.51-4.05-4.78v-1.32Z" transform="translate(-43.84 -29.82)"/><path class="cls-2" d="M525.06,170.27v1.32c-4.11.27-4.35.45-4.28,4.32l.28,14.13c.05,3.88.23,4.05,4.34,4.33v1.31H512.67v-1.31c3.88-.28,4.11-.45,4.05-4.33l-.17-15.61h-.17l-9.87,20.8h-1l-9.3-19.77h-.11l-.34,9.17a55.67,55.67,0,0,0,0,7.46c.17,1.49,1.26,2,4.05,2.28v1.31H489.34v-1.31c2.5-.17,3.3-.79,3.65-2.28a46.11,46.11,0,0,0,.68-7.29l.46-8.09c.23-4.79,0-4.85-4.05-5.12v-1.32h8.16L507.37,189l9-18.69Z" transform="translate(-43.84 -29.82)"/></svg>