<svg width="289" height="75" viewBox="0 0 289 75" fill="none" xmlns="http://www.w3.org/2000/svg">
<g clip-path="url(#clip0_3137:2662)">
<path fill-rule="evenodd" clip-rule="evenodd" d="M30.6196 0C30.2753 0 30.1054 0.119484 30.1054 0.517763C30.1054 1.61082 33.0517 0.632822 33.0517 2.81893C33.0517 4.58906 30.4467 11.0795 25.2367 22.2903C23.1578 26.7776 22.286 29.0213 22.058 29.0213C21.7093 29.0213 20.7793 26.2023 18.1192 20.4494C13.1387 9.71358 10.4205 3.79693 10.4205 2.47375C10.4205 0.703626 13.711 1.95157 13.711 0.575292C13.711 0.345175 13.6037 0.132759 13.483 0.132759C12.4457 0.132759 10.2997 0.420406 7.17018 0.420406C4.93477 0.420406 3.0615 0.190289 1.68002 0.190289H1.32235C0.875273 0.190289 0.6875 0.243393 0.6875 0.703626C0.6875 1.50461 1.38048 0.991272 2.89608 1.62409C3.99143 2.08875 4.97501 3.69514 6.24919 6.1689C10.3579 14.2097 14.9315 23.8702 18.9284 33.4112C19.684 35.2521 19.6214 36 20.5424 36C21.593 36 21.5349 35.4822 22.058 33.9289C23.2651 30.2515 26.797 22.8347 32.0145 11.2226C34.3885 5.93436 35.8862 2.71715 37.6253 1.73915C39.0739 0.933742 39.892 1.56656 39.892 0.588568C39.892 0.190289 39.7758 0.146036 39.4181 0.146036C37.4599 0.146036 35.8415 0.318623 34.5002 0.318623C33.0517 0.318623 31.7775 0.0265517 30.6196 0.0265517" fill="#1C1C1C"/>
<path fill-rule="evenodd" clip-rule="evenodd" d="M55.2942 10C53.8284 10 51.779 10.3353 49.2861 10.3353C47.7315 10.3353 46.2517 10.1677 44.8278 10.1677H44.6084C44.2583 10.1677 44.1416 10.2118 44.1416 10.6089C44.1416 11.3236 45.9576 10.6927 47.2133 11.5398C48.3291 12.2987 48.3291 15.9518 48.3291 22.9846V26.5142C48.3291 30.485 48.273 32.9336 47.6942 34.0146C47.2927 34.6852 45.9996 35.0691 44.4917 35.0691C44.0249 35.0691 43.9128 35.2411 43.9128 35.5764C43.9128 35.9118 44.0482 35.9559 44.3563 35.9559C45.7848 35.9559 47.3861 35.7441 49.2581 35.7441C51.7976 35.7441 53.7537 36 55.1775 36H55.4062C55.7657 36 55.8731 35.9559 55.8731 35.6117C55.8731 34.9852 55.2522 35.3647 53.693 35.0249C52.2225 34.7338 52.0077 33.3793 52.0077 29.9158C52.0077 28.6893 52.0497 27.2157 52.0497 25.3979C52.0497 16.6974 52.1851 12.2192 53.1141 11.4648C54.2298 10.5868 55.9758 11.0501 55.9758 10.3C55.9758 10.0044 55.7564 10.0044 55.3035 10.0044" fill="#1C1C1C"/>
<path fill-rule="evenodd" clip-rule="evenodd" d="M81.2824 1C80.9903 2.23415 80.397 2.83346 79.3301 2.83346C78.9737 2.82902 78.6199 2.77066 78.2809 2.66032L75.9611 1.9811C75.4236 1.81317 74.8639 1.72785 74.3009 1.72806C72.4902 1.72806 71.0603 3.21525 70.5468 5.93214H71.5606C71.9413 4.5293 72.4902 4.06317 73.6369 4.06317C74.0355 4.08276 74.4299 4.15439 74.81 4.27626L77.1387 4.95548C77.5808 5.08422 78.0376 5.15582 78.4978 5.16857C80.3882 5.16857 81.703 3.72133 82.252 1H81.2824ZM66.2879 14.8508C68.4749 17.0261 74.0574 21.7407 82.5087 29.816C86.989 34.1088 87.1528 35.8491 87.8655 35.8491C88.2507 35.8491 88.3791 35.8047 88.3791 35.4051V34.9612C88.3791 33.2609 88.2507 30.6683 88.2507 27.139V22.0337C88.2507 15.1527 88.3304 11.5391 89.2689 10.7799C90.0259 10.1806 91.1593 10.5668 91.1593 10.0075C91.1593 9.56355 90.9556 9.56355 90.5705 9.56355C90.1853 9.56355 89.1804 9.64789 87.6132 9.64789C85.8911 9.64789 84.5718 9.30606 83.7705 9.30606C83.5668 9.30606 83.4384 9.39485 83.4384 9.75C83.4384 10.3493 84.4478 9.88318 85.5059 10.5668C86.989 11.5391 87.0642 15.0684 87.0642 22.2513C87.0642 23.5209 87.0642 25.6074 86.989 28.5419L86.6437 28.7549C77.5194 20.8484 70.8832 14.7709 66.8767 9.71448C65.7788 9.79883 64.7561 9.88318 63.915 9.88318C62.6887 9.88318 61.8431 9.75 61.3783 9.75C61.1303 9.75 61.002 9.84323 61.002 10.1939C61.002 10.7933 62.6001 10.2827 63.698 11.5257C64.796 12.7688 64.8447 17.2614 64.8447 25.5053C64.8447 27.3787 64.7207 29.2477 64.7207 31.0723C64.7207 31.9202 64.7561 32.6039 64.7561 33.11C64.7561 34.2598 64.5879 34.6859 63.7467 34.939C62.4762 35.3208 61.9361 35.1521 61.9361 35.6626C61.9361 36 62.0999 36 62.3478 36C63.1137 36 64.7207 35.7026 67.0007 35.7026C68.3908 35.7026 69.5285 35.9201 70.4626 35.9201C70.6751 35.9201 70.7548 35.9201 70.7548 35.6182C70.7548 34.6416 68.0587 35.4051 66.8767 34.2864C66.0178 33.5228 65.9913 29.2744 65.9913 21.0304V15.024L66.2879 14.8508Z" fill="#1C1C1C"/>
<path fill-rule="evenodd" clip-rule="evenodd" d="M114.464 32.7082C114.594 33.0545 114.667 33.42 114.682 33.7904C114.682 35.2212 112.645 34.6597 112.645 35.4793C112.645 35.7419 112.681 35.7827 112.899 35.7827C113.028 35.7827 113.148 35.7419 113.343 35.7419C114.064 35.7419 115.345 35.4385 117.163 35.4385C119.458 35.4385 120.721 35.5653 120.984 35.5653C121.246 35.5653 121.317 35.5246 121.317 35.1804C121.317 34.8363 120.766 34.9631 120.05 34.6597C118.907 34.1798 118.395 33.0116 117.55 30.9333C112.899 19.4867 110.39 12.8985 109.888 11.2096C109.341 9.30337 109.545 9 108.7 9C108.109 9 108.109 9.30337 107.851 10.209C107.593 11.1145 106.108 15.2848 103.355 22.4796C100.469 29.9326 99.0723 34.0983 97.4935 34.9178C96.7375 35.3072 96.186 35.1352 96.186 35.6106C96.186 35.8279 96.3061 35.8732 96.5596 35.8732C96.9465 35.8732 97.9204 35.6559 99.5703 35.6559C101.443 35.6559 102.888 36 103.906 36C104.164 36 104.329 35.8732 104.329 35.6559C104.329 34.8318 101.02 35.3525 101.02 33.3602C101.039 32.8973 101.125 32.4396 101.274 32.0018L103.008 27.1524C103.226 26.5457 103.395 26.5004 103.897 26.5004H111.627C112 26.5004 112.303 26.5457 112.472 27.0211L114.464 32.7082ZM107.976 15.6742L111.533 24.5579C111.614 24.7047 111.659 24.8695 111.662 25.0379C111.662 25.2507 111.578 25.3413 111.369 25.3413H104.253C103.96 25.3413 103.809 25.3413 103.809 25.0787C103.819 24.9116 103.866 24.7491 103.946 24.6032L107.291 15.5474C107.375 15.3346 107.509 15.2033 107.638 15.2033C107.767 15.2033 107.842 15.4206 107.971 15.656" fill="#1C1C1C"/>
<path fill-rule="evenodd" clip-rule="evenodd" d="M167.039 33.9213C167.446 30.1147 168.563 28.0938 168.563 27.1743C168.563 26.9967 168.324 26.8856 167.912 26.8856C167.501 26.8856 167.46 27.5163 166.687 28.9599C164.692 32.5977 161.59 34.3255 156.841 34.3255C148.592 34.3255 142.148 27.4009 142.148 17.3049C142.148 7.72856 147.475 1.5546 155.557 1.5546C158.193 1.5546 161.59 2.53621 164.285 4.14855C166.162 5.25009 166.221 6.16953 166.221 7.61752V8.42147C166.221 8.76792 166.28 8.86564 166.745 8.86564C167.211 8.86564 167.329 8.58137 167.388 7.76854C167.539 5.6892 167.887 3.62822 168.428 1.61234C168.428 1.38137 168.251 1.26588 168.021 1.26588C167.609 1.26588 167.08 1.5546 166.438 1.5546C164.801 1.5546 161.463 0 156.538 0C144.708 0 136.396 7.43985 136.396 17.8823C136.396 28.5424 144.766 36 156.072 36C160.115 36 163.512 34.8452 167.026 33.9213" fill="#1C1C1C"/>
<path fill-rule="evenodd" clip-rule="evenodd" d="M175.609 22.3265C175.609 29.953 181.581 36 189.678 36C197.774 36 203.746 29.953 203.746 22.1574C203.746 14.6643 197.906 9 189.977 9C181.962 9 175.6 14.9179 175.6 22.3265H175.609ZM188.761 10.5751C191.788 10.5751 194.606 11.9367 196.812 14.6154C198.941 17.3138 200.113 20.6195 200.152 24.0307C200.152 30.3401 196.467 34.3359 191.23 34.3359C187.717 34.3359 184.513 32.6361 182.226 29.4858C180.324 26.8551 179.28 23.7215 179.23 20.4977C179.23 14.5798 183.129 10.5751 188.761 10.5751Z" fill="#1C1C1C"/>
<path fill-rule="evenodd" clip-rule="evenodd" d="M219.187 10C217.349 10 215.216 10.4381 212.862 10.4381C211.915 10.4395 210.97 10.3706 210.034 10.2322C209.868 10.2322 209.778 10.4819 209.778 10.7754C209.778 11.069 210.975 10.9463 211.701 11.5333C212.692 12.2825 212.732 14.6789 212.732 19.1212V31.0463C212.732 33.1886 212.692 34.3627 211.871 34.7832C210.719 35.3703 210.119 35.0768 210.119 35.62C210.112 35.6714 210.118 35.7237 210.135 35.7727C210.152 35.8217 210.181 35.8661 210.218 35.9026C210.256 35.939 210.302 35.9665 210.352 35.9828C210.403 35.9991 210.456 36.0039 210.509 35.9968C212.039 35.7961 213.582 35.698 215.126 35.7032C217.219 35.7032 219.102 35.8303 220.649 35.8303C226.503 35.8303 229.883 33.0221 229.883 29.0792C229.883 26.0563 227.875 23.5022 224.055 22.2843C222.818 21.9075 222.011 21.8462 222.011 21.6972C222.011 21.5483 222.433 21.5308 222.989 21.3205C225.808 20.2734 227.18 18.5123 227.18 16.037C227.18 12.5979 224.356 10 219.178 10H219.187ZM216.318 22.6611C217.042 22.5808 217.769 22.5398 218.497 22.5384C223.244 22.5384 226.023 25.0925 226.023 29.0398C226.023 32.6015 223.724 34.7351 219.609 34.7351C217.726 34.7351 216.789 34.4415 216.574 33.688C216.448 33.3112 216.318 30.2884 216.318 24.7595V22.6611ZM216.318 21.5308V13.5617C216.318 11.3012 216.448 11.1303 218.286 11.1303C221.321 11.1303 223.419 13.3208 223.419 16.5846C223.419 19.8485 221.321 21.5746 217.17 21.5746C216.915 21.5746 216.614 21.5308 216.318 21.5308Z" fill="#1C1C1C"/>
<path fill-rule="evenodd" clip-rule="evenodd" d="M235.929 22.3265C235.929 29.953 241.905 36 249.995 36C258.086 36 264.062 29.953 264.062 22.1574C264.062 14.6643 258.217 9 250.295 9C242.286 9 235.915 14.9179 235.915 22.3265H235.929ZM249.074 10.5751C252.105 10.5751 254.923 11.9367 257.128 14.6154C259.252 17.3158 260.421 20.6208 260.459 24.0307C260.459 30.3401 256.784 34.3359 251.543 34.3359C248.035 34.3359 244.831 32.6361 242.535 29.4858C240.638 26.8538 239.595 23.7208 239.545 20.4977C239.545 14.5798 243.443 10.5751 249.074 10.5751Z" fill="#1C1C1C"/>
<path fill-rule="evenodd" clip-rule="evenodd" d="M271.962 35.3192C272.001 35.2497 272.055 35.19 272.122 35.1451C272.189 35.1003 272.265 35.0715 272.345 35.0611C273.439 35.0611 275.874 36 279.403 36C284.755 36 288.188 33.1033 288.188 28.9296C288.188 25.4812 286.104 23.2698 282.015 21.4811C277.702 19.6033 274.442 18.838 274.442 14.8734C274.442 12.0658 276.722 10.019 279.749 10.019C282.58 10.019 284.764 11.1269 285.794 12.8266C286.665 14.2772 286.619 15.3006 286.797 15.3006C287.253 15.3006 287.363 15.3006 287.363 15.087C287.203 14.2147 287.101 13.3334 287.057 12.4484C287.057 11.4451 287.173 10.445 287.404 9.4672C287.407 9.39451 287.383 9.32311 287.334 9.26766C287.286 9.21222 287.218 9.17694 287.144 9.16908C286.843 9.16908 286.232 9.76088 285.402 9.76088C284.272 9.76088 282.58 9 280.31 9C274.789 9 271.356 12.3238 271.356 16.4085C271.356 19.5588 273.18 21.481 276.923 23.1407C281.481 25.1831 285.01 25.8683 285.01 30.0821C285.01 32.9787 283.1 34.7675 279.617 34.7675C276.426 34.7675 272.92 33.4326 271.917 31.7418C271.046 30.3401 270.964 28.676 270.827 28.676C270.399 28.676 270.093 28.7606 270.093 28.8851C270.093 29.695 271.087 31.7418 271.087 35.1501V35.7419H271.789L271.962 35.3192Z" fill="#1C1C1C"/>
<path d="M79.1261 59C77.7811 55.7163 75.952 51.2093 75.1361 49.1953C74.5982 47.8698 74.2888 47.7395 73.0649 47.6047V47H78.2788V47.6047L77.5615 47.7116C76.8711 47.7907 76.7949 47.9767 77.0773 48.7163C77.4359 49.6977 78.9198 53.3023 80.0944 56.0837C80.991 53.9953 82.3987 50.0698 82.8067 48.8791C83.0891 48.0326 82.9636 47.7907 82.0939 47.6884L81.529 47.6047V47H86.1331V47.6047C84.7882 47.7628 84.5192 48.0046 83.7033 49.7535C83.0398 51.1488 81.3273 55.2651 79.8389 59H79.1261Z" fill="#1C1C1C"/>
<path d="M96.5805 56.1476C96.5805 58.1122 96.7179 58.2491 98.1966 58.3813V59H93.1704V58.3813C94.6451 58.2491 94.7866 58.1122 94.7866 56.1476V49.8524C94.7866 47.8642 94.6492 47.7509 93.1704 47.6234V47H98.1926V47.6234C96.7179 47.7509 96.5764 47.8642 96.5764 49.8524L96.5805 56.1476Z" fill="#1C1C1C"/>
<path d="M117.358 59H116.513L108.435 49.9662V53.8405C108.41 54.9743 108.462 56.1086 108.592 57.2352C108.671 57.8731 109.251 58.1665 110.578 58.2456V58.851H105.525V58.2456C106.639 58.1898 107.196 57.8731 107.298 57.2352C107.43 56.1088 107.485 54.9745 107.46 53.8405V50.2782C107.46 48.1595 107.033 47.7637 105.233 47.6333V47.0186H108.481L116.369 55.6938H116.42V52.0151C116.444 50.872 116.391 49.7286 116.262 48.5925C116.156 47.9593 115.571 47.6892 114.249 47.6147V47H119.306V47.6147C118.197 47.6659 117.641 47.9593 117.529 48.5925C117.403 49.7288 117.35 50.8721 117.371 52.0151L117.358 59Z" fill="#1C1C1C"/>
<path d="M136.891 50.5772C136.324 48.4031 134.987 47.7666 133.083 47.7666C130.098 47.7666 128.466 49.9093 128.466 52.7737C128.466 56.0415 130.37 58.238 133.273 58.238C135.282 58.238 136.32 57.2159 137.324 55.2212L138 55.3243C137.7 56.297 137.296 57.8525 136.996 58.5159C135.731 58.8014 134.439 58.9636 133.14 59C128.247 59 126 56.0415 126 53.1278C126 49.4744 129.237 47 133.364 47C134.656 46.997 135.943 47.1476 137.196 47.4483C137.329 48.4166 137.415 49.3355 137.548 50.4875L136.891 50.5772Z" fill="#1C1C1C"/>
<path d="M149.913 47.0184V47.6249C148.327 47.749 148.172 47.8822 148.172 49.8213V53.3549C148.172 56.2038 149.157 57.95 151.376 57.95C153.899 57.95 154.757 55.9833 154.757 53.1573V51.9489C154.777 50.8209 154.727 49.6927 154.607 48.5715C154.505 47.9466 153.952 47.6801 152.689 47.6065V47H157.506V47.6065C156.445 47.6571 155.919 47.9466 155.817 48.5715C155.692 49.6923 155.641 50.8207 155.663 51.9489V53.5709C155.663 55.0413 155.314 56.6358 154.306 57.6789C153.361 58.5681 152.12 59.0395 150.846 58.993C149.688 59.054 148.544 58.7129 147.593 58.0235C146.66 57.2653 146.205 55.9511 146.205 53.8558V49.803C146.205 47.8639 146.082 47.7306 144.438 47.6065V47L149.913 47.0184Z" fill="#1C1C1C"/>
<path d="M164.542 59V58.3813C166.343 58.2727 166.469 58.1405 166.469 56.1192V49.8524C166.469 47.8359 166.316 47.7273 164.669 47.6234V47H170.395V47.6234C168.626 47.7273 168.473 47.8359 168.473 49.8524V56.1995C168.473 57.2527 168.599 57.791 168.954 57.9752C169.31 58.1594 169.855 58.1924 170.804 58.1924C171.754 58.1924 172.632 58.0083 173.055 57.5218C173.469 56.9966 173.767 56.3823 173.929 55.7226L174.595 55.7981C174.464 56.4215 174.082 58.49 173.929 59H164.542Z" fill="#1C1C1C"/>
<path d="M185.531 47.0184V47.6249C183.821 47.749 183.659 47.8822 183.659 49.8213V53.3548C183.659 56.2037 184.719 57.9498 187.104 57.9498C189.812 57.9498 190.739 55.9832 190.739 53.1573V51.9488C190.762 50.8207 190.707 49.6923 190.572 48.5715C190.463 47.9466 189.869 47.6801 188.51 47.6065V47H193.694V47.6065C192.554 47.6571 191.984 47.9466 191.874 48.5715C191.742 49.6925 191.688 50.8208 191.713 51.9488V53.5708C191.713 55.0412 191.333 56.6357 190.249 57.6787C189.235 58.5677 187.902 59.0392 186.534 58.9929C185.289 59.0546 184.059 58.7134 183.037 58.0233C182.034 57.2652 181.545 55.951 181.545 53.8557V49.8029C181.545 47.8639 181.407 47.7306 179.621 47.6065V47L185.531 47.0184Z" fill="#1C1C1C"/>
<path d="M215.658 47V47.6234C213.825 47.7509 213.718 47.8359 213.749 49.6635L213.874 56.3365C213.897 58.1688 213.977 58.2491 215.81 58.3813V59H210.132V58.3813C211.863 58.2491 211.965 58.1688 211.938 56.3365L211.863 48.9646H211.787L207.384 58.7875H206.938L202.79 49.451H202.741L202.59 53.7816C202.515 54.9546 202.515 56.1316 202.59 57.3046C202.665 58.0083 203.152 58.2491 204.396 58.3813V59H199.726V58.3813C200.841 58.3011 201.198 58.0083 201.354 57.3046C201.541 56.1673 201.643 55.0161 201.657 53.8619L201.863 50.0413C201.965 47.7792 201.863 47.7509 200.056 47.6234V47H203.696L207.768 55.8453L211.782 47.0189L215.658 47Z" fill="#1C1C1C"/>
</g>
<defs>
<clipPath id="clip0_3137:2662">
<rect width="287.5" height="75" fill="white" transform="translate(0.6875)"/>
</clipPath>
</defs>
</svg>
