<svg id="Capa_1" data-name="Capa 1" xmlns="http://www.w3.org/2000/svg" viewBox="0 0 759.59 85.74"><defs><style>.cls-1{fill:#1d1d1b;}</style></defs><path class="cls-1" d="M57.67,72.18q-9.47-25-14.46-30.91a16.11,16.11,0,0,0-2.8-.24,14.1,14.1,0,0,0-3,.4v-2.1c1.17-.11,2.38-.16,3.64-.16,3.18.11,6.21.26,9.09.47,3.63-.11,7.21-.26,10.75-.47a13.85,13.85,0,0,1,3.86.47v2c-1-.21-2-.4-3.1-.56q-6.06.24-6.06,3.21a8.62,8.62,0,0,0,.61,2.59l25.44,61.88,22.64-55A18.15,18.15,0,0,0,105.41,48a15.85,15.85,0,0,0-.46-4.22,7.51,7.51,0,0,0-1.52-2.35,12.49,12.49,0,0,0-3.26-.4,12.26,12.26,0,0,0-2.66.24V39.33c1.36-.11,2.64-.16,3.84-.16,2.36.11,4.68.26,6.94.47,2.72-.11,5.31-.26,7.78-.47a25.47,25.47,0,0,1,2.92.16v2.1a4.07,4.07,0,0,0-1.74-.4q-3.25.24-5.28,3.76c-1.31,2.34-2.4,4.4-3.25,6.17L78.58,124h-.46Z" transform="translate(-37.45 -38.23)"/><path class="cls-1" d="M221.47,80.62q0,14.46-10.52,28.35a41.39,41.39,0,0,1-13.17,10.69,40.54,40.54,0,0,1-18.32,4.3q-21.35-.31-32.1-12.59a41.87,41.87,0,0,1-11-29A43.87,43.87,0,0,1,149,51.67q12-13.12,30.21-13.44,19.08.17,30.58,11.35Q221.32,60.92,221.47,80.62Zm-8.42,5.95c0-2.14-.11-4.38-.31-6.73-.35-2.34-.83-4.8-1.44-7.35a51.26,51.26,0,0,0-5.92-14.95,33,33,0,0,0-10.7-11.81q-7-4.69-16.93-4.85Q163.26,41,154.3,51.83q-9.35,10.88-9.49,28,0,14.09,8.66,27.23A36.59,36.59,0,0,0,164.7,117a30,30,0,0,0,15.86,4.14q14.88-.15,23.76-9.94Q212.9,101.82,213.05,86.57Z" transform="translate(-37.45 -38.23)"/><path class="cls-1" d="M266.05,114.11a5.31,5.31,0,0,0,1.89,4.54q1.89,1.72,9.18,1.72,12.9.15,22.38-5.79a26.77,26.77,0,0,0,5.39-4.3,11.18,11.18,0,0,0,2.2-6.1h1.08a23,23,0,0,1-.31,3.65,15,15,0,0,1-2.12,5c-.66.93-1.7,2.52-3.11,4.75a22.18,22.18,0,0,0-3.11,5.76q-6.81-.31-13.71-.31H253.24a15.12,15.12,0,0,1-2.72.31,10.53,10.53,0,0,1-2.65-.31v-1.79a17.16,17.16,0,0,0,2.8.23c2.57,0,4.35-.7,5.36-2.1a9.47,9.47,0,0,0,1.43-5.63V54.56a29.86,29.86,0,0,0-1-9.15,6.52,6.52,0,0,0-2.11-3.2A9,9,0,0,0,249.54,41a12.34,12.34,0,0,0-2.42.24V39.48a23.55,23.55,0,0,1,3.85-.31,59.81,59.81,0,0,1,6.35.31,20.86,20.86,0,0,0,4,.62,16.63,16.63,0,0,0,3.7-.62,43.14,43.14,0,0,1,5.14-.31,47.8,47.8,0,0,1,5.52.31v1.79a15.16,15.16,0,0,0-3.11-.24c-2.38,0-3.87.4-4.48,1.18a4.26,4.26,0,0,0-1.21,1.88,7,7,0,0,0-.83,3.52Z" transform="translate(-37.45 -38.23)"/><path class="cls-1" d="M352.13,46.46a3.33,3.33,0,0,0-3.55-3.55H336.47c-.66,0-2.27.87-4.85,2.6a17.19,17.19,0,0,0-3.7,3.7A27.37,27.37,0,0,0,324.66,55l-.76-.16a12,12,0,0,1,.61-2.74,18.39,18.39,0,0,1,.91-2.58q1.27-2.89,5.3-10.4a117.48,117.48,0,0,0,17.18,1.1q16.44-.32,33.69-.79c3.28-.1,5,1.72,5.22,5.48a19.81,19.81,0,0,1-.9,3.83,23.48,23.48,0,0,1-4.49,7,3.63,3.63,0,0,0-1.14-.77,28.11,28.11,0,0,0,3.11-4.57V49.21q-.15-4.64-2.28-5.67a14,14,0,0,0-4.39-.78h-9.34a12.41,12.41,0,0,0-5.23.78c-1.17.68-1.75,2-1.75,4v66.56a7.26,7.26,0,0,0,1.14,4.23,10.71,10.71,0,0,0,2.12,2.66,24.07,24.07,0,0,0,3.57.32,5.6,5.6,0,0,0,2.81-.62v1.89a10.45,10.45,0,0,1-3.25.45c-3.63-.1-7.43-.25-11.42-.45-3.52.1-6.95.25-10.27.45a12.72,12.72,0,0,1-3.71-.45v-1.89a19.87,19.87,0,0,0,4.24.47,24.65,24.65,0,0,0,4.16-.47,15.9,15.9,0,0,0,2-4.31,56.43,56.43,0,0,0,.3-6.58Z" transform="translate(-37.45 -38.23)"/><path class="cls-1" d="M414.92,50.51a16.08,16.08,0,0,0-.69-5.25,7,7,0,0,0-1.65-2.74C411,41.43,409.9,40.93,409.2,41a25,25,0,0,0-4.66.71V39.63a21.65,21.65,0,0,1,4.67-.46q5.58.31,10.78.78c1.66,0,3.21-.05,4.68-.16,1.95-.31,3.78-.51,5.5-.62a26.79,26.79,0,0,1,4.21.31v2.11A14.6,14.6,0,0,0,430,41c-3,.16-4.87,1.47-5.67,3.92a23.87,23.87,0,0,0-1.14,8.45L423,92.83a35.06,35.06,0,0,0,.46,6.57,35.74,35.74,0,0,0,2.8,9.47,22.27,22.27,0,0,0,7.95,8.29q5.22,3.68,14.68,3.68a25.21,25.21,0,0,0,13.33-4,22.72,22.72,0,0,0,9.16-10.72,59.43,59.43,0,0,0,2.35-17.29V52.93a22.69,22.69,0,0,0-1-6.73,8.43,8.43,0,0,0-4.47-4.77A4.72,4.72,0,0,0,466,41a10.23,10.23,0,0,0-3.56.71V39.63a12.71,12.71,0,0,1,3.72-.46,39.8,39.8,0,0,1,4.7.31,24.23,24.23,0,0,0,4.32.47,25,25,0,0,0,4.55-.47,33.85,33.85,0,0,1,3.88-.31,9,9,0,0,1,3.26.47v2.1a8.29,8.29,0,0,0-3-.71,6,6,0,0,0-2.21.4,8.59,8.59,0,0,0-3.72,4.92q-1.08,3-.91,10.71V85a100.14,100.14,0,0,1-1.29,17.12,25.72,25.72,0,0,1-7.11,13.44,21,21,0,0,1-5.6,4.14,35.45,35.45,0,0,1-6,2.57,40.23,40.23,0,0,1-9.46,1.57q-32.22-.17-32.67-29.41Z" transform="translate(-37.45 -38.23)"/><path class="cls-1" d="M529.26,114.1q0,5.81,5.17,7.21a26.86,26.86,0,0,0,4.18-.31v1.72a21,21,0,0,1-3.7.3,42.36,42.36,0,0,1-4.84-.45c-2.27-.2-4.3-.3-6.12-.3a45.07,45.07,0,0,0-4.68.3,31.82,31.82,0,0,1-4.75.46,26.88,26.88,0,0,1-3.78-.31v-1.88a19,19,0,0,0,3.24.3,24,24,0,0,0,3.77-.3,10.91,10.91,0,0,0,2.72-4.15,19.78,19.78,0,0,0,.67-5.79v-62a17.34,17.34,0,0,0-.82-5.32,3.43,3.43,0,0,0-1.51-1.88,7.63,7.63,0,0,0-3.39-.71,23.83,23.83,0,0,1-3.25.24V39.33c1.12-.11,2.5-.16,4.16-.16,3,.11,6,.26,8.84.47l12.24-.47c2.17,0,4.23-.05,6.2-.16q24,.63,24.41,20.79a17.3,17.3,0,0,1-6,13.28q-6.35,5.78-17.91,6.72a67.1,67.1,0,0,1,7.11,8.83q2.66,4.31,9,15.48c1.21,2,2.54,4.12,4,6.25,1.27,2,2.61,4,4,5.79,2.77,3.85,5.92,5.84,9.45,5.94a9.79,9.79,0,0,0,4.85-1.33v1.33a21.45,21.45,0,0,1-3.41,1.09,27,27,0,0,1-5.76.46,15.52,15.52,0,0,1-11.66-4.76q-5.08-5-13.49-20Q546,94.73,542,88.16a55,55,0,0,0-3.57-5.32,10.33,10.33,0,0,0-2.95-2.73c-.61-.31-1.59-.72-3-1.25a27,27,0,0,1-3.25-.77Zm0-39.07a19.52,19.52,0,0,0,4.71,2,17.38,17.38,0,0,0,7,1.17,19.27,19.27,0,0,0,11.93-4.39q5.77-4.31,5.92-13.31a29.11,29.11,0,0,0-.61-5.26,17.13,17.13,0,0,0-2.81-6.11,14.83,14.83,0,0,0-6.08-5.32,24.38,24.38,0,0,0-10.7-2c-4.46,0-7.15.41-8.06,1.25a4.59,4.59,0,0,0-1.29,3.69Z" transform="translate(-37.45 -38.23)"/><path class="cls-1" d="M611.44,47l-3-3a10.68,10.68,0,0,0-2.58-2.5,12.73,12.73,0,0,0-3.56-.4h-1.89v-1.7q1.2,0,5.91-.16,6.67,0,8.49.93a8.6,8.6,0,0,1,3.1,2.43l56.4,67.59V54.73a48.7,48.7,0,0,0-.46-7.75A6.2,6.2,0,0,0,672,43.46a4.64,4.64,0,0,0-2.34-1.88,10.15,10.15,0,0,0-3.1-.55,20.73,20.73,0,0,0-3.1.24V39.33c1.36-.11,3.29-.16,5.77-.16,1.56.11,4,.26,7.36.47,3-.11,5.61-.26,7.88-.47a27.54,27.54,0,0,1,3.12.16v1.94a10.77,10.77,0,0,0-2.36-.24c-2.7,0-4.67.86-6,2.59q-1.66,3-1.67,11.1v67.37a2.61,2.61,0,0,1-.91,1.72,9.78,9.78,0,0,0-1,.15,6.3,6.3,0,0,1-1.67-.31L614.7,51v56.57a23.42,23.42,0,0,0,.84,7.43,8.45,8.45,0,0,0,1.51,3.83,5.48,5.48,0,0,0,2.49,1.57,7.1,7.1,0,0,0,3,.78c1,0,2-.05,3.1-.15v1.87h-2.35c-1.11.1-2.25.15-3.41.15a20.06,20.06,0,0,1-3-.3q-1.82-.15-4.32-.15c-2.92.1-5.58.25-7.95.46a27.18,27.18,0,0,1-3.1-.16V121a20.31,20.31,0,0,0,2.35.15c2.87.1,4.9-.84,6.06-2.81s1.52-5.43,1.52-10.8Z" transform="translate(-37.45 -38.23)"/><path class="cls-1" d="M797.05,80.62q0,14.46-10.52,28.35a41.5,41.5,0,0,1-13.17,10.69A40.54,40.54,0,0,1,755,124q-21.36-.31-32.1-12.59a41.82,41.82,0,0,1-11-29,43.87,43.87,0,0,1,12.56-30.71q12-13.12,30.2-13.44,19.08.17,30.58,11.35Q796.91,60.92,797.05,80.62Zm-8.42,5.95q0-3.21-.31-6.73c-.35-2.34-.83-4.8-1.44-7.35A51,51,0,0,0,781,57.54a33,33,0,0,0-10.7-11.81q-7-4.69-16.93-4.85-14.49.15-23.45,10.95-9.33,10.88-9.49,28,0,14.09,8.65,27.23A36.82,36.82,0,0,0,740.27,117a30,30,0,0,0,15.87,4.14Q771,121,779.9,111.21,788.47,101.82,788.63,86.57Z" transform="translate(-37.45 -38.23)"/></svg>