<svg width="400" height="54" viewBox="0 0 400 54" fill="none" xmlns="http://www.w3.org/2000/svg">
<g clip-path="url(#clip0)">
<path d="M49.7268 44.0745C48.5807 45.9591 47.1068 47.6197 45.3759 48.9767C43.8101 50.1718 42.1188 51.1897 40.3324 52.0121C38.5088 52.7987 36.5903 53.3396 34.6265 53.6209C32.2687 53.9059 29.8951 54.0377 27.5205 54.0155C23.4543 54.0867 19.4167 53.317 15.657 51.7541C12.3688 50.398 9.40306 48.3548 6.95517 45.7592C4.73549 43.395 2.96935 40.6369 1.74609 37.6243C0.62146 34.8901 0.0285726 31.9635 -0.000308264 29.0037C-0.170696 24.1366 0.79356 19.2971 2.815 14.8738C4.4901 11.3567 6.96003 8.28459 10.0264 5.9042C12.6992 3.85474 15.7191 2.31197 18.9391 1.35108C21.6169 0.537496 24.3929 0.0983197 27.1893 0.0458558C28.614 0.0323885 30.0365 0.1646 31.4348 0.44046C33.3242 0.886398 35.1887 1.43355 37.0203 2.07958C38.3602 2.48936 39.2936 2.76255 39.8205 2.88397C40.5775 3.04482 41.3506 3.11612 42.124 3.09645C42.7095 3.0992 43.294 3.0484 43.8704 2.94467C44.514 2.79489 45.1398 2.5761 45.7372 2.29206C45.7988 3.83904 46.0672 5.37056 46.5351 6.84518C47.0214 8.62159 47.2893 10.4515 47.3331 12.2937C47.3409 13.7214 47.1689 15.1442 46.8212 16.5281C46.6862 16.5127 46.5542 16.4769 46.4297 16.4219C46.2579 16.4298 46.0868 16.3932 45.9329 16.3157L46.0233 16.1184C46.2084 15.4612 46.3096 14.7828 46.3244 14.0998C46.2456 12.5357 45.6462 11.044 44.6231 9.86542C43.3597 8.26733 41.8317 6.90152 40.1066 5.82832C38.1664 4.59851 36.0831 3.61469 33.9039 2.89915C29.5051 1.3299 24.6911 1.42156 20.3542 3.15715C17.8426 4.11755 15.5487 5.57833 13.6095 7.45227C11.4224 9.56428 9.71247 12.1267 8.59618 14.9649C7.2655 18.3851 6.62075 22.0373 6.69923 25.7103C6.69832 28.9089 7.11851 32.0936 7.94881 35.1808C8.76559 38.229 10.1223 41.1032 11.9535 43.6647C13.8269 46.2363 16.2843 48.318 19.1197 49.7356C22.3579 51.3193 25.9247 52.0998 29.5228 52.0121C30.9266 52.0048 32.3289 51.9187 33.7232 51.7541C35.5273 51.5075 37.3025 51.0804 39.0226 50.4792C41.0745 49.8268 43.0143 48.8593 44.7737 47.6108C46.3365 46.5867 47.6573 45.2293 48.6429 43.6344L49.7268 44.0745Z" fill="#1C1C1C"/>
<path d="M60.2053 29.3974C60.9849 26.9493 62.1934 24.6619 63.7734 22.6436C65.4977 20.4908 67.6859 18.7624 70.1718 17.5896C73.0799 16.2519 76.25 15.5931 79.4458 15.6622C82.484 15.6109 85.5055 16.1254 88.3584 17.1799C90.7495 18.049 92.9304 19.4198 94.7568 21.2018C96.378 22.7986 97.6633 24.7084 98.5357 26.8173C99.3696 28.8214 99.7995 30.9728 99.8003 33.1461C99.7874 35.568 99.4066 37.9737 98.6712 40.2793C97.9073 42.7387 96.6974 45.0338 95.1031 47.0483C93.3772 49.1956 91.1891 50.9187 88.7047 52.0871C85.7994 53.4141 82.6344 54.0627 79.4458 53.9842C76.4177 54.0308 73.407 53.5163 70.5632 52.4665C68.1754 51.5835 65.9963 50.2086 64.1648 48.4294C62.5227 46.8232 61.2216 44.8972 60.3408 42.7684C59.5154 40.7829 59.0857 38.653 59.0762 36.5003C59.0948 34.0888 59.4754 31.694 60.2053 29.3974ZM64.3455 40.0213C65.161 42.3427 66.385 44.4969 67.9587 46.3805C69.5045 48.2275 71.4176 49.727 73.5743 50.7819C75.7313 51.8742 78.116 52.431 80.5297 52.4058C82.5422 52.5001 84.5515 52.162 86.4244 51.4139C88.2974 50.6659 89.9912 49.5249 91.3935 48.0668C92.7958 46.6087 93.8745 44.8666 94.5582 42.9562C95.2419 41.0458 95.5149 39.0108 95.3591 36.9859C95.3572 34.5481 94.9343 32.1292 94.1095 29.8375C93.294 27.5161 92.07 25.3619 90.4962 23.4783C88.9666 21.6254 87.0691 20.1158 84.9258 19.0466C82.7629 17.9558 80.3737 17.3992 77.9553 17.4227C75.9355 17.315 73.9162 17.6432 72.0323 18.3853C70.1483 19.1274 68.4433 20.2663 67.031 21.726C65.6187 23.1856 64.5317 24.9324 63.8427 26.8494C63.1537 28.7665 62.8786 30.8097 63.0357 32.8426C63.0537 35.2942 63.4969 37.7237 64.3455 40.0213Z" fill="#1C1C1C"/>
<path d="M143.144 28.4566C143.144 27.9861 143.219 27.121 143.219 25.8309C142.999 25.1364 142.663 24.4847 142.226 23.9034C141.639 22.9753 140.985 22.0925 140.268 21.2626C138.965 20.0302 137.429 19.0753 135.752 18.4549C133.781 17.6984 131.688 17.3176 129.579 17.3318C127.511 17.2673 125.454 17.6652 123.557 18.4971C121.659 19.3289 119.968 20.574 118.604 22.1429C115.641 25.723 114.12 30.295 114.344 34.9523C114.353 37.007 114.647 39.0503 115.217 41.0232C115.8 43.0863 116.76 45.0216 118.047 46.7297C119.384 48.5201 121.109 49.9788 123.091 50.9945C125.379 52.1262 127.905 52.6833 130.453 52.6184C133.064 52.6452 135.662 52.2454 138.146 51.4346C139.94 50.9206 141.635 50.1047 143.159 49.0215C144.199 48.1146 145.053 47.0112 145.673 45.7736L146.366 46.3048C145.752 47.5798 144.961 48.7603 144.017 49.8107C142.597 51.062 140.944 52.0164 139.154 52.6184C136.122 53.6016 132.943 54.0433 129.76 53.9237C126.573 53.989 123.401 53.4749 120.396 52.406C117.96 51.5447 115.744 50.1505 113.907 48.3233C112.281 46.6839 111.024 44.7121 110.218 42.5409C109.434 40.3931 109.036 38.1214 109.044 35.8326C109.033 33.1824 109.545 30.5564 110.55 28.1075C111.539 25.6999 112.969 23.5014 114.765 21.6269C116.559 19.7546 118.703 18.2588 121.073 17.2255C123.512 16.1903 126.136 15.6736 128.781 15.7078C130.215 15.6877 131.645 15.8405 133.042 16.1631C134.261 16.4515 135.616 16.8309 137.137 17.2862C138.246 17.7529 139.418 18.0497 140.615 18.1665C141.298 18.1834 141.979 18.0648 142.617 17.8174H143.31C143.314 18.3262 143.359 18.8338 143.445 19.3351C143.567 20.0617 143.728 20.7811 143.927 21.4903C144.049 21.8914 144.135 22.3029 144.183 22.7196C144.268 23.729 144.298 24.7423 144.273 25.755C144.297 26.6731 144.18 27.5894 143.927 28.4717L143.144 28.4566Z" fill="#1C1C1C"/>
<path d="M155.67 29.3982C156.437 26.9448 157.647 24.6553 159.238 22.6444C160.955 20.4904 163.139 18.7615 165.622 17.5904C168.53 16.2542 171.7 15.5954 174.896 15.6629C177.939 15.6115 180.965 16.126 183.823 17.1806C186.21 18.0496 188.386 19.4206 190.207 21.2025C191.828 22.8027 193.117 24.7115 194.001 26.8181C194.827 28.8246 195.256 30.9744 195.265 33.1469C195.254 35.5702 194.868 37.9769 194.121 40.2801C193.357 42.7394 192.147 45.0346 190.553 47.0491C188.831 49.1945 186.649 50.9175 184.17 52.0879C181.261 53.4241 178.091 54.0829 174.896 54.0154C171.872 54.0621 168.867 53.5476 166.028 52.4977C163.638 51.6183 161.459 50.2429 159.63 48.4606C157.978 46.8625 156.675 44.9343 155.806 42.7995C154.973 40.8162 154.543 38.6849 154.541 36.5314C154.555 34.1046 154.936 31.6941 155.67 29.383V29.3982ZM159.795 40.0069C160.611 42.3283 161.835 44.4825 163.408 46.3661C164.942 48.2155 166.838 49.7245 168.979 50.7978C171.142 51.8856 173.532 52.4371 175.949 52.4066C177.906 52.4764 179.857 52.1512 181.688 51.4501C183.518 50.749 185.191 49.6861 186.608 48.324C188.056 46.8345 189.178 45.0567 189.904 43.1043C190.63 41.1519 190.943 39.0682 190.824 36.9867C190.817 34.548 190.389 32.1291 189.559 29.8383C188.744 27.5169 187.52 25.3627 185.946 23.4791C184.416 21.6262 182.519 20.1166 180.376 19.0474C178.219 17.9551 175.834 17.3983 173.42 17.4235C171.403 17.3222 169.387 17.6558 167.507 18.4017C165.628 19.1477 163.928 20.2891 162.52 21.7496C161.113 23.2102 160.03 24.9565 159.345 26.8721C158.659 28.7876 158.387 30.8285 158.546 32.8585C158.555 35.2957 158.978 37.7133 159.795 40.0069Z" fill="#1C1C1C"/>
<path d="M204.043 52.4058C204.617 52.5272 205.202 52.5882 205.789 52.5879C206.184 52.5825 206.577 52.5367 206.963 52.4513C207.306 52.3949 207.641 52.2929 207.957 52.1478C208.402 51.7334 208.733 51.2108 208.921 50.6301C209.188 49.6419 209.305 48.6183 209.267 47.5947V20.4733C209.282 19.7255 209.101 18.9869 208.74 18.3333C208.627 18.083 208.464 17.8584 208.262 17.6731C208.06 17.4879 207.823 17.3459 207.566 17.2557C207.067 17.1831 206.564 17.1527 206.06 17.1647C205.712 17.1699 205.365 17.2003 205.021 17.2557C204.756 17.2754 204.489 17.2754 204.223 17.2557V16.3451C204.859 16.2315 205.504 16.1757 206.15 16.1782C206.843 16.1782 207.791 16.1782 209.011 16.3451C210.138 16.5066 211.275 16.5978 212.413 16.6183C212.985 16.6183 213.919 16.6183 215.018 16.4514C217.758 16.2692 220.393 16.1782 222.937 16.1782C226.403 16.0679 229.846 16.7747 232.994 18.2422C235.428 19.4168 237.549 21.1598 239.181 23.3266C241.658 26.6805 243.042 30.7266 243.141 34.9067C243.139 37.6757 242.53 40.41 241.356 42.9133C240.182 45.4167 238.473 47.627 236.351 49.3856C234.694 50.8269 232.755 51.9023 230.66 52.5424C228.462 53.1441 226.193 53.4352 223.915 53.4075C223.042 53.4075 220.633 53.4075 216.689 53.2406L212.172 53.1495C211.59 53.1495 210.311 53.2102 208.333 53.3316C207.054 53.3316 206.331 53.4075 206.165 53.4075C205.434 53.4245 204.703 53.3686 203.982 53.2406L204.043 52.4058ZM213.708 48.5508C213.652 49.0738 213.744 49.602 213.974 50.0746C214.203 50.5471 214.559 50.9449 215.003 51.222C215.876 51.7229 218.104 51.9657 221.717 51.9657C223.315 51.9676 224.91 51.8509 226.49 51.6166C228.299 51.3188 230.046 50.7132 231.654 49.8257C233.618 48.7289 235.244 47.1059 236.351 45.136C237.77 42.5014 238.447 39.5254 238.308 36.5306C238.298 34.4849 238.051 32.4474 237.57 30.4598C237.057 28.2994 236.176 26.2453 234.966 24.389C233.643 22.3964 231.847 20.7687 229.742 19.6537C227.222 18.3616 224.423 17.7251 221.597 17.8021C219.58 17.8021 218.044 17.8021 216.99 17.8021C216.23 17.8002 215.472 17.8868 214.732 18.0601C214.377 18.1302 214.064 18.3372 213.859 18.6369C213.725 19.0319 213.669 19.4495 213.693 19.8662L213.708 48.5508Z" fill="#1C1C1C"/>
<path d="M259.039 21.1725C259.123 20.4928 259.041 19.8025 258.8 19.1622C258.558 18.5219 258.165 17.951 257.654 17.4996C257.252 17.3034 256.818 17.185 256.374 17.1506C255.899 17.0905 255.422 17.0601 254.944 17.0595C254.565 17.0525 254.187 17.083 253.814 17.1506V16.3462C254.184 16.2511 254.562 16.1951 254.944 16.1792C255.184 16.1792 255.877 16.1792 257.036 16.3462C258.662 16.5283 259.852 16.6194 260.604 16.6194L265.121 16.3462H266.943C268.86 16.2248 270.019 16.1641 270.42 16.1641C271.483 16.1654 272.545 16.2415 273.597 16.3917C274.801 16.5662 275.973 16.919 277.075 17.4389C278.358 18.0195 279.445 18.9633 280.206 20.1556C281.111 21.6451 281.551 23.3739 281.471 25.1185C281.504 26.3163 281.262 27.5055 280.763 28.5931C280.264 29.6806 279.522 30.6368 278.595 31.3867C276.288 33.1489 273.494 34.1458 270.601 34.2399V34.4069C270.927 34.5459 271.236 34.7243 271.519 34.9381C271.801 35.2322 272.049 35.5582 272.257 35.9094L280.251 48.1877C281.141 49.6644 282.344 50.924 283.774 51.8757C284.894 52.5522 286.173 52.9138 287.478 52.9229C288.127 52.961 288.77 52.7736 289.299 52.3917C289.314 52.5164 289.345 52.6388 289.39 52.756C289.384 52.903 289.415 53.0491 289.48 53.1809C288.895 53.4092 288.282 53.5573 287.658 53.6211C286.62 53.7561 285.574 53.817 284.527 53.8032C282.973 53.8294 281.431 53.5134 280.01 52.8774C278.219 51.8153 276.747 50.2838 275.75 48.4457L268.433 36.7897C268.094 36.29 267.717 35.818 267.304 35.3782C266.977 34.9443 266.561 34.587 266.084 34.331C265.632 34.1964 265.168 34.105 264.699 34.0578C264.224 33.9777 263.756 33.861 263.299 33.7088V46.0932C263.235 47.7946 263.412 49.4965 263.826 51.1472C264.005 51.6484 264.342 52.0768 264.785 52.3672C265.228 52.6576 265.753 52.7941 266.28 52.756H267.153H268.027V53.6211C267.639 53.7059 267.247 53.7667 266.852 53.8032H266.28L265.241 53.7121L264.714 53.6211C263.651 53.4785 262.58 53.3924 261.508 53.3631C260.68 53.3631 259.641 53.3631 258.361 53.53L257.759 53.6211C257.127 53.6211 256.66 53.7121 256.374 53.7121C255.56 53.7278 254.746 53.6974 253.935 53.6211V52.756C254.512 52.7873 255.09 52.7873 255.666 52.756C256.378 52.7598 257.086 52.6418 257.759 52.4069C258.228 51.9384 258.583 51.3671 258.798 50.7374C258.947 49.9321 259.008 49.1126 258.978 48.2939L259.039 21.1725ZM263.269 32.1455H263.45C264.145 32.3888 264.854 32.5915 265.573 32.7526C266.307 32.8899 267.054 32.9509 267.801 32.9347C270.126 33.0422 272.42 32.3638 274.32 31.0072C275.162 30.3486 275.832 29.4931 276.273 28.5147C276.713 27.5363 276.911 26.4644 276.849 25.3917C276.931 23.8694 276.519 22.3615 275.675 21.0966C274.937 20.0717 273.923 19.2816 272.754 18.82C271.644 18.3567 270.472 18.0602 269.276 17.9398C268.005 17.8131 266.729 17.7523 265.452 17.7577C264.924 17.7473 264.403 17.8838 263.947 18.1523C263.71 18.319 263.526 18.5507 263.417 18.8198C263.308 19.0889 263.277 19.384 263.329 19.67L263.269 32.1455Z" fill="#1C1C1C"/>
<path d="M296.887 52.4061C297.522 52.4791 298.161 52.5096 298.799 52.4971C299.383 52.5069 299.966 52.4765 300.546 52.4061C301.11 51.8742 301.539 51.213 301.795 50.4786C302.064 49.2691 302.171 48.0286 302.112 46.7905V22.401C302.161 21.3119 302.045 20.2216 301.765 19.1683C301.442 18.4025 300.922 17.7372 300.26 17.2408C299.6 17.17 298.936 17.1395 298.273 17.1497C297.644 17.1449 297.015 17.1804 296.391 17.256V16.4668C297.307 16.2798 298.241 16.1882 299.176 16.1936L301.871 16.3605C303.15 16.4971 303.933 16.5427 304.219 16.5427C304.505 16.5427 305.529 16.5427 307.095 16.3605L309.443 16.1936C309.79 16.1936 310.407 16.1936 311.28 16.3605C311.425 16.3739 311.567 16.4097 311.702 16.4668V17.256C311.067 17.1893 310.428 17.1589 309.79 17.1649C307.592 17.1649 306.493 18.3943 306.493 20.8529V48.4752C306.47 49.2603 306.63 50.0399 306.959 50.7518C307.261 51.3674 307.657 51.931 308.134 52.4212H308.435C308.931 52.52 309.435 52.5809 309.94 52.6034C310.551 52.5841 311.16 52.5233 311.762 52.4212V53.3015C311.572 53.392 311.369 53.4485 311.16 53.4685H310.287C310 53.4685 308.871 53.4685 306.899 53.3015C305.394 53.1801 304.37 53.1194 304.024 53.1194L301.148 53.3015C299.643 53.4229 298.83 53.4685 298.544 53.4685C297.987 53.4701 297.432 53.4141 296.887 53.3015V52.4061Z" fill="#1C1C1C"/>
<path d="M342.489 51.6626C343.831 51.3397 345.137 50.8821 346.389 50.2967C347.277 49.9021 348.03 49.5227 348.707 49.1584C349.21 48.929 349.665 48.6044 350.047 48.2023C351.053 47.1616 351.642 45.7836 351.703 44.3321H352.486C352.333 45.4919 352.04 46.6285 351.613 47.7166C351.378 48.4278 351.026 49.0946 350.574 49.6896C350.288 50.0387 349.851 50.6458 349.264 51.4957C348.677 52.3456 348.225 53.0134 347.879 53.6357L338.138 53.4535C333.622 53.3473 330.611 53.2866 329.105 53.2866C328.232 53.2866 326.787 53.3776 324.754 53.5446L322.662 53.6357H322.225L321.804 53.5446V52.6795H322.586H323.369H324.273C324.533 52.6687 324.789 52.6069 325.025 52.4974C325.425 52.3223 325.785 52.0682 326.085 51.7501C326.385 51.4321 326.618 51.0565 326.772 50.6458C327.018 49.5664 327.125 48.4593 327.088 47.3524V22.4013C327.126 21.3776 327.01 20.354 326.742 19.3658C326.398 18.5122 325.885 17.7377 325.236 17.0893C324.692 17.0166 324.144 16.9861 323.595 16.9982C323.113 16.9982 322.511 16.9982 321.758 17.0893H321.412V16.3001C321.561 16.3009 321.709 16.2752 321.849 16.2242C322.566 16.1109 323.291 16.05 324.017 16.0421C324.378 16.0421 325.116 16.0421 326.275 16.2242C327.143 16.3557 328.017 16.4418 328.895 16.4822C329.12 16.4822 329.738 16.4822 330.716 16.3001C332.628 16.1331 333.998 16.0421 334.811 16.0421C335.315 16.0348 335.818 16.0652 336.317 16.1331V16.9223L335.534 16.8313H334.661C334.175 16.7981 333.688 16.8843 333.242 17.0826C332.796 17.2809 332.405 17.5852 332.101 17.9696C331.526 18.788 331.235 19.775 331.273 20.7773V48.8549C331.245 49.4068 331.4 49.9525 331.713 50.4059C332.027 50.8594 332.481 51.1947 333.005 51.3591C334.463 51.8324 335.99 52.0531 337.521 52.0117C339.19 52.0479 340.858 51.8849 342.489 51.526" fill="#1C1C1C"/>
<path d="M360.405 29.3974C361.172 26.9441 362.381 24.6545 363.973 22.6436C365.697 20.4908 367.885 18.7624 370.371 17.5896C373.279 16.2519 376.449 15.5931 379.645 15.6622C382.683 15.6123 385.704 16.1267 388.558 17.1799C390.947 18.0519 393.128 19.4224 394.956 21.2018C396.573 22.8025 397.857 24.7114 398.735 26.8173C399.569 28.8214 399.999 30.9728 400 33.1461C399.987 35.568 399.606 37.9737 398.87 40.2793C398.107 42.7387 396.897 45.0338 395.302 47.0483C393.576 49.1956 391.388 50.9187 388.904 52.0871C386.001 53.4246 382.836 54.0835 379.645 54.0146C376.617 54.0611 373.606 53.5467 370.762 52.4969C368.375 51.6139 366.196 50.2389 364.364 48.4598C362.722 46.8536 361.421 44.9276 360.54 42.7987C359.715 40.8132 359.285 38.6834 359.275 36.5306C359.289 34.1038 359.67 31.6934 360.405 29.3822V29.3974ZM364.545 40.0062C365.36 42.3276 366.584 44.4818 368.158 46.3654C369.688 48.2183 371.585 49.7279 373.728 50.7971C375.891 51.8865 378.281 52.4381 380.699 52.4058C382.714 52.5046 384.726 52.1698 386.603 51.4237C388.48 50.6776 390.177 49.5373 391.583 48.0787C392.988 46.62 394.07 44.8764 394.755 42.9638C395.441 41.0512 395.715 39.0134 395.558 36.9859C395.556 34.5481 395.134 32.1292 394.309 29.8375C393.493 27.5161 392.269 25.3619 390.696 23.4783C389.159 21.6324 387.263 20.124 385.125 19.0466C382.962 17.9558 380.573 17.3992 378.155 17.4227C376.137 17.3215 374.121 17.655 372.242 18.401C370.362 19.147 368.662 20.2883 367.254 21.7489C365.847 23.2095 364.764 24.9558 364.079 26.8713C363.394 28.7869 363.121 30.8277 363.28 32.8578C363.287 35.2965 363.715 37.7154 364.545 40.0062Z" fill="#1C1C1C"/>
</g>
<defs>
<clipPath id="clip0">
<rect width="400" height="54" fill="white"/>
</clipPath>
</defs>
</svg>
