<svg width="416" height="84" viewBox="0 0 416 84" fill="none" xmlns="http://www.w3.org/2000/svg">
<path d="M111.255 81.73H68.1152V2.27051H111.255V16.2363H83.69V34.3601H111.255V48.1113H83.69V67.7588H111.255V81.73Z" fill="#1C1C1C"/>
<path d="M177.099 81.73H136.23V2.27051H151.931V67.7588H177.099V81.73Z" fill="#1C1C1C"/>
<path d="M213.428 2.27051H199.805V81.73H213.428V2.27051Z" fill="#1C1C1C"/>
<path d="M258.35 81.73H242.941V2.27051H257.8L291.167 53.0258V2.27051H306.515V81.73H291.933L258.35 29.4455V81.73Z" fill="#1C1C1C"/>
<path d="M331.497 41.8326C331.497 29.9973 335.547 20.0673 343.648 12.0426C351.748 4.01785 361.747 0.00367078 373.644 3.47529e-05C379.03 -0.00698671 384.363 1.05002 389.329 3.10884C394.363 5.1938 398.937 8.22837 402.795 12.0426C406.803 15.9059 409.994 20.5164 412.184 25.6068C414.37 30.6273 415.498 36.0349 415.498 41.4999C415.525 47.0243 414.487 52.5032 412.438 57.6439C410.435 62.6958 407.452 67.3127 403.656 71.2353C399.773 75.2704 395.099 78.4828 389.918 80.6769C384.738 82.871 379.159 84.0009 373.522 83.9978C367.784 84.0558 362.094 82.961 356.798 80.7799C351.59 78.5829 346.907 75.3313 343.051 71.2353C339.333 67.3384 336.408 62.7724 334.435 57.7857C332.453 52.6963 331.454 47.2852 331.491 41.8326H331.497ZM373.743 16.3676C366.563 16.3676 360.502 18.8092 355.561 23.6924C350.62 28.5756 348.153 34.586 348.16 41.7235C348.16 48.7156 350.702 54.8005 355.787 59.9782C360.872 65.1559 366.784 67.7448 373.522 67.7448C376.878 67.8022 380.207 67.1568 383.292 65.851C386.376 64.5452 389.146 62.6087 391.417 60.1691C396.285 55.1186 398.717 48.8228 398.713 41.2817C398.761 38.0106 398.134 34.7642 396.87 31.7401C395.606 28.7161 393.732 25.9779 391.362 23.6924C389.092 21.3414 386.357 19.4776 383.325 18.2174C380.294 16.9571 377.032 16.3274 373.743 16.3676Z" fill="#1C1C1C"/>
<path d="M0 81.73V2.27051H43.1393V16.2363H15.5172V34.3601H43.1393V48.1113H15.5172V81.73H0Z" fill="#1C1C1C"/>
</svg>
