<svg width="86" height="543" viewBox="0 0 86 543" fill="none" xmlns="http://www.w3.org/2000/svg">
<path d="M21.48 475.48H2.04L2.04 542.44H4.68C4.8 540.28 5.88 535.24 6.84 532.96C8.04 529.96 10.08 529.24 12.72 529.24H74.28C76.92 529.24 79.08 530.08 80.16 532.96C80.76 534.52 81.24 540.28 81.36 542.44H84V503.68H81.36C81.24 505.84 80.16 511.36 79.56 512.8C78.36 515.56 76.32 516.52 73.68 516.52H43.56V505.84C43.56 500.2 45.72 496.72 47.28 495.16C48.96 493.48 55.68 491.68 59.16 491.44V488.2H25.44V491.44C29.88 491.92 34.92 493.48 36.48 495.16C37.92 496.72 40.2 499.72 40.2 505.84V516.52H5.28L5.28 501.52C5.28 497.68 5.4 494.44 5.76 491.56C6.48 486.4 16.2 480.04 21.48 478.72V475.48ZM68.52 371.403H66V374.523H68.52C77.16 374.523 79.2 376.323 79.2 379.683C79.2 381.483 78.84 384.723 73.44 386.163C67.56 387.723 61.68 388.443 55.08 390.243C46.32 392.643 43.2 402.723 42.6 408.363H41.4C39 399.843 33.6 386.163 20.52 386.163C7.44 386.163 2.04 399.723 2.04 411.843L2.04 453.723H4.68C4.8 451.563 5.63999 447.243 6.36 445.083C7.31999 442.083 9.72 441.363 12.36 441.363C23.16 441.363 62.64 441.363 74.04 441.363C76.68 441.363 78.96 442.203 80.04 445.083C80.64 446.643 81.24 451.563 81.36 453.723H84V416.163H81.36C81.24 418.323 80.64 423.363 80.04 424.923C78.96 427.803 76.68 428.643 74.04 428.643C68.88 428.643 57 428.643 44.04 428.643V419.163C44.04 405.243 55.56 403.083 65.04 401.883C78.6 400.083 85.32 395.523 85.32 385.923C85.32 375.363 79.8 371.403 68.52 371.403ZM22.92 400.923C36.6 400.923 40.56 410.643 40.56 421.203V428.643H5.4L5.4 418.083C5.4 408.963 9.24 400.923 22.92 400.923ZM60.96 279.087V282.087C64.56 283.287 74.04 288.207 77.76 291.807C80.76 294.687 80.52 303.087 80.52 311.487C80.52 323.607 79.44 325.767 69.6 325.767H43.2V315.327C43.2 308.847 45.24 306.807 46.92 305.247C48.48 303.807 55.08 301.767 58.56 301.527L58.56 298.287H25.08V301.527C28.2 301.887 34.32 303.447 36.12 305.247C37.56 306.687 39.84 308.607 39.84 315.327V325.767H5.28V311.607C5.28 307.767 5.4 304.527 5.76 301.647C6.48 296.487 15.36 290.127 20.64 288.807V285.567H2.04L2.04 351.687H4.68C4.8 349.527 5.88 344.487 6.84 342.207C8.04 339.207 10.08 338.487 12.72 338.487H74.04C76.8 338.487 78.84 339.327 79.92 342.207C80.64 344.007 81.24 349.527 81.36 351.687H84L84 280.647L60.96 279.087ZM60.6 200.725C47.88 200.725 43.08 207.325 38.4 217.645C35.76 223.045 34.68 228.085 31.44 233.965C27.84 240.565 23.64 244.525 16.32 244.525C6.96 244.525 4.08 236.605 4.08 233.125C4.08 217.045 14.52 211.645 28.08 206.845V204.205L0.839998 204.805V208.885L6.48 212.965C3.24 217.165 0.479995 224.005 0.479995 230.245C0.479995 243.925 9.95999 254.245 22.68 254.245C33.36 254.245 39.96 249.325 44.04 240.085C47.04 233.365 48.36 229.765 51.12 222.925C54 215.725 59.52 211.165 66.84 211.165C75.84 211.165 81.96 215.725 81.96 226.405C81.96 241.285 69.84 248.965 57.12 253.885V256.645L85.2 255.805V251.725L79.56 247.525C82.44 243.925 85.56 237.565 85.56 227.845C85.56 212.365 75.24 200.725 60.6 200.725ZM63.24 104.98L61.56 108.1C72 112.78 79.56 119.62 79.56 134.26C79.56 149.98 64.8 163.06 43.08 163.06C15.84 163.06 3.95999 151.18 3.95999 138.94C3.95999 123.46 16.56 115.3 30.48 110.98V108.1L0.839998 108.58V113.5L6.96 117.1C3.6 120.7 0.479995 128.62 0.479995 135.22C0.479995 159.34 19.32 177.46 44.04 177.46C69.48 177.46 85.8 161.38 85.8 137.74C85.8 119.5 74.4 109.9 63.24 104.98ZM42.48 0.661557C30.72 0.661557 19.68 4.98156 12.6 12.0616C3.83999 21.0616 0.119993 31.2616 0.119993 42.5416C0.119993 54.1816 4.32 64.7416 12.6 72.9016C20.4 80.7016 30.84 84.5416 43.92 84.5416C57 84.5416 67.2 79.6216 74.64 71.7016C81.96 63.9016 85.92 53.9416 85.92 43.0216C85.92 30.6616 81.6 20.9416 74.4 13.1416C65.88 4.38156 54.96 0.661557 42.48 0.661557ZM42.84 15.1816C65.16 15.1816 82.2 23.9416 82.2 42.5416C82.2 61.2616 64.68 70.0216 43.32 70.0216C18.48 70.0216 3.83999 59.5816 3.83999 42.5416C3.83999 22.6216 23.28 15.1816 42.84 15.1816Z" fill="#1C1C1C" fill-opacity="0.2"/>
</svg>
