<svg width="1200" height="128" viewBox="0 0 1200 128" fill="none" xmlns="http://www.w3.org/2000/svg">
<path d="M82.535 101.645L79.025 99.755C73.76 111.5 66.065 120.005 49.595 120.005C31.91 120.005 17.195 103.4 17.195 78.965C17.195 48.32 30.56 34.955 44.33 34.955C61.745 34.955 70.925 49.13 75.785 64.79H79.025L78.485 31.445H72.95L68.9 38.33C64.85 34.55 55.94 31.04 48.515 31.04C21.38 31.04 0.995 52.235 0.995 80.045C0.995 108.665 19.085 127.025 45.68 127.025C66.2 127.025 77 114.2 82.535 101.645ZM199.893 78.29C199.893 65.06 195.033 52.64 187.068 44.675C176.943 34.82 165.468 30.635 152.778 30.635C139.683 30.635 127.803 35.36 118.623 44.675C109.848 53.45 105.528 65.195 105.528 79.91C105.528 94.625 111.063 106.1 119.973 114.47C128.748 122.705 139.953 127.16 152.238 127.16C166.143 127.16 177.078 122.3 185.853 114.2C195.708 104.615 199.893 92.33 199.893 78.29ZM183.558 78.695C183.558 103.805 173.703 122.975 152.778 122.975C131.718 122.975 121.863 103.265 121.863 79.235C121.863 51.29 133.608 34.82 152.778 34.82C175.188 34.82 183.558 56.69 183.558 78.695ZM345.071 125V122.03C342.641 121.895 336.566 120.815 334.946 120.005C331.841 118.52 330.761 116.36 330.761 113.39V44.135C330.761 41.165 331.571 38.6 334.946 37.52C337.376 36.71 342.506 35.9 344.936 35.765V32.795H314.426C314.291 34.28 313.481 39.275 311.321 44.27L286.076 101.51L254.756 32.795H224.381V35.765C228.026 35.9 233.291 36.98 236.531 39.545C239.231 41.705 240.716 45.08 240.716 50.615V100.025C240.716 110.42 239.501 116.36 236.261 118.655C233.021 120.95 226.001 121.76 223.706 122.03V125H264.206V122.03C261.776 121.895 252.596 119.735 250.301 117.845C247.331 115.415 245.711 109.61 245.711 99.35V46.16L271.901 104.75C274.466 110.555 277.436 118.25 279.056 123.515H281.621L316.586 44.27V113.39C316.586 116.495 315.371 118.655 312.266 120.275C310.376 121.22 302.951 121.895 300.521 122.03V125H345.071ZM446.589 54.665C446.589 40.76 433.629 32.795 417.699 32.795H372.474V35.765C374.904 35.9 379.359 36.575 382.734 37.655C386.109 38.735 386.919 41.57 386.919 44.54V113.795C386.919 116.765 385.974 119.33 382.734 120.545C380.979 121.22 375.444 121.895 373.014 122.03V125H416.079V122.03C412.704 121.895 407.169 121.22 405.414 120.545C402.174 119.33 401.229 116.765 401.229 113.795V82.745H411.759C429.174 82.745 446.589 73.025 446.589 54.665ZM429.849 58.04C429.849 64.385 427.284 78.695 407.844 78.695H401.229V36.575H410.409C425.799 36.575 429.849 47.915 429.849 58.04ZM565.672 107.585V104.75H562.162V107.585C562.162 117.305 560.137 119.6 556.357 119.6C554.332 119.6 550.687 119.195 549.067 113.12C547.312 106.505 546.502 99.89 544.477 92.465C541.777 82.61 530.437 79.1 524.092 78.425V77.075C533.677 74.375 549.067 68.3 549.067 53.585C549.067 38.87 533.812 32.795 520.177 32.795H473.062V35.765C475.492 35.9 480.352 36.845 482.782 37.655C486.157 38.735 486.967 41.435 486.967 44.405C486.967 56.555 486.967 100.97 486.967 113.795C486.967 116.765 486.022 119.33 482.782 120.545C481.027 121.22 475.492 121.895 473.062 122.03V125H515.317V122.03C512.887 121.895 507.217 121.22 505.462 120.545C502.222 119.33 501.277 116.765 501.277 113.795C501.277 107.99 501.277 94.625 501.277 80.045H511.942C527.602 80.045 530.032 93.005 531.382 103.67C533.407 118.925 538.537 126.485 549.337 126.485C561.217 126.485 565.672 120.275 565.672 107.585ZM532.462 56.285C532.462 71.675 521.527 76.13 509.647 76.13H501.277V36.575H513.157C523.417 36.575 532.462 40.895 532.462 56.285ZM669.528 99.08H666.153C664.803 103.13 659.268 113.795 655.218 117.98C651.978 121.355 642.528 121.085 633.078 121.085C619.443 121.085 617.013 119.87 617.013 108.8V79.1H628.758C636.048 79.1 638.343 81.395 640.098 83.285C641.718 85.04 644.013 92.465 644.283 96.38H647.928V58.715H644.283C643.878 62.225 642.123 69.11 640.098 71.135C638.478 72.755 636.318 75.32 628.758 75.32H617.013V36.44H632.943C637.263 36.44 640.908 36.575 644.148 36.98C649.953 37.79 657.108 47.78 658.593 53.72H662.238V32.795H587.853V35.765C590.283 35.9 595.953 37.115 598.518 38.195C601.893 39.545 602.703 41.84 602.703 44.81V113.795C602.703 116.9 601.758 119.195 598.518 120.41C596.493 121.22 590.283 121.895 587.853 122.03V125H667.773L669.528 99.08ZM795.62 35.765V32.795H755.39V35.765C758.495 35.9 766.595 38.195 769.16 39.815C772.13 41.705 773.75 48.32 773.75 58.04V103.805L717.32 32.795H689.51V35.765C693.155 35.9 700.715 39.14 703.955 41.705C706.655 43.865 708.275 48.455 708.275 52.37V99.89C708.275 110.42 707.06 116.09 703.82 118.385C702.335 119.465 693.695 121.895 691.265 122.03V125H731.765V122.03C729.335 121.895 720.155 119.6 717.86 117.71C714.89 115.28 713.27 109.475 713.27 99.215V49.805L773.75 125.945H778.745V57.23C778.745 48.32 779.555 41.435 783.2 39.14C785.36 37.79 793.19 35.9 795.62 35.765ZM880.013 98.675C880.013 84.365 872.588 78.965 860.978 73.7C854.903 70.73 849.233 69.515 842.618 65.87C835.193 61.82 830.738 57.095 830.738 48.86C830.738 38.33 839.648 35.09 843.563 35.09C861.653 35.09 867.728 46.835 873.128 62.09H876.098L875.423 31.445H870.833L866.243 37.79C861.518 34.145 853.823 31.04 846.803 31.04C831.413 31.04 819.803 41.705 819.803 56.015C819.803 68.03 825.338 75.455 835.733 80.045C843.293 83.42 847.343 84.905 855.038 88.01C863.138 91.25 868.268 97.46 868.268 105.695C868.268 115.82 863.138 122.705 851.123 122.705C834.383 122.705 825.743 109.07 820.208 94.76H817.103L818.048 126.35H822.638L827.363 120.005C831.413 123.245 838.568 126.755 849.503 126.755C866.918 126.755 880.013 115.145 880.013 98.675ZM949.791 125V122.03C947.361 121.895 941.556 120.68 939.936 120.005C936.831 118.655 935.751 116.495 935.751 113.525V44C935.751 41.03 936.561 38.6 939.936 37.52C942.366 36.71 947.361 35.9 949.791 35.765V32.795H907.401V35.765C909.831 35.9 914.826 37.25 917.256 38.195C920.631 39.545 921.441 41.705 921.441 44.675V114.2C921.441 117.17 920.496 119.465 917.256 120.68C915.501 121.355 909.831 121.895 907.401 122.03V125H949.791ZM1071.73 78.29C1071.73 65.06 1066.87 52.64 1058.9 44.675C1048.78 34.82 1037.3 30.635 1024.61 30.635C1011.52 30.635 999.64 35.36 990.46 44.675C981.685 53.45 977.365 65.195 977.365 79.91C977.365 94.625 982.9 106.1 991.81 114.47C1000.58 122.705 1011.79 127.16 1024.07 127.16C1037.98 127.16 1048.91 122.3 1057.69 114.2C1067.54 104.615 1071.73 92.33 1071.73 78.29ZM1055.39 78.695C1055.39 103.805 1045.54 122.975 1024.61 122.975C1003.55 122.975 993.7 103.265 993.7 79.235C993.7 51.29 1005.44 34.82 1024.61 34.82C1047.02 34.82 1055.39 56.69 1055.39 78.695ZM1041.76 5.65999C1041.76 3.09499 1039.46 0.529993 1036.36 0.529993C1032.98 0.529993 1030.69 1.87999 1028.12 6.33499C1025.15 11.33 1021.91 16.865 1015.03 26.855L1016.92 28.475C1027.72 19.835 1032.85 16.325 1036.9 13.085C1040.14 10.52 1041.76 9.035 1041.76 5.65999ZM1199.9 35.765V32.795H1159.67V35.765C1162.77 35.9 1170.87 38.195 1173.44 39.815C1176.41 41.705 1178.03 48.32 1178.03 58.04V103.805L1121.6 32.795H1093.79V35.765C1097.43 35.9 1104.99 39.14 1108.23 41.705C1110.93 43.865 1112.55 48.455 1112.55 52.37V99.89C1112.55 110.42 1111.34 116.09 1108.1 118.385C1106.61 119.465 1097.97 121.895 1095.54 122.03V125H1136.04V122.03C1133.61 121.895 1124.43 119.6 1122.14 117.71C1119.17 115.28 1117.55 109.475 1117.55 99.215V49.805L1178.03 125.945H1183.02V57.23C1183.02 48.32 1183.83 41.435 1187.48 39.14C1189.64 37.79 1197.47 35.9 1199.9 35.765Z" fill="black" fill-opacity="0.5"/>
</svg>
