<svg width="50" height="432" viewBox="0 0 50 432" fill="none" xmlns="http://www.w3.org/2000/svg">
<path d="M2.73 380.79H1.19V399.62H2.73C2.94 396.4 4.2 391.57 6.51 391.57C7.35 391.57 9.31 391.71 12.81 393.18C18.2 395.42 28.98 400.04 39.41 404.45C23.73 410.26 10.01 415.16 7.07 416.21C6.51 416.42 5.81 416.56 5.32 416.56C3.64 416.56 2.87 412.22 2.73 409.77H1.19V431.47H2.73C2.8 430.14 3.29 428.11 3.99 426.85C4.97 425.17 5.95 424.54 7.42 423.98C13.79 421.67 31.43 415.23 49.56 408.72V406.13C36.4 400.67 15.89 391.85 9.24 388.98C7.07 388 5.18 387.16 4.13 385.34C3.43 384.08 2.8 382.12 2.73 380.79ZM49 328.825H47.46C47.39 330.155 46.9 332.185 46.2 333.445C45.22 335.125 44.17 335.755 42.77 336.315C36.26 338.905 18.48 345.765 0.42 352.905V355.565C13.79 360.885 28.63 366.695 40.67 371.665C43.12 372.715 45.15 373.975 46.13 375.655C46.83 376.915 47.39 379.225 47.46 380.555H49V361.305H47.46C47.32 363.755 46.2 369.215 43.68 369.215C42.7 369.215 41.3 368.935 39.76 368.445C37.66 367.815 35.28 366.975 32.06 365.645V348.425L43.12 344.085C43.68 343.875 44.24 343.805 44.73 343.805C46.48 343.805 47.32 348.425 47.46 350.875H49L49 328.825ZM29.75 349.335V364.735L10.22 357.105L29.75 349.335ZM39.97 270.975H38.5V272.795H39.97C45.01 272.795 46.2 273.845 46.2 275.805C46.2 276.855 45.99 278.745 42.84 279.585C39.41 280.495 35.98 280.915 32.13 281.965C27.02 283.365 25.2 289.245 24.85 292.535H24.15C22.75 287.565 19.6 279.585 11.97 279.585C4.34 279.585 1.19 287.495 1.19 294.565V318.995H2.73C2.8 317.735 3.29 315.215 3.71 313.955C4.27 312.205 5.67 311.785 7.21 311.785C13.51 311.785 36.54 311.785 43.19 311.785C44.73 311.785 46.06 312.275 46.69 313.955C47.04 314.865 47.39 317.735 47.46 318.995H49V297.085H47.46C47.39 298.345 47.04 301.285 46.69 302.195C46.06 303.875 44.73 304.365 43.19 304.365C40.18 304.365 33.25 304.365 25.69 304.365V298.835C25.69 290.715 32.41 289.455 37.94 288.755C45.85 287.705 49.77 285.045 49.77 279.445C49.77 273.285 46.55 270.975 39.97 270.975ZM13.37 288.195C21.35 288.195 23.66 293.865 23.66 300.025V304.365H3.15V298.205C3.15 292.885 5.39 288.195 13.37 288.195ZM49 236.934H47.46C47.39 238.194 46.76 241.204 46.41 242.044C45.71 243.654 44.59 244.214 43.05 244.214H7C5.46 244.214 4.2 243.794 3.64 242.044C3.22 240.784 2.8 238.194 2.73 236.934H1.19V258.914H2.73C2.8 257.654 3.5 255.064 3.99 253.804C4.69 252.054 5.81 251.634 7.35 251.634H43.4C44.94 251.634 46.13 252.124 46.76 253.804C47.11 254.714 47.39 257.654 47.46 258.914H49V236.934ZM35.56 180.286V182.036C37.66 182.736 43.19 185.606 45.36 187.706C47.11 189.386 46.97 194.286 46.97 199.186C46.97 206.256 46.34 207.516 40.6 207.516H25.2V201.426C25.2 197.646 26.39 196.456 27.37 195.546C28.28 194.706 32.13 193.516 34.16 193.376V191.486H14.63V193.376C16.45 193.586 20.02 194.496 21.07 195.546C21.91 196.386 23.24 197.506 23.24 201.426V207.516H3.08V199.256C3.08 197.016 3.15 195.126 3.36 193.446C3.78 190.436 8.96 186.726 12.04 185.956V184.066H1.19V222.636H2.73C2.8 221.376 3.43 218.436 3.99 217.106C4.69 215.356 5.88 214.936 7.42 214.936H43.19C44.8 214.936 45.99 215.426 46.62 217.106C47.04 218.156 47.39 221.376 47.46 222.636H49L49 181.196L35.56 180.286ZM25.41 118.335C6.23 118.335 1.19 134.855 1.19 144.445V166.985H2.73C2.8 165.725 3.15 163.765 3.85 162.085C4.55 160.405 5.88 159.915 7.42 159.915H43.33C44.87 159.915 46.13 160.405 46.76 162.085C47.11 162.995 47.46 165.865 47.46 167.265H49V145.845C49 132.335 41.72 118.335 25.41 118.335ZM25.34 126.945C37.94 126.945 46.97 132.545 46.97 144.865C46.97 150.255 45.01 152.075 41.58 152.495H3.29C3.22 150.955 3.15 148.015 3.15 146.405C3.15 134.645 12.6 126.945 25.34 126.945ZM49 58.6418H47.46C47.39 59.9718 46.9 62.0018 46.2 63.2618C45.22 64.9418 44.17 65.5718 42.77 66.1318C36.26 68.7218 18.48 75.5818 0.42 82.7218V85.3818C13.79 90.7018 28.63 96.5118 40.67 101.482C43.12 102.532 45.15 103.792 46.13 105.472C46.83 106.732 47.39 109.042 47.46 110.372H49V91.1218H47.46C47.32 93.5718 46.2 99.0318 43.68 99.0318C42.7 99.0318 41.3 98.7518 39.76 98.2618C37.66 97.6318 35.28 96.7918 32.06 95.4618V78.2418L43.12 73.9018C43.68 73.6918 44.24 73.6218 44.73 73.6218C46.48 73.6218 47.32 78.2418 47.46 80.6918H49V58.6418ZM29.75 79.1518V94.5518L10.22 86.9218L29.75 79.1518ZM25.41 0.0217279C6.23 0.0217279 1.19 16.5417 1.19 26.1317V48.6717H2.73C2.8 47.4117 3.15 45.4517 3.85 43.7717C4.55 42.0917 5.88 41.6017 7.42 41.6017H43.33C44.87 41.6017 46.13 42.0917 46.76 43.7717C47.11 44.6817 47.46 47.5517 47.46 48.9517H49V27.5317C49 14.0217 41.72 0.0217279 25.41 0.0217279ZM25.34 8.63173C37.94 8.63173 46.97 14.2317 46.97 26.5517C46.97 31.9417 45.01 33.7617 41.58 34.1817H3.29C3.22 32.6417 3.15 29.7017 3.15 28.0917C3.15 16.3317 12.6 8.63173 25.34 8.63173Z" fill="#1C1C1C"/>
</svg>
